<svg width="32" height="32" viewBox="0 0 32 32" fill="none" xmlns="http://www.w3.org/2000/svg">
<g clip-path="url(#clip0_305_297)">
<path fill-rule="evenodd" clip-rule="evenodd" d="M25.9653 4.1622C25.0432 3.56979 23.7982 3.84076 23.2057 4.76283L20.7448 8.59227L24.105 10.7509L26.5659 6.92147C27.1584 5.9994 26.8875 4.7546 25.9653 4.1622ZM21.523 3.68184C22.7126 1.83052 25.195 1.29023 27.0465 2.47965C28.898 3.66907 29.4382 6.15115 28.2485 8.00246L24.7065 13.5145L17.9809 9.19383L21.523 3.68184Z" fill="#14599C"/>
<path fill-rule="evenodd" clip-rule="evenodd" d="M19.0628 7.51172L25.7881 11.8328L17.7174 24.3939C17.3138 25.0221 16.6034 24.9697 16.3877 24.9437C16.0742 24.9059 15.7444 24.7947 15.4499 24.6736C14.8432 24.4242 14.1297 24.0241 13.4726 23.5974C12.8146 23.17 12.1622 22.683 11.6879 22.2391C11.4575 22.0235 11.2248 21.7774 11.0612 21.5227C10.9806 21.3972 10.8821 21.2171 10.8326 20.9988C10.7808 20.7701 10.7686 20.4207 10.9845 20.0848L19.0628 7.51172ZM19.6643 10.2754L12.9687 20.6964C12.9948 20.7222 13.0233 20.7496 13.0545 20.7788C13.4144 21.1156 13.9632 21.5312 14.5619 21.92C15.1616 22.3095 15.7604 22.6389 16.2104 22.8239C16.2501 22.8402 16.2869 22.8547 16.3209 22.8675L23.0244 12.4343L19.6643 10.2754ZM16.6553 22.9599C16.6559 22.9605 16.6472 22.9605 16.6271 22.958C16.6445 22.9581 16.6546 22.9593 16.6553 22.9599Z" fill="#14599C"/>
<path fill-rule="evenodd" clip-rule="evenodd" d="M30.8183 7.30618C31.283 7.60472 31.4176 8.2234 31.1191 8.68804L25.3158 17.7202C25.0173 18.1848 24.3986 18.3195 23.934 18.0209C23.4693 17.7224 23.3347 17.1037 23.6332 16.6391L29.4365 7.60694C29.735 7.14229 30.3537 7.00764 30.8183 7.30618Z" fill="#14599C"/>
<path fill-rule="evenodd" clip-rule="evenodd" d="M25.5009 8.68408C25.7995 8.21944 26.4182 8.08479 26.8828 8.38333L28.4957 9.4196C28.9603 9.71814 29.0949 10.3368 28.7964 10.8015C28.4979 11.2661 27.8792 11.4008 27.4145 11.1022L25.8017 10.0659C25.3371 9.76741 25.2024 9.14873 25.5009 8.68408Z" fill="#14599C"/>
<path fill-rule="evenodd" clip-rule="evenodd" d="M12.421 25.2365L15.8852 23.0858L16.9401 24.7849L13.0545 27.1973C13.0545 27.1974 13.0545 27.1974 13.0545 27.1974C12.3738 27.62 11.6331 27.391 11.2154 27.1219C10.7969 26.8522 10.2892 26.2777 10.3788 25.4925C10.3788 25.4925 10.3788 25.4925 10.3788 25.4925L10.8992 20.9337L12.8863 21.1605L12.421 25.2365Z" fill="#14599C"/>
<path fill-rule="evenodd" clip-rule="evenodd" d="M12.2865 25.4331C12.7511 25.7317 12.8858 26.3504 12.5873 26.815L11.706 28.1866C11.4074 28.6512 10.7888 28.7859 10.3241 28.4874C9.85948 28.1888 9.72483 27.5701 10.0234 27.1055L10.9046 25.7339C11.2032 25.2692 11.8219 25.1346 12.2865 25.4331Z" fill="#14599C"/>
<path fill-rule="evenodd" clip-rule="evenodd" d="M3.45694 10.0311C2.91225 9.87107 2.3579 9.70819 1.86058 9.53726C1.33829 9.35774 1.06041 8.78881 1.23993 8.26651C1.41945 7.74422 1.98838 7.46634 2.51067 7.64586C2.96264 7.80121 3.44814 7.94384 3.9736 8.09821C4.19637 8.16366 4.42633 8.23122 4.66396 8.30275C5.43751 8.5356 6.26349 8.80285 7.02816 9.14689C8.53086 9.82299 10.0655 10.9221 10.3182 12.9362L10.3182 12.9362C10.4505 13.9906 10.0768 15.0792 9.59044 16.0509C9.0929 17.0449 8.39842 18.0673 7.70978 19.0273C7.46418 19.3697 7.22172 19.701 6.98602 20.0231C6.54117 20.631 6.12038 21.206 5.74788 21.7604C5.16725 22.6246 4.82258 23.273 4.72215 23.7174L3.80352 23.5097L4.72215 23.7173C4.72215 23.7173 4.72215 23.7174 4.72215 23.7174C4.53495 24.5457 4.57817 25.1463 4.71747 25.5824C4.85488 26.0127 5.10636 26.3486 5.44822 26.6211C6.16872 27.1955 7.2762 27.4728 8.34799 27.5531C8.89873 27.5944 9.31174 28.0743 9.27047 28.6251C9.22921 29.1758 8.74929 29.5888 8.19855 29.5475C6.98001 29.4562 5.38918 29.1319 4.20147 28.185C3.58922 27.6969 3.08413 27.0422 2.81226 26.1909C2.54226 25.3454 2.5235 24.3732 2.77135 23.2765L2.77135 23.2765C2.96249 22.4307 3.5084 21.5073 4.08779 20.645C4.48154 20.0589 4.94493 19.4255 5.40583 18.7954C5.63571 18.4812 5.86498 18.1678 6.08468 17.8615C6.76537 16.9126 7.38006 15.9986 7.80197 15.1557C8.23504 14.2905 8.39106 13.6417 8.33379 13.1852L9.31103 13.0626L8.33378 13.1852C8.33378 13.1852 8.33379 13.1852 8.33379 13.1852C8.21457 12.2352 7.51436 11.5588 6.20754 10.9708C5.56745 10.6828 4.84499 10.4459 4.08747 10.2179C3.88143 10.1558 3.66992 10.0937 3.45694 10.0311Z" fill="#14599C"/>
</g>
<defs>
<clipPath id="clip0_305_297">
<rect width="32" height="32" fill="white"/>
</clipPath>
</defs>
</svg>
