<svg width="35" height="35" viewBox="0 0 35 35" fill="none" xmlns="http://www.w3.org/2000/svg">
<path fill-rule="evenodd" clip-rule="evenodd" d="M2 16.6846L2 20.7787L12.0685 20.7787L12.0685 16.6846L2 16.6846ZM-3.28449e-08 16.301C-1.4686e-08 15.4073 0.72491 14.6846 1.61702 14.6846L12.4515 14.6846C13.3436 14.6846 14.0685 15.4073 14.0685 16.301L14.0685 21.1623C14.0685 22.056 13.3436 22.7787 12.4515 22.7787L1.61702 22.7787C0.72491 22.7787 -1.49785e-07 22.056 -1.31626e-07 21.1623L-3.28449e-08 16.301Z" fill="#14599C"/>
<path fill-rule="evenodd" clip-rule="evenodd" d="M26.8754 7.07673L27.9348 8.13039L31.5851 4.46753L30.5257 3.41387L26.8754 7.07673ZM25.0125 8.04474C24.4542 7.48941 24.5055 6.62146 25.0179 6.10736L29.5471 1.56251C30.0595 1.04841 30.928 0.99327 31.4864 1.5486L33.448 3.49952C34.0063 4.05485 33.955 4.9228 33.4426 5.4369L28.9134 9.98175C28.401 10.4958 27.5325 10.551 26.9741 9.99566L25.0125 8.04474Z" fill="#14599C"/>
<path fill-rule="evenodd" clip-rule="evenodd" d="M7.5589 22.7861L7.5589 26.8803L17.6274 26.8803L17.6274 22.7861L7.5589 22.7861ZM5.5589 22.261C5.5589 21.4455 6.22039 20.7861 7.03428 20.7861L18.152 20.7861C18.9659 20.7861 19.6274 21.4455 19.6274 22.261L19.6274 27.4054C19.6274 28.2209 18.9659 28.8803 18.152 28.8803L7.03428 28.8803C6.22039 28.8803 5.5589 28.2209 5.5589 27.4054L5.5589 22.261Z" fill="#14599C"/>
<path fill-rule="evenodd" clip-rule="evenodd" d="M2.01321 28.9063L2.01321 33.0004L12.0817 33.0004L12.0817 28.9063L2.01321 28.9063ZM0.0132141 28.3248C0.0132141 27.5404 0.649458 26.9063 1.43219 26.9063L12.6627 26.9063C13.4455 26.9063 14.0817 27.5404 14.0817 28.3248L14.0817 33.5819C14.0817 34.3662 13.4455 35.0004 12.6627 35.0004L1.43219 35.0004C0.649458 35.0004 0.013214 34.3662 0.013214 33.5819L0.0132141 28.3248Z" fill="#14599C"/>
<path fill-rule="evenodd" clip-rule="evenodd" d="M19.6637 22.7861L19.6637 26.8803L29.7322 26.8803L29.7322 22.7861L19.6637 22.7861ZM17.6637 22.4322C17.6637 21.5222 18.4019 20.7861 19.3104 20.7861L30.0855 20.7861C30.994 20.7861 31.7322 21.5222 31.7322 22.4322L31.7322 27.2342C31.7322 28.1443 30.994 28.8803 30.0855 28.8803L19.3104 28.8803C18.4019 28.8803 17.6637 28.1443 17.6637 27.2342L17.6637 22.4322Z" fill="#14599C"/>
<path fill-rule="evenodd" clip-rule="evenodd" d="M14.1345 28.9063L14.1345 33.0004L24.203 33.0004L24.203 28.9063L14.1345 28.9063ZM12.1345 28.2193C12.1345 27.4932 12.7234 26.9063 13.4478 26.9063L24.8896 26.9063C25.614 26.9063 26.203 27.4932 26.203 28.2193L26.203 33.6874C26.203 34.4135 25.614 35.0004 24.8896 35.0004L13.4478 35.0004C12.7234 35.0004 12.1345 34.4135 12.1345 33.6874L12.1345 28.2193Z" fill="#14599C"/>
<path fill-rule="evenodd" clip-rule="evenodd" d="M20.5042 8.63385L18.2466 16.638L26.0846 14.3598C24.2795 12.5978 22.2317 10.4764 20.5042 8.63385ZM26.592 14.8516C26.5925 14.8522 26.5931 14.8527 26.5937 14.8533L26.5937 14.8532C26.5931 14.8527 26.5925 14.8522 26.592 14.8516ZM26.7491 14.1666C26.7492 14.1666 26.7492 14.1666 26.7492 14.1666ZM19.8957 6.34282C20.2296 6.24705 20.9375 6.1662 21.4423 6.70831L21.4423 6.70836C23.4138 8.82613 25.9147 11.4242 27.9804 13.4121C28.2505 13.672 28.3553 13.9916 28.3898 14.2369C28.4249 14.4861 28.3994 14.7288 28.3443 14.9383C28.2551 15.2773 27.9764 15.8927 27.3074 16.0871C27.3073 16.0871 27.3073 16.0871 27.3073 16.0871L17.9589 18.8044L17.9589 18.8044C17.3272 18.988 16.7845 18.6868 16.4945 18.3966C16.2045 18.1063 15.9066 17.567 16.0835 16.9396C16.0835 16.9395 16.0835 16.9395 16.0835 16.9395L18.7772 7.38939L18.7772 7.38936C18.9617 6.73524 19.5505 6.44186 19.8957 6.34282Z" fill="#14599C"/>
<path fill-rule="evenodd" clip-rule="evenodd" d="M27.4213 7.61971C27.8033 8.01849 27.7898 8.65151 27.391 9.0336L22.7791 13.4522C22.3803 13.8343 21.7473 13.8208 21.3652 13.422C20.9832 13.0232 20.9967 12.3902 21.3955 12.0081L26.0074 7.58945C26.4062 7.20737 27.0392 7.22092 27.4213 7.61971Z" fill="#14599C"/>
</svg>
