<svg width="17" height="17" viewBox="0 0 17 17" fill="none" xmlns="http://www.w3.org/2000/svg">
<path fill-rule="evenodd" clip-rule="evenodd" d="M0.292893 14.435C-0.097631 14.8256 -0.097631 15.4587 0.292893 15.8492C0.683417 16.2398 1.31658 16.2398 1.70711 15.8492L8.07114 9.48521L14.4352 15.8492C14.8257 16.2398 15.4589 16.2398 15.8494 15.8492C16.2399 15.4587 16.2399 14.8256 15.8494 14.435L9.48535 8.071L15.8492 1.70711C16.2398 1.31658 16.2398 0.683417 15.8492 0.292893C15.4587 -0.0976312 14.8255 -0.0976309 14.435 0.292893L8.07114 6.65678L1.70725 0.292893C1.31672 -0.0976309 0.683558 -0.0976312 0.293034 0.292893C-0.0974904 0.683417 -0.0974903 1.31658 0.293034 1.70711L6.65692 8.071L0.292893 14.435Z" fill="#E31D1D"/>
</svg>
