<svg width="24" height="24" viewBox="0 0 24 24" fill="none" xmlns="http://www.w3.org/2000/svg">
<g clip-path="url(#clip0_305_381)">
<path fill-rule="evenodd" clip-rule="evenodd" d="M21 6.75V21C21 21.7956 20.6839 22.5587 20.1213 23.1213C19.5587 23.6839 18.7956 24 18 24V22.5C18.3978 22.5 18.7794 22.342 19.0607 22.0607C19.342 21.7794 19.5 21.3978 19.5 21V6.75H16.5C15.9033 6.75 15.331 6.51295 14.909 6.09099C14.4871 5.66903 14.25 5.09674 14.25 4.5V1.5H6C5.60218 1.5 5.22064 1.65804 4.93934 1.93934C4.65804 2.22064 4.5 2.60218 4.5 3V16.5H3V3C3 2.20435 3.31607 1.44129 3.87868 0.87868C4.44129 0.316071 5.20435 0 6 0L14.25 0L21 6.75ZM9.2415 20.499V21.282C9.2415 21.666 9.183 21.987 9.066 22.2435C8.96643 22.4808 8.79824 22.6829 8.583 22.824C8.37097 22.952 8.12712 23.0175 7.8795 23.013C7.63093 23.0176 7.3861 22.9521 7.173 22.824C6.95953 22.6824 6.79256 22.481 6.693 22.245C6.56682 21.9401 6.507 21.6118 6.5175 21.282V20.499C6.5175 20.1135 6.5775 19.7925 6.693 19.5375C6.79231 19.3009 6.9593 19.099 7.173 18.957C7.38513 18.8262 7.63033 18.7591 7.8795 18.7635C8.1435 18.7635 8.3775 18.828 8.583 18.9585C8.79801 19.0992 8.96618 19.3008 9.066 19.5375C9.183 19.7925 9.2415 20.1135 9.2415 20.499V20.499ZM10.446 21.2775V20.508C10.446 19.9425 10.344 19.458 10.1385 19.05C9.94588 18.6532 9.63794 18.3238 9.255 18.105C8.874 17.8845 8.415 17.775 7.8795 17.775C7.347 17.775 6.8865 17.8845 6.4995 18.105C6.11611 18.3212 5.80787 18.6494 5.616 19.0455C5.412 19.452 5.3085 19.9395 5.3085 20.508V21.2775C5.3085 21.84 5.412 22.3275 5.616 22.737C5.8215 23.1435 6.1155 23.457 6.501 23.6775C6.8865 23.8935 7.347 24.0015 7.881 24.0015C8.4165 24.0015 8.874 23.8935 9.255 23.6775C9.639 23.457 9.933 23.1435 10.14 22.737C10.344 22.326 10.446 21.84 10.446 21.2775V21.2775ZM0 17.889V23.889H2.1885C2.7915 23.889 3.291 23.769 3.687 23.532C4.08773 23.2922 4.40066 22.9299 4.5795 22.4985C4.7745 22.0485 4.8735 21.5055 4.8735 20.8725C4.8735 20.2425 4.776 19.7055 4.5795 19.26C4.40238 18.8334 4.0919 18.4755 3.6945 18.24C3.3 18.006 2.7975 17.889 2.1885 17.889H0V17.889ZM1.1865 18.8565H2.031C2.403 18.8565 2.706 18.9315 2.9445 19.0845C3.19206 19.2464 3.37883 19.4859 3.4755 19.7655C3.594 20.067 3.6525 20.4435 3.6525 20.895C3.65715 21.1942 3.62286 21.4927 3.5505 21.783C3.49702 22.012 3.39694 22.2274 3.2565 22.416C3.12599 22.5842 2.95308 22.7147 2.7555 22.794C2.524 22.8806 2.27812 22.9224 2.031 22.917H1.185V18.855L1.1865 18.8565ZM12.3195 19.581C12.2093 19.8851 12.1569 20.2071 12.165 20.5305V21.273C12.165 21.642 12.216 21.9555 12.3195 22.2135C12.4057 22.4506 12.5615 22.6561 12.7665 22.803C12.9805 22.9387 13.2302 23.0071 13.4835 22.9995C13.6917 23.0042 13.8979 22.959 14.085 22.8675C14.2523 22.7824 14.3938 22.6539 14.4945 22.4955C14.5963 22.3304 14.6565 22.143 14.67 21.9495H15.8175V22.0635C15.8032 22.4259 15.6856 22.7767 15.4785 23.0745C15.273 23.3655 14.9985 23.592 14.6535 23.7555C14.2839 23.9247 13.881 24.0088 13.4745 24.0015C12.9345 24.0015 12.4785 23.8935 12.1035 23.6775C11.7291 23.4583 11.4304 23.1302 11.247 22.737C11.052 22.329 10.956 21.8415 10.956 21.273V20.526C10.956 19.9575 11.055 19.4685 11.2515 19.059C11.4465 18.648 11.733 18.3315 12.108 18.1095C12.486 17.886 12.942 17.775 13.4745 17.775C13.803 17.775 14.106 17.823 14.385 17.9205C14.6655 18.0135 14.91 18.15 15.1185 18.3285C15.3291 18.5077 15.5001 18.7288 15.6204 18.9778C15.7408 19.2268 15.8079 19.4981 15.8175 19.7745V19.884H14.67C14.656 19.6824 14.5943 19.4871 14.49 19.314C14.3919 19.1484 14.2503 19.013 14.0805 18.9225C13.8975 18.8231 13.6917 18.773 13.4835 18.777C13.2303 18.7704 12.9813 18.8428 12.771 18.984C12.5653 19.1345 12.4083 19.3421 12.3195 19.581V19.581Z" fill="#2B74B9"/>
</g>
<defs>
<clipPath id="clip0_305_381">
<rect width="24" height="24" fill="white"/>
</clipPath>
</defs>
</svg>
