<svg width="30" height="30" viewBox="0 0 30 30" fill="none" xmlns="http://www.w3.org/2000/svg">
<path d="M27.832 12.2227C27.8029 12.0917 27.746 11.9684 27.6651 11.8612C27.5843 11.7541 27.4813 11.6656 27.3633 11.6016L24.5742 10.0548C24.4247 9.75158 24.2564 9.45804 24.0703 9.17584L24.1289 5.98834C24.13 5.85465 24.1035 5.72217 24.051 5.59917C23.9986 5.47618 23.9214 5.36531 23.8242 5.2735C22.4355 4.0144 20.7932 3.06737 19.0078 2.49616C18.8796 2.45618 18.7444 2.44386 18.611 2.46002C18.4777 2.47618 18.3493 2.52045 18.2344 2.58991L15.5039 4.23053C15.1641 4.21881 14.8359 4.21881 14.4961 4.23053L11.7656 2.58991C11.6507 2.52045 11.5223 2.47618 11.389 2.46002C11.2556 2.44386 11.1204 2.45618 10.9922 2.49616C9.20445 3.06781 7.56144 4.01923 6.17578 5.28522C6.07774 5.37387 5.99983 5.4825 5.94727 5.60378C5.89472 5.72506 5.86874 5.85619 5.87109 5.98834L5.92968 9.17584C5.74218 9.4571 5.57812 9.75006 5.41406 10.0548L2.625 11.6016C2.50866 11.6662 2.40761 11.7551 2.32874 11.8623C2.24987 11.9695 2.19503 12.0924 2.16797 12.2227C1.76949 14.0528 1.76949 15.9473 2.16797 17.7774C2.19708 17.9085 2.25399 18.0317 2.33486 18.1389C2.41573 18.246 2.51867 18.3346 2.63672 18.3985L5.42578 19.9454C5.57529 20.2485 5.74359 20.5421 5.92968 20.8243L5.87109 24.0118C5.87002 24.1455 5.89652 24.278 5.94895 24.401C6.00137 24.5239 6.07859 24.6348 6.17578 24.7266C7.56449 25.9857 9.20681 26.9328 10.9922 27.504C11.1204 27.544 11.2556 27.5563 11.389 27.5401C11.5223 27.5239 11.6507 27.4797 11.7656 27.4102L14.4961 25.7696H15.5039L18.2461 27.4102C18.3886 27.504 18.556 27.5529 18.7266 27.5508C18.8219 27.5467 18.9163 27.531 19.0078 27.504C20.7955 26.9323 22.4386 25.9809 23.8242 24.7149C23.9223 24.6263 24.0002 24.5176 24.0527 24.3964C24.1053 24.2751 24.1313 24.1439 24.1289 24.0118L24.0703 20.8243C24.2578 20.543 24.4219 20.2501 24.5859 19.9454L27.375 18.3985C27.4913 18.3339 27.5924 18.245 27.6713 18.1378C27.7501 18.0306 27.805 17.9077 27.832 17.7774C28.2305 15.9473 28.2305 14.0528 27.832 12.2227V12.2227ZM26.0742 16.9688L23.4141 18.4454C23.2453 18.5435 23.1104 18.6906 23.0273 18.8673C22.8345 19.2667 22.6112 19.6506 22.3594 20.0157C22.2524 20.1795 22.1954 20.3708 22.1953 20.5665L22.2422 23.6016C21.2333 24.4607 20.0782 25.1315 18.832 25.5821L16.2187 24.0118C16.0729 23.9269 15.907 23.8824 15.7383 23.8829H15.668C15.2233 23.918 14.7766 23.918 14.332 23.8829C14.1399 23.8724 13.9488 23.9171 13.7812 24.0118L11.168 25.5821C9.9233 25.1337 8.76852 24.467 7.75781 23.6133L7.80468 20.5665C7.80461 20.3708 7.74761 20.1795 7.64062 20.0157C7.39306 19.6479 7.16993 19.2643 6.97265 18.8673C6.88613 18.693 6.75206 18.5467 6.58594 18.4454L3.92578 16.9688C3.69133 15.6668 3.69133 14.3333 3.92578 13.0313L6.58594 11.5548C6.7547 11.4567 6.88959 11.3095 6.97265 11.1329C7.16545 10.7335 7.38877 10.3495 7.64062 9.98444C7.74761 9.82066 7.80461 9.62928 7.80468 9.43366L7.75781 6.3985C8.76674 5.53943 9.92181 4.86862 11.168 4.41803L13.7812 5.98834C13.9483 6.08427 14.1398 6.12909 14.332 6.11725C14.7766 6.08209 15.2233 6.08209 15.668 6.11725C15.8601 6.12774 16.0512 6.08301 16.2187 5.98834L18.832 4.41803C20.0767 4.86644 21.2315 5.53312 22.2422 6.38678L22.1953 9.43366C22.1954 9.62928 22.2524 9.82066 22.3594 9.98444C22.6069 10.3522 22.8301 10.7359 23.0273 11.1329C23.1139 11.3072 23.2479 11.4534 23.4141 11.5548L26.0742 13.0313C26.3087 14.3333 26.3087 15.6668 26.0742 16.9688V16.9688ZM15 8.43756C13.7021 8.43756 12.4333 8.82245 11.3541 9.54354C10.2749 10.2646 9.43374 11.2896 8.93704 12.4887C8.44034 13.6878 8.31038 15.0073 8.56359 16.2803C8.81681 17.5533 9.44183 18.7227 10.3596 19.6405C11.2774 20.5582 12.4467 21.1833 13.7197 21.4365C14.9927 21.6897 16.3122 21.5597 17.5114 21.063C18.7105 20.5663 19.7354 19.7252 20.4565 18.646C21.1776 17.5668 21.5625 16.298 21.5625 15.0001C21.5625 13.2596 20.8711 11.5904 19.6404 10.3597C18.4097 9.12897 16.7405 8.43756 15 8.43756V8.43756ZM15 19.6876C14.0729 19.6876 13.1666 19.4126 12.3958 18.8976C11.6249 18.3825 11.0241 17.6504 10.6693 16.7939C10.3145 15.9374 10.2217 14.9949 10.4026 14.0856C10.5834 13.1763 11.0299 12.3411 11.6854 11.6855C12.341 11.0299 13.1762 10.5835 14.0855 10.4026C14.9948 10.2218 15.9373 10.3146 16.7938 10.6694C17.6504 11.0242 18.3824 11.625 18.8975 12.3958C19.4126 13.1667 19.6875 14.073 19.6875 15.0001C19.6875 16.2433 19.1936 17.4356 18.3146 18.3146C17.4355 19.1937 16.2432 19.6876 15 19.6876Z" fill="#14599C"/>
</svg>
