<svg width="24" height="24" viewBox="0 0 24 24" fill="none" xmlns="http://www.w3.org/2000/svg">
<path fill-rule="evenodd" clip-rule="evenodd" d="M15.9697 9.21967C16.2626 8.92678 16.7374 8.92678 17.0303 9.21967L21.5303 13.7197C21.8232 14.0126 21.8232 14.4874 21.5303 14.7803L17.0303 19.2803C16.7374 19.5732 16.2626 19.5732 15.9697 19.2803C15.6768 18.9874 15.6768 18.5126 15.9697 18.2197L19.9393 14.25L15.9697 10.2803C15.6768 9.98744 15.6768 9.51256 15.9697 9.21967Z" fill="#14599C"/>
<path fill-rule="evenodd" clip-rule="evenodd" d="M3 4.5C3.41421 4.5 3.75 4.83579 3.75 5.25C3.75 7.43804 4.61919 9.53646 6.16637 11.0836C7.71354 12.6308 9.81196 13.5 12 13.5H21C21.4142 13.5 21.75 13.8358 21.75 14.25C21.75 14.6642 21.4142 15 21 15H12C9.41414 15 6.93419 13.9728 5.10571 12.1443C3.27723 10.3158 2.25 7.83586 2.25 5.25C2.25 4.83579 2.58579 4.5 3 4.5Z" fill="#14599C"/>
</svg>
