<svg width="20" height="16" viewBox="0 0 20 16" fill="none" xmlns="http://www.w3.org/2000/svg">
<path fill-rule="evenodd" clip-rule="evenodd" d="M2.8 1.5C2.08614 1.5 1.5 2.08614 1.5 2.8V13.6C1.5 14.3139 2.08614 14.9 2.8 14.9H17.2C17.9139 14.9 18.5 14.3139 18.5 13.6V2.8C18.5 2.08614 17.9139 1.5 17.2 1.5H2.8ZM0.5 2.8C0.5 1.53386 1.53386 0.5 2.8 0.5H17.2C18.4661 0.5 19.5 1.53386 19.5 2.8V13.6C19.5 14.8661 18.4661 15.9 17.2 15.9H2.8C1.53386 15.9 0.5 14.8661 0.5 13.6V2.8Z" fill="#14599C"/>
<path fill-rule="evenodd" clip-rule="evenodd" d="M0.590427 2.51312C0.748784 2.28689 1.06055 2.23187 1.28677 2.39023L10 8.48952L18.7133 2.39023C18.9395 2.23187 19.2513 2.28689 19.4097 2.51312C19.568 2.73934 19.513 3.05111 19.2868 3.20946L10.2868 9.50946C10.1146 9.62998 9.88547 9.62998 9.71331 9.50946L0.713312 3.20946C0.487087 3.05111 0.43207 2.73934 0.590427 2.51312Z" fill="#14599C"/>
</svg>
