<svg width="15" height="20" viewBox="0 0 15 20" fill="none" xmlns="http://www.w3.org/2000/svg">
<path d="M7.59979 0.740235C6.6545 0.740235 5.73043 1.02055 4.94445 1.54572C4.15847 2.0709 3.54588 2.81735 3.18413 3.69068C2.82238 4.56402 2.72773 5.52501 2.91215 6.45214C3.09657 7.37926 3.55177 8.23089 4.22019 8.89931C4.88861 9.56773 5.74023 10.0229 6.66736 10.2073C7.59449 10.3918 8.55548 10.2971 9.42881 9.93537C10.3021 9.57362 11.0486 8.96102 11.5738 8.17504C12.099 7.38906 12.3793 6.465 12.3793 5.51971C12.3796 4.89197 12.2562 4.27033 12.0161 3.69032C11.776 3.1103 11.424 2.58329 10.9801 2.13942C10.5362 1.69554 10.0092 1.3435 9.42918 1.10342C8.84917 0.863336 8.22753 0.739924 7.59979 0.740235V0.740235ZM7.59979 7.90234C7.12855 7.90234 6.66789 7.7626 6.27607 7.50079C5.88425 7.23899 5.57886 6.86687 5.39852 6.4315C5.21819 5.99613 5.171 5.51707 5.26294 5.05488C5.35487 4.59269 5.5818 4.16815 5.91501 3.83493C6.24823 3.50172 6.67277 3.27479 7.13496 3.18286C7.59714 3.09092 8.07621 3.13811 8.51158 3.31844C8.94695 3.49878 9.31907 3.80417 9.58087 4.19599C9.84268 4.58781 9.98242 5.04847 9.98242 5.51971C9.98273 5.83269 9.92131 6.14266 9.80169 6.43187C9.68206 6.72109 9.50657 6.98387 9.28526 7.20518C9.06395 7.42649 8.80116 7.60198 8.51195 7.72161C8.22273 7.84123 7.91277 7.90265 7.59979 7.90234Z" fill="white"/>
<path d="M14.6428 11.0306C14.5387 10.8447 14.399 10.6813 14.2317 10.5495C14.0644 10.4177 13.8728 10.3202 13.6677 10.2626C13.4627 10.205 13.2484 10.1883 13.0369 10.2136C12.8254 10.2389 12.621 10.3057 12.4354 10.41C9.18119 12.2337 6.01698 12.2337 2.76277 10.41C2.57615 10.3058 2.37084 10.2394 2.15856 10.2146C1.94627 10.1897 1.73117 10.2069 1.52554 10.2652C1.31991 10.3235 1.12777 10.4217 0.960091 10.5542C0.792414 10.6868 0.652484 10.8511 0.548291 11.0377C0.444097 11.2243 0.37768 11.4296 0.352833 11.6419C0.327985 11.8542 0.345194 12.0693 0.403475 12.2749C0.521178 12.6902 0.799036 13.0417 1.17592 13.2521C2.2435 13.858 3.38403 14.3252 4.56987 14.6424L2.26777 16.9445C1.96535 17.247 1.79545 17.6572 1.79545 18.0849C1.79545 18.5126 1.96535 18.9228 2.26777 19.2253C2.57023 19.5277 2.98044 19.6976 3.40816 19.6976C3.83588 19.6976 4.24609 19.5277 4.54855 19.2253L7.59908 16.1629L10.6496 19.2135C10.9521 19.5159 11.3623 19.6858 11.79 19.6858C12.2177 19.6858 12.6279 19.5159 12.9304 19.2135C13.2328 18.911 13.4027 18.5008 13.4027 18.0731C13.4027 17.6453 13.2328 17.2351 12.9304 16.9327L10.6283 14.6306C11.8141 14.3134 12.9547 13.8462 14.0222 13.2403C14.2084 13.1362 14.3721 12.9965 14.5041 12.829C14.6361 12.6615 14.7337 12.4696 14.7913 12.2643C14.849 12.059 14.8655 11.8443 14.84 11.6326C14.8145 11.4209 14.7475 11.2163 14.6428 11.0306V11.0306Z" fill="white"/>
</svg>
