<svg width="33" height="32" viewBox="0 0 33 32" fill="none" xmlns="http://www.w3.org/2000/svg">
<path fill-rule="evenodd" clip-rule="evenodd" d="M4.9025 4.49902H28.0751V11.0069C28.0751 11.5592 27.6274 12.0069 27.0751 12.0069C26.5229 12.0069 26.0751 11.5592 26.0751 11.0069V6.49902H6.9025V25.6717H26.0751V23.5892C26.0751 23.037 26.5229 22.5892 27.0751 22.5892C27.6274 22.5892 28.0751 23.037 28.0751 23.5892V27.6717H4.9025V4.49902Z" fill="#14599C"/>
<path fill-rule="evenodd" clip-rule="evenodd" d="M4.92199 8.99156e-08C5.47427 0.000231892 5.9218 0.448135 5.92157 1.00042L5.92076 2.93484C5.92053 3.48713 5.47262 3.93465 4.92034 3.93442C4.36805 3.93419 3.92053 3.48629 3.92076 2.934L3.92157 0.99958C3.9218 0.447296 4.3697 -0.000231593 4.92199 8.99156e-08ZM9.00081e-08 5.42226C0.000231952 4.86998 0.448135 4.42245 1.00042 4.42268L2.93484 4.4235C3.48713 4.42373 3.93465 4.87163 3.93442 5.42391C3.93419 5.9762 3.48629 6.42373 2.934 6.4235L0.99958 6.42268C0.447295 6.42245 -0.000231712 5.97455 9.00081e-08 5.42226Z" fill="#14599C"/>
<path fill-rule="evenodd" clip-rule="evenodd" d="M27.892 8.99156e-08C28.4442 -0.000231593 28.8921 0.447296 28.8924 0.999581L28.8932 2.934C28.8934 3.48629 28.4459 3.93419 27.8936 3.93442C27.3413 3.93465 26.8934 3.48713 26.8932 2.93484L26.8924 1.00042C26.8921 0.448135 27.3397 0.000231833 27.892 8.99156e-08ZM29.8791 4.4235L31.8135 4.42268C32.3658 4.42245 32.8137 4.86998 32.8139 5.42226C32.8142 5.97455 32.3667 6.42245 31.8144 6.42268L29.8799 6.4235C29.3277 6.42373 28.8798 5.9762 28.8795 5.42391C28.8793 4.87163 29.3268 4.42373 29.8791 4.4235Z" fill="#14599C"/>
<path fill-rule="evenodd" clip-rule="evenodd" d="M3.93442 26.5758C3.93465 27.128 3.48713 27.5759 2.93484 27.5762L1.00042 27.577C0.448135 27.5772 0.000231833 27.1297 8.99156e-08 26.5774C-0.000231593 26.0251 0.447296 25.5772 0.999581 25.577L2.934 25.5762C3.48629 25.5759 3.93419 26.0235 3.93442 26.5758ZM4.92034 28.0652C5.47262 28.065 5.92053 28.5125 5.92076 29.0648L5.92157 30.9992C5.9218 31.5515 5.47427 31.9994 4.92199 31.9997C4.3697 31.9999 3.9218 31.5524 3.92157 31.0001L3.92076 29.0657C3.92053 28.5134 4.36805 28.0655 4.92034 28.0652Z" fill="#14599C"/>
<path fill-rule="evenodd" clip-rule="evenodd" d="M28.8543 26.5758C28.8545 26.0235 29.3024 25.5759 29.8547 25.5762L31.7891 25.577C32.3414 25.5772 32.789 26.0251 32.7887 26.5774C32.7885 27.1297 32.3406 27.5772 31.7883 27.577L29.8539 27.5762C29.3016 27.5759 28.8541 27.128 28.8543 26.5758ZM27.8684 28.0652C28.4207 28.0655 28.8682 28.5134 28.868 29.0657L28.8672 31.0001C28.8669 31.5524 28.419 31.9999 27.8667 31.9997C27.3145 31.9994 26.8669 31.5515 26.8672 30.9992L26.868 29.0648C26.8682 28.5125 27.3161 28.065 27.8684 28.0652Z" fill="#14599C"/>
<path fill-rule="evenodd" clip-rule="evenodd" d="M13.4568 12.3098L19.4566 12.3739C20.0089 12.3779 20.4534 12.8287 20.4494 13.381L20.3853 19.3808C20.3814 19.9331 19.9305 20.3776 19.3782 20.3736C18.826 20.3697 18.3814 19.9188 18.3854 19.3665L18.4323 15.7809L7.44717 26.6106L6.04306 25.1864L17.0282 14.3567L13.4426 14.3098C12.8903 14.3058 12.4458 13.8549 12.4497 13.3027C12.4537 12.7504 12.9045 12.3059 13.4568 12.3098Z" fill="#14599C"/>
</svg>
