<svg width="32" height="32" viewBox="0 0 32 32" fill="none" xmlns="http://www.w3.org/2000/svg">
<path fill-rule="evenodd" clip-rule="evenodd" d="M14.6667 5.25C9.46599 5.25 5.25 9.46599 5.25 14.6667C5.25 19.8673 9.46599 24.0833 14.6667 24.0833C19.8673 24.0833 24.0833 19.8673 24.0833 14.6667C24.0833 9.46599 19.8673 5.25 14.6667 5.25ZM2.75 14.6667C2.75 8.08527 8.08527 2.75 14.6667 2.75C21.2481 2.75 26.5833 8.08527 26.5833 14.6667C26.5833 21.2481 21.2481 26.5833 14.6667 26.5833C8.08527 26.5833 2.75 21.2481 2.75 14.6667Z" fill="#14599C"/>
<path fill-rule="evenodd" clip-rule="evenodd" d="M21.3161 21.3163C21.8043 20.8282 22.5957 20.8282 23.0839 21.3163L28.8839 27.1163C29.372 27.6045 29.372 28.3959 28.8839 28.8841C28.3957 29.3722 27.6043 29.3722 27.1161 28.8841L21.3161 23.0841C20.828 22.5959 20.828 21.8045 21.3161 21.3163Z" fill="#14599C"/>
</svg>
