<svg width="13" height="21" viewBox="0 0 13 21" fill="none" xmlns="http://www.w3.org/2000/svg">
<path d="M0.462275 20.5377C0.166281 20.2416 0 19.8401 0 19.4215C0 19.0028 0.166281 18.6013 0.462275 18.3052L8.27773 10.4897L0.462275 2.67428C0.174669 2.3765 0.0155263 1.97767 0.0191236 1.56369C0.022721 1.14972 0.18877 0.753715 0.481508 0.460978C0.774245 0.16824 1.17025 0.00219354 1.58422 -0.00140381C1.9982 -0.00500116 2.39703 0.15414 2.69481 0.441746L11.6265 9.37347C11.9225 9.66955 12.0888 10.0711 12.0888 10.4897C12.0888 10.9084 11.9225 11.3099 11.6265 11.606L2.69481 20.5377C2.39873 20.8337 1.9972 21 1.57854 21C1.15988 21 0.758358 20.8337 0.462275 20.5377Z" fill="white"/>
</svg>
