<svg width="30" height="30" viewBox="0 0 30 30" fill="none" xmlns="http://www.w3.org/2000/svg">
<path d="M30 0V30H0V0H30ZM2.14286 2.14286V19.2857H4.65402L6.47879 17.4609C6.69085 17.2489 6.94196 17.1429 7.23214 17.1429C7.52232 17.1429 7.77344 17.2489 7.98549 17.4609L10.9487 20.4074L15.0335 4.55357C15.0893 4.3192 15.2121 4.12946 15.4018 3.98437C15.5915 3.83929 15.8147 3.76116 16.0714 3.75C16.3281 3.75 16.5513 3.82254 16.7411 3.96763C16.9308 4.11272 17.0536 4.31362 17.1094 4.57031L18.817 11.5513H21.4286C21.6741 11.5513 21.8917 11.6239 22.0815 11.769C22.2712 11.9141 22.3996 12.1094 22.4665 12.3549L23.6719 17.1429H27.8571V2.14286H2.14286ZM27.8571 27.8571V19.2857H22.8348C22.5781 19.2857 22.3549 19.2132 22.1652 19.0681C21.9754 18.923 21.8527 18.7221 21.7969 18.4654L20.5915 13.6942H17.9799C17.7232 13.6942 17.5 13.6217 17.3103 13.4766C17.1205 13.3315 16.9978 13.1306 16.942 12.8739L16.0379 9.22433L12.5558 22.7679C12.5 23.0022 12.3772 23.192 12.1875 23.3371C11.9978 23.4821 11.7746 23.5603 11.5179 23.5714C11.2277 23.5714 10.9766 23.4654 10.7645 23.2533L7.23214 19.721L5.84263 21.1105C5.63058 21.3225 5.37946 21.4286 5.08929 21.4286H2.14286V27.8571H27.8571Z" fill="#14599C"/>
</svg>
