<svg width="24" height="24" viewBox="0 0 24 24" fill="none" xmlns="http://www.w3.org/2000/svg">
<path d="M17.8767 6.09227C17.4798 5.72734 15.8728 4.55891 12.2907 4.54291C12.2907 4.54291 8.06836 4.28681 6.01001 6.1755C4.86399 7.32152 4.46064 8.99573 4.41903 11.0765C4.37741 13.1541 4.32299 17.0499 8.07797 18.1063L8.08117 18.1063L8.07797 19.7165C8.07797 19.7165 8.05556 20.3695 8.48452 20.5007C9.00311 20.6608 9.31042 20.1646 9.8066 19.63C10.0787 19.3355 10.4532 18.9066 10.7381 18.5768C13.3055 18.7913 15.2806 18.2983 15.5047 18.2247C16.0233 18.055 18.9587 17.6805 19.4357 13.7847C19.9287 9.77682 19.1956 7.23829 17.8767 6.09227ZM18.3121 13.503C17.9088 16.7554 15.5303 16.9602 15.0917 17.1011C14.9061 17.1619 13.171 17.5941 10.9878 17.45C10.9878 17.45 9.36164 19.4123 8.85585 19.9213C8.77582 20.0014 8.68299 20.0334 8.62217 20.0174C8.53573 19.995 8.51012 19.8925 8.51333 19.7421C8.51333 19.5244 8.52613 17.0627 8.52613 17.0627C8.52293 17.0627 8.52293 17.0627 8.52613 17.0627C5.34737 16.1824 5.53304 12.8659 5.56825 11.1309C5.60346 9.39588 5.92998 7.97136 6.89994 7.01421C8.63817 5.43923 12.2267 5.67292 12.2267 5.67292C15.255 5.68572 16.7051 6.59806 17.0412 6.90217C18.1585 7.86252 18.7283 10.1514 18.3121 13.503Z" fill="white"/>
<path d="M13.7663 11.1917C13.6607 11.1917 13.571 11.1085 13.5646 10.9997C13.5294 10.3114 13.2061 9.9753 12.5467 9.94009C12.4346 9.93368 12.3482 9.83765 12.3546 9.72561C12.361 9.61357 12.457 9.52713 12.5691 9.53354C13.4398 9.58155 13.9264 10.0809 13.9712 10.9773C13.9776 11.0893 13.8911 11.1853 13.7791 11.1885C13.7727 11.1917 13.7695 11.1917 13.7663 11.1917Z" fill="white"/>
<path d="M14.8036 11.5371L14.8004 11.5371C14.6884 11.5339 14.5987 11.4411 14.6019 11.3291C14.6179 10.6376 14.4195 10.0774 13.9969 9.61645C13.5775 9.15548 12.9981 8.90579 12.2331 8.85137C12.121 8.84176 12.0378 8.74573 12.0474 8.63369C12.057 8.52165 12.153 8.43842 12.2651 8.44802C13.1294 8.51204 13.8112 8.81295 14.2978 9.34435C14.7876 9.87894 15.0245 10.548 15.0085 11.3387C15.0053 11.4507 14.9124 11.5371 14.8036 11.5371Z" fill="white"/>
<path d="M15.8662 11.9533C15.7542 11.9533 15.6646 11.8636 15.6646 11.7516C15.655 10.5127 15.2996 9.5684 14.5762 8.86094C13.8623 8.16308 12.9564 7.80775 11.8904 7.79815C11.7784 7.79815 11.6887 7.70532 11.6887 7.59328C11.6887 7.48123 11.7816 7.3916 11.8904 7.3916C13.0652 7.40121 14.064 7.79495 14.8547 8.56963C15.6486 9.34432 16.0551 10.4135 16.0679 11.7452C16.0711 11.8604 15.9815 11.9533 15.8662 11.9533C15.8695 11.9533 15.8695 11.9533 15.8662 11.9533Z" fill="white"/>
<path d="M12.5948 13.6983C12.5948 13.6983 12.8797 13.724 13.0334 13.5351L13.3311 13.1605C13.4752 12.9749 13.8241 12.8564 14.1634 13.0453C14.3523 13.1509 14.6948 13.3622 14.9061 13.5191C15.1334 13.6855 15.5943 14.0697 15.5975 14.0729C15.8184 14.2586 15.8696 14.5306 15.7192 14.822C15.7192 14.822 15.7192 14.8252 15.7192 14.8284C15.5655 15.1005 15.3574 15.3566 15.0982 15.5934C15.095 15.5934 15.095 15.5966 15.0917 15.5966C14.8773 15.7759 14.666 15.8783 14.4611 15.9008C14.4355 15.9072 14.4067 15.9072 14.3683 15.9072C14.2787 15.9072 14.189 15.8943 14.0994 15.8655L14.093 15.8559C13.7729 15.7663 13.2415 15.5422 12.358 15.0524C11.7817 14.7355 11.3048 14.4122 10.8982 14.0889C10.6837 13.9192 10.4661 13.7304 10.242 13.5063C10.2356 13.4999 10.226 13.4903 10.2196 13.4839C10.2132 13.4775 10.2036 13.4679 10.1972 13.4615C10.1908 13.4551 10.1812 13.4455 10.1748 13.4391C10.1683 13.4326 10.1587 13.423 10.1523 13.4166C9.93146 13.1926 9.73939 12.9749 9.56973 12.7604C9.24641 12.3571 8.92309 11.8769 8.60618 11.3007C8.1164 10.4139 7.89232 9.88255 7.80268 9.56563L7.79308 9.55923C7.76427 9.4696 7.75146 9.37997 7.75146 9.29033C7.75146 9.25192 7.75146 9.22311 7.75787 9.1975C7.78348 8.98942 7.88591 8.78135 8.06198 8.56687C8.06198 8.56367 8.06518 8.56367 8.06518 8.56047C8.30207 8.29797 8.55816 8.0931 8.83026 7.93944C8.83026 7.93944 8.83346 7.93944 8.83666 7.93944C9.12477 7.78898 9.39687 7.8402 9.58574 8.06108C9.58574 8.06108 9.97308 8.52525 10.1395 8.75254C10.2964 8.96701 10.5077 9.30634 10.6133 9.49521C10.8022 9.83453 10.6837 10.1835 10.4981 10.3275L10.1235 10.6252C9.93466 10.7789 9.96027 11.0638 9.96027 11.0638C9.96027 11.0638 10.5141 13.1702 12.5948 13.6983Z" fill="white"/>
</svg>
