<svg width="19" height="11" viewBox="0 0 19 11" fill="none" xmlns="http://www.w3.org/2000/svg">
<path d="M17.9017 10.3585C17.4801 10.4177 15.4314 10.3585 15.3248 10.3585C14.7951 10.3638 14.2847 10.1605 13.9038 9.79241C13.4703 9.37556 13.0795 8.91609 12.6651 8.48267C12.5392 8.35055 12.4039 8.22785 12.2601 8.11556C11.9214 7.85741 11.5874 7.91662 11.4288 8.31451C11.3045 8.74578 11.2189 9.18726 11.173 9.63372C11.1656 9.82179 11.0839 9.99924 10.9458 10.1271C10.8077 10.255 10.6245 10.3229 10.4364 10.3158C10.1569 10.33 9.87744 10.3371 9.60034 10.33C8.5923 10.3248 7.59978 10.0813 6.70376 9.61951C5.73644 9.07896 4.89329 8.3415 4.22876 7.45478C3.16553 6.05083 2.24667 4.5432 1.48613 2.95478C1.44586 2.87425 0.647704 1.17609 0.628757 1.09793C0.579273 0.986656 0.574548 0.860595 0.615564 0.745926C0.656581 0.631257 0.740186 0.536792 0.84902 0.482144C0.991126 0.42767 3.62244 0.482144 3.66507 0.482144C3.86101 0.480279 4.05242 0.541093 4.21134 0.655709C4.37027 0.770325 4.48841 0.932742 4.54849 1.11925C5.03514 2.35991 5.69973 3.52315 6.52139 4.57241C6.63599 4.71383 6.77087 4.83753 6.92165 4.93951C6.96051 4.97702 7.00868 5.00347 7.06119 5.01613C7.1137 5.02878 7.16863 5.02717 7.22031 5.01147C7.27199 4.99578 7.31853 4.96656 7.35513 4.92684C7.39174 4.88713 7.41706 4.83835 7.42849 4.78557C7.53259 4.44313 7.59384 4.08912 7.61086 3.73162C7.62507 3.02109 7.61086 2.54741 7.5706 1.83688C7.58492 1.59475 7.50317 1.35674 7.3431 1.1745C7.18303 0.99226 6.95756 0.880496 6.7156 0.86346C6.50718 0.827934 6.47876 0.657407 6.62323 0.486881C6.90034 0.133986 7.28402 0.0771443 7.70086 0.0558285C8.33086 0.0203022 8.96323 0.0558285 9.5956 0.0558285H9.73297C10.0106 0.0551382 10.2876 0.0829147 10.5595 0.138723C10.7186 0.171294 10.8628 0.254372 10.9708 0.375579C11.0788 0.496787 11.1447 0.649636 11.1588 0.811354C11.1907 0.990314 11.205 1.17197 11.2014 1.35372C11.1848 2.1282 11.1469 2.90267 11.1374 3.67951C11.1318 3.98635 11.1596 4.2929 11.2203 4.59372C11.3127 5.00583 11.5945 5.11004 11.8835 4.80925C12.2436 4.42277 12.5737 4.00947 12.8711 3.57293C13.4059 2.77808 13.8462 1.92364 14.1832 1.02688C14.3656 0.567407 14.5053 0.465565 15.0003 0.465565H17.7927C17.9593 0.462788 18.1254 0.485144 18.2853 0.531881C18.3418 0.546932 18.3945 0.573427 18.4403 0.609718C18.4861 0.64601 18.5239 0.691325 18.5515 0.74285C18.579 0.794375 18.5957 0.851011 18.6004 0.909242C18.6052 0.967473 18.5979 1.02606 18.579 1.08135C18.4158 1.67551 18.1355 2.23109 17.7548 2.71556C17.1864 3.51846 16.5895 4.30241 16.0069 5.08399C15.9332 5.18625 15.8659 5.29304 15.8056 5.40372C15.5877 5.79688 15.6043 6.01951 15.9193 6.35109C16.4261 6.87214 16.9685 7.36241 17.4564 7.89767C17.8162 8.2877 18.1411 8.70852 18.4274 9.1553C18.7874 9.7332 18.5672 10.2637 17.9017 10.3585V10.3585Z" fill="white"/>
</svg>
