<svg width="547" height="622" viewBox="0 0 547 622" fill="none" xmlns="http://www.w3.org/2000/svg">
<g opacity="0.4">
<path opacity="0.3" d="M268.144 395.486C265.311 387.701 269.324 379.094 277.109 376.26L329.046 357.357L347.95 409.294C350.784 417.079 346.77 425.686 338.985 428.52L287.048 447.423L268.144 395.486Z" fill="white"/>
<path opacity="0.3" d="M10.2606 355.442C4.59383 339.872 12.6214 322.657 28.1908 316.99L87.4017 295.439L108.953 354.65C114.62 370.22 106.592 387.435 91.0226 393.102L31.8116 414.653L10.2606 355.442Z" fill="white"/>
<path opacity="0.2" d="M166.147 280.87C160.481 265.301 168.508 248.086 184.077 242.419L232.538 224.781L250.177 273.242C255.844 288.811 247.816 306.026 232.247 311.693L183.786 329.331L166.147 280.87Z" fill="white"/>
<path opacity="0.4" d="M107.346 599.778C103.568 589.399 108.92 577.922 119.3 574.144L140.866 566.295L148.715 587.861C152.493 598.24 147.141 609.717 136.761 613.495L115.196 621.344L107.346 599.778Z" fill="white"/>
<path opacity="0.4" d="M346.146 486.196C343.313 478.411 347.326 469.804 355.111 466.97L383.079 456.791L393.588 485.664C396.421 493.449 392.407 502.057 384.623 504.89L356.655 515.069L346.146 486.196Z" fill="white"/>
<path opacity="0.4" d="M189.455 29.4049C186.621 21.6203 190.635 13.0127 198.42 10.1793L226.387 -0.00018146L236.896 28.8732C239.73 36.6579 235.716 45.2655 227.931 48.0989L199.964 58.2783L189.455 29.4049Z" fill="white"/>
<path opacity="0.6" d="M264.313 302.119C258.647 286.549 266.674 269.334 282.244 263.667L422.957 212.452L474.172 353.165C479.839 368.734 471.811 385.95 456.242 391.616L315.529 442.832L264.313 302.119Z" fill="white"/>
<path opacity="0.3" d="M26.5633 77.0648C20.8966 61.4955 28.9242 44.2802 44.4935 38.6134L140.766 3.57325L175.806 99.8453C181.473 115.415 173.445 132.63 157.876 138.297L61.6035 173.337L26.5633 77.0648Z" fill="white"/>
<path opacity="0.4" d="M348.628 139.907C342.961 124.337 350.989 107.122 366.558 101.455L437.3 75.7072L463.048 146.449C468.715 162.019 460.687 179.234 445.118 184.901L374.376 210.649L348.628 139.907Z" fill="white"/>
<path opacity="0.2" d="M452.64 476.646C446.973 461.077 455 443.861 470.57 438.194L519.031 420.556L536.669 469.017C542.336 484.586 534.308 501.802 518.739 507.468L470.278 525.107L452.64 476.646Z" fill="white"/>
<path opacity="0.6" d="M108.88 444.998C103.213 429.429 111.241 412.214 126.81 406.547L233.435 367.739L272.243 474.364C277.91 489.933 269.882 507.148 254.313 512.815L147.688 551.623L108.88 444.998Z" fill="white"/>
<path opacity="0.6" d="M19.8016 236.869C14.1349 221.299 22.1625 204.084 37.7318 198.417L178.445 147.202L229.66 287.915C235.327 303.484 227.3 320.7 211.73 326.366L71.017 377.582L19.8016 236.869Z" fill="white"/>
<path opacity="0.6" d="M219.184 122.802C213.518 107.233 221.545 90.0175 237.115 84.3507L350.81 42.9689L392.192 156.664C397.859 172.234 389.831 189.449 374.262 195.116L260.566 236.498L219.184 122.802Z" fill="white"/>
</g>
</svg>
