<svg width="84" height="84" viewBox="0 0 84 84" fill="none" xmlns="http://www.w3.org/2000/svg">
<path d="M0.398201 63.494C0.398201 49.0611 0.398201 34.6283 0.398201 20.1954C0.767161 18.9561 1.60275 18.0749 2.536 17.2198C7.9033 12.2974 13.2511 7.34903 18.5923 2.39627C19.5429 1.51511 20.4697 0.620922 21.722 0.173828H74.7872C77.5023 1.28505 78.1925 2.32465 78.1925 5.29153C78.1925 17.4694 78.2055 29.6473 78.1795 41.8252C78.1752 43.7373 77.982 45.6515 77.8822 47.5636C77.8713 47.7785 77.8973 47.9977 77.9299 48.2104C78.377 51.1664 78.2316 54.1029 77.6239 57.022C76.9663 60.1864 75.7248 63.112 73.8648 65.9921C74.1014 66.1592 74.377 66.3025 74.5854 66.5108C77.0097 68.9199 79.4296 71.3312 81.8365 73.7577C84.1458 76.0843 84.1979 79.5547 81.9754 81.7684C79.7573 83.98 76.2934 83.9084 73.9647 81.5926C71.5425 79.1835 69.1269 76.7658 66.72 74.3393C66.5138 74.131 66.3988 73.8358 66.2403 73.5819C65.9148 73.8336 65.7954 73.8987 65.6804 73.9682C60.719 77.0175 55.3408 78.3783 49.5329 77.8379C41.8368 77.1217 35.6101 73.673 30.8722 67.57C30.4598 67.0382 30.0561 66.8407 29.392 66.8429C21.2814 66.8646 13.1729 66.8537 5.0623 66.8624C3.79698 66.8624 2.57941 66.6541 1.71995 65.6796C1.16651 65.0502 0.830102 64.2298 0.39386 63.494H0.398201ZM58.7266 26.0879C58.7266 24.5252 58.7287 23.0386 58.7266 21.554C58.7222 20.0218 58.3251 19.6159 56.8015 19.6159C39.5753 19.6159 22.347 19.6159 5.1209 19.6159C3.59514 19.6159 3.17409 20.0369 3.17409 21.5388C3.17409 35.0754 3.17409 48.6141 3.17409 62.1506C3.17409 63.646 3.60165 64.0713 5.12524 64.0735C12.613 64.0757 20.1007 64.0735 27.5884 64.0735C27.8663 64.0735 28.1441 64.0453 28.5022 64.0258C28.1636 63.2835 27.8228 62.6888 27.6188 62.0507C27.4148 61.4105 27.0524 61.2716 26.4208 61.2738C20.6976 61.2976 14.9722 61.2911 9.24892 61.2868C6.99392 61.2868 5.94998 60.2472 5.94781 58.0182C5.94781 56.499 5.94781 54.9797 5.94781 53.4605C5.94998 51.238 7.01562 50.1702 9.24024 50.1702C14.3406 50.1702 19.4409 50.1702 24.5413 50.1702C24.8321 50.1702 25.1229 50.1702 25.4376 50.1702C26.0952 41.8425 29.5808 35.0884 36.2981 30.2116C43.0392 25.3174 50.5704 24.1259 58.7266 26.0922V26.0879ZM51.8075 27.9696C38.7658 27.9522 28.2374 38.4568 28.1961 51.5288C28.1571 64.5423 38.6985 75.1423 51.7315 75.1923C64.7254 75.2422 75.4166 64.5749 75.4166 51.5592C75.4166 38.5414 64.8535 27.9891 51.8075 27.9718V27.9696ZM65.1074 11.273H63.9832C59.5904 11.273 55.1976 11.273 50.8048 11.273C38.4923 11.273 26.1821 11.273 13.8696 11.2839C13.5158 11.2839 13.0644 11.336 12.8257 11.5487C10.97 13.2133 9.1556 14.9258 7.33032 16.6273C7.30862 16.649 7.33467 16.7206 7.34335 16.8313C7.68626 16.8313 8.03569 16.8313 8.38295 16.8313C24.4371 16.8313 40.4912 16.827 56.5432 16.8443C57.292 16.8443 58.0386 17.031 58.7895 17.107C58.9762 17.1265 59.2388 17.1222 59.3516 17.0115C61.2225 15.1688 63.0738 13.3067 65.1053 11.273H65.1074ZM16.2071 8.45374C16.5261 8.47328 16.7301 8.49498 16.9342 8.49498C33.7175 8.49498 50.4987 8.49932 67.2821 8.47762C67.6337 8.47762 68.0678 8.28229 68.3239 8.03487C69.8649 6.54817 71.3689 5.02241 72.8795 3.50533C73.0184 3.36643 73.1334 3.20365 73.3114 2.98661C73.0987 2.96708 72.9967 2.94972 72.8925 2.94972C56.2176 2.94972 39.5449 2.94538 22.8701 2.96925C22.4295 2.96925 21.8956 3.1776 21.5657 3.4706C19.8381 4.99419 18.1626 6.57856 16.4697 8.14121C16.3981 8.20632 16.3438 8.2888 16.2049 8.45374H16.2071ZM75.3841 5.16565C75.2951 5.09837 75.2061 5.03109 75.1171 4.96381C74.9478 5.21123 74.8133 5.49338 74.6049 5.7039C70.3727 9.94912 66.1427 14.1943 61.8866 18.4157C61.3657 18.9322 61.0445 19.362 61.3874 20.1346C61.5632 20.5296 61.5003 21.0418 61.5046 21.5019C61.5155 23.1297 61.5307 24.7575 61.496 26.3831C61.4851 26.9061 61.6848 27.1405 62.1427 27.3402C67.7379 29.7645 71.9918 33.669 74.9522 38.995C75.0564 39.1838 75.1844 39.3575 75.3819 39.6657V5.16565H75.3841ZM8.76493 58.4479H26.2428C25.952 56.6096 25.6677 54.8256 25.379 53.0047H8.76493V58.4479ZM72.4628 68.4142C71.1584 69.6991 69.8735 70.9622 68.5322 72.2861C68.9055 72.6464 69.4004 73.1065 69.8779 73.5819C71.9506 75.648 74.0059 77.7316 76.0916 79.7847C77.2202 80.896 78.8783 80.9263 79.9765 79.9171C81.0661 78.9144 81.2549 77.1825 80.2109 76.1125C77.6239 73.456 74.9543 70.8798 72.4628 68.4142Z" fill="#14599C"/>
<path d="M51.8291 30.748C63.3494 30.7828 72.7036 40.1804 72.6385 51.6529C72.5712 63.132 63.191 72.4558 51.751 72.4168C40.2286 72.3755 30.9221 63.0017 30.9742 51.488C31.0262 39.9699 40.3349 30.7155 51.8291 30.7502V30.748ZM33.75 51.5791C33.7566 61.5476 41.8694 69.6626 51.8031 69.6365C61.752 69.6105 69.8778 61.4716 69.8605 51.5488C69.8431 41.5825 61.752 33.5153 51.777 33.5239C41.7912 33.5304 33.7435 41.5912 33.75 51.5791Z" fill="#14599C"/>
<path d="M51.9551 41.7971C51.6556 42.292 51.5101 42.687 51.241 42.9605C48.094 46.1335 44.934 49.2936 41.7652 52.4449C41.0989 53.1091 40.2395 53.1242 39.6752 52.5404C39.1065 51.9544 39.1521 51.1427 39.838 50.4569C42.9741 47.3099 46.1211 44.1759 49.2551 41.0288C49.7478 40.534 50.3425 40.2866 50.935 40.6273C51.3495 40.8639 51.6035 41.3783 51.9572 41.7971H51.9551Z" fill="#14599C"/>
<path d="M43.5926 40.3623C43.9355 40.6445 44.4716 40.8854 44.63 41.276C44.7906 41.6754 44.7559 42.3764 44.4976 42.6802C43.5861 43.7459 42.566 44.7247 41.5394 45.684C41.0055 46.181 40.1895 46.0877 39.699 45.5907C39.2215 45.1067 39.1086 44.3276 39.5774 43.8197C40.5498 42.7671 41.5785 41.7644 42.6138 40.7725C42.8091 40.5859 43.1433 40.5446 43.5948 40.3623H43.5926Z" fill="#14599C"/>
</svg>
