<svg width="75" height="67" viewBox="0 0 75 67" fill="none" xmlns="http://www.w3.org/2000/svg">
<g opacity="0.5">
<path d="M0.245239 24.7826C0.487668 23.3552 0.669974 21.9122 0.984162 20.5003C3.19705 10.586 11.8721 2.41128 21.8757 0.778276C32.8567 -1.01376 43.0174 3.59239 48.8978 13.0452C49.1305 13.4175 49.3884 13.5591 49.8229 13.5805C61.8318 14.1545 72.1806 23.3688 74.1627 35.1838C75.146 41.0466 74.2985 46.6051 71.6434 51.9075C71.496 52.2022 71.4398 52.5998 71.4902 52.9276C71.9557 55.8678 72.458 58.8041 72.9409 61.7423C73.2376 63.544 71.9906 64.7368 70.1753 64.4265C67.2215 63.9203 64.2678 63.4257 61.3082 62.9486C61.0483 62.906 60.7264 62.9777 60.4878 63.1018C48.1045 69.5369 33.0701 65.2275 25.8729 53.3737C25.7293 53.139 25.3647 52.9179 25.0913 52.9024C21.3171 52.691 17.766 51.7019 14.3934 50.0029C14.0249 49.8167 13.5051 49.8148 13.0804 49.8827C10.2158 50.3288 7.35907 50.833 4.49647 51.2868C2.7568 51.5622 1.58926 50.3443 1.88018 48.593C2.37085 45.6315 2.87511 42.6719 3.35027 39.7084C3.39487 39.4253 3.34445 39.0762 3.21451 38.8221C1.64551 35.7462 0.668035 32.5035 0.365484 29.0571C0.351908 28.8922 0.287907 28.7313 0.247179 28.5684C0.247179 27.3077 0.247179 26.0471 0.247179 24.7865L0.245239 24.7826ZM6.66475 46.4344C6.89942 46.4344 7.04488 46.4538 7.18258 46.4305C9.28104 46.0833 11.3814 45.7536 13.4721 45.3696C14.3022 45.2184 15.0276 45.3289 15.7665 45.742C20.3028 48.2827 25.1456 49.0895 30.2637 48.2187C43.2249 46.0096 51.3589 32.5558 47.3171 20.0155C43.8999 9.41262 33.4192 3.13662 22.442 5.11872C12.3783 6.93596 4.76411 15.9175 4.60508 26.1441C4.54302 30.1568 5.46037 33.9212 7.43277 37.416C7.80514 38.0774 7.95059 38.7387 7.81483 39.5009C7.41143 41.7875 7.0507 44.0819 6.66475 46.4324V46.4344ZM50.4532 37.6022H51.1999C53.9577 37.6022 56.7156 37.5983 59.4735 37.6022C60.6081 37.6042 61.4323 38.1375 61.7581 39.0549C62.2798 40.5172 61.2267 41.9524 59.5879 41.9582C55.8623 41.9718 52.1366 41.9718 48.4129 41.9524C47.9552 41.9504 47.6953 42.1133 47.3889 42.4508C46.0778 43.9034 44.7164 45.3095 43.3607 46.7214C43.2424 46.8455 43.0291 46.8785 42.8603 46.9522C42.9263 47.0298 42.9941 47.1074 43.0601 47.1849C46.3474 47.1849 49.6348 47.1849 52.9221 47.1849C55.1466 47.1849 57.3731 47.1714 59.5976 47.1908C61.2228 47.2043 62.2779 48.6589 61.7523 50.1135C61.4207 51.0308 60.61 51.5467 59.4618 51.5467C52.8581 51.5487 46.2543 51.5622 39.6506 51.5351C38.3841 51.5293 37.1196 51.3528 35.8532 51.2597C35.7601 51.2519 35.6592 51.2616 35.5681 51.2888C33.9564 51.7562 32.3467 52.2255 30.7079 52.7046C30.801 52.8364 30.9018 52.9974 31.0182 53.1448C35.2325 58.4511 40.7153 61.337 47.4762 61.6802C51.5781 61.8897 55.4395 60.92 59.0255 58.9069C59.7314 58.5112 60.4238 58.3095 61.2384 58.4976C62.0374 58.6819 62.8558 58.7808 63.6665 58.9127C65.1366 59.1532 66.6067 59.3898 68.1641 59.6438C67.7956 57.4232 67.4756 55.2995 67.0799 53.1894C66.884 52.1402 66.9868 51.2287 67.5279 50.2745C69.1648 47.3847 70.022 44.2428 70.1869 40.9303C70.6795 31.0877 64.611 22.1585 55.2863 19.0147C54.0217 18.5881 52.6971 18.3379 51.2348 17.9636C52.3829 21.3517 52.8193 24.6158 52.6603 28.0156C53.0191 28.0156 53.2809 28.0156 53.5427 28.0156C55.453 28.0156 57.3653 28.0156 59.2757 28.0176C59.5414 28.0176 59.8109 28.0176 60.0689 28.068C61.1938 28.2794 61.9773 29.2763 61.8842 30.3507C61.7872 31.4814 60.9339 32.3464 59.7819 32.3619C57.4119 32.3949 55.0399 32.3677 52.67 32.3929C52.4411 32.3949 52.0687 32.5539 52.0106 32.7246C51.4656 34.3188 50.9749 35.9324 50.4513 37.5964L50.4532 37.6022Z" fill="white"/>
<path d="M24.3116 28.467C24.3116 27.5458 24.3116 26.6245 24.3116 25.7033C24.3155 23.9772 24.9827 23.248 26.7127 23.0754C28.5609 22.8911 29.8254 21.4695 29.7576 19.6542C29.6936 17.9262 28.2972 16.5356 26.5827 16.491C24.8586 16.4464 23.371 17.7381 23.1945 19.439C23.179 19.5825 23.1868 19.7299 23.1751 19.8753C23.0762 21.0991 22.0697 22.0359 20.9176 21.9796C19.7288 21.9214 18.8347 20.9517 18.8269 19.7144C18.7998 15.5562 22.3431 12.0866 26.575 12.1273C30.8223 12.168 34.257 15.7133 34.1019 19.9839C33.9816 23.2848 32.306 25.5889 29.3057 26.8961C28.7878 27.121 28.6385 27.3654 28.656 27.8988C28.6948 29.1342 28.6889 30.3715 28.6618 31.6069C28.6327 32.951 27.661 33.9265 26.4373 33.8955C25.2212 33.8644 24.3427 32.9141 24.3155 31.5934C24.3097 31.3509 24.3155 31.1085 24.3155 30.8661C24.3155 30.067 24.3155 29.266 24.3155 28.467H24.3116Z" fill="white"/>
<path d="M24.3155 38.8897C24.3232 37.7687 25.3201 36.8203 26.4954 36.8223C27.6882 36.8223 28.6734 37.856 28.6598 39.0836C28.6462 40.1697 27.5873 41.1743 26.4605 41.1724C25.2852 41.1685 24.3097 40.129 24.3174 38.8897H24.3155Z" fill="white"/>
</g>
</svg>
