<svg width="190" height="190" viewBox="0 0 190 190" fill="none" xmlns="http://www.w3.org/2000/svg">
<path d="M94.9607 9.28936L94.6079 0.557564C94.606 0.512574 94.57 0.475297 94.5231 0.472727C94.4742 0.470799 94.4337 0.508718 94.4312 0.557564L94.0783 9.28936L93.8129 18.0218C93.7364 20.9326 93.5076 23.8428 93.6368 26.7536C93.6998 28.3057 93.7878 29.8578 93.926 31.4093C93.9928 32.3438 94.0905 33.279 94.2486 34.2128C94.2911 34.5168 94.3296 34.8215 94.3746 35.1261C94.4652 35.1782 94.5533 35.2341 94.6381 35.2945C94.694 34.9339 94.7397 34.574 94.7898 34.2141C94.9479 33.279 95.0462 32.3445 95.1131 31.4093C95.2513 29.8572 95.338 28.3051 95.4016 26.7536C95.5315 23.8428 95.3014 20.9326 95.2249 18.0218L94.9601 9.28936H94.9607Z" fill="#96C8ED"/>
<path d="M95.4017 162.396C95.284 159.485 95.0938 156.574 94.6073 153.664C94.6015 153.627 94.5726 153.596 94.534 153.59C94.4858 153.582 94.4395 153.615 94.4305 153.664C93.9446 156.574 93.7544 159.485 93.6362 162.396C93.5989 163.236 93.5963 164.075 93.6066 164.916C93.6014 167.244 93.7512 169.572 93.8123 171.9L94.0777 180.632L94.4305 189.364C94.4331 189.409 94.4697 189.447 94.5147 189.449C94.5642 189.45 94.6053 189.413 94.6066 189.364L94.9595 180.632L95.2243 171.9C95.2853 169.572 95.4364 167.244 95.4312 164.916C95.4415 164.076 95.4383 163.236 95.401 162.396L95.4017 162.396Z" fill="#96C8ED"/>
<path d="M131.369 157.572C130.348 155.67 129.44 153.703 128.265 151.891C127.098 150.072 125.877 148.286 124.437 146.626C124.416 146.603 124.384 146.593 124.353 146.604C124.312 146.618 124.291 146.662 124.305 146.702C125.021 148.78 125.958 150.731 126.949 152.65C127.932 154.575 129.181 156.345 130.317 158.18L133.751 163.672L137.251 169.126C137.271 169.158 137.314 169.17 137.35 169.152C137.387 169.133 137.401 169.087 137.382 169.05L134.409 163.292L131.369 157.572Z" fill="#96C8ED"/>
<path d="M57.6691 32.3497C58.691 34.2514 59.5991 36.2188 60.7746 38.0312C61.9412 39.8488 63.1623 41.6355 64.6032 43.2956C64.6232 43.3187 64.6559 43.3284 64.6868 43.3174C64.7273 43.3039 64.7485 43.2602 64.7344 43.2191C64.0184 41.1412 63.0813 39.1913 62.0903 37.2715C61.1082 35.3472 59.8581 33.5772 58.7225 31.7423L55.2885 26.2504L51.789 20.7964C51.7671 20.7643 51.7247 20.7521 51.69 20.7701C51.6521 20.79 51.6373 20.8356 51.6566 20.8722L54.6297 26.6302L57.6691 32.3497Z" fill="#96C8ED"/>
<path d="M163.23 134.192L157.738 130.758C155.903 129.622 154.133 128.372 152.209 127.39C150.509 126.513 148.785 125.677 146.97 125C146.844 125.076 146.718 125.15 146.591 125.223C148.134 126.515 149.778 127.633 151.449 128.705C153.262 129.88 155.229 130.788 157.131 131.81L162.85 134.849L168.608 137.823C168.643 137.841 168.686 137.83 168.707 137.796C168.73 137.761 168.72 137.714 168.684 137.691L163.23 134.192Z" fill="#96C8ED"/>
<path d="M25.8089 55.7297L31.3008 59.1637C32.3112 59.7891 33.3022 60.4491 34.3093 61.0796V61.0764L34.3068 61.0211L34.3074 61.0121L34.3048 60.953V60.872C34.3042 60.8495 34.3042 60.8264 34.3042 60.8007C34.3042 60.6657 34.3074 60.5307 34.3145 60.3958C34.3215 60.2659 34.3312 60.1368 34.344 60.0076C34.3575 59.8752 34.3742 59.7428 34.3942 59.611L34.4257 59.4201C33.5856 58.9837 32.7405 58.5583 31.9075 58.111L26.1875 55.0716L20.4295 52.0984C20.3954 52.0805 20.3517 52.0914 20.3311 52.1248C20.308 52.1601 20.3189 52.2071 20.3536 52.2296L25.8076 55.7291L25.8089 55.7297Z" fill="#96C8ED"/>
<path d="M157.131 58.1102C155.229 59.1321 153.261 60.0402 151.449 61.2151L151.028 61.4863L151.026 61.5101C151.025 61.5294 151.023 61.5486 151.021 61.5686C151.018 61.5911 151.016 61.6142 151.014 61.6367L151.007 61.6997C151.005 61.7113 151.004 61.7222 151.004 61.7209C151.003 61.7312 151.003 61.735 151.003 61.7222C151.002 61.7357 151 61.7485 150.999 61.762C150.996 61.958 150.992 62.1534 150.983 62.3488C150.972 62.6207 150.955 62.8925 150.932 63.1638L150.931 63.1779C151.359 62.9665 151.784 62.7499 152.208 62.5313C154.132 61.5486 155.902 60.2992 157.738 59.1636L163.23 55.7296L168.684 52.2301C168.716 52.2082 168.728 52.1658 168.711 52.1311C168.691 52.0938 168.645 52.079 168.608 52.0983L162.85 55.0715L157.13 58.1108L157.131 58.1102Z" fill="#96C8ED"/>
<path d="M31.9082 131.811C33.8093 130.789 35.7766 129.881 37.5897 128.706C38.7555 127.957 39.9098 127.186 41.0249 126.349C40.6682 126.197 40.3167 126.035 39.9696 125.864C38.904 126.341 37.8622 126.858 36.8294 127.391C34.9051 128.373 33.1351 129.623 31.2989 130.759L25.807 134.193L20.353 137.693C20.3208 137.714 20.308 137.756 20.3266 137.792C20.3459 137.829 20.3915 137.844 20.4288 137.824L26.1868 134.851L31.9069 131.812L31.9082 131.811Z" fill="#96C8ED"/>
<path d="M126.949 37.2713C125.958 39.191 125.021 41.1416 124.305 43.2188C124.295 43.2478 124.302 43.2818 124.327 43.3024C124.359 43.3307 124.408 43.3275 124.437 43.2953C125.877 41.6352 127.098 39.8485 128.265 38.0309C129.44 36.2185 130.348 34.2512 131.369 32.3494L134.409 26.63L137.382 20.872C137.4 20.8379 137.389 20.7942 137.356 20.7737C137.32 20.7512 137.273 20.7614 137.251 20.7962L133.751 26.2501L130.317 31.7421C129.181 33.5776 127.932 35.3476 126.949 37.2713Z" fill="#96C8ED"/>
<path d="M62.0896 152.649C63.0807 150.73 64.0177 148.78 64.7337 146.702C64.744 146.673 64.7363 146.64 64.7112 146.619C64.6797 146.591 64.6302 146.594 64.6026 146.626C63.1616 148.285 61.9405 150.072 60.774 151.89C59.5985 153.703 58.691 155.67 57.6684 157.572L54.6291 163.291L51.6559 169.049C51.6386 169.084 51.6495 169.127 51.6829 169.148C51.7183 169.171 51.7652 169.16 51.7877 169.126L55.2872 163.672L58.7212 158.18C59.8575 156.344 61.1069 154.574 62.089 152.649H62.0896Z" fill="#96C8ED"/>
<path d="M17.5804 95.6662C20.4912 95.7427 23.4013 95.9721 26.3128 95.8429C29.2236 95.7253 32.1344 95.5351 35.0452 95.0486C35.0819 95.0428 35.1114 95.0138 35.1185 94.9753C35.1275 94.9264 35.0941 94.8808 35.0452 94.8718C32.1344 94.3859 29.2236 94.1963 26.3128 94.0781C23.402 93.9482 20.4918 94.1777 17.5804 94.2542L8.84856 94.519L0.116768 94.8718C0.0711362 94.8744 0.0338589 94.911 0.0319307 94.956C0.0300026 95.0055 0.0679227 95.0466 0.116768 95.0479L8.84856 95.4008L17.5804 95.6656V95.6662Z" fill="#96C8ED"/>
<path d="M188.923 94.8728L180.191 94.52L171.458 94.2552C168.547 94.1787 165.636 93.9492 162.726 94.079C159.815 94.1967 156.905 94.3869 153.993 94.8728C153.957 94.8792 153.926 94.9075 153.92 94.9467C153.912 94.9949 153.944 95.0405 153.993 95.0489C156.904 95.5348 159.815 95.725 162.726 95.8433C165.636 95.9731 168.547 95.743 171.458 95.6665L180.191 95.4017L188.923 95.0489C188.968 95.047 189.006 95.0103 189.008 94.9647C189.009 94.9159 188.971 94.8747 188.923 94.8728Z" fill="#96C8ED"/>
<path d="M67.5417 22.9034C68.4652 25.6645 69.2448 28.4789 70.3619 31.1699C70.9525 32.607 71.5663 34.0357 72.2264 35.4471C72.6088 36.3019 73.0207 37.1464 73.4886 37.9703C73.6892 38.3489 73.8839 38.7287 74.0947 39.1034C74.1127 39.1356 74.1506 39.1542 74.1898 39.1471C74.238 39.1381 74.2708 39.0912 74.2612 39.043C74.1828 38.6195 74.0863 38.203 73.997 37.7852C73.8261 36.8527 73.5985 35.9413 73.3421 35.0402C72.9404 33.5344 72.4924 32.0459 72.0207 30.5657C71.1466 27.7867 69.9358 25.1297 68.8682 22.4207L65.6335 14.3059L62.3152 6.2207C62.2979 6.17893 62.2503 6.15643 62.2066 6.16993C62.1603 6.18535 62.1346 6.23484 62.1494 6.28112L64.8044 14.6074L67.543 22.9028L67.5417 22.9034Z" fill="#96C8ED"/>
<path d="M121.497 167.018C120.758 164.81 120.103 162.571 119.303 160.385C119.025 159.592 118.734 158.804 118.412 158.027C117.306 155.332 116.131 152.662 114.679 150.093C114.661 150.061 114.624 150.042 114.585 150.049C114.537 150.058 114.505 150.105 114.514 150.154C115.053 153.055 115.869 155.855 116.754 158.631C117.006 159.433 117.291 160.224 117.588 161.01C118.379 163.199 119.317 165.335 120.171 167.502L123.406 175.617L126.725 183.702C126.742 183.744 126.788 183.766 126.833 183.752C126.879 183.737 126.905 183.688 126.89 183.641L124.235 175.315L121.498 167.019L121.497 167.018Z" fill="#96C8ED"/>
<path d="M144.724 138.079C146.305 139.551 148.085 140.787 149.781 142.124L154.885 146.11L160.04 150.038C160.071 150.061 160.115 150.058 160.142 150.029C160.17 149.998 160.168 149.95 160.137 149.921L155.374 145.527L150.561 141.192C148.951 139.755 147.425 138.217 145.701 136.914C143.982 135.605 142.225 134.344 140.303 133.277C140.276 133.263 140.242 133.265 140.217 133.284C140.183 133.311 140.178 133.36 140.205 133.394C141.59 135.101 143.137 136.614 144.725 138.078L144.724 138.079Z" fill="#96C8ED"/>
<path d="M48.8338 56.5269C47.4494 54.8199 45.9018 53.307 44.3149 51.8423C42.7339 50.3698 40.9536 49.1346 39.2588 47.7984L34.1531 43.8117L28.9993 39.8835C28.9684 39.8603 28.9241 39.8635 28.8977 39.8925C28.8688 39.9233 28.8707 39.9709 28.9016 39.9991L33.6647 44.3933L38.4773 48.729C40.0879 50.1661 41.6137 51.7047 43.338 53.0062L43.4621 53.1007L43.6234 53.1302C43.7423 53.1534 43.8612 53.1797 43.9788 53.2087C44.1003 53.2382 44.2218 53.271 44.3413 53.3063C44.4589 53.3411 44.5752 53.3783 44.6909 53.4188C44.8079 53.4593 44.9236 53.503 45.038 53.5493C45.1479 53.5936 45.2559 53.6399 45.3638 53.6894C45.4776 53.7415 45.5907 53.7961 45.7019 53.8533C45.8067 53.9079 45.9108 53.9645 46.0136 54.0236C46.1152 54.0821 46.2154 54.1425 46.3144 54.2055C46.4172 54.2704 46.5175 54.3385 46.6171 54.4086C46.7142 54.4767 46.8093 54.5474 46.9031 54.62C46.997 54.6927 47.0901 54.7679 47.1808 54.845C47.2714 54.9215 47.3601 55.0005 47.4468 55.0815C47.5355 55.1638 47.6217 55.2486 47.7059 55.3354C47.7868 55.4183 47.8672 55.5038 47.9449 55.5899C48.0253 55.6805 48.1043 55.7718 48.1802 55.8656C48.2554 55.9582 48.3286 56.052 48.3993 56.1478C48.4713 56.2448 48.5414 56.3438 48.6089 56.444C48.6526 56.5096 48.6963 56.5758 48.7387 56.6433C48.765 56.6574 48.7985 56.6555 48.8235 56.6356C48.8563 56.6086 48.8614 56.5597 48.8345 56.5263L48.8338 56.5269Z" fill="#96C8ED"/>
<path d="M178.885 109.84C178.893 109.799 178.867 109.758 178.826 109.749L172.504 108.326L166.169 106.978C164.055 106.538 161.965 105.968 159.821 105.704C158.227 105.499 156.627 105.329 155.008 105.271L155.522 106.16C156.857 106.565 158.205 106.895 159.557 107.199C161.663 107.684 163.821 107.864 165.958 108.174L172.372 109.074L178.8 109.899C178.839 109.903 178.875 109.878 178.885 109.84V109.84Z" fill="#96C8ED"/>
<path d="M10.1545 80.0815C10.1455 80.1226 10.1712 80.1637 10.2117 80.1727L16.534 81.5957L22.8692 82.9447C24.983 83.3837 27.0737 83.9538 29.2178 84.2186C31.3606 84.493 33.5143 84.7064 35.7111 84.6691C35.7419 84.6685 35.7702 84.6498 35.7824 84.6196C35.7978 84.5798 35.7773 84.5348 35.7381 84.5194C33.6859 83.7327 31.5888 83.1973 29.482 82.7217C27.3758 82.2371 25.217 82.0572 23.08 81.748L16.6658 80.8482L10.2381 80.023C10.2002 80.0185 10.1629 80.0429 10.1539 80.0815H10.1545Z" fill="#96C8ED"/>
<path d="M136.474 43.7793C135.165 45.4972 133.904 47.2557 132.837 49.1774C132.823 49.2044 132.824 49.2384 132.844 49.2635C132.871 49.2969 132.92 49.3027 132.954 49.2751C134.661 47.8913 136.174 46.343 137.638 44.7562C139.111 43.1751 140.346 41.3949 141.683 39.7L145.669 34.5944L149.597 29.4405C149.62 29.4097 149.617 29.3647 149.588 29.3383C149.557 29.3101 149.509 29.312 149.481 29.3428L145.087 34.1059L140.752 38.9185C139.314 40.5291 137.776 42.0549 136.474 43.7793H136.474Z" fill="#96C8ED"/>
<path d="M52.5647 146.142C53.8739 144.423 55.1349 142.665 56.2018 140.744C56.2172 140.718 56.2153 140.683 56.1947 140.657C56.1677 140.624 56.1182 140.619 56.0855 140.646C54.3784 142.03 52.8655 143.578 51.4008 145.165C49.929 146.746 48.6931 148.526 47.3562 150.221L43.3702 155.327L39.4426 160.481C39.4188 160.512 39.422 160.556 39.451 160.583C39.4818 160.611 39.5294 160.609 39.5589 160.578L43.9525 155.815L48.2875 151.003C49.7253 149.393 51.2632 147.866 52.5647 146.143V146.142Z" fill="#96C8ED"/>
<path d="M109.308 10.6541L107.885 16.9763L106.537 23.3115C106.097 25.4253 105.527 27.5154 105.263 29.6601C104.988 31.8029 104.775 33.956 104.811 36.154C104.812 36.1849 104.831 36.2132 104.861 36.2254C104.901 36.2408 104.946 36.2202 104.961 36.1804C105.748 34.1282 106.284 32.0317 106.759 29.9243C107.243 27.8188 107.423 25.6593 107.733 23.5236L108.632 17.1094L109.457 10.6817C109.462 10.6425 109.437 10.6059 109.398 10.5975C109.357 10.5885 109.316 10.6142 109.308 10.6547L109.308 10.6541Z" fill="#96C8ED"/>
<path d="M82.4614 159.211C82.3997 159.473 82.34 159.736 82.2802 159.999C81.7962 162.104 81.615 164.263 81.3059 166.4L80.4061 172.814L79.5815 179.241C79.5763 179.281 79.6014 179.317 79.64 179.326C79.6811 179.335 79.7216 179.309 79.7312 179.268L81.1548 172.946L82.5032 166.61C82.9422 164.497 83.511 162.406 83.7764 160.262C83.8214 159.912 83.8645 159.562 83.9056 159.211H82.4621H82.4614Z" fill="#96C8ED"/>
<path d="M30.7282 119.118C31.0624 118.981 31.3966 118.842 31.7301 118.702C31.4081 118.229 31.1048 117.742 30.8194 117.24L30.1247 117.46C27.345 118.334 24.688 119.544 21.979 120.612L13.8642 123.847L5.77964 127.166C5.73786 127.183 5.71472 127.23 5.72886 127.274C5.74429 127.32 5.79378 127.346 5.84005 127.331L14.1663 124.676L22.4617 121.938C25.2234 121.014 28.0372 120.235 30.7282 119.117V119.118Z" fill="#96C8ED"/>
<path d="M158.312 70.8041C155.617 71.9102 152.946 73.0844 150.377 74.5363C150.346 74.555 150.327 74.5916 150.334 74.6301C150.343 74.679 150.389 74.7111 150.438 74.7021C153.339 74.1629 156.139 73.3467 158.916 72.4617C161.695 71.5876 164.352 70.3767 167.061 69.3098L175.176 66.0745L183.261 62.7562C183.303 62.7388 183.324 62.6919 183.311 62.6476C183.297 62.6013 183.246 62.5749 183.2 62.5904L174.873 65.2454L166.577 67.9839C163.816 68.9075 161.002 69.6871 158.312 70.8048L158.312 70.8041Z" fill="#96C8ED"/>
<path d="M115.042 37.7854C114.953 38.2032 114.857 38.6197 114.779 39.0432C114.772 39.0792 114.788 39.1178 114.822 39.137C114.865 39.1608 114.919 39.146 114.944 39.103C115.155 38.7289 115.349 38.3484 115.55 37.9705C116.018 37.1472 116.43 36.3021 116.813 35.4466C117.473 34.0352 118.087 32.6065 118.677 31.1694C119.794 28.4784 120.574 25.6646 121.498 22.9029L124.235 14.6076L126.89 6.28131C126.904 6.2376 126.883 6.19004 126.84 6.17269C126.794 6.15405 126.743 6.1759 126.725 6.22025L123.406 14.3055L120.171 22.4203C119.103 25.1293 117.892 27.7862 117.018 30.5653C116.547 32.0454 116.098 33.5333 115.697 35.0385C115.441 35.9402 115.212 36.8522 115.041 37.7848L115.042 37.7854Z" fill="#96C8ED"/>
<path d="M74.5253 150.154C74.5311 150.117 74.515 150.079 74.4809 150.059C74.4379 150.035 74.3833 150.05 74.3588 150.093C72.907 152.662 71.7327 155.332 70.626 158.027C70.3034 158.803 70.0135 159.592 69.7359 160.384C68.935 162.57 68.2801 164.81 67.5417 167.018L64.8031 175.314L62.1481 183.64C62.1346 183.684 62.1564 183.731 62.1989 183.749C62.2432 183.767 62.2953 183.746 62.3139 183.701L65.6322 175.616L68.8669 167.501C69.7211 165.335 70.6581 163.198 71.45 161.009C71.7469 160.222 72.031 159.432 72.2829 158.63C73.1673 155.855 73.9848 153.054 74.524 150.153L74.5253 150.154Z" fill="#96C8ED"/>
<path d="M38.4773 141.192L33.6647 145.528L28.9016 149.922C28.8733 149.948 28.8688 149.993 28.8926 150.024C28.9177 150.056 28.9652 150.064 28.9987 150.038L34.1525 146.11L39.2582 142.124C40.953 140.787 42.7333 139.551 44.3143 138.079C45.9018 136.614 47.4488 135.102 48.8332 133.395C48.8525 133.371 48.857 133.337 48.8409 133.308C48.8203 133.272 48.7728 133.257 48.7361 133.278C46.8144 134.345 45.0554 135.606 43.3374 136.916C41.613 138.217 40.0872 139.755 38.4766 141.193L38.4773 141.192Z" fill="#96C8ED"/>
<path d="M145.701 53.0057C147.425 51.7042 148.951 50.1656 150.561 48.7285L155.374 44.3928L160.137 39.9986C160.166 39.9723 160.17 39.9286 160.146 39.8971C160.121 39.8637 160.073 39.8573 160.039 39.883L154.885 43.8112L149.78 47.7979C148.084 49.1341 146.305 50.3693 144.723 51.8418C144.313 52.2203 143.906 52.6014 143.504 52.989L143.648 52.9948C143.777 53.0019 143.907 53.0115 144.036 53.0243C144.168 53.0378 144.301 53.0546 144.432 53.0745C144.562 53.0944 144.689 53.1175 144.817 53.1439C144.943 53.1702 145.069 53.1985 145.193 53.2307L145.349 53.2724L145.7 53.0057H145.701Z" fill="#96C8ED"/>
<path d="M22.8692 106.977L16.534 108.325L10.2117 109.748C10.1738 109.757 10.1481 109.793 10.1526 109.833C10.1584 109.874 10.197 109.904 10.2381 109.899L16.6658 109.074L23.08 108.174C25.1225 107.879 27.1856 107.701 29.2037 107.262L30.1709 105.587C29.8528 105.624 29.5353 105.663 29.2178 105.704C27.0744 105.969 24.983 106.538 22.8692 106.978V106.977Z" fill="#96C8ED"/>
<path d="M165.958 81.7471C163.822 82.0562 161.663 82.2368 159.558 82.7208C157.451 83.1964 155.354 83.7318 153.301 84.5184C153.273 84.5294 153.252 84.557 153.252 84.5891C153.252 84.6316 153.285 84.6675 153.328 84.6682C155.526 84.7055 157.679 84.4921 159.822 84.2176C161.966 83.9529 164.057 83.3834 166.17 82.9438L172.505 81.5948L178.827 80.1718C178.865 80.1628 178.891 80.1275 178.886 80.0876C178.881 80.0465 178.843 80.0169 178.802 80.0221L172.374 80.8473L165.96 81.7471H165.958Z" fill="#96C8ED"/>
<path d="M47.3562 39.7007C48.6924 41.3956 49.929 43.1759 51.4008 44.7569C52.8655 46.3444 54.3784 47.8927 56.0855 49.2758C56.1092 49.2951 56.1433 49.2989 56.1716 49.2835C56.2095 49.2629 56.2224 49.2154 56.2012 49.1774C55.1343 47.2557 53.8733 45.498 52.5641 43.7794C51.2626 42.055 49.7246 40.5292 48.2869 38.9186L43.9518 34.106L39.5583 29.3429C39.5313 29.314 39.487 29.3101 39.4561 29.3339C39.4227 29.359 39.4163 29.4065 39.4426 29.4406L43.3702 34.5945L47.3562 39.7001V39.7007Z" fill="#96C8ED"/>
<path d="M141.682 150.222C140.346 148.527 139.11 146.747 137.638 145.166C136.173 143.578 134.661 142.031 132.954 140.647C132.929 140.628 132.895 140.624 132.867 140.639C132.83 140.66 132.816 140.708 132.837 140.745C133.904 142.666 135.165 144.424 136.474 146.143C137.775 147.867 139.314 149.393 140.751 151.003L145.087 155.816L149.48 160.579C149.506 160.607 149.55 160.612 149.582 160.588C149.615 160.563 149.622 160.514 149.596 160.481L145.668 155.327L141.682 150.221V150.222Z" fill="#96C8ED"/>
<path d="M82.5032 23.3108L81.1548 16.9757L79.7312 10.6534C79.7222 10.6155 79.6869 10.5898 79.6477 10.5943C79.6059 10.6 79.5763 10.6386 79.5815 10.6797L80.406 17.1074L81.3058 23.5216C81.615 25.658 81.7962 27.8175 82.2802 29.9223C82.7551 32.0291 83.2905 34.1256 84.0772 36.1784C84.0881 36.2073 84.1157 36.2279 84.1485 36.2286C84.1903 36.2292 84.2263 36.1945 84.2269 36.1521C84.2642 33.954 84.0508 31.801 83.7757 29.6582C83.5103 27.5135 82.9415 25.4234 82.5026 23.3095L82.5032 23.3108Z" fill="#96C8ED"/>
<path d="M107.733 166.4C107.423 164.264 107.244 162.104 106.76 160C106.284 157.893 105.749 155.796 104.962 153.743C104.952 153.715 104.924 153.694 104.892 153.693C104.849 153.693 104.813 153.727 104.813 153.77C104.776 155.967 104.99 158.121 105.264 160.264C105.529 162.408 106.098 164.499 106.538 166.612L107.886 172.948L109.31 179.27C109.318 179.307 109.354 179.333 109.394 179.328C109.435 179.323 109.465 179.286 109.459 179.243L108.634 172.816L107.735 166.402L107.733 166.4Z" fill="#96C8ED"/>
<path d="M183.26 127.166L175.175 123.847L167.06 120.612C164.351 119.544 161.694 118.334 158.915 117.46C157.633 117.051 156.346 116.658 155.046 116.299C154.851 116.687 154.644 117.068 154.426 117.441C155.71 118.032 157.007 118.583 158.312 119.118C161.002 120.235 163.816 121.015 166.577 121.939L174.873 124.677L183.2 127.332C183.243 127.346 183.29 127.324 183.308 127.281C183.326 127.236 183.304 127.184 183.26 127.166V127.166Z" fill="#96C8ED"/>
<path d="M5.77966 62.7564L13.8642 66.0747L21.979 69.3101C24.688 70.3776 27.345 71.5885 30.1247 72.4619C32.8999 73.3469 35.7001 74.1632 38.602 74.7024C38.6386 74.7095 38.6765 74.6928 38.6958 74.6587C38.7202 74.615 38.7048 74.561 38.6617 74.5366C36.0922 73.0847 33.4224 71.9105 30.7282 70.8044C28.0372 69.6867 25.2234 68.9071 22.4617 67.9836L14.1663 65.245L5.84007 62.59C5.79637 62.5765 5.74881 62.5977 5.73146 62.6408C5.71282 62.6864 5.73467 62.7378 5.77966 62.7558V62.7564Z" fill="#96C8ED"/>
<path d="M87.1108 18.377C87.2875 21.2833 87.3132 24.2031 87.6956 27.0908C87.8936 28.632 88.1166 30.1706 88.3891 31.7041C88.5376 32.629 88.7169 33.5513 88.9553 34.4684C89.0517 34.8862 89.1404 35.3039 89.2484 35.7204C89.2567 35.7564 89.2882 35.784 89.3274 35.7872C89.3763 35.7911 89.4193 35.7538 89.4232 35.705C89.456 35.2769 89.4721 34.8502 89.4933 34.4228C89.5697 33.478 89.5852 32.5384 89.571 31.6019C89.5723 30.0434 89.5254 28.4893 89.4521 26.9372C89.3281 24.0264 88.8461 21.1471 88.5157 18.2543L87.4912 9.57837L86.3787 0.91021C86.3723 0.865221 86.3331 0.831158 86.2868 0.833086C86.238 0.835657 86.2 0.87679 86.2026 0.925635L86.612 9.65486L87.1095 18.377H87.1108Z" fill="#96C8ED"/>
<path d="M101.928 171.545C101.786 169.221 101.734 166.888 101.525 164.57C101.462 163.732 101.387 162.896 101.276 162.062C100.904 159.173 100.461 156.29 99.7239 153.433C99.7149 153.397 99.6834 153.37 99.6448 153.367C99.596 153.362 99.5529 153.399 99.5478 153.448C99.3177 156.391 99.3819 159.306 99.5182 162.216C99.5542 163.056 99.6242 163.893 99.7078 164.73C99.9057 167.049 100.259 169.355 100.522 171.668L101.547 180.344L102.66 189.012C102.666 189.057 102.705 189.091 102.751 189.089C102.8 189.087 102.838 189.046 102.835 188.997L102.426 180.267L101.928 171.545Z" fill="#96C8ED"/>
<path d="M67.2409 155.257C68.061 153.259 68.8245 151.234 69.3573 149.102C69.365 149.072 69.3541 149.04 69.3284 149.021C69.2931 148.995 69.2455 149.003 69.2204 149.038C67.9292 150.817 66.8694 152.702 65.8649 154.616C64.852 156.524 64.1186 158.563 63.2664 160.547L60.7374 166.51L58.2771 172.505C58.2629 172.541 58.2771 172.583 58.3124 172.601C58.3491 172.621 58.3953 172.606 58.4146 172.569L61.4257 166.83L64.3674 161.06C65.3391 159.132 66.4304 157.26 67.2403 155.257H67.2409Z" fill="#96C8ED"/>
<path d="M121.798 34.6642C120.978 36.663 120.215 38.6881 119.681 40.82C119.675 40.8496 119.685 40.8823 119.711 40.901C119.745 40.926 119.794 40.919 119.819 40.8843C121.11 39.1053 122.17 37.2196 123.174 35.3062C124.187 33.398 124.92 31.3587 125.772 29.3753L128.302 23.4123L130.762 17.4172C130.776 17.3818 130.762 17.3394 130.727 17.3214C130.689 17.3015 130.644 17.3163 130.624 17.3529L127.613 23.091L124.671 28.8618C123.699 30.7893 122.609 32.6615 121.798 34.6642Z" fill="#96C8ED"/>
<path d="M35.3582 137.128C37.1629 135.945 39.0435 134.869 40.7479 133.539C42.4569 132.218 44.1305 130.847 45.6582 129.267C45.6801 129.245 45.6871 129.211 45.6736 129.182C45.6563 129.142 45.6107 129.125 45.5714 129.142C43.5643 130.037 41.703 131.141 39.8771 132.296C38.0454 133.442 36.3917 134.841 34.6615 136.133L29.4897 140.032L24.3615 143.993C24.3307 144.018 24.323 144.061 24.3435 144.095C24.366 144.13 24.4136 144.141 24.4483 144.119L29.9254 140.655L35.3589 137.128H35.3582Z" fill="#96C8ED"/>
<path d="M153.681 52.7934C152.185 53.7742 150.637 54.6811 149.181 55.719L149.269 55.8232C149.349 55.9202 149.426 56.0192 149.502 56.1201C149.577 56.2197 149.649 56.3219 149.719 56.4254C149.79 56.5301 149.858 56.6362 149.924 56.7442C149.98 56.8354 150.033 56.9273 150.084 57.0205C151.56 56.0063 152.943 54.8604 154.379 53.7884L159.55 49.8891L164.678 45.9274C164.708 45.9036 164.717 45.8599 164.696 45.8265C164.674 45.7912 164.627 45.7802 164.591 45.8027L159.115 49.2669L153.682 52.7928L153.681 52.7934ZM144.013 60.0207C143.799 60.2283 143.589 60.4397 143.381 60.655C143.36 60.6775 143.353 60.7109 143.366 60.7399C143.383 60.7791 143.429 60.7964 143.468 60.7791C143.738 60.6595 144.004 60.5355 144.268 60.4089L144.253 60.3729C144.246 60.3568 144.239 60.3414 144.231 60.3253C144.223 60.3092 144.215 60.2932 144.206 60.2771C144.198 60.263 144.191 60.2488 144.182 60.2353C144.173 60.2212 144.164 60.207 144.155 60.1929C144.145 60.1781 144.135 60.1633 144.124 60.1486C144.114 60.1351 144.104 60.1216 144.093 60.1087C144.081 60.0946 144.069 60.0798 144.056 60.0663C144.044 60.0522 144.031 60.0387 144.017 60.0252L144.012 60.02L144.013 60.0207Z" fill="#96C8ED"/>
<path d="M22.6506 61.8672L28.4208 64.8089C30.3483 65.7807 32.2205 66.872 34.2238 67.6824C34.7174 67.8849 35.2129 68.0848 35.711 68.2776C35.6243 68.0835 35.542 67.8874 35.4642 67.6901C35.3717 67.4562 35.2856 67.2197 35.2052 66.9812C35.1397 66.7846 35.0773 66.5853 35.0195 66.3861L34.8659 66.3051C32.9577 65.2922 30.9184 64.5595 28.9356 63.7067L22.9726 61.1776L16.9775 58.7173C16.9421 58.7032 16.8997 58.7173 16.8817 58.7527C16.8618 58.7893 16.8759 58.8356 16.9132 58.8549L22.6513 61.8659L22.6506 61.8672Z" fill="#96C8ED"/>
<path d="M166.388 128.055L160.618 125.113C158.69 124.141 156.818 123.05 154.815 122.239C153.809 121.827 152.796 121.428 151.766 121.066C151.521 121.336 151.27 121.598 151.012 121.854C152.048 122.48 153.108 123.057 154.174 123.617C156.083 124.63 158.121 125.363 160.105 126.214L166.068 128.744L172.063 131.204C172.099 131.218 172.141 131.204 172.159 131.168C172.178 131.131 172.164 131.086 172.127 131.066L166.388 128.055Z" fill="#96C8ED"/>
<path d="M52.3526 35.7992C53.5358 37.6046 54.6117 39.4852 55.9402 41.189C57.2616 42.8979 58.6331 44.5715 60.2129 46.0992C60.2354 46.1211 60.2695 46.1281 60.2984 46.1147C60.3376 46.0973 60.3549 46.051 60.3376 46.0125C59.4429 44.0053 58.3388 42.144 57.1845 40.3181C56.0379 38.4864 54.6387 36.8321 53.3469 35.1032L49.4476 29.9313L45.486 24.8032C45.4628 24.7723 45.4185 24.764 45.3857 24.7852C45.3497 24.8077 45.3394 24.8546 45.3619 24.89L48.8261 30.3671L52.3526 35.8005V35.7992Z" fill="#96C8ED"/>
<path d="M136.687 154.122C135.503 152.317 134.427 150.436 133.098 148.732C131.777 147.023 130.406 145.35 128.826 143.822C128.804 143.8 128.771 143.793 128.741 143.807C128.702 143.824 128.684 143.87 128.702 143.909C129.597 145.917 130.7 147.777 131.854 149.603C133.001 151.435 134.4 153.089 135.692 154.818L139.591 159.99L143.553 165.118C143.577 165.149 143.621 165.157 143.654 165.136C143.689 165.114 143.7 165.067 143.677 165.031L140.213 159.554L136.687 154.121V154.122Z" fill="#96C8ED"/>
<path d="M171.104 87.5521C168.198 87.7288 165.278 87.7546 162.39 88.137C159.501 88.5084 156.618 88.9513 153.761 89.6891C153.725 89.6987 153.697 89.7302 153.693 89.7694C153.689 89.8183 153.726 89.8613 153.775 89.8652C156.717 90.0953 159.633 90.031 162.543 89.8948C165.454 89.7707 168.334 89.288 171.227 88.9577L179.903 87.9332L188.571 86.8207C188.616 86.8149 188.65 86.7751 188.647 86.7288C188.646 86.6799 188.605 86.6427 188.555 86.6446L179.825 87.054L171.104 87.5515V87.5521Z" fill="#96C8ED"/>
<path d="M17.9351 102.37C20.8414 102.192 23.7606 102.167 26.6489 101.785C28.7551 101.514 30.858 101.205 32.9506 100.771L33.4256 99.9488C31.1048 99.8569 28.7975 99.9193 26.4947 100.027C23.5839 100.151 20.7045 100.634 17.8117 100.964L9.13584 101.988L0.467675 103.101C0.422686 103.107 0.38798 103.147 0.389908 103.193C0.392479 103.241 0.433611 103.279 0.483099 103.277L9.21232 102.867L17.9345 102.37H17.9351Z" fill="#96C8ED"/>
<path d="M102.66 0.91014L101.547 9.5783L100.522 18.2542C100.192 21.147 99.7103 24.0263 99.5856 26.9371C99.5137 28.4893 99.4648 30.0433 99.468 31.6019C99.4533 32.5383 99.4693 33.4779 99.5458 34.4227C99.5677 34.8501 99.5824 35.2769 99.6159 35.7049C99.6191 35.7422 99.6448 35.775 99.6821 35.784C99.7303 35.7968 99.7791 35.7679 99.792 35.7203C99.8987 35.3045 99.988 34.8867 100.084 34.4696C100.323 33.5525 100.502 32.6296 100.651 31.7041C100.922 30.1699 101.146 28.6313 101.343 27.0907C101.727 24.2031 101.752 21.2832 101.929 18.3769L102.426 9.65479L102.836 0.925565C102.838 0.879933 102.805 0.838799 102.759 0.833658C102.71 0.827873 102.666 0.861294 102.66 0.91014H102.66Z" fill="#96C8ED"/>
<path d="M89.4245 153.368C89.3763 153.355 89.3281 153.384 89.3152 153.432C88.5774 156.289 88.1346 159.173 87.7631 162.062C87.6526 162.895 87.5761 163.732 87.5131 164.569C87.3049 166.888 87.2522 169.22 87.1108 171.545L86.6133 180.266L86.2039 188.996C86.202 189.042 86.2354 189.081 86.281 189.088C86.3292 189.094 86.3742 189.06 86.3807 189.011L87.4932 180.343L88.5176 171.667C88.7812 169.354 89.1346 167.048 89.3326 164.729C89.4155 163.893 89.4856 163.055 89.5222 162.215C89.6584 159.305 89.7221 156.39 89.4926 153.447C89.4894 153.41 89.4637 153.377 89.4258 153.368H89.4245Z" fill="#96C8ED"/>
<path d="M125.772 160.546C124.92 158.562 124.187 156.523 123.174 154.615C122.17 152.702 121.111 150.816 119.819 149.037C119.801 149.013 119.769 148.999 119.738 149.007C119.696 149.018 119.671 149.059 119.68 149.101C120.214 151.233 120.977 153.258 121.797 155.256C122.608 157.259 123.699 159.131 124.67 161.059L127.612 166.83L130.623 172.568C130.642 172.602 130.684 172.618 130.72 172.603C130.759 172.588 130.777 172.543 130.761 172.504L128.301 166.509L125.772 160.546Z" fill="#96C8ED"/>
<path d="M63.2657 29.3765C64.118 31.3599 64.8513 33.3992 65.8642 35.3074C66.8681 37.2201 67.9279 39.1064 69.2198 40.8854C69.2378 40.9098 69.2693 40.9227 69.3008 40.915C69.3419 40.9047 69.3676 40.8629 69.3573 40.8211C68.8245 38.6893 68.0616 36.6641 67.2409 34.6653C66.4304 32.6627 65.3391 30.7905 64.368 28.863L61.4263 23.0921L58.4153 17.3541C58.3973 17.32 58.3555 17.3046 58.3195 17.3187C58.2803 17.3348 58.2623 17.3798 58.2777 17.4177L60.738 23.4128L63.267 29.3759L63.2657 29.3765Z" fill="#96C8ED"/>
<path d="M159.549 140.032L154.378 136.132C152.648 134.841 150.994 133.441 149.163 132.295C147.337 131.141 145.475 130.037 143.468 129.142C143.44 129.13 143.406 129.135 143.383 129.158C143.352 129.187 143.352 129.236 143.381 129.267C144.909 130.847 146.582 132.219 148.291 133.539C149.995 134.869 151.876 135.944 153.681 137.128L159.114 140.654L164.59 144.119C164.624 144.139 164.667 144.132 164.692 144.101C164.717 144.067 164.711 144.02 164.678 143.994L159.55 140.032L159.549 140.032Z" fill="#96C8ED"/>
<path d="M29.489 49.8895L34.6609 53.7888C35.3113 54.2747 35.9514 54.7753 36.5941 55.2728L36.5974 55.2696C36.6835 55.1841 36.7715 55.0999 36.8615 55.0176C36.9547 54.9328 37.0498 54.8499 37.1475 54.7702C37.2446 54.6898 37.3435 54.6121 37.4451 54.5369C37.546 54.461 37.6495 54.3884 37.7536 54.3177C36.9547 53.81 36.1494 53.3119 35.3582 52.7932L29.9248 49.2673L24.4477 45.8032C24.4149 45.7832 24.3712 45.7903 24.3474 45.8218C24.3217 45.8546 24.3275 45.9028 24.3609 45.9278L29.489 49.8895Z" fill="#96C8ED"/>
<path d="M160.104 63.7071C158.12 64.5599 156.082 65.2926 154.173 66.3055C152.464 67.2027 150.776 68.1449 149.167 69.2568C149.09 69.3976 149.011 69.5364 148.929 69.6739L148.89 69.7395C150.938 69.2106 152.889 68.4727 154.815 67.6822C156.818 66.8717 158.69 65.7804 160.618 64.8087L166.388 61.867L172.126 58.8559C172.161 58.8379 172.177 58.7962 172.162 58.7602C172.146 58.721 172.101 58.703 172.063 58.7184L166.068 61.1787L160.105 63.7077L160.104 63.7071Z" fill="#96C8ED"/>
<path d="M28.935 126.214C30.9178 125.362 32.9571 124.629 34.8653 123.616C35.1661 123.458 35.4656 123.299 35.7651 123.138C35.3614 122.803 34.97 122.453 34.5915 122.089L34.2232 122.239C32.2205 123.05 30.3483 124.141 28.4202 125.113L22.65 128.054L16.9119 131.066C16.8772 131.084 16.8618 131.125 16.8766 131.162C16.8927 131.201 16.937 131.219 16.9762 131.204L22.9714 128.743L28.9344 126.214L28.935 126.214Z" fill="#96C8ED"/>
<path d="M131.853 40.3175C130.7 42.1434 129.596 44.0047 128.701 46.0119C128.689 46.0402 128.694 46.0742 128.716 46.0974C128.746 46.1282 128.795 46.1295 128.826 46.0993C130.406 44.5722 131.777 42.8986 133.098 41.189C134.427 39.4859 135.503 37.6047 136.686 35.7993L140.212 30.3659L143.677 24.8887C143.697 24.856 143.69 24.8123 143.659 24.7885C143.626 24.7628 143.578 24.7685 143.552 24.802L139.59 29.9301L135.691 35.102C134.4 36.8308 133 38.4852 131.853 40.3169V40.3175Z" fill="#96C8ED"/>
<path d="M57.1851 149.604C58.3394 147.778 59.4436 145.917 60.3383 143.909C60.3511 143.882 60.346 143.847 60.3228 143.825C60.2933 143.794 60.2444 143.793 60.2129 143.823C58.6332 145.35 57.2616 147.023 55.9402 148.733C54.6111 150.437 53.5359 152.317 52.3526 154.123L48.8261 159.556L45.3619 165.033C45.3414 165.066 45.3484 165.109 45.3793 165.134C45.4127 165.159 45.4603 165.153 45.486 165.12L49.4476 159.992L53.3469 154.82C54.6387 153.091 56.0379 151.437 57.1845 149.605L57.1851 149.604Z" fill="#96C8ED"/>
<path d="M0.468332 86.8211L9.1365 87.9336L17.8124 88.9581C20.7052 89.2878 23.5845 89.7705 26.4953 89.8952C29.4055 90.0308 32.3214 90.0957 35.2637 89.8656C35.3004 89.8624 35.3332 89.8367 35.3428 89.7981C35.355 89.7506 35.3267 89.7017 35.2785 89.6895C32.4211 88.9523 29.5379 88.5088 26.6489 88.1374C23.7606 87.755 20.8408 87.7292 17.9351 87.5525L9.21298 87.055L0.483756 86.6456C0.438124 86.6431 0.397634 86.6765 0.39185 86.7234C0.385423 86.7716 0.420129 86.8153 0.468332 86.8217V86.8211Z" fill="#96C8ED"/>
<path d="M188.571 103.1L179.903 101.987L171.227 100.963C168.333 100.633 165.454 100.15 162.543 100.026C159.633 99.89 156.717 99.8257 153.775 100.056C153.738 100.059 153.706 100.085 153.696 100.123C153.684 100.171 153.712 100.22 153.761 100.231C156.618 100.969 159.501 101.413 162.39 101.784C165.278 102.166 168.198 102.192 171.104 102.369L179.825 102.866L188.555 103.276C188.601 103.278 188.642 103.245 188.647 103.199C188.653 103.15 188.619 103.107 188.571 103.1Z" fill="#96C8ED"/>
<path d="M39.6161 41.0561C41.6201 43.1687 43.5161 45.3886 45.6659 47.3553C46.808 48.408 47.9674 49.4434 49.1629 50.4441C49.8705 51.0572 50.6013 51.6492 51.3738 52.198C51.7157 52.4564 52.0518 52.7193 52.4015 52.9693C52.4323 52.9899 52.4735 52.9918 52.5056 52.9693C52.5461 52.9404 52.5557 52.8845 52.5262 52.844C52.2768 52.4937 52.0139 52.1569 51.7562 51.8156C51.2067 51.0425 50.6147 50.3123 50.0016 49.6041C49.0016 48.4093 47.9662 47.2492 46.9141 46.1078C44.9474 43.9579 42.7268 42.0619 40.6143 40.058L34.2528 34.0705L27.8289 28.1454C27.7955 28.1146 27.7434 28.114 27.7094 28.1454C27.674 28.1782 27.6715 28.2348 27.7042 28.2701L33.6293 34.694L39.6168 41.0555L39.6161 41.0561Z" fill="#96C8ED"/>
<path d="M149.422 148.865C147.82 147.176 146.28 145.424 144.631 143.781C144.044 143.179 143.448 142.588 142.828 142.02C140.686 140.045 138.494 138.121 136.091 136.407C136.061 136.385 136.019 136.385 135.987 136.407C135.947 136.436 135.938 136.491 135.967 136.532C137.681 138.933 139.604 141.127 141.579 143.267C142.148 143.888 142.739 144.484 143.34 145.071C144.983 146.721 146.735 148.261 148.424 149.864L154.786 155.851L161.21 161.776C161.244 161.806 161.296 161.808 161.33 161.776C161.366 161.743 161.368 161.687 161.335 161.651L155.41 155.228L149.422 148.866V148.865Z" fill="#96C8ED"/>
<path d="M158.243 112.823C160.298 113.489 162.434 113.857 164.535 114.352L170.847 115.807L177.178 117.189C177.215 117.197 177.255 117.175 177.266 117.138C177.28 117.098 177.257 117.055 177.217 117.042L171.043 115.073L164.849 113.177C162.782 112.555 160.749 111.806 158.636 111.355C158.378 111.299 158.119 111.243 157.86 111.189L157.368 111.472L158.126 112.785L158.243 112.823H158.243Z" fill="#96C8ED"/>
<path d="M24.1893 76.7456C26.2562 77.3677 28.2898 78.1165 30.403 78.5683C32.5136 79.0278 34.6403 79.4282 36.8326 79.5825C36.8634 79.5844 36.8937 79.569 36.9078 79.5394C36.9264 79.5015 36.911 79.4546 36.8724 79.4359C34.8961 78.4732 32.8543 77.7565 30.797 77.0997C28.7416 76.4339 26.6065 76.0656 24.5049 75.5707L18.1935 74.1156L11.8622 72.7344C11.8243 72.7254 11.7857 72.7473 11.7735 72.7852C11.7613 72.8251 11.7832 72.8681 11.823 72.881L17.9968 74.8502L24.1906 76.7456H24.1893Z" fill="#96C8ED"/>
<path d="M170.847 74.1156L164.535 75.5707C162.434 76.0656 160.298 76.4338 158.243 77.0997C156.186 77.7559 154.143 78.4731 152.167 79.4359C152.139 79.4494 152.122 79.4783 152.124 79.5111C152.127 79.5535 152.163 79.585 152.207 79.5824C154.399 79.4282 156.526 79.0278 158.636 78.5682C160.749 78.1171 162.783 77.3677 164.849 76.7455L171.043 74.8502L177.217 72.881C177.254 72.8694 177.277 72.8308 177.268 72.7923C177.259 72.7511 177.218 72.7248 177.178 72.7344L170.847 74.1156Z" fill="#96C8ED"/>
<path d="M18.1928 115.806L24.5042 114.351C26.0274 113.992 27.5693 113.7 29.0848 113.312L28.9871 113.008L28.6233 111.834L28.5841 111.812C27.1091 112.229 25.6572 112.735 24.1886 113.177L17.9949 115.073L11.8211 117.042C11.7844 117.053 11.7613 117.092 11.7697 117.131C11.7786 117.172 11.8191 117.197 11.8603 117.189L18.1916 115.807L18.1928 115.806Z" fill="#96C8ED"/>
<path d="M110.044 37.3129C111.007 35.3366 111.724 33.2947 112.38 31.2374C113.046 29.182 113.414 27.0463 113.909 24.9453L115.363 18.634L116.746 12.3027C116.754 12.2648 116.732 12.2256 116.694 12.2133C116.655 12.2011 116.612 12.223 116.599 12.2628L114.63 18.4373L112.734 24.6311C112.112 26.698 111.363 28.7309 110.911 30.8441C110.452 32.9547 110.051 35.0808 109.897 37.2737C109.895 37.3045 109.911 37.3348 109.94 37.3483C109.978 37.3675 110.024 37.3515 110.043 37.3129H110.044Z" fill="#96C8ED"/>
<path d="M77.1514 157.185C76.9817 157.683 76.8185 158.183 76.6585 158.684C75.9926 160.739 75.6243 162.875 75.1301 164.976L73.6744 171.287L72.2919 177.619C72.2842 177.657 72.3054 177.695 72.3433 177.707C72.3832 177.72 72.4262 177.698 72.4391 177.658L74.4083 171.484L76.3037 165.29C76.9123 163.267 77.6431 161.277 78.0968 159.211H77.1508V157.185H77.1514Z" fill="#96C8ED"/>
<path d="M76.3037 24.6309L74.4083 18.4372L72.4391 12.2627C72.4269 12.2254 72.389 12.2029 72.3504 12.2119C72.3093 12.2209 72.2829 12.2608 72.2919 12.3026L73.6744 18.6338L75.1301 24.9452C75.6244 27.0462 75.9926 29.1819 76.6585 31.2373C77.3147 33.2946 78.0319 35.3365 78.9947 37.3128C79.0082 37.3398 79.0371 37.3584 79.0699 37.3559C79.1117 37.3526 79.1444 37.316 79.1412 37.2729C78.987 35.0807 78.5866 32.9546 78.127 30.8433C77.6759 28.7301 76.9265 26.6972 76.3043 24.6303L76.3037 24.6309Z" fill="#96C8ED"/>
<path d="M113.91 164.976C113.415 162.875 113.046 160.739 112.381 158.684C111.724 156.626 111.008 154.584 110.045 152.608C110.032 152.581 110.003 152.563 109.971 152.565C109.928 152.568 109.896 152.604 109.899 152.648C110.053 154.84 110.454 156.966 110.913 159.077C111.365 161.19 112.114 163.223 112.736 165.29L114.632 171.484L116.601 177.658C116.613 177.694 116.651 177.718 116.689 177.71C116.73 177.7 116.756 177.66 116.748 177.619L115.365 171.288L113.911 164.977L113.91 164.976Z" fill="#96C8ED"/>
<path d="M46.914 143.814C48.8878 141.673 50.8127 139.48 52.5261 137.079C52.548 137.048 52.5493 137.007 52.5261 136.975C52.4979 136.935 52.442 136.926 52.4015 136.954C50.0003 138.668 47.8074 140.592 45.6659 142.567C43.5161 144.534 41.6201 146.754 39.6161 148.866L33.6287 155.228L27.7036 161.652C27.6734 161.685 27.6727 161.737 27.7036 161.772C27.737 161.807 27.7929 161.81 27.8289 161.777L34.2528 155.851L40.6143 149.864C42.7268 147.859 44.9474 145.964 46.914 143.814Z" fill="#96C8ED"/>
<path d="M142.125 46.1083C140.15 48.2498 138.227 50.4427 136.512 52.8439C136.49 52.8734 136.489 52.9159 136.512 52.9474C136.541 52.9879 136.596 52.9975 136.637 52.9692C139.039 51.2538 141.231 49.3302 143.373 47.3558C145.523 45.3891 147.418 43.1686 149.422 41.0567L155.41 34.6952L161.335 28.2713C161.366 28.2379 161.366 28.1859 161.335 28.1512C161.301 28.1158 161.246 28.1132 161.21 28.1467L154.786 34.0718L148.424 40.0592C146.312 42.0638 144.092 43.9591 142.125 46.109V46.1083Z" fill="#96C8ED"/>
<path fill-rule="evenodd" clip-rule="evenodd" d="M66.6863 111.973C64.4126 119.306 57.5659 124.633 49.473 124.633C41.3794 124.633 34.5327 119.306 32.257 111.973H66.6856H66.6863ZM71.527 72.8434H113.836V72.8763C118.219 73.1709 121.684 76.8144 121.684 81.2645C121.684 85.9086 117.912 89.6735 113.26 89.6735C108.609 89.6735 104.836 85.9086 104.836 81.2645C104.836 80.0357 105.102 78.8666 105.576 77.8143L112.333 77.6902C112.63 77.6144 112.94 77.5721 113.261 77.5721C115.304 77.5721 116.959 79.225 116.959 81.2645C116.959 83.3027 115.304 84.957 113.261 84.957C111.219 84.957 109.564 83.3027 109.564 81.2645C109.564 80.5323 109.777 79.8518 110.143 79.2794H107.771C107.546 79.8981 107.424 80.5672 107.424 81.2645C107.424 84.4825 110.037 87.0924 113.261 87.0924C116.486 87.0924 119.099 84.4825 119.099 81.2645C119.099 78.2398 116.79 75.754 113.837 75.4648V75.4702H71.5277V75.4648C68.5728 75.7547 66.2628 78.2398 66.2628 81.2645C66.2628 84.4825 68.8768 87.0924 72.1022 87.0924C75.3255 87.0924 77.9388 84.4825 77.9388 81.2645C77.9388 80.5672 77.8167 79.8981 77.5919 79.2794H75.2181C75.5859 79.8518 75.7986 80.5323 75.7986 81.2645C75.7986 83.3027 74.1437 84.957 72.1022 84.957C70.0593 84.957 68.4037 83.3027 68.4037 81.2645C68.4037 79.225 70.06 77.5721 72.1022 77.5721C72.4223 77.5721 72.7323 77.6144 73.029 77.6902L79.7871 77.8143C80.2609 78.8666 80.5259 80.0357 80.5259 81.2645C80.5259 85.9086 76.7536 89.6735 72.1022 89.6735C67.4494 89.6735 63.6784 85.9086 63.6784 81.2645C63.6784 76.8137 67.1433 73.1709 71.5277 72.8763V72.8434H71.527ZM71.3599 79.2801H72.8424C73.6484 79.5794 74.2229 80.3552 74.2229 81.2652C74.2229 82.4356 73.2726 83.3832 72.1015 83.3832C70.9284 83.3832 69.9788 82.4356 69.9788 81.2652C69.9788 80.3552 70.5526 79.5794 71.3592 79.2801H71.3599ZM114.002 79.2801H112.52C111.714 79.5794 111.139 80.3552 111.139 81.2652C111.139 82.4356 112.09 83.3832 113.261 83.3832C114.434 83.3832 115.383 82.4356 115.383 81.2652C115.383 80.3552 114.808 79.5794 114.002 79.2801ZM80.4293 88.1817H104.933V90.6654H80.4293V88.1817ZM84.354 83.3081H101.009V85.7918H84.354V83.3081ZM83.0131 94.5827V155.691H80.5233V94.5827H83.0131ZM90.2872 94.5827V141.591L87.7994 144.076V94.5827H90.2872ZM97.1796 94.5827V134.71L94.6911 137.194V94.5827H97.1796ZM105.03 94.5827V126.875L102.54 129.36V94.582H105.03V94.5827ZM50.0005 73.0394V79.9129L67.2138 109.675L66.8326 109.894H32.8234L48.9435 82.0222V106.902H50.0005V82.0202L66.1206 109.894L65.5105 108.839H33.4321L32.8227 109.894H32.112L31.7302 109.675L48.9428 79.9136V73.0656C42.7109 72.9991 37.7722 69.0704 37.7755 61.6164C37.7366 61.3815 37.7185 61.1433 37.7185 60.899C37.7185 58.4461 39.7103 56.4569 42.1686 56.4569C44.5135 56.4569 46.4342 58.2662 46.6067 60.5628L46.6194 60.899C46.6194 63.3553 44.6282 65.3431 42.1686 65.3431C40.9613 65.3431 39.8681 64.8639 39.0667 64.0861C40.5821 71.0287 48.0784 72.1589 53.8963 69.8919L91.9436 55.0704L91.9409 49.2881L88.59 47.711L91.7013 45.991C92.8281 35.5626 92.5408 35.631 93.6589 45.991L96.7708 47.711L93.4193 49.2881L93.4187 55.0704L131.463 69.8919C137.283 72.1589 144.779 71.0287 146.295 64.0861C145.492 64.8639 144.399 65.3431 143.193 65.3431C140.735 65.3431 138.743 63.3553 138.743 60.899L138.754 60.5628C138.926 58.2656 140.848 56.4569 143.193 56.4569C145.651 56.4569 147.644 58.4461 147.644 60.899C147.644 61.1433 147.625 61.3815 147.587 61.6164C147.59 69.0718 142.65 72.9991 136.417 73.0656V79.9129L153.631 109.675L153.249 109.894H119.241L135.361 82.0222V106.902H136.417V82.0202L152.538 109.894L151.928 108.839H119.851L119.241 109.894H118.529L118.147 109.675L135.361 79.9136V73.0394C133.809 72.9515 132.191 72.6293 130.562 72.0743L105.768 63.5754H79.5944L54.8003 72.0743C53.1708 72.6293 51.5528 72.9515 49.9998 73.0394H50.0005ZM153.103 111.973C150.829 119.306 143.983 124.633 135.889 124.633C127.796 124.633 120.949 119.306 118.675 111.973H153.103Z" fill="#14599C"/>
</svg>
