<svg width="189" height="189" viewBox="0 0 189 189" fill="none" xmlns="http://www.w3.org/2000/svg">
<path d="M94.9292 8.81636L94.5766 0.0845817C94.5744 0.0397657 94.5384 0.00229651 94.4921 9.24435e-05C94.4436 -0.00211162 94.4032 0.0353575 94.4002 0.0845817L94.0476 8.81636L93.7824 17.5489C93.7059 20.4597 93.4767 23.3698 93.606 26.2807C93.6692 27.8323 93.7574 29.3847 93.8955 30.9364C93.9624 31.8709 94.0601 32.8054 94.218 33.74C94.2775 34.1639 94.3297 34.5885 94.4002 35.0132C94.4061 35.0492 94.4348 35.08 94.4737 35.0866C94.5229 35.0947 94.5685 35.0624 94.5766 35.0132C94.6471 34.5885 94.7 34.1653 94.7588 33.7414C94.9175 32.8069 95.0152 31.8724 95.082 30.9364C95.2201 29.3847 95.3068 27.8323 95.37 26.2807C95.5001 23.3698 95.2708 20.4597 95.1937 17.5489L94.9292 8.81636Z" fill="#A2D9F7"/>
<path d="M95.37 161.924C95.2517 159.013 95.0622 156.102 94.5766 153.192C94.5707 153.155 94.542 153.125 94.5031 153.118C94.4546 153.11 94.4083 153.143 94.4002 153.192C93.9146 156.102 93.7243 159.013 93.606 161.924C93.5686 162.764 93.5656 163.604 93.5759 164.444C93.5708 166.771 93.7206 169.099 93.7816 171.428L94.0469 180.159L94.3995 188.891C94.4024 188.937 94.4377 188.974 94.484 188.976C94.5332 188.979 94.5736 188.94 94.5758 188.891L94.9285 180.159L95.193 171.428C95.2539 169.099 95.4053 166.771 95.3994 164.444C95.4097 163.603 95.406 162.763 95.3686 161.923L95.37 161.924Z" fill="#A2D9F7"/>
<path d="M131.338 157.1C130.317 155.198 129.409 153.231 128.233 151.418C127.066 149.6 125.846 147.813 124.405 146.153C124.384 146.13 124.352 146.121 124.321 146.131C124.281 146.145 124.259 146.189 124.273 146.23C124.99 148.306 125.927 150.258 126.918 152.177C127.901 154.102 129.15 155.872 130.286 157.707L133.72 163.199L137.22 168.653C137.24 168.685 137.283 168.698 137.319 168.679C137.355 168.66 137.37 168.614 137.351 168.577L134.378 162.82L131.338 157.101V157.1Z" fill="#A2D9F7"/>
<path d="M57.6378 31.8764C58.6598 33.7786 59.5671 35.7453 60.7434 37.5585C61.9101 39.3762 63.1311 41.1629 64.5718 42.8233C64.5924 42.8461 64.6255 42.8564 64.6556 42.8454C64.696 42.8314 64.7173 42.7873 64.7033 42.7469C63.987 40.6692 63.0503 38.7186 62.0592 36.7989C61.0769 34.8747 59.8272 33.1048 58.6914 31.2689L55.2574 25.7771L51.7574 20.3227C51.7361 20.2904 51.6935 20.2786 51.6589 20.2963C51.6215 20.3161 51.606 20.3624 51.6259 20.3984L54.5992 26.1562L57.6386 31.8757L57.6378 31.8764Z" fill="#A2D9F7"/>
<path d="M163.199 133.72L157.708 130.286C155.872 129.15 154.102 127.9 152.178 126.918C150.259 125.927 148.308 124.99 146.23 124.273C146.202 124.263 146.169 124.27 146.147 124.295C146.118 124.327 146.122 124.377 146.155 124.405C147.814 125.845 149.6 127.066 151.419 128.233C153.231 129.409 155.199 130.317 157.101 131.339L162.821 134.378L168.579 137.351C168.613 137.369 168.656 137.358 168.677 137.325C168.7 137.29 168.69 137.243 168.655 137.22L163.201 133.72H163.199Z" fill="#A2D9F7"/>
<path d="M25.7773 55.2567L31.2684 58.6906C33.1044 59.8265 34.8742 61.0762 36.7991 62.0592C38.7181 63.0495 40.6687 63.987 42.7472 64.7033C42.7758 64.7136 42.8089 64.7055 42.8302 64.6805C42.8588 64.649 42.8544 64.5997 42.8228 64.5718C41.1632 63.1304 39.3757 61.91 37.5588 60.7433C35.7456 59.5686 33.7781 58.6598 31.8767 57.6386L26.1564 54.5991L20.3987 51.6259C20.3649 51.6075 20.3215 51.6192 20.3002 51.6523C20.2774 51.6876 20.2877 51.7346 20.323 51.7574L25.7773 55.2574V55.2567Z" fill="#A2D9F7"/>
<path d="M157.1 57.6382C155.198 58.6601 153.23 59.5682 151.418 60.743C149.6 61.9104 147.813 63.1307 146.154 64.5714C146.131 64.592 146.121 64.6243 146.131 64.6552C146.145 64.6956 146.189 64.7169 146.23 64.7029C148.307 63.9866 150.258 63.0492 152.178 62.0588C154.101 61.0758 155.872 59.8268 157.707 58.6902L163.199 55.2563L168.652 51.7562C168.685 51.7349 168.697 51.6923 168.68 51.6571C168.66 51.6196 168.613 51.6056 168.577 51.6247L162.82 54.598L157.099 57.6374L157.1 57.6382Z" fill="#A2D9F7"/>
<path d="M31.8774 131.339C33.7788 130.317 35.7455 129.409 37.5595 128.234C39.3764 127.067 41.1639 125.846 42.8235 124.405C42.8463 124.385 42.8558 124.352 42.8456 124.322C42.8316 124.281 42.7875 124.26 42.7478 124.274C40.6694 124.99 38.7188 125.928 36.7998 126.919C34.8749 127.901 33.105 129.151 31.2691 130.287L25.778 133.72L20.3237 137.221C20.2913 137.242 20.2788 137.284 20.2972 137.319C20.3163 137.356 20.3619 137.371 20.3993 137.352L26.1571 134.379L31.8774 131.339Z" fill="#A2D9F7"/>
<path d="M126.918 36.7991C125.927 38.7189 124.99 40.6687 124.273 42.7472C124.264 42.7758 124.271 42.8096 124.295 42.8302C124.328 42.8588 124.377 42.8552 124.405 42.8228C125.846 41.1632 127.067 39.3764 128.233 37.5581C129.408 35.7456 130.317 33.7788 131.338 31.876L134.378 26.1564L137.351 20.3987C137.369 20.3649 137.357 20.3215 137.324 20.3002C137.289 20.2774 137.242 20.2877 137.22 20.323L133.72 25.7773L130.286 31.2691C129.15 33.1051 127.901 34.875 126.918 36.7991Z" fill="#A2D9F7"/>
<path d="M62.0585 152.177C63.0496 150.258 63.9863 148.307 64.7026 146.23C64.7129 146.201 64.7048 146.168 64.6806 146.146C64.649 146.118 64.599 146.121 64.5711 146.154C63.1304 147.813 61.9093 149.6 60.7426 151.418C59.5671 153.232 58.6591 155.198 57.6371 157.101L54.5977 162.819L51.6244 168.577C51.6068 168.611 51.6178 168.654 51.6516 168.676C51.6869 168.698 51.7339 168.688 51.7567 168.653L55.2567 163.198L58.6906 157.707C59.8265 155.871 61.0762 154.102 62.0585 152.177V152.177Z" fill="#A2D9F7"/>
<path d="M17.5488 95.1935C20.4596 95.2699 23.3697 95.4998 26.2813 95.3698C29.1921 95.2515 32.1029 95.062 35.0138 94.5763C35.0505 94.5697 35.0806 94.5418 35.0873 94.5029C35.0961 94.4536 35.063 94.4081 35.0138 94.4C32.1029 93.9136 29.1921 93.7241 26.2813 93.6065C23.3704 93.4765 20.4603 93.7057 17.5488 93.7821L8.81697 94.0473L0.0851927 94.4C0.0396419 94.4022 0.00217277 94.4382 -3.12987e-05 94.4845C-0.00223537 94.5337 0.0359685 94.5741 0.0851927 94.5771L8.81697 94.9297L17.5488 95.1942V95.1935Z" fill="#A2D9F7"/>
<path d="M188.892 94.4L180.159 94.0473L171.427 93.7821C168.516 93.7057 165.605 93.4765 162.694 93.6065C159.783 93.7248 156.873 93.9144 153.961 94.4C153.925 94.4059 153.895 94.4345 153.888 94.4735C153.88 94.522 153.912 94.5682 153.961 94.5763C156.872 95.062 159.783 95.2522 162.694 95.3698C165.605 95.4991 168.516 95.2699 171.427 95.1935L180.159 94.929L188.892 94.5763C188.936 94.5741 188.975 94.5381 188.976 94.4918C188.978 94.4433 188.94 94.4022 188.892 94.4Z" fill="#A2D9F7"/>
<path d="M67.5106 22.4304C68.4341 25.1914 69.2143 28.0052 70.3311 30.6964C70.9217 32.1334 71.5352 33.5617 72.1957 34.9738C72.5785 35.8282 72.9899 36.6731 73.4579 37.4967C73.6577 37.875 73.8524 38.2556 74.064 38.6303C74.0824 38.6619 74.1199 38.681 74.1588 38.6744C74.2073 38.6648 74.2396 38.6185 74.2301 38.5701C74.1514 38.1469 74.0552 37.7303 73.9656 37.3123C73.7944 36.3799 73.5666 35.4689 73.3102 34.5675C72.9091 33.0614 72.4609 31.5729 71.9893 30.0932C71.1157 27.3139 69.9042 24.6572 68.8367 21.9484L65.6019 13.8331L62.2833 5.74781C62.2656 5.70667 62.2186 5.6839 62.1745 5.69712C62.1283 5.71255 62.1025 5.76177 62.1172 5.80879L64.7717 14.135L67.5099 22.4304H67.5106Z" fill="#A2D9F7"/>
<path d="M121.467 166.545C120.728 164.337 120.072 162.098 119.272 159.912C118.995 159.12 118.704 158.331 118.382 157.555C117.275 154.86 116.101 152.19 114.648 149.621C114.63 149.589 114.593 149.569 114.554 149.577C114.506 149.586 114.473 149.633 114.483 149.681C115.022 152.582 115.839 155.382 116.723 158.158C116.976 158.96 117.26 159.751 117.557 160.537C118.348 162.726 119.286 164.862 120.14 167.028L123.376 175.143L126.693 183.228C126.711 183.27 126.757 183.292 126.802 183.279C126.848 183.264 126.874 183.214 126.859 183.167L124.204 174.841L121.467 166.545Z" fill="#A2D9F7"/>
<path d="M144.693 137.607C146.274 139.079 148.054 140.314 149.75 141.651L154.854 145.637L160.009 149.565C160.04 149.588 160.084 149.585 160.111 149.557C160.139 149.526 160.137 149.477 160.106 149.449L155.343 145.056L150.53 140.72C148.92 139.283 147.394 137.745 145.67 136.443C143.951 135.134 142.193 133.872 140.271 132.806C140.244 132.792 140.21 132.794 140.185 132.814C140.152 132.841 140.147 132.889 140.174 132.922C141.558 134.63 143.106 136.142 144.693 137.607Z" fill="#A2D9F7"/>
<path d="M48.8025 56.0542C47.4183 54.3468 45.8711 52.8348 44.2834 51.3698C42.7023 49.8975 40.9222 48.6618 39.2273 47.3254L34.1219 43.339L28.9681 39.4106C28.9372 39.3878 28.8931 39.3907 28.8667 39.4201C28.8373 39.451 28.8395 39.4987 28.8711 39.5274L33.6341 43.9208L38.4463 48.2562C40.0575 49.6933 41.5827 51.2317 43.307 52.5336C45.0254 53.8421 46.7835 55.1043 48.7055 56.1703C48.7319 56.185 48.7665 56.1828 48.7922 56.163C48.8252 56.1358 48.8304 56.0873 48.8032 56.0535L48.8025 56.0542Z" fill="#A2D9F7"/>
<path d="M178.853 109.367C178.862 109.326 178.836 109.285 178.795 109.276L172.473 107.853L166.138 106.504C164.025 106.065 161.934 105.495 159.79 105.23C157.647 104.956 155.494 104.742 153.296 104.78C153.265 104.78 153.236 104.799 153.225 104.829C153.209 104.869 153.229 104.914 153.269 104.929C155.321 105.716 157.418 106.252 159.525 106.726C161.63 107.211 163.79 107.391 165.927 107.7L172.341 108.6L178.769 109.425C178.807 109.43 178.844 109.405 178.853 109.366V109.367Z" fill="#A2D9F7"/>
<path d="M10.1233 79.6091C10.1145 79.6502 10.1395 79.6914 10.1806 79.7002L16.5026 81.1225L22.8378 82.4714C24.9515 82.9108 27.0424 83.4802 29.1863 83.7454C31.3286 84.0194 33.4827 84.2332 35.6795 84.1957C35.7103 84.1943 35.739 84.1766 35.7507 84.1465C35.7661 84.1061 35.7456 84.0613 35.7059 84.0459C33.6539 83.259 31.5564 82.7234 29.45 82.2488C27.3437 81.7639 25.1852 81.5839 23.0479 81.2746L16.6341 80.3754L10.2063 79.5503C10.1681 79.5459 10.1314 79.5709 10.1226 79.6091H10.1233Z" fill="#A2D9F7"/>
<path d="M136.443 43.3071C135.134 45.0255 133.872 46.7829 132.806 48.7049C132.791 48.732 132.794 48.7658 132.813 48.7908C132.841 48.8239 132.889 48.829 132.923 48.8018C134.63 47.4184 136.142 45.8704 137.607 44.2828C139.079 42.7017 140.315 40.9223 141.651 39.2266L145.637 34.1205L149.566 28.9667C149.589 28.9358 149.586 28.8918 149.557 28.8646C149.526 28.8359 149.478 28.8389 149.45 28.8697L145.056 33.6327L140.721 38.4449C139.284 40.0554 137.745 41.5813 136.444 43.3064L136.443 43.3071Z" fill="#A2D9F7"/>
<path d="M52.5332 145.67C53.8424 143.951 55.1039 142.193 56.1699 140.272C56.1854 140.245 56.1839 140.211 56.1626 140.185C56.1354 140.152 56.0869 140.148 56.0539 140.174C54.3464 141.559 52.8344 143.106 51.3695 144.693C49.8972 146.275 48.6614 148.055 47.325 149.75L43.3393 154.855L39.4109 160.009C39.3874 160.04 39.3911 160.084 39.4198 160.11C39.4506 160.139 39.4984 160.137 39.527 160.106L43.9205 155.343L48.2559 150.531C49.6937 148.92 51.2321 147.394 52.5332 145.67Z" fill="#A2D9F7"/>
<path d="M109.278 10.1804L107.855 16.5024L106.506 22.8384C106.066 24.9521 105.497 27.0422 105.232 29.1868C104.958 31.3292 104.744 33.4825 104.781 35.6807C104.782 35.7108 104.8 35.7402 104.83 35.7513C104.87 35.7667 104.915 35.7461 104.93 35.7064C105.717 33.6544 106.252 31.5584 106.728 29.4506C107.212 27.3457 107.392 25.1857 107.702 23.0492L108.602 16.6346L109.426 10.2068C109.431 10.1679 109.406 10.1312 109.367 10.1231C109.326 10.1135 109.285 10.1393 109.277 10.1804H109.278Z" fill="#A2D9F7"/>
<path d="M84.0462 153.27C83.2594 155.322 82.7238 157.419 82.2492 159.526C81.765 161.631 81.5843 163.791 81.275 165.927L80.375 172.342L79.5499 178.769C79.5448 178.808 79.5698 178.844 79.6087 178.853C79.6498 178.862 79.6903 178.837 79.6998 178.796L81.1229 172.475L82.471 166.139C82.9104 164.025 83.4798 161.935 83.745 159.79C84.0198 157.648 84.2328 155.494 84.1961 153.296C84.1954 153.266 84.177 153.237 84.1461 153.225C84.1065 153.21 84.0616 153.229 84.0462 153.27Z" fill="#A2D9F7"/>
<path d="M30.6967 118.645C33.3908 117.538 36.0607 116.364 38.6306 114.912C38.663 114.893 38.6813 114.856 38.674 114.818C38.6652 114.769 38.6182 114.737 38.5704 114.746C35.6691 115.285 32.8685 116.102 30.0936 116.986C27.3135 117.86 24.6569 119.071 21.9473 120.139L13.8334 123.374L5.74889 126.692C5.70702 126.71 5.68424 126.757 5.6982 126.801C5.71289 126.847 5.76285 126.874 5.80987 126.858L14.1361 124.204L22.4315 121.466C25.1939 120.542 28.007 119.762 30.6982 118.645L30.6967 118.645Z" fill="#A2D9F7"/>
<path d="M158.28 70.3312C155.585 71.4377 152.915 72.6117 150.345 74.0642C150.314 74.0826 150.295 74.1193 150.301 74.1582C150.311 74.2067 150.357 74.2391 150.406 74.2295C153.306 73.6902 156.107 72.874 158.882 71.9894C161.662 71.1159 164.318 69.9044 167.027 68.8369L175.143 65.6013L183.228 62.2835C183.27 62.2658 183.292 62.2195 183.278 62.1747C183.263 62.1284 183.214 62.1027 183.168 62.1174L174.841 64.7718L166.544 67.51C163.784 68.4335 160.97 69.2138 158.279 70.3305L158.28 70.3312Z" fill="#A2D9F7"/>
<path d="M115.011 37.3115C114.922 37.7295 114.826 38.1461 114.747 38.5693C114.741 38.6053 114.757 38.6442 114.791 38.6633C114.833 38.6868 114.888 38.6721 114.913 38.6295C115.124 38.2556 115.318 37.875 115.519 37.4966C115.988 36.673 116.399 35.8282 116.782 34.9722C117.442 33.5609 118.056 32.1327 118.646 30.6956C119.763 28.0044 120.543 25.1906 121.467 22.4296L124.204 14.1343L126.859 5.80802C126.873 5.76467 126.851 5.71692 126.809 5.69928C126.763 5.68018 126.712 5.70222 126.693 5.74704L123.376 13.8323L120.14 21.9477C119.073 24.6565 117.861 27.3131 116.987 30.0924C116.516 31.5728 116.068 33.0606 115.667 34.566C115.411 35.4674 115.182 36.3792 115.011 37.3122V37.3115Z" fill="#A2D9F7"/>
<path d="M74.4938 149.681C74.4997 149.645 74.4835 149.607 74.4497 149.587C74.4064 149.562 74.352 149.578 74.3277 149.62C72.876 152.19 71.702 154.86 70.5948 157.554C70.2723 158.33 69.9821 159.119 69.7044 159.912C68.9035 162.098 68.2489 164.337 67.5106 166.546L64.7724 174.842L62.1179 183.168C62.104 183.211 62.126 183.259 62.1686 183.277C62.2127 183.296 62.2649 183.274 62.2833 183.229L65.6018 175.144L68.8367 167.028C69.6904 164.862 70.6279 162.725 71.4198 160.536C71.7159 159.75 72.001 158.96 72.253 158.158C73.1376 155.382 73.9553 152.582 74.4938 149.681V149.681Z" fill="#A2D9F7"/>
<path d="M38.4463 140.72L33.6341 145.055L28.8711 149.449C28.8424 149.475 28.8373 149.519 28.8615 149.551C28.8872 149.584 28.935 149.591 28.968 149.565L34.1219 145.637L39.2272 141.651C40.9222 140.314 42.7023 139.079 44.2834 137.607C45.871 136.142 47.4183 134.629 48.8024 132.922C48.8215 132.899 48.826 132.864 48.8105 132.837C48.79 132.8 48.7422 132.786 48.7047 132.806C46.7835 133.873 45.0247 135.134 43.3062 136.443C41.5819 137.745 40.056 139.283 38.4455 140.72L38.4463 140.72Z" fill="#A2D9F7"/>
<path d="M145.67 52.5337C147.394 51.2318 148.92 49.6934 150.53 48.2563L155.343 43.9209L160.106 39.5275C160.135 39.5018 160.139 39.4569 160.115 39.4253C160.09 39.3923 160.041 39.3857 160.008 39.4107L154.853 43.339L149.75 47.3255C148.054 48.6619 146.274 49.8976 144.693 51.3699C143.105 52.8342 141.558 54.3469 140.173 56.0543C140.154 56.0778 140.15 56.1123 140.166 56.141C140.187 56.1777 140.233 56.1917 140.271 56.1711C142.193 55.1051 143.951 53.8429 145.67 52.5344V52.5337Z" fill="#A2D9F7"/>
<path d="M22.8378 106.505L16.5026 107.854L10.1806 109.277C10.1431 109.286 10.1174 109.322 10.1218 109.361C10.1277 109.403 10.1659 109.432 10.2071 109.427L16.6348 108.602L23.0487 107.702C25.1859 107.393 27.3444 107.213 29.4508 106.728C31.5571 106.253 33.6547 105.717 35.7066 104.931C35.7353 104.92 35.7559 104.892 35.7566 104.859C35.7573 104.817 35.7228 104.782 35.6802 104.781C33.4835 104.745 31.3294 104.958 29.187 105.232C27.0432 105.497 24.9523 106.066 22.8386 106.506L22.8378 106.505Z" fill="#A2D9F7"/>
<path d="M165.927 81.2747C163.791 81.584 161.632 81.7647 159.526 82.2489C157.418 82.7242 155.322 83.2598 153.27 84.0459C153.241 84.057 153.222 84.0842 153.221 84.1172C153.22 84.1598 153.254 84.1951 153.297 84.1966C155.494 84.2333 157.647 84.0202 159.79 83.7462C161.934 83.481 164.025 82.9116 166.139 82.4722L172.474 81.1234L178.795 79.701C178.834 79.6922 178.859 79.6562 178.854 79.6165C178.849 79.5746 178.811 79.5452 178.77 79.5504L172.342 80.3754L165.927 81.2747Z" fill="#A2D9F7"/>
<path d="M47.325 39.2274C48.6614 40.9223 49.8972 42.7018 51.3695 44.2835C52.8345 45.8712 54.3472 47.4192 56.0539 48.8026C56.0774 48.8217 56.1119 48.8261 56.1398 48.8107C56.1773 48.7901 56.1905 48.7424 56.1699 48.7049C55.1032 46.783 53.8424 45.0248 52.5332 43.3071C51.2321 41.5821 49.6937 40.0561 48.2559 38.4457L43.9205 33.6335L39.527 28.8705C39.5006 28.8411 39.4565 28.8374 39.4249 28.8617C39.3918 28.8867 39.3845 28.9351 39.4109 28.9682L43.3393 34.1221L47.325 39.2281V39.2274Z" fill="#A2D9F7"/>
<path d="M141.651 149.749C140.315 148.054 139.079 146.274 137.607 144.693C136.142 143.106 134.63 141.558 132.923 140.174C132.899 140.155 132.865 140.151 132.836 140.167C132.799 140.187 132.786 140.234 132.806 140.273C133.873 142.194 135.134 143.952 136.443 145.67C137.745 147.395 139.283 148.921 140.72 150.531L145.056 155.343L149.449 160.106C149.475 160.135 149.52 160.14 149.551 160.116C149.584 160.09 149.592 160.042 149.566 160.009L145.637 154.855L141.651 149.75V149.749Z" fill="#A2D9F7"/>
<path d="M82.4718 22.8383L81.1237 16.5024L79.7006 10.1804C79.6917 10.1429 79.6558 10.1172 79.6168 10.1216C79.5749 10.1267 79.5456 10.1657 79.5507 10.2068L80.3757 16.6346L81.2757 23.0492C81.585 25.1857 81.7658 27.3449 82.2499 29.4505C82.7253 31.5583 83.2601 33.6544 84.047 35.7064C84.058 35.7358 84.0852 35.7564 84.1183 35.7564C84.1609 35.7571 84.1954 35.7226 84.1961 35.6807C84.2329 33.4825 84.0198 31.3291 83.745 29.1868C83.4798 27.0429 82.9112 24.952 82.4711 22.8383H82.4718Z" fill="#A2D9F7"/>
<path d="M107.702 165.928C107.392 163.791 107.212 161.632 106.728 159.527C106.252 157.419 105.717 155.323 104.93 153.271C104.919 153.242 104.892 153.221 104.859 153.221C104.816 153.22 104.781 153.255 104.78 153.297C104.743 155.495 104.956 157.648 105.231 159.791C105.496 161.936 106.065 164.026 106.505 166.139L107.854 172.475L109.277 178.797C109.285 178.834 109.322 178.861 109.361 178.855C109.402 178.85 109.431 178.812 109.425 178.77L108.601 172.342L107.701 165.928H107.702Z" fill="#A2D9F7"/>
<path d="M183.229 126.692L175.144 123.374L167.029 120.139C164.32 119.071 161.663 117.86 158.884 116.986C156.107 116.102 153.308 115.285 150.407 114.746C150.37 114.739 150.332 114.756 150.312 114.79C150.289 114.833 150.303 114.887 150.346 114.912C152.915 116.363 155.586 117.538 158.281 118.645C160.971 119.762 163.785 120.542 166.546 121.465L174.842 124.203L183.169 126.858C183.212 126.872 183.259 126.85 183.277 126.807C183.296 126.761 183.274 126.71 183.229 126.692V126.692Z" fill="#A2D9F7"/>
<path d="M5.74819 62.2836L13.8327 65.6014L21.9466 68.837C24.6562 69.9045 27.3128 71.116 30.0929 71.9896C32.8678 72.8741 35.6684 73.6904 38.5697 74.2296C38.6064 74.2362 38.6439 74.2201 38.6637 74.1855C38.6887 74.1422 38.6733 74.0878 38.6299 74.0636C36.06 72.6111 33.3909 71.4371 30.696 70.3306C28.0049 69.2132 25.1917 68.4337 22.4293 67.5102L14.1339 64.772L5.8077 62.1175C5.76435 62.1036 5.7166 62.1249 5.69897 62.1675C5.6806 62.213 5.7019 62.2645 5.74746 62.2828L5.74819 62.2836Z" fill="#A2D9F7"/>
<path d="M87.0798 17.9031C87.2569 20.8095 87.2826 23.7292 87.6646 26.6173C87.863 28.1586 88.0863 29.6971 88.3582 31.2311C88.5066 32.1561 88.6858 33.0789 88.9246 33.995C89.0208 34.4131 89.1097 34.8311 89.2177 35.2469C89.2266 35.2829 89.2581 35.3101 89.2978 35.3145C89.347 35.3182 89.3897 35.2815 89.3933 35.2322C89.4264 34.8039 89.4426 34.3771 89.4639 33.9495C89.5403 33.0047 89.5564 32.0657 89.5417 31.129C89.5432 29.5707 89.4962 28.0161 89.4227 26.4637C89.2986 23.5529 88.8166 20.6736 88.486 17.7804L87.4611 9.10448L86.3488 0.436617C86.3422 0.391801 86.3032 0.357271 86.2562 0.359475C86.2077 0.361679 86.1695 0.403556 86.1717 0.452046L86.5817 9.18089L87.0791 17.9031H87.0798Z" fill="#A2D9F7"/>
<path d="M101.897 171.073C101.755 168.748 101.702 166.416 101.494 164.097C101.432 163.259 101.356 162.423 101.245 161.589C100.873 158.7 100.43 155.817 99.6922 152.96C99.6834 152.924 99.6518 152.897 99.6129 152.893C99.5636 152.889 99.5203 152.925 99.5166 152.975C99.2859 155.917 99.3506 158.834 99.4865 161.743C99.5225 162.583 99.593 163.42 99.676 164.256C99.8744 166.576 100.227 168.882 100.491 171.196L101.516 179.871L102.629 188.54C102.635 188.585 102.674 188.619 102.72 188.617C102.769 188.614 102.807 188.573 102.804 188.525L102.395 179.795L101.897 171.073Z" fill="#A2D9F7"/>
<path d="M67.2094 154.784C68.0293 152.786 68.7926 150.761 69.3253 148.628C69.3333 148.598 69.3216 148.566 69.2959 148.547C69.2613 148.522 69.2129 148.53 69.1879 148.564C67.8963 150.343 66.8369 152.23 65.8318 154.142C64.8194 156.05 64.0862 158.089 63.234 160.073L60.7052 166.036L58.2454 172.031C58.2307 172.066 58.2454 172.108 58.2799 172.126C58.3174 172.146 58.363 172.132 58.3828 172.095L61.3943 166.357L64.336 160.587C65.308 158.659 66.399 156.787 67.2094 154.784Z" fill="#A2D9F7"/>
<path d="M121.767 34.1918C120.947 36.1901 120.183 38.2157 119.65 40.3477C119.643 40.3771 119.654 40.4095 119.68 40.4293C119.715 40.4543 119.764 40.4469 119.788 40.4117C121.08 38.633 122.139 36.7463 123.143 34.8339C124.157 32.9259 124.889 30.8864 125.741 28.9028L128.271 22.94L130.731 16.945C130.745 16.909 130.731 16.8671 130.695 16.8487C130.659 16.8289 130.612 16.8436 130.592 16.8803L127.582 22.619L124.639 28.3892C123.667 30.317 122.578 32.189 121.766 34.1911L121.767 34.1918Z" fill="#A2D9F7"/>
<path d="M35.3268 136.655C37.1319 135.472 39.0127 134.396 40.7165 133.067C42.4253 131.746 44.099 130.374 45.6264 128.794C45.6477 128.772 45.655 128.739 45.6418 128.709C45.6242 128.67 45.5794 128.652 45.5397 128.67C43.5325 129.564 41.6716 130.669 39.8451 131.823C38.0135 132.969 36.3598 134.369 34.6296 135.66L29.4573 139.559L24.3292 143.521C24.2984 143.544 24.291 143.588 24.3108 143.622C24.3336 143.656 24.3806 143.667 24.4159 143.645L29.893 140.181L35.326 136.655H35.3268Z" fill="#A2D9F7"/>
<path d="M153.65 52.3208C151.845 53.5043 149.964 54.5807 148.26 55.9097C146.551 57.2307 144.878 58.6023 143.35 60.1827C143.328 60.2047 143.322 60.2385 143.335 60.2679C143.353 60.3068 143.398 60.3245 143.437 60.3068C145.444 59.412 147.306 58.3085 149.132 57.1543C150.963 56.0082 152.618 54.6086 154.347 53.317L159.519 49.4173L164.647 45.4558C164.677 45.4316 164.685 45.3882 164.664 45.3544C164.642 45.3192 164.595 45.3089 164.559 45.3309L159.082 48.795L153.649 52.3208H153.65Z" fill="#A2D9F7"/>
<path d="M22.6196 61.3948L28.3898 64.3372C30.3177 65.3092 32.1897 66.3995 34.1924 67.2106C36.1908 68.0305 38.2156 68.7938 40.3484 69.3265C40.3785 69.3338 40.4101 69.3228 40.4299 69.2971C40.4549 69.2626 40.4468 69.2141 40.4123 69.1891C38.6329 67.8975 36.7469 66.8381 34.8345 65.8338C32.9265 64.8206 30.8871 64.0881 28.9034 63.2352L22.9407 60.7056L16.9449 58.2459C16.9096 58.2312 16.867 58.2459 16.8493 58.2812C16.8295 58.3179 16.8435 58.3649 16.8809 58.384L22.6189 61.3948H22.6196Z" fill="#A2D9F7"/>
<path d="M166.357 127.582L160.587 124.64C158.66 123.668 156.787 122.577 154.785 121.767C152.786 120.947 150.761 120.184 148.629 119.651C148.6 119.643 148.567 119.655 148.548 119.68C148.523 119.715 148.53 119.763 148.564 119.789C150.343 121.08 152.23 122.139 154.142 123.144C156.051 124.157 158.089 124.89 160.073 125.742L166.036 128.272L172.031 130.732C172.067 130.746 172.109 130.732 172.127 130.697C172.147 130.66 172.133 130.614 172.096 130.595L166.357 127.583V127.582Z" fill="#A2D9F7"/>
<path d="M52.3216 35.3272C53.5052 37.1323 54.5808 39.0131 55.9098 40.7168C57.2308 42.4257 58.6025 44.0993 60.1828 45.6275C60.2048 45.6488 60.2394 45.6562 60.268 45.6422C60.3077 45.6246 60.3246 45.579 60.3077 45.5401C59.4128 43.5329 58.3093 41.6712 57.1551 39.8455C56.009 38.0139 54.6094 36.3594 53.3179 34.6307L49.4189 29.4585L45.4574 24.3303C45.4339 24.2995 45.3898 24.2914 45.3568 24.3127C45.3208 24.3347 45.3105 24.3818 45.3333 24.417L48.7973 29.8941L52.3238 35.3272H52.3216Z" fill="#A2D9F7"/>
<path d="M136.656 153.65C135.472 151.845 134.396 149.964 133.067 148.26C131.747 146.551 130.375 144.878 128.795 143.35C128.773 143.329 128.739 143.322 128.709 143.335C128.671 143.352 128.652 143.397 128.67 143.437C129.565 145.444 130.668 147.305 131.822 149.131C132.969 150.963 134.369 152.618 135.66 154.347L139.56 159.519L143.522 164.647C143.545 164.678 143.589 164.686 143.622 164.665C143.657 164.643 143.668 164.595 143.646 164.561L140.182 159.084L136.656 153.651V153.65Z" fill="#A2D9F7"/>
<path d="M171.073 87.0796C168.167 87.2567 165.247 87.2824 162.359 87.6644C159.469 88.0362 156.587 88.4792 153.729 89.2161C153.693 89.2256 153.666 89.2572 153.662 89.2962C153.658 89.3454 153.695 89.3887 153.744 89.3924C156.686 89.6224 159.602 89.5585 162.512 89.4225C165.423 89.2976 168.303 88.815 171.196 88.4858L179.872 87.4609L188.54 86.3479C188.585 86.342 188.619 86.3023 188.616 86.2568C188.614 86.2083 188.573 86.1701 188.523 86.173L179.795 86.5822L171.072 87.0796H171.073Z" fill="#A2D9F7"/>
<path d="M17.9036 101.897C20.81 101.72 23.729 101.695 26.6178 101.312C29.5066 100.941 32.3902 100.498 35.2474 99.7601C35.2834 99.7513 35.3113 99.7197 35.3143 99.68C35.318 99.6315 35.2812 99.5882 35.232 99.5845C32.2896 99.3538 29.3736 99.4184 26.4635 99.5544C23.5526 99.6785 20.6734 100.161 17.7802 100.491L9.10424 101.516L0.435641 102.628C0.390825 102.635 0.356294 102.674 0.358498 102.721C0.361437 102.769 0.40258 102.807 0.451069 102.805L9.18065 102.395L17.9029 101.898L17.9036 101.897Z" fill="#A2D9F7"/>
<path d="M102.629 0.436688L101.516 9.10455L100.491 17.7805C100.161 20.6737 99.679 23.553 99.5541 26.4638C99.4821 28.0162 99.4336 29.5701 99.4358 31.1291C99.4211 32.0658 99.4372 33.0047 99.5129 33.9495C99.5349 34.3771 99.5496 34.804 99.5834 35.2323C99.5864 35.269 99.6128 35.3021 99.6503 35.3117C99.6988 35.3241 99.7473 35.2955 99.7598 35.2477C99.867 34.8319 99.9559 34.4146 100.051 33.9973C100.291 33.0797 100.469 32.1576 100.619 31.2319C100.891 29.6979 101.114 28.1595 101.311 26.6181C101.694 23.73 101.72 20.8104 101.897 17.9039L102.395 9.18169L102.804 0.452851C102.807 0.407301 102.773 0.366158 102.728 0.361015C102.679 0.355138 102.635 0.388933 102.629 0.437423V0.436688Z" fill="#A2D9F7"/>
<path d="M89.3926 152.895C89.3449 152.883 89.2964 152.912 89.2839 152.959C88.5462 155.817 88.1032 158.699 87.7322 161.589C87.622 162.422 87.5456 163.259 87.4824 164.097C87.2745 166.415 87.2216 168.747 87.0798 171.072L86.5824 179.794L86.1725 188.523C86.1703 188.569 86.2041 188.609 86.2496 188.615C86.2981 188.621 86.3429 188.587 86.3488 188.539L87.4611 179.87L88.486 171.194C88.7498 168.881 89.1031 166.575 89.3008 164.255C89.3838 163.419 89.4536 162.582 89.4903 161.742C89.6262 158.832 89.6902 155.916 89.4602 152.974C89.4573 152.937 89.4308 152.904 89.3926 152.894V152.895Z" fill="#A2D9F7"/>
<path d="M125.741 160.073C124.889 158.09 124.157 156.05 123.143 154.142C122.14 152.23 121.08 150.344 119.788 148.564C119.771 148.539 119.739 148.527 119.707 148.534C119.665 148.545 119.64 148.586 119.65 148.628C120.183 150.76 120.948 152.786 121.767 154.784C122.578 156.787 123.668 158.659 124.64 160.587L127.582 166.357L130.593 172.095C130.612 172.13 130.653 172.145 130.69 172.13C130.729 172.114 130.748 172.069 130.731 172.031L128.272 166.036L125.742 160.073H125.741Z" fill="#A2D9F7"/>
<path d="M63.2347 28.9039C64.0869 30.8876 64.8201 32.9263 65.8325 34.8351C66.8368 36.7482 67.897 38.6341 69.1886 40.4128C69.2062 40.4371 69.2378 40.4503 69.2694 40.4422C69.3113 40.4319 69.3363 40.39 69.326 40.3489C68.7933 38.2168 68.03 36.1913 67.2101 34.1929C66.3997 32.1909 65.3087 30.3182 64.3367 28.3911L61.395 22.6209L58.3835 16.8822C58.3651 16.8484 58.324 16.833 58.2873 16.8469C58.2491 16.8631 58.23 16.9079 58.2461 16.9461L60.7059 22.9412L63.2347 28.9039Z" fill="#A2D9F7"/>
<path d="M159.519 139.56L154.347 135.661C152.617 134.369 150.963 132.97 149.132 131.823C147.306 130.669 145.444 129.565 143.437 128.671C143.408 128.658 143.375 128.663 143.352 128.686C143.321 128.716 143.321 128.764 143.35 128.795C144.877 130.375 146.551 131.746 148.26 133.067C149.964 134.396 151.844 135.473 153.65 136.656L159.084 140.182L164.56 143.646C164.594 143.667 164.636 143.659 164.661 143.628C164.687 143.595 164.681 143.547 164.648 143.521L159.52 139.56H159.519Z" fill="#A2D9F7"/>
<path d="M29.4581 49.417L34.6303 53.3167C36.3605 54.6083 38.0143 56.0079 39.8459 57.154C41.6716 58.3089 43.5325 59.4124 45.5404 60.3066C45.5683 60.3191 45.6021 60.3139 45.6257 60.2911C45.6565 60.2617 45.6572 60.2133 45.6279 60.1817C44.1004 58.6021 42.4268 57.2297 40.7179 55.9087C39.0134 54.5797 37.1334 53.5041 35.3282 52.3198L29.8952 48.794L24.4181 45.3299C24.3851 45.3093 24.3417 45.3167 24.3175 45.3483C24.2925 45.3813 24.2976 45.4291 24.3314 45.4548L29.4596 49.4163L29.4581 49.417Z" fill="#A2D9F7"/>
<path d="M160.073 63.2343C158.09 64.0873 156.051 64.8198 154.142 65.8329C152.229 66.8365 150.343 67.8966 148.564 69.1882C148.54 69.2059 148.528 69.2382 148.534 69.269C148.545 69.3109 148.587 69.3359 148.628 69.3256C150.76 68.793 152.785 68.0289 154.784 67.2097C156.786 66.3993 158.659 65.3083 160.586 64.3363L166.356 61.3939L172.095 58.3831C172.129 58.3648 172.145 58.3236 172.13 58.2862C172.113 58.248 172.069 58.2289 172.03 58.245L166.035 60.7048L160.073 63.2343H160.073Z" fill="#A2D9F7"/>
<path d="M28.9034 125.741C30.8863 124.889 32.9258 124.156 34.8346 123.142C36.747 122.138 38.6329 121.079 40.4123 119.788C40.4373 119.77 40.4498 119.738 40.4417 119.706C40.4314 119.664 40.3895 119.639 40.3477 119.65C38.2156 120.182 36.1901 120.946 34.1917 121.766C32.1889 122.576 30.3162 123.667 28.3891 124.639L22.6189 127.581L16.881 130.592C16.8464 130.61 16.831 130.652 16.8457 130.688C16.8619 130.727 16.9059 130.746 16.9449 130.73L22.9407 128.27L28.9034 125.74V125.741Z" fill="#A2D9F7"/>
<path d="M131.822 39.8456C130.668 41.6713 129.565 43.533 128.67 45.5402C128.658 45.5681 128.662 45.6019 128.685 45.6254C128.715 45.6563 128.763 45.657 128.795 45.6276C130.375 44.1002 131.747 42.4266 133.067 40.717C134.396 39.0132 135.472 37.1332 136.656 35.3273L140.182 29.8943L143.646 24.4172C143.666 24.3848 143.66 24.3408 143.627 24.3165C143.594 24.2908 143.546 24.2974 143.521 24.3305L139.559 29.4586L135.66 34.6308C134.369 36.3603 132.969 38.0141 131.822 39.8456H131.822Z" fill="#A2D9F7"/>
<path d="M57.1537 149.131C58.3079 147.305 59.4121 145.444 60.3062 143.436C60.3187 143.408 60.3136 143.374 60.2908 143.351C60.2607 143.32 60.2122 143.319 60.1813 143.349C58.6018 144.876 57.2301 146.55 55.9084 148.259C54.5793 149.963 53.5037 151.843 52.3202 153.648L48.7937 159.081L45.3296 164.558C45.309 164.591 45.3164 164.635 45.3472 164.659C45.3803 164.684 45.4288 164.678 45.4545 164.645L49.4159 159.517L53.3149 154.345C54.6065 152.615 56.0061 150.961 57.1522 149.129L57.1537 149.131Z" fill="#A2D9F7"/>
<path d="M0.436395 86.3479L9.10499 87.4609L17.7809 88.4858C20.6741 88.8157 23.5534 89.2984 26.4642 89.4226C29.3743 89.5585 32.2903 89.6224 35.2327 89.3924C35.2695 89.3895 35.3025 89.363 35.3128 89.3256C35.3246 89.2778 35.2959 89.2286 35.2482 89.2161C32.391 88.4785 29.508 88.0355 26.6185 87.6644C23.7297 87.2817 20.8108 87.2567 17.9044 87.0796L9.18214 86.5822L0.452559 86.173C0.407008 86.1701 0.3666 86.2039 0.360722 86.2502C0.35411 86.2979 0.389375 86.3427 0.43713 86.3486L0.436395 86.3479Z" fill="#A2D9F7"/>
<path d="M188.54 102.627L179.872 101.515L171.196 100.49C168.303 100.16 165.423 99.6775 162.512 99.5534C159.602 99.4175 156.686 99.3528 153.744 99.5835C153.707 99.5864 153.674 99.6122 153.665 99.6504C153.652 99.6981 153.681 99.7466 153.729 99.7591C156.586 100.497 159.469 100.94 162.358 101.311C165.246 101.694 168.166 101.719 171.072 101.896L179.795 102.394L188.523 102.803C188.569 102.805 188.61 102.772 188.615 102.727C188.621 102.678 188.587 102.634 188.539 102.627H188.54Z" fill="#A2D9F7"/>
<path d="M39.5851 40.5826C41.5893 42.6948 43.4848 44.915 45.6352 46.8818C46.7769 47.9346 47.9363 48.9705 49.1324 49.9704C49.8406 50.5831 50.5701 51.1753 51.343 51.7248C51.6847 51.9827 52.0211 52.2457 52.3709 52.4955C52.4017 52.5168 52.4429 52.5183 52.4745 52.4955C52.5149 52.4669 52.5244 52.4103 52.495 52.3706C52.246 52.0209 51.9822 51.6837 51.7251 51.3421C51.1755 50.5692 50.5834 49.8389 49.9706 49.1307C48.9707 47.9353 47.9348 46.776 46.8835 45.6343C44.9167 43.4846 42.6965 41.5883 40.5835 39.5841L34.2218 33.5971L27.7977 27.6719C27.7646 27.641 27.7118 27.6403 27.678 27.6719C27.6427 27.7049 27.6405 27.7608 27.6728 27.7968L33.5981 34.2209L39.5858 40.5826H39.5851Z" fill="#A2D9F7"/>
<path d="M149.391 148.394C147.789 146.704 146.249 144.952 144.599 143.31C144.012 142.708 143.416 142.116 142.796 141.549C140.654 139.574 138.462 137.65 136.059 135.935C136.029 135.914 135.987 135.913 135.956 135.935C135.915 135.964 135.906 136.02 135.935 136.06C137.649 138.462 139.573 140.655 141.547 142.797C142.115 143.417 142.707 144.013 143.308 144.6C144.95 146.25 146.703 147.789 148.393 149.392L154.755 155.379L161.179 161.304C161.213 161.334 161.265 161.335 161.299 161.304C161.335 161.271 161.337 161.215 161.304 161.179L155.379 154.755L149.391 148.394Z" fill="#A2D9F7"/>
<path d="M158.212 112.349C160.267 113.015 162.403 113.383 164.504 113.878L170.815 115.333L177.146 116.715C177.184 116.723 177.223 116.701 177.234 116.664C177.247 116.623 177.225 116.581 177.186 116.568L171.011 114.599L164.818 112.704C162.751 112.082 160.718 111.333 158.605 110.882C156.495 110.421 154.368 110.021 152.175 109.867C152.144 109.864 152.114 109.88 152.101 109.909C152.081 109.947 152.098 109.994 152.136 110.013C154.111 110.975 156.153 111.692 158.211 112.348L158.212 112.349Z" fill="#A2D9F7"/>
<path d="M24.158 76.2726C26.2254 76.8949 28.2583 77.6435 30.3713 78.0954C32.4821 78.5553 34.6082 78.9557 36.8006 79.11C36.8314 79.1122 36.8615 79.096 36.8755 79.0666C36.8946 79.0284 36.8784 78.9814 36.8402 78.9638C34.8639 78.0013 32.8222 77.2843 30.7644 76.6282C28.7094 75.9618 26.5737 75.5938 24.4725 75.0993L18.1608 73.6439L11.8292 72.2627C11.7917 72.2539 11.7528 72.2759 11.7403 72.3134C11.7278 72.3538 11.7499 72.3964 11.7895 72.4096L17.9639 74.3786L24.1573 76.2733L24.158 76.2726Z" fill="#A2D9F7"/>
<path d="M170.816 73.6429L164.504 75.0984C162.403 75.5935 160.267 75.9609 158.212 76.6272C156.155 77.2841 154.113 78.0004 152.137 78.9628C152.109 78.9768 152.092 79.0054 152.093 79.0378C152.097 79.0804 152.134 79.112 152.176 79.109C154.369 78.9555 156.496 78.5543 158.606 78.0944C160.719 77.6433 162.752 76.8939 164.819 76.2717L171.013 74.3769L177.187 72.4079C177.224 72.3962 177.247 72.358 177.238 72.3198C177.228 72.2786 177.188 72.2522 177.148 72.2617L170.817 73.6429H170.816Z" fill="#A2D9F7"/>
<path d="M18.1615 115.333L24.4732 113.878C26.5744 113.383 28.7102 113.016 30.7651 112.349C32.823 111.692 34.8647 110.976 36.841 110.014C36.8682 110 36.8858 109.971 36.8843 109.939C36.8814 109.896 36.8439 109.864 36.8013 109.867C34.609 110.022 32.4828 110.422 30.3721 110.883C28.2591 111.333 26.2262 112.082 24.1588 112.705L17.9654 114.6L11.791 116.569C11.7543 116.581 11.7315 116.619 11.7396 116.657C11.7484 116.699 11.7888 116.724 11.83 116.716L18.1615 115.334V115.333Z" fill="#A2D9F7"/>
<path d="M110.014 36.84C110.976 34.8637 111.693 32.822 112.349 30.7641C113.016 28.7084 113.384 26.5727 113.878 24.4722L115.333 18.1605L116.715 11.8297C116.722 11.7922 116.701 11.7526 116.664 11.7408C116.623 11.7283 116.58 11.7503 116.568 11.7908L114.6 17.9643L112.704 24.1585C112.082 26.2252 111.333 28.2581 110.882 30.371C110.422 32.4818 110.021 34.608 109.867 36.801C109.865 36.8319 109.881 36.8613 109.91 36.8752C109.948 36.8944 109.995 36.8782 110.013 36.84H110.014Z" fill="#A2D9F7"/>
<path d="M78.9629 152.136C78.0005 154.111 77.2834 156.154 76.6273 158.212C75.9617 160.267 75.5936 162.402 75.0992 164.504L73.6437 170.815L72.2618 177.147C72.2537 177.184 72.2758 177.223 72.3132 177.236C72.3536 177.248 72.3962 177.226 72.4087 177.187L74.3777 171.012L76.2732 164.819C76.8955 162.752 77.6441 160.719 78.096 158.606C78.5559 156.495 78.9563 154.369 79.1106 152.176C79.1135 152.145 79.0966 152.115 79.0672 152.101C79.0297 152.083 78.9827 152.099 78.9644 152.137L78.9629 152.136Z" fill="#A2D9F7"/>
<path d="M76.2725 24.1581L74.377 17.964L72.408 11.7904C72.3963 11.7536 72.3581 11.7309 72.3199 11.7389C72.2787 11.7477 72.2523 11.7882 72.2611 11.8293L73.643 18.1601L75.0985 24.4718C75.5929 26.573 75.961 28.7088 76.6266 30.7637C77.2834 32.8216 77.9998 34.8633 78.9622 36.8396C78.9762 36.8675 79.0048 36.8851 79.0371 36.8829C79.079 36.8793 79.1121 36.8425 79.1084 36.7999C78.9541 34.6069 78.5537 32.4814 78.0938 30.3699C77.6427 28.257 76.8933 26.2241 76.271 24.1574L76.2725 24.1581Z" fill="#A2D9F7"/>
<path d="M113.878 164.503C113.383 162.402 113.016 160.267 112.349 158.211C111.693 156.153 110.976 154.111 110.014 152.135C110 152.108 109.971 152.09 109.939 152.092C109.896 152.096 109.865 152.132 109.868 152.175C110.022 154.367 110.422 156.493 110.882 158.604C111.333 160.717 112.083 162.75 112.705 164.817L114.6 171.011L116.569 177.185C116.58 177.222 116.619 177.245 116.658 177.237C116.699 177.227 116.724 177.187 116.716 177.146L115.334 170.815L113.879 164.503H113.878Z" fill="#A2D9F7"/>
<path d="M46.8827 143.341C48.8568 141.2 50.781 139.007 52.495 136.606C52.5163 136.576 52.5178 136.534 52.495 136.502C52.4663 136.462 52.4105 136.453 52.3701 136.482C49.9684 138.196 47.7761 140.12 45.6345 142.094C43.4848 144.061 41.5885 146.281 39.5843 148.394L33.5966 154.756L27.6713 161.18C27.6412 161.213 27.6404 161.266 27.6713 161.3C27.7044 161.335 27.7602 161.338 27.7962 161.305L34.2203 155.38L40.582 149.393C42.695 147.389 44.9152 145.493 46.882 143.343L46.8827 143.341Z" fill="#A2D9F7"/>
<path d="M142.094 45.6343C140.119 47.7759 138.196 49.9689 136.481 52.3699C136.46 52.4 136.458 52.4419 136.481 52.4735C136.51 52.5139 136.566 52.5227 136.606 52.4948C139.008 50.7793 141.2 48.8566 143.342 46.8818C145.492 44.915 147.388 42.6948 149.392 40.5825L155.379 34.2209L161.305 27.7967C161.336 27.7637 161.336 27.7108 161.305 27.677C161.272 27.641 161.216 27.6388 161.18 27.6718L154.756 33.5971L148.393 39.5841C146.281 41.5883 144.062 43.4838 142.094 45.6343Z" fill="#A2D9F7"/>
<path d="M121.412 143.175C121.445 142.942 121.488 142.687 121.546 142.402C121.654 141.848 121.69 141.583 121.817 140.851C121.438 142.146 121.274 142.642 121.131 143.335C118.995 144.546 116.775 145.622 114.479 146.547C114.357 143.739 115.044 140.919 115.752 138.244C116.542 135.254 116.577 132.007 116.163 128.884C115.733 125.631 115.132 119.795 114.642 116.576C114.381 114.851 114.553 112.89 114.731 111.448C114.947 109.703 115.364 108.08 116.185 106.816C115.772 106.704 115.096 106.631 114.855 106.189C114.645 105.801 115.252 104.081 115.657 102.617C116.036 101.245 115.855 100.006 116.144 98.6214C116.459 97.1065 116.704 95.8773 116.182 94.3463C115.746 93.0664 115.189 91.9872 114.657 90.7139C113.575 88.1256 113.604 84.8122 113.912 82.074C114.072 80.6825 115.507 80.18 116.564 79.5335C117.354 79.0464 118.124 78.3139 118.458 77.862C118.49 77.4638 118.506 77.1839 118.49 76.8717C117.306 76.6072 115.656 74.5794 115.459 72.3283C115.354 71.1382 115.488 70.1603 115.825 69.1097C115.883 67.5117 116.21 66.251 116.895 64.8375C117.417 63.7611 118.738 62.3799 119.89 61.9347C121.177 61.441 123.169 61.358 123.886 62.2433C124.952 61.6225 126.668 63.8221 127.073 64.5642C127.782 65.866 127.849 67.2825 128.129 68.7445C128.702 69.9766 128.801 71.7369 128.463 72.947C128.12 74.1856 127.849 74.6948 127.126 75.583C126.945 75.8027 126.534 76.2134 126.238 76.4426C126.009 76.6211 126.085 77.0634 126.187 77.433C126.801 77.4837 128.234 78.2323 128.721 78.6202C129.202 79.0023 129.612 79.2543 130.271 79.5085C131.036 79.8075 131.745 80.4628 132.42 81.52C133.178 82.7073 133.182 83.7035 133.885 84.7512C134.604 85.8209 134.935 86.7628 135.75 87.8516C136.463 88.803 136.95 89.5833 137.825 90.4524C138.462 91.0864 139.01 92.0922 139.344 93.0245C139.786 94.2698 140.01 95.6481 139.576 96.8133C139 98.3826 138.596 98.3768 137.876 98.6662C137.558 98.7933 137.755 98.8418 137.288 98.8065C137.008 98.7874 136.603 98.6537 136.307 98.5332C135.973 98.9182 135.731 99.3127 135.046 99.3671C134.906 99.4722 134.333 99.3892 134.091 99.3892C134.53 99.5449 134.724 99.8667 134.75 100.357C135.008 100.812 135.037 101.257 134.836 101.808C134.884 102.27 134.791 102.709 134.508 103.127C134.333 103.852 133.963 104.254 133.352 104.556C133.056 105.435 132.772 107.17 132.633 108.399C132.556 109.083 132.496 109.72 132.454 110.43C132.359 111.955 132.499 113.54 132.543 115.091C132.636 118.303 132.46 123.773 131.747 126.857C131.031 129.961 131.213 132.256 130.219 135.293C130.001 135.967 129.659 136.822 129.328 137.668C126.856 139.723 124.207 141.567 121.41 143.176L121.412 143.175ZM131.53 97.2556C132.221 98.5384 131.492 102.072 130.066 102.661C130.584 103.052 131.412 103.212 131.944 102.868C132.507 102.505 132.749 101.757 132.781 101.088C132.838 99.7455 132.294 98.1505 131.53 97.2556ZM134.548 92.1334C135.732 92.8783 136.63 94.117 136.599 95.2338C136.56 96.4945 135.768 97.1506 134.272 97.2901C135.571 98.4554 137.507 97.6942 137.64 96.1536C137.831 93.9187 136.286 92.8078 134.548 92.1326V92.1334ZM127.169 78.9214C127.675 79.4592 127.888 80.6788 127.249 80.9654C125.928 81.4686 124.906 80.6788 123.387 79.8383C125.087 81.3342 125.8 83.2605 127.093 85.1164C127.775 86.0935 128.277 87.0809 128.748 88.227C129.191 89.2997 129.36 90.4399 129.506 91.6272C130.117 91.5383 131.19 91.6433 131.801 91.7065C131.588 89.4973 131.39 88.3989 130.884 86.333C130.633 85.314 130.114 83.3656 129.646 82.1467C129.277 81.1858 127.86 79.2976 127.169 78.9222V78.9214Z" fill="#14599C"/>
<path d="M66.4196 57.1435C67.5304 57.1111 68.5149 57.5064 68.9888 57.729C69.7653 58.0949 70.4052 58.5093 70.9563 59.1235C72.1722 60.4701 72.2838 62.2084 72.1149 64.087C73.0824 63.9783 72.7136 65.4175 72.3823 66.7804C72.1501 67.7259 71.8092 68.3945 71.3185 68.4584C71.1532 69.2541 70.8541 69.9351 70.5191 70.6008C70.5544 71.0813 70.7226 71.4765 70.8534 71.9284C70.9548 72.2884 71.1179 72.6094 71.267 72.9084C70.8306 73.4337 68.6912 75.6496 67.033 76.4643C65.9347 75.9838 63.7159 74.2676 63.0951 73.2589C63.1274 72.339 63.2317 71.0908 63.2097 70.6169C62.6969 69.8881 62.5125 69.3562 62.2957 68.7067C61.6654 68.7574 61.4744 67.7899 61.1173 66.7966C60.7162 65.6762 60.4076 64.4242 61.1651 64.278C60.8433 62.8961 61.3017 60.7633 61.9644 59.554C62.353 58.8406 63.1678 58.1529 63.76 57.7746C64.2816 57.4403 65.5298 57.1699 66.4181 57.1442L66.4196 57.1435ZM79.126 148.588C76.2916 147.812 73.5453 146.82 70.907 145.625C70.9871 142.588 71.0216 139.506 70.8034 136.812C70.5933 134.226 70.5103 131.781 70.0364 129.241C69.8013 127.958 69.6287 126.787 69.3421 125.52C69.1989 124.899 69.0777 124.253 68.8771 123.625C68.7302 123.18 68.412 122.149 68.1769 121.601C67.9124 122.298 67.6134 123.167 67.4826 123.692C67.3107 124.377 67.1836 125.055 67.1329 125.803C67.047 127.061 66.9008 128.13 66.7825 129.374C66.6524 130.785 66.7795 132.205 66.7825 133.628C66.7862 134.904 66.6524 136.181 66.6524 137.482C66.6524 139.477 66.5746 141.434 66.5378 143.406C63.1737 141.509 60.0204 139.274 57.1257 136.741L57.0831 136.018C56.9303 133.346 56.6629 130.659 56.4175 127.982C56.3095 126.788 56.0678 125.661 55.8863 124.471C55.6791 123.108 55.8261 121.711 55.555 120.402C55.109 120.377 54.6506 120.221 54.234 120.059C53.6293 116.276 54.6704 112.46 55.2207 108.798C55.5579 106.567 55.7173 104.055 56.4021 101.982C56.7746 100.839 57.0868 99.7187 57.0839 98.4741C57.0802 97.9011 57.2301 97.4015 57.2683 96.8505C57.3035 96.3347 57.4277 94.7522 57.2176 94.2879C56.3962 95.0968 56.1537 96.9717 55.804 98.159C55.3838 99.5916 55.4124 101.158 55.1039 102.61C54.8555 103.794 54.3751 104.978 54.3082 106.185C54.2384 107.404 53.6778 108.426 53.6808 109.638C53.6844 110.791 53.7351 112.026 53.5662 113.16C53.3979 114.268 53.057 115.531 53.0886 116.672L53.0122 116.659H53.0085L52.9321 116.647H52.9255L52.8557 116.637L52.8432 116.634L52.7764 116.625H52.7602L52.697 116.615L52.6779 116.612L52.6177 116.606L52.5927 116.603L52.5383 116.596L52.5097 116.592L52.4553 116.589L52.423 116.586L52.3723 116.58L52.337 116.576L52.2922 116.573L52.2503 116.57L52.088 116.557H52.0755L52.041 116.553L51.9866 116.55H51.9579L51.897 116.547H51.872L51.8088 116.544L51.7897 116.541H51.7199H51.7037L51.6303 116.537H51.6207L51.5406 116.534H51.534H51.451H51.4481H51.3621H51.2761H51.2732L51.1902 116.537C51.1101 116.537 51.0278 116.541 50.9448 116.544H50.9352H50.9132L50.8493 116.547C50.7376 116.553 50.623 116.559 50.5121 116.569H50.5091L50.4672 116.572L50.4261 116.575H50.4232C49.9456 116.617 49.4842 116.69 49.0669 116.802H49.064L48.9971 116.821L48.9876 116.824L48.9332 116.836L48.9171 116.843L48.8855 116.852L48.8473 116.862L48.7804 116.884L48.7679 116.888L48.7135 116.904L48.6944 116.913L48.6401 116.932H48.6364L48.5916 116.949L48.5695 116.955L48.5218 116.974C48.477 116.991 48.4358 117.006 48.3976 117.025L48.3851 117.028L48.3726 117.035L48.3183 117.057C48.2323 117.095 48.1493 117.137 48.07 117.178C48.0097 117.209 47.9487 117.245 47.8951 117.28C47.9583 116.321 47.6527 114.704 47.7768 113.424C47.9069 112.084 48.0442 110.846 48.0442 109.439C48.0442 104.457 49.6584 99.5887 50.3879 94.7529C50.5561 93.6384 50.8493 92.6268 51.1681 91.5629C51.4929 90.4866 51.6229 89.4176 51.9513 88.3729C52.6772 86.0586 52.7977 83.3653 53.0306 80.9298C53.1261 79.9431 53.1004 78.8638 53.8806 78.326C54.7564 77.7273 55.5675 77.282 56.5674 76.8802C57.5445 76.4856 58.3439 76.0654 59.2578 75.5974C59.7515 75.3491 60.5024 74.967 60.9542 74.6673C61.384 74.3874 62.1481 73.9223 62.5815 73.5726C62.5815 78.2746 63.1928 83.0626 64.6541 87.3833C64.8481 87.9563 65.0427 88.6154 65.2396 89.1877C65.2903 88.8152 65.3065 88.14 65.4211 86.8954C65.4946 86.1218 65.5901 84.7531 65.8546 82.5946C65.9214 82.0436 66.036 80.8497 66.3351 79.7866C66.0133 79.4905 65.5394 79.121 65.1566 78.7551C65.6724 78.1563 66.5349 77.2776 67.0161 76.8287C67.4841 77.1917 68.5347 78.0417 69.0762 78.4906C68.653 78.9872 68.3121 79.4361 67.9301 79.802C68.1622 80.633 68.3885 81.6321 68.5281 82.524C68.7448 83.8869 68.8719 85.2968 69.0123 86.6941C69.1107 87.6941 69.1614 88.356 69.1776 88.9702C69.2951 88.655 69.6581 87.9578 69.9417 86.8279C70.4861 84.6444 70.8938 82.5299 71.2215 80.2788C71.5403 78.1042 72.0017 75.5805 72.0017 73.4727C74.1286 74.9972 76.4584 75.7612 79.3141 76.634C79.871 76.8023 80.9025 77.1432 81.3925 77.5186C81.9435 77.9455 82.3763 79.8909 82.5416 80.5779C82.9839 82.3925 83.4203 83.7458 83.7384 85.2703C84.404 88.4603 84.8022 91.5166 85.1997 94.7096C85.4164 96.4347 85.5722 98.2846 85.725 99.9781C85.8653 101.564 85.7088 102.92 85.4737 104.41C84.847 108.351 83.8692 112.037 82.4652 115.571C82.4527 116.437 82.4299 117.596 82.4622 118.277C82.4909 118.879 82.5291 119.43 82.4586 120.037C82.0986 120.19 81.9075 120.174 81.5255 120.222C81.1692 120.266 80.9936 120.311 80.5704 120.445C80.5924 120.887 80.5131 121.613 80.2839 121.938C80.0804 122.224 79.8761 122.39 79.6506 122.616C79.8291 123.135 79.835 124.95 79.8416 125.539C79.8482 126.093 79.8732 126.869 79.8732 127.423C79.8732 128.55 79.94 129.505 79.94 130.632C79.94 132.988 79.4757 135.156 79.4757 137.544C79.4757 140.731 79.4302 144.807 79.1267 148.584L79.126 148.588ZM53.0328 117.574C52.7426 117.507 52.0652 117.475 51.7118 117.459C51.3268 117.44 50.9573 117.447 50.5782 117.447C49.8685 117.443 48.942 117.517 48.1552 117.771C48.1934 118.204 48.2029 119.178 48.2507 119.548C48.3308 120.153 48.2727 120.773 48.3491 121.363C48.4571 122.174 49.4637 123.435 50.1792 123.786C50.7619 124.072 51.5068 124.728 52.2041 124.617C52.5986 124.553 52.9454 124.19 52.7257 123.801C52.5376 123.464 52.0762 123.33 51.7103 123.355C51.8029 122.977 51.1755 122.61 50.9147 122.498C51.2681 122.205 51.1498 120.843 50.9404 120.48C51.1983 120.33 51.4429 119.91 51.5325 119.583C51.6214 119.865 51.6472 120.149 51.7331 120.439C51.8 120.671 51.883 120.955 52.0292 121.101C52.0645 121.543 51.8411 122.263 52.3319 122.505C52.8227 122.744 53.0511 122.209 53.2076 121.811C53.3825 121.369 53.564 120.875 53.4369 120.391C53.3384 120.021 53.1981 119.607 53.1599 119.206C53.1187 118.757 53.1121 118.044 53.0328 117.573V117.574ZM80.8026 119.207C80.9877 118.312 80.9906 117.252 80.6049 116.702C80.242 116.179 79.6403 115.759 79.0415 115.47C78.4618 115.19 77.9938 115.052 77.265 114.922C76.4437 114.772 76.2681 115.139 75.9059 115.741C76.944 115.655 78.0357 116.154 78.8924 116.6C79.5771 116.957 80.7394 118.062 80.8026 119.208V119.207Z" fill="#14599C"/>
<path d="M87.1797 102.862C86.9505 105.352 86.3039 111.177 86.027 112.772C85.9087 113.467 85.8962 115.545 85.8617 115.874C85.8264 116.198 85.6163 116.605 86.5398 116.666C86.5589 117.961 86.578 119.672 86.6478 121.862C86.7176 124.049 86.4501 129.502 86.6448 131.361C86.8425 133.224 86.7558 136.156 86.5427 137.93C86.3296 139.696 86.323 144.955 86.3642 147.665C86.3745 148.481 86.4031 149.286 86.4229 150.064C88.8276 150.383 91.28 150.549 93.7706 150.549C94.2077 150.549 94.6427 150.543 95.0769 150.532C95.0622 150.451 95.0467 150.37 95.0298 150.291C94.6573 148.569 94.9343 147.047 95.2561 145.786C95.575 144.528 95.6315 141.953 95.7623 140.367C95.8894 138.785 95.8035 137.323 96.2046 134.388C96.6057 131.453 96.8004 129.13 97.2773 125.777C97.7548 122.422 98.0509 119.958 98.5608 117.777C98.9457 119.257 99.7987 124.377 99.8854 125.806C100.045 128.477 100.318 129.999 100.662 131.893C101.009 133.787 101.028 136.474 101.2 138.69C101.365 140.906 101.649 145.681 101.486 147.206C101.42 147.838 101.509 148.895 101.646 149.988C104.659 149.559 107.595 148.891 110.435 147.997C110.364 146.971 110.294 146.019 110.283 145.108C110.267 143.933 110.13 142.408 110.178 140.953C110.225 139.497 110.238 136.518 110.209 134.579C110.181 132.638 110.018 128.343 110.123 126.057C110.225 123.771 110.234 119.314 110.33 116.474C111.294 116.474 111.282 116.372 111.349 115.306C111.397 114.51 110.795 106.449 110.715 105.083C110.591 102.953 110.394 100.206 110.275 99.4231C110.154 98.6399 110.125 97.7362 109.938 96.6724C110.346 96.9082 110.852 97.3601 111.03 97.6113C111.205 97.8597 111.349 97.9838 111.756 98.2197C112.166 98.4518 112.64 98.7031 113.456 98.9712C114.274 99.2357 115.038 99.2196 115.71 99.2034C116.382 99.1872 116.932 99.3467 117.792 99.5024C118.655 99.6582 120.346 99.8301 120.941 99.8301C121.536 99.8301 121.689 99.6266 121.778 99.4069C121.87 99.1873 122.029 98.4393 122.163 97.9074C122.296 97.3755 122.392 96.405 122.398 95.8569C122.856 96.092 123.312 96.2962 123.672 96.4366C124.035 96.5769 124.391 96.2962 124.544 96.0766C124.697 95.8569 124.849 95.5454 124.907 95.3125C125.346 95.3573 125.846 95.3125 126.03 95.2486C126.218 95.1883 126.355 95.0135 126.514 95.0135C126.67 95.0135 127.466 94.8732 127.839 94.7967C128.211 94.7174 128.784 94.342 128.953 94.0936C129.377 94.0936 129.953 93.8901 130.153 93.8262C130.357 93.763 130.434 93.6705 130.605 93.6543C130.777 93.6381 131.554 93.3744 132.066 93.1385C132.579 92.9064 132.509 92.4663 132.337 92.3583C132.709 92.1864 133.203 91.639 133.101 91.2475C133.002 90.8559 132.47 90.8559 131.974 90.9514C131.474 91.0439 131.133 91.3268 130.684 91.6075C130.433 91.5443 129.853 91.4958 129.436 91.6714C129.166 91.4833 128.01 91.4671 127.43 91.4833C127.099 91.3591 126.472 91.2313 126.084 91.2475C125.845 91.0917 125.265 90.8397 125.058 90.764C124.874 90.6942 124.743 90.5444 124.819 90.4202C124.896 90.296 125.405 89.8567 125.637 89.6848C125.869 89.5129 126.862 88.9655 127.172 88.762C127.48 88.5614 128.239 87.9024 128.372 87.4668C128.506 87.0274 128.222 86.8268 127.879 86.7475C127.532 86.6711 126.956 86.7475 126.503 86.8871C126.051 87.0274 125.73 87.3551 125.345 87.8106C125.129 87.9032 124.88 88.0273 124.463 88.3109C124.043 88.5908 123.731 88.6805 123.441 88.8076C123.152 88.9317 122.833 89.2183 122.461 89.3424C122.085 89.4666 121.484 89.7274 120.751 90.1381C119.946 90.5929 119.723 91.0866 119.026 91.9212C118.478 91.8286 117.698 92.265 117.284 92.3921C116.867 92.5163 116.616 92.3061 116.071 92.1408C116.313 91.6824 116.004 90.5142 115.833 90.1388C115.661 89.7663 115.603 88.7635 115.642 88.3499C115.677 87.9325 115.667 87.3059 115.406 86.6402C115.483 86.0995 115.428 85.1378 115.209 84.514C114.992 83.8866 114.811 82.8456 114.753 81.8052C114.696 80.7642 114.184 79.8473 114.082 78.5961C113.98 77.3449 113.55 76.4692 113.372 75.6353C113.194 74.8014 112.773 74.5913 112.522 74.5494C112.395 74.343 111.264 73.9668 110.634 73.6744C110.004 73.3842 106.482 72.0089 104.973 71.427C104.789 71.1567 103.881 70.3985 103.292 69.8893C103.305 69.9496 103.317 70.0002 103.327 70.0708C103.423 70.6534 103.557 71.3411 103.467 72.3851C103.378 73.4261 102.974 77.3038 102.607 79.2838C102.242 81.2608 101.646 84.8682 100.748 87.5997C100.7 85.7439 100.722 82.9514 100.662 81.7229C100.602 80.4909 100.433 78.7813 100.194 78.0936C99.9552 77.4059 99.4203 76.4699 99.3505 76.0945C99.5768 75.8969 100.041 75.509 100.277 75.1967C100.064 74.8242 99.3219 74.1145 98.7745 73.6972C97.9693 74.2387 97.447 74.7287 97.1795 75.0725C97.3485 75.3238 97.8261 75.8653 98.0582 76.0335C97.8385 76.6896 97.5586 77.4471 97.3581 78.0106C97.1575 78.5741 96.8261 80.3057 96.7373 81.2836C96.6484 82.2644 96.126 86.4125 96.0555 88.8509C95.5493 86.9312 94.877 83.9101 94.661 81.8471C94.4443 79.7841 94.4186 73.72 94.4413 72.363C94.4318 71.787 94.5596 70.5902 94.6353 69.9437C94.0556 70.4433 93.3268 71.0641 93.174 71.2999C91.6841 71.8855 88.2207 73.3056 87.5801 73.5503C86.874 73.8206 85.8609 74.0822 85.7404 74.2923C85.4921 74.3335 85.0528 74.6773 84.8999 75.5119C84.7442 76.3458 84.1388 77.8232 84.0756 79.0744C84.0088 80.3256 83.5217 81.2425 83.4959 82.2835C83.4702 83.3275 82.9831 84.4582 82.8972 85.1077C82.8237 85.633 82.4806 86.3206 82.3307 86.9855C82.1779 87.6475 82.222 88.2911 82.1015 88.593C81.9516 88.9751 81.4491 90.8911 81.3918 91.4392C80.9745 91.3151 80.1024 90.8595 79.558 90.9558C79.1312 90.6884 78.9019 90.4555 78.3575 90.2042C77.6831 89.8927 77.2562 89.6473 76.8646 89.5805C76.4091 89.5011 76.0146 89.5996 75.7215 89.4754C75.4283 89.3512 75.1131 89.2623 74.687 88.9824C74.2602 88.6988 73.862 88.6636 73.6327 88.5967C73.1905 88.189 72.8246 87.8965 72.3566 87.8069C71.8886 87.7143 71.306 87.7019 70.9746 87.8165C70.6433 87.9311 70.3891 88.1632 70.583 88.5835C70.777 89.0037 71.6182 89.5731 71.9518 89.7391C72.2861 89.9081 73.3146 90.1851 73.5497 90.357C73.7885 90.5289 74.3109 90.9653 74.3902 91.0895C74.4703 91.2166 74.3425 91.3628 74.161 91.4333C73.9575 91.5134 73.3837 91.7647 73.1515 91.9175C72.7599 91.905 71.5852 92.0637 71.2288 92.2386C70.6492 92.2224 70.0225 92.1908 69.0542 92.2386C68.5509 91.9557 67.7552 91.7169 67.252 91.6207C66.7524 91.5281 66.2205 91.5281 66.1316 91.9168C66.0427 92.3083 66.5518 92.8557 66.9309 93.0276C66.759 93.1393 66.7017 93.575 67.2204 93.8108C67.7427 94.0459 68.5289 94.3104 68.7008 94.3265C68.869 94.3427 68.952 94.4345 69.1555 94.4985C69.3598 94.5587 69.9387 94.7629 70.3626 94.7629C70.5375 95.0142 70.8211 95.1927 71.1965 95.2691C71.5749 95.3492 72.2728 95.4161 72.4286 95.4161C72.6358 95.566 73.0876 95.7599 73.4381 95.8488C73.6291 95.8966 74.6444 95.8745 75.4562 95.6644C75.7016 95.7092 76.141 95.8011 76.5002 95.8327C76.6149 96.333 76.8029 96.5813 77.0953 97.0522C77.4487 97.6157 77.8719 97.8479 78.2223 98.1249C78.4068 98.2748 78.8204 98.418 79.4125 98.418C80.0076 98.418 80.5587 98.6597 81.4146 98.504C82.2712 98.3482 82.7517 98.0676 83.4269 98.0837C84.0984 98.0999 84.3217 97.7429 85.1299 97.4791C85.9388 97.2146 86.0718 96.9633 86.4736 96.7275C86.8777 96.4953 87.212 96.1677 87.381 95.9157C87.55 95.6644 87.9283 94.9261 88.148 94.2061C87.9886 95.2691 87.9886 96.1765 87.8901 96.9567C87.7917 97.7399 87.3685 100.751 87.1738 102.865L87.1797 102.862ZM121.444 95.7952C121.294 96.2948 121.205 96.715 120.862 97.1992C120.355 97.9126 119.651 98.3739 119.088 98.6575C118.031 98.1418 117.095 97.2888 116.748 96.5975C116.401 95.9032 116.703 94.8724 117.032 94.1274C117.36 93.3788 118.216 92.5993 118.748 92.4017C118.086 93.1848 117.506 93.9364 117.322 94.4103C117.079 95.0157 116.844 95.7636 117.188 96.33C117.478 96.8105 117.694 97.0243 118.181 97.4504C118.375 97.2528 118.99 96.6834 119.569 96.3646C120.078 96.0847 120.839 95.7599 121.445 95.7952H121.444ZM77.4406 95.7981C78.1122 95.671 78.8417 95.375 79.4052 95.375C79.9371 95.375 80.4404 95.5785 80.8187 95.7217C81.2934 95.2919 81.3058 95.3874 81.5733 94.9701C81.8025 94.6101 81.7004 93.932 81.4432 93.3274C81.2427 92.8528 80.6439 92.0982 79.957 91.3187C80.5234 91.592 81.2845 92.3436 81.7812 93.1239C82.2235 93.8211 82.3609 94.6359 82.0325 95.3301C81.7048 96.0207 80.8422 97.0589 79.8012 97.5746C79.1547 97.4409 78.6676 97.1896 78.2253 96.8899C77.8212 96.6195 77.6111 96.2948 77.4421 95.7981H77.4406ZM102.817 69.4478C102.903 69.1421 102.801 68.8299 102.986 68.5434C103.151 68.2921 103.291 68.1106 103.479 67.8337C103.887 67.2386 104.319 66.1879 104.058 65.4459C104.399 65.2299 104.45 65.0382 104.53 64.7869C104.584 64.6084 104.683 64.36 104.785 64.2102C104.986 63.9075 105.04 63.4527 105.167 62.8157C105.26 62.3477 105.342 62.0355 105.323 61.5072C105.304 60.9981 104.699 60.5455 104.448 61.0392C104.531 60.7527 104.633 60.6477 104.706 60.4405C105.005 59.5838 105.043 58.6133 104.967 57.6869C104.906 56.9419 104.607 55.7958 104.136 55.1816C103.203 53.9657 100.898 52.256 99.2102 52.8291C98.8693 52.6447 97.5359 52.6124 97.0488 52.9503C96.7747 53.1384 96.6285 53.3639 96.342 53.4977C96.0297 53.6446 95.5647 53.4881 95.4596 53.9245C94.7308 54.2683 94.218 55.7201 93.9572 56.4842C93.7948 56.9647 93.6325 57.7545 93.6067 58.2511C93.5906 58.6074 93.4951 59.7411 93.7948 59.9475C93.8139 60.3648 93.919 60.6322 94.1262 60.979C92.9103 59.5684 93.0116 61.6667 93.0565 62.3859C93.0726 62.6592 93.0881 63.0574 93.2982 63.5387C93.4987 63.9207 93.5017 64.1977 93.5752 64.4137C93.7023 64.6973 93.7948 64.8787 93.9667 64.8435C94.24 65.767 94.0049 66.6199 94.6162 67.4259C94.852 67.7345 95.0556 67.9923 95.2532 68.3009C95.4347 68.5941 95.3678 68.9438 95.3582 69.2876C95.3546 69.4022 95.3612 69.5168 95.3832 69.6285C95.536 70.3896 96.2237 71.0171 96.6917 71.5549C97.217 72.1602 98.0546 72.8413 98.7613 73.4746C99.4556 73.0066 100.003 72.4049 100.647 71.8575C101.245 71.3447 102.2 70.4278 102.716 69.6704C102.767 69.5969 102.799 69.5205 102.818 69.447L102.817 69.4478Z" fill="#14599C"/>
</svg>
