<svg width="193" height="194" viewBox="0 0 193 194" fill="none" xmlns="http://www.w3.org/2000/svg">
<path d="M96.8902 9.80534L96.5309 0.922512C96.5296 0.87688 96.4923 0.838321 96.4454 0.837036C96.3953 0.834465 96.3541 0.873024 96.3522 0.922512L95.9929 9.80534L95.723 18.6888C95.6452 21.6497 95.4126 24.6107 95.5437 27.5716C95.6073 29.1508 95.6973 30.7299 95.838 32.3084C95.9062 33.2596 96.0058 34.2101 96.1658 35.1607C96.2269 35.592 96.2796 36.0245 96.3516 36.4557C96.3574 36.493 96.3869 36.5239 96.4261 36.5303C96.4762 36.5393 96.5225 36.5052 96.5302 36.4557C96.6022 36.0245 96.6562 35.5932 96.7166 35.1626C96.8773 34.2114 96.9769 33.2602 97.0451 32.309C97.1852 30.7305 97.2738 29.1514 97.3381 27.5723C97.4699 24.6113 97.2366 21.6504 97.1588 18.6894L96.8895 9.80598L96.8902 9.80534Z" fill="#96C8ED"/>
<path d="M97.3394 165.564C97.2192 162.603 97.0258 159.642 96.5315 156.68C96.5257 156.643 96.4968 156.612 96.4576 156.606C96.4081 156.597 96.3606 156.631 96.3528 156.68C95.858 159.641 95.6645 162.602 95.5449 165.564C95.507 166.419 95.5038 167.273 95.5148 168.128C95.509 170.496 95.6619 172.864 95.7243 175.233L95.9942 184.115L96.3535 192.999C96.3554 193.045 96.3927 193.083 96.439 193.085C96.4891 193.088 96.5309 193.049 96.5322 192.999L96.8914 184.115L97.1607 175.233C97.2231 172.864 97.3767 170.496 97.3709 168.128C97.3812 167.273 97.3786 166.419 97.3401 165.564L97.3394 165.564Z" fill="#96C8ED"/>
<path d="M133.93 160.658C132.891 158.722 131.968 156.722 130.772 154.877C129.585 153.027 128.343 151.21 126.878 149.522C126.858 149.498 126.824 149.489 126.793 149.5C126.752 149.514 126.73 149.558 126.744 149.599C127.473 151.712 128.426 153.697 129.434 155.65C130.434 157.607 131.705 159.408 132.86 161.275L136.354 166.862L139.915 172.411C139.935 172.444 139.98 172.456 140.015 172.438C140.052 172.418 140.068 172.372 140.048 172.333L137.023 166.475L133.93 160.657V160.658Z" fill="#96C8ED"/>
<path d="M58.9533 33.2643C59.9932 35.1995 60.9161 37.2003 62.1122 39.0448C63.2993 40.8939 64.541 42.7115 66.007 44.3998C66.0276 44.4236 66.061 44.4333 66.0925 44.4223C66.1336 44.4082 66.1554 44.3638 66.1413 44.3221C65.4125 42.2082 64.4594 40.2248 63.451 38.2716C62.4522 36.314 61.1809 34.5138 60.0247 32.6467L56.5316 27.0597L52.971 21.5112C52.9491 21.4784 52.9061 21.4655 52.8708 21.4842C52.8328 21.5048 52.8174 21.5504 52.8367 21.5883L55.8619 27.4459L58.9533 33.2643Z" fill="#96C8ED"/>
<path d="M166.343 136.872L160.756 133.378C158.889 132.222 157.088 130.951 155.131 129.952C154.89 129.828 154.649 129.704 154.407 129.582L154.45 129.887L154.022 130.489C154.035 130.596 154.045 130.703 154.049 130.813C154.052 130.914 154.053 131.006 154.052 131.093L154.358 131.29C156.202 132.486 158.203 133.41 160.138 134.45L165.957 137.541L171.814 140.566C171.85 140.585 171.893 140.574 171.914 140.54C171.938 140.504 171.927 140.456 171.891 140.433L166.343 136.873V136.872Z" fill="#96C8ED"/>
<path d="M26.541 57.0494L32.1274 60.5425C33.9951 61.6981 35.7953 62.9687 37.7536 63.9687C39.7062 64.9772 41.6902 65.9309 43.8047 66.6591C43.8336 66.6694 43.8677 66.661 43.8889 66.636C43.9185 66.6038 43.9139 66.5537 43.8818 66.5254C42.1934 65.0594 40.3759 63.8177 38.5268 62.6306C36.6823 61.4352 34.6802 60.5116 32.7463 59.4717L26.9273 56.3803L21.0697 53.3551C21.035 53.3371 20.9906 53.3487 20.9694 53.3827C20.9462 53.4181 20.9565 53.4663 20.9925 53.4894L26.541 57.05V57.0494Z" fill="#96C8ED"/>
<path d="M161.109 60.3221L166.343 57.0494L171.891 53.4888C171.924 53.467 171.937 53.4239 171.919 53.3886C171.899 53.3506 171.852 53.3358 171.814 53.3551L165.957 56.3803L161.377 58.8136L161.132 60.2032L161.109 60.3221Z" fill="#96C8ED"/>
<path d="M32.7463 134.45C34.6802 133.41 36.6822 132.487 38.5268 131.291C40.3752 130.104 42.1934 128.862 43.8818 127.396C43.9056 127.376 43.9152 127.342 43.9043 127.311C43.8902 127.27 43.8458 127.248 43.8046 127.262C41.6901 127.991 39.7062 128.944 37.7536 129.953C35.7953 130.952 33.9951 132.223 32.1274 133.379L26.541 136.872L20.9925 140.432C20.9591 140.454 20.9469 140.498 20.9655 140.533C20.9854 140.571 21.0317 140.586 21.0696 140.567L26.9272 137.542L32.7463 134.45Z" fill="#96C8ED"/>
<path d="M129.434 38.2722C128.426 40.2254 127.472 42.2087 126.743 44.3226C126.734 44.3522 126.741 44.3862 126.766 44.4074C126.798 44.4364 126.849 44.4332 126.877 44.3997C128.343 42.7114 129.585 40.8938 130.771 39.0447C131.966 37.2002 132.891 35.1994 133.929 33.2642L137.021 27.4458L140.047 21.5882C140.065 21.5535 140.054 21.5091 140.02 21.4879C139.984 21.4648 139.936 21.4751 139.914 21.5111L136.353 27.0596L132.859 32.6466C131.704 34.5136 130.433 36.3145 129.433 38.2715L129.434 38.2722Z" fill="#96C8ED"/>
<path d="M63.4503 155.649C64.4587 153.696 65.4118 151.712 66.1406 149.599C66.1503 149.569 66.1425 149.535 66.1175 149.514C66.0853 149.485 66.0352 149.488 66.007 149.522C64.5409 151.209 63.2993 153.027 62.1122 154.877C60.9161 156.721 59.9932 158.722 58.9533 160.657L55.8619 166.475L52.8366 172.333C52.8187 172.368 52.8302 172.412 52.865 172.433C52.9003 172.456 52.9485 172.446 52.9717 172.41L56.5322 166.862L60.0253 161.275C61.1809 159.408 62.4528 157.607 63.4516 155.649H63.4503Z" fill="#96C8ED"/>
<path d="M17.5508 96.2617L9.28693 96.5124L0.404105 96.8716C0.35783 96.8729 0.319921 96.9109 0.317993 96.9571C0.315422 97.0073 0.353974 97.049 0.404105 97.0503L9.28693 97.4096L17.0064 97.6435L17.0032 96.7662L17.599 96.5696C17.5862 96.5047 17.5746 96.4359 17.5643 96.362L17.5508 96.2617Z" fill="#96C8ED"/>
<path d="M192.481 96.8709L183.598 96.5116L174.715 96.2417C172.283 96.178 169.851 96.009 167.418 96.0244L166.672 96.8227L166.667 97.0778C166.799 97.2674 166.912 97.4711 167.02 97.6884C167.063 97.7482 167.105 97.8105 167.144 97.8754L167.155 97.894C169.675 97.9236 172.195 97.7449 174.715 97.6781L183.598 97.4088L192.482 97.0495C192.527 97.0483 192.566 97.011 192.567 96.9641C192.57 96.9152 192.531 96.8722 192.482 96.8709H192.481Z" fill="#96C8ED"/>
<path d="M68.9969 23.6548C69.9372 26.4634 70.7302 29.326 71.8665 32.0646C72.4668 33.5261 73.0916 34.9792 73.7632 36.415C74.1527 37.2846 74.5711 38.1446 75.0473 38.9826C75.2504 39.3676 75.449 39.7545 75.6637 40.1357C75.6823 40.1678 75.7202 40.1877 75.7601 40.1806C75.8089 40.171 75.8423 40.1235 75.8327 40.074C75.7523 39.644 75.6553 39.2198 75.5634 38.7943C75.3892 37.8463 75.1579 36.9196 74.8969 36.0018C74.4888 34.4702 74.0325 32.956 73.553 31.4501C72.6642 28.6222 71.4321 25.9197 70.3453 23.1637L67.0546 14.9082L63.6785 6.6835C63.6612 6.64108 63.6129 6.61794 63.5679 6.63208C63.521 6.64751 63.4954 6.69764 63.5095 6.7452L66.2107 15.2154L68.9956 23.6548H68.9969Z" fill="#96C8ED"/>
<path d="M123.888 170.266C123.136 168.019 122.469 165.741 121.655 163.518C121.373 162.712 121.077 161.91 120.749 161.12C119.623 158.379 118.429 155.662 116.952 153.049C116.933 153.015 116.895 152.996 116.856 153.004C116.808 153.013 116.774 153.061 116.784 153.11C117.331 156.062 118.163 158.91 119.062 161.734C119.319 162.55 119.609 163.354 119.911 164.155C120.715 166.382 121.67 168.555 122.539 170.758L125.83 179.015L129.205 187.239C129.223 187.282 129.271 187.305 129.316 187.291C129.363 187.275 129.389 187.225 129.374 187.178L126.673 178.707L123.888 170.267L123.888 170.266Z" fill="#96C8ED"/>
<path d="M147.516 140.826C149.125 142.323 150.936 143.58 152.661 144.941L157.853 148.996L163.097 152.992C163.129 153.016 163.174 153.012 163.201 152.983C163.23 152.952 163.228 152.903 163.196 152.873L158.35 148.404L153.454 143.993C151.816 142.531 150.264 140.966 148.509 139.642C147.922 139.194 147.332 138.753 146.731 138.323C146.162 138.276 145.65 138.052 145.14 137.46C145.004 137.302 144.905 137.166 144.828 137.027C144.239 136.648 143.637 136.285 143.018 135.941C142.991 135.926 142.955 135.929 142.93 135.949C142.896 135.976 142.891 136.026 142.918 136.059C144.327 137.796 145.901 139.335 147.516 140.825V140.826Z" fill="#96C8ED"/>
<path d="M49.965 57.862C48.5568 56.1254 46.9828 54.5862 45.3677 53.0964C43.7596 51.5982 41.9479 50.3417 40.2235 48.9818L35.0298 44.9269L29.7866 40.9306C29.7551 40.9068 29.7101 40.9107 29.6831 40.9396C29.6535 40.9711 29.6555 41.0199 29.687 41.0482L34.533 45.5182L39.4284 49.9291C41.0673 51.3913 42.6201 52.9563 44.3734 54.2802C46.1216 55.6119 47.9103 56.8954 49.8654 57.9803C49.8924 57.9951 49.927 57.9931 49.9527 57.9726C49.9862 57.9449 49.992 57.8954 49.9643 57.862H49.965Z" fill="#96C8ED"/>
<path d="M182.269 112.097C182.278 112.056 182.251 112.015 182.209 112.005L175.778 110.558L169.333 109.186C167.184 108.739 165.056 108.16 162.875 107.89C160.695 107.611 158.505 107.394 156.269 107.432C156.238 107.433 156.209 107.451 156.197 107.482C156.181 107.523 156.202 107.568 156.243 107.584C158.33 108.385 160.463 108.93 162.607 109.412C164.748 109.905 166.945 110.089 169.119 110.403L175.645 111.318L182.184 112.157C182.223 112.162 182.26 112.137 182.269 112.097H182.269Z" fill="#96C8ED"/>
<path d="M10.616 81.8238C10.6064 81.8655 10.6327 81.9067 10.6739 81.9157L17.1054 83.3637L23.5504 84.7352C25.6277 85.1678 27.6824 85.7224 29.7866 86.0026C29.865 85.9352 29.9466 85.8709 30.0308 85.8111C30.117 85.7507 30.2011 85.6993 30.2866 85.6485C30.5816 85.2327 30.9557 84.9608 31.4744 84.7924L31.4846 84.7892C31.0823 84.6928 30.68 84.5996 30.277 84.509C28.1342 84.0167 25.9381 83.8322 23.7638 83.5179L17.2391 82.6027L10.7002 81.7634C10.6616 81.7582 10.6237 81.7833 10.6154 81.8231L10.616 81.8238Z" fill="#96C8ED"/>
<path d="M139.124 44.8931C137.791 46.6406 136.509 48.4286 135.423 50.3844C135.408 50.4113 135.411 50.4467 135.431 50.4718C135.458 50.5058 135.508 50.511 135.542 50.4833C137.278 49.0752 138.816 47.5012 140.307 45.8861C141.806 44.2774 143.062 42.4669 144.422 40.7418L148.477 35.5481L152.473 30.305C152.497 30.2735 152.494 30.2285 152.464 30.2008C152.433 30.1719 152.384 30.1745 152.355 30.206L147.886 35.052L143.475 39.9475C142.013 41.5857 140.447 43.1379 139.124 44.8931Z" fill="#96C8ED"/>
<path d="M53.7602 149.028C55.0919 147.28 56.3754 145.492 57.4609 143.537C57.4757 143.51 57.4744 143.475 57.4532 143.449C57.4255 143.416 57.3754 143.41 57.342 143.437C55.6054 144.846 54.0668 146.42 52.5763 148.035C51.0788 149.643 49.821 151.454 48.4617 153.179L44.4069 158.373L40.4106 163.616C40.3862 163.647 40.39 163.692 40.4195 163.719C40.451 163.748 40.4999 163.746 40.5294 163.715L44.9988 158.869L49.4091 153.973C50.8719 152.335 52.4369 150.783 53.7602 149.028Z" fill="#96C8ED"/>
<path d="M111.487 11.1933L110.039 17.6248L108.667 24.0699C108.22 26.2197 107.641 28.3471 107.371 30.5284C107.092 32.7078 106.875 34.8982 106.913 37.1342C106.914 37.165 106.933 37.1946 106.963 37.2061C107.004 37.2216 107.05 37.201 107.065 37.1605C107.866 35.0724 108.411 32.9399 108.894 30.7958C109.386 28.6543 109.57 26.4575 109.885 24.2845L110.8 17.7585L111.64 11.2196C111.645 11.1804 111.619 11.1432 111.58 11.1348C111.538 11.1252 111.497 11.1515 111.488 11.1926L111.487 11.1933Z" fill="#96C8ED"/>
<path d="M85.8188 156.762C85.0187 158.849 84.4743 160.982 83.991 163.126C83.4987 165.268 83.3143 167.464 83 169.638L82.0847 176.164L81.246 182.703C81.2409 182.742 81.2659 182.779 81.3058 182.787C81.3476 182.797 81.3887 182.771 81.3977 182.73L82.8457 176.298L84.2172 169.853C84.6645 167.703 85.2436 165.576 85.5129 163.394C85.7925 161.215 86.0091 159.024 85.9719 156.789C85.9712 156.758 85.9526 156.728 85.9211 156.716C85.8806 156.701 85.8356 156.721 85.8195 156.762L85.8188 156.762Z" fill="#96C8ED"/>
<path d="M31.5457 121.535C34.2868 120.41 37.0023 119.215 39.6168 117.738C39.6496 117.72 39.6688 117.682 39.6611 117.643C39.6521 117.594 39.6046 117.561 39.5551 117.57C36.6218 118.115 33.79 118.939 30.9846 119.833C30.9698 119.936 30.9531 120.039 30.9319 120.143L30.6529 121.537L29.2371 121.656C28.5308 121.715 27.5898 121.644 26.8122 121.359C25.422 121.92 24.0402 122.507 22.6449 123.057L14.3899 126.347L6.16525 129.723C6.12284 129.741 6.09908 129.789 6.11322 129.834C6.12865 129.881 6.17876 129.907 6.22632 129.892L14.6965 127.192L23.1359 124.406C25.9451 123.467 28.8071 122.674 31.5457 121.537V121.535Z" fill="#96C8ED"/>
<path d="M161.339 72.386L161.197 72.4445C161.19 72.8141 161.155 73.147 161.129 73.5191C161.153 73.5692 161.176 73.6207 161.197 73.674L161.863 73.9722L161.828 74.1123L161.953 74.0725C164.781 73.1836 167.484 71.9515 170.239 70.8654L178.495 67.5734L186.72 64.1979C186.762 64.1806 186.785 64.133 186.771 64.0874C186.756 64.0405 186.705 64.0148 186.659 64.0296L178.188 66.7302L169.748 69.515C166.939 70.4553 164.077 71.2484 161.339 72.3854V72.386Z" fill="#96C8ED"/>
<path d="M117.321 38.7943C117.229 39.2197 117.132 39.6439 117.052 40.0739C117.045 40.1112 117.062 40.1504 117.096 40.1697C117.14 40.1947 117.196 40.1793 117.22 40.1356C117.436 39.7551 117.633 39.3682 117.837 38.9832C118.314 38.1451 118.733 37.2852 119.121 36.415C119.793 34.9798 120.417 33.526 121.017 32.0645C122.154 29.3259 122.948 26.4633 123.888 23.6547L126.673 15.2153L129.373 6.74513C129.387 6.70142 129.366 6.65258 129.322 6.63458C129.276 6.61595 129.224 6.6378 129.205 6.68343L125.83 14.9081L122.539 23.1637C121.452 25.9196 120.22 28.6222 119.331 31.4501C118.852 32.9559 118.396 34.4695 117.987 36.0004C117.726 36.9176 117.495 37.845 117.321 38.7936V38.7943Z" fill="#96C8ED"/>
<path d="M76.1013 153.11C76.1077 153.072 76.0916 153.034 76.0563 153.014C76.0126 152.989 75.9573 153.004 75.9323 153.049C74.4553 155.662 73.2605 158.379 72.1352 161.12C71.8074 161.91 71.5117 162.712 71.2295 163.518C70.4146 165.742 69.7482 168.019 68.9968 170.266L66.212 178.706L63.5107 187.176C63.4972 187.221 63.519 187.269 63.5627 187.287C63.6077 187.305 63.6604 187.284 63.6791 187.238L67.0552 179.013L70.3458 170.757C71.2154 168.553 72.1692 166.379 72.9745 164.153C73.2759 163.353 73.5651 162.548 73.8216 161.733C74.7214 158.909 75.5531 156.062 76.1013 153.11V153.11Z" fill="#96C8ED"/>
<path d="M39.4291 143.993L34.5337 148.404L29.6877 152.873C29.6588 152.9 29.6536 152.945 29.678 152.977C29.7044 153.011 29.7526 153.018 29.7867 152.992L35.0299 148.996L40.2235 144.941C41.9479 143.581 43.7591 142.324 45.3678 140.825C46.9829 139.335 48.5569 137.796 49.965 136.06C49.9843 136.035 49.9895 136.001 49.9734 135.972C49.9515 135.934 49.904 135.92 49.8661 135.942C47.911 137.027 46.1223 138.31 44.3741 139.642C42.6202 140.966 41.068 142.531 39.4291 143.993V143.993Z" fill="#96C8ED"/>
<path d="M148.51 54.2797C150.264 52.9558 151.816 51.3908 153.455 49.9286L158.351 45.5177L163.197 41.0477C163.226 41.0214 163.23 40.9764 163.206 40.9442C163.179 40.9108 163.131 40.9038 163.098 40.9301L157.854 44.9264L152.662 48.9813C150.937 50.3412 149.126 51.5977 147.517 53.0959C145.902 54.5863 144.328 56.1249 142.919 57.8615C142.9 57.886 142.896 57.92 142.911 57.9489C142.933 57.9868 142.98 58.0003 143.019 57.9798C144.974 56.8949 146.762 55.6114 148.51 54.2797H148.51Z" fill="#96C8ED"/>
<path d="M21.8961 109.539L17.1054 110.558L10.6739 112.005C10.636 112.015 10.6096 112.051 10.6148 112.091C10.6199 112.133 10.6591 112.163 10.7015 112.157L17.2404 111.318L22.3158 110.606C22.1854 110.354 22.0729 110.09 21.9778 109.812C21.9489 109.728 21.9225 109.634 21.8961 109.538V109.539Z" fill="#96C8ED"/>
<path d="M169.119 83.518C166.946 83.8323 164.748 84.0168 162.607 84.5091C161.685 84.7173 160.764 84.9371 159.848 85.1833L159.854 85.1993C160.073 85.1659 160.31 85.1601 160.573 85.1807L162.055 85.2977L162.187 86.1178L162.875 86.0323C165.057 85.763 167.184 85.1839 169.333 84.7366L175.778 83.3651L182.209 81.9171C182.248 81.9081 182.274 81.8714 182.269 81.8316C182.264 81.7892 182.225 81.7596 182.183 81.7654L175.644 82.6047L169.118 83.52L169.119 83.518Z" fill="#96C8ED"/>
<path d="M48.4617 40.7426C49.821 42.467 51.0788 44.2775 52.5763 45.8868C54.0668 47.5019 55.6054 49.0765 57.342 50.4841C57.3664 50.5033 57.4011 50.5078 57.43 50.4924C57.4679 50.4706 57.4815 50.423 57.4609 50.3844C56.3754 48.4287 55.0925 46.6407 53.7602 44.8932C52.4369 43.1386 50.8712 41.5858 49.4091 39.9476L44.9988 35.0521L40.5294 30.2061C40.5024 30.1765 40.4575 30.172 40.4253 30.1964C40.3919 30.2228 40.3848 30.271 40.4112 30.3051L44.4076 35.5482L48.4624 40.7419L48.4617 40.7426Z" fill="#96C8ED"/>
<path d="M144.422 153.179C143.062 151.455 141.806 149.644 140.307 148.035C138.816 146.42 137.278 144.846 135.542 143.438C135.517 143.418 135.483 143.414 135.453 143.429C135.415 143.451 135.401 143.499 135.422 143.537C136.508 145.492 137.791 147.28 139.123 149.029C140.446 150.783 142.012 152.335 143.474 153.974L147.885 158.87L152.354 163.716C152.381 163.744 152.426 163.75 152.458 163.725C152.492 163.698 152.499 163.65 152.473 163.617L148.476 158.374L144.421 153.18L144.422 153.179Z" fill="#96C8ED"/>
<path d="M84.2167 24.0692L82.8451 17.6241L81.3971 11.1926C81.3881 11.1547 81.3515 11.1283 81.3116 11.1335C81.2692 11.1386 81.2397 11.1778 81.2455 11.2202L82.0842 17.7591L82.9994 24.2851C83.3137 26.4581 83.4982 28.6549 83.9905 30.7964C84.4738 32.9404 85.0188 35.0729 85.8183 37.1611C85.8299 37.1906 85.8575 37.2112 85.8909 37.2119C85.9333 37.2125 85.9693 37.1771 85.97 37.1341C86.0073 34.8981 85.7906 32.7078 85.5111 30.5284C85.2418 28.3464 84.6627 26.2197 84.2154 24.0698L84.2167 24.0692Z" fill="#96C8ED"/>
<path d="M109.885 169.637C109.57 167.464 109.386 165.267 108.894 163.125C108.41 160.981 107.866 158.848 107.065 156.761C107.055 156.731 107.026 156.71 106.993 156.71C106.95 156.709 106.914 156.745 106.913 156.788C106.875 159.023 107.092 161.214 107.371 163.393C107.641 165.575 108.22 167.702 108.667 169.852L110.039 176.297L111.487 182.729C111.496 182.767 111.533 182.793 111.572 182.788C111.615 182.783 111.644 182.744 111.638 182.702L110.799 176.163L109.884 169.637H109.885Z" fill="#96C8ED"/>
<path d="M186.72 129.723L178.495 126.347L170.239 123.057C167.483 121.97 164.781 120.738 161.953 119.85L161.71 119.772C162.697 120.346 163.292 121.235 163.435 122.339C165.52 123.082 167.649 123.703 169.748 124.404L178.188 127.19L186.659 129.891C186.702 129.905 186.751 129.882 186.769 129.839C186.787 129.793 186.766 129.741 186.72 129.722V129.723ZM159.89 119.209L159.502 119.094L159.549 119.19C159.649 119.222 159.746 119.251 159.839 119.279L159.89 119.209Z" fill="#96C8ED"/>
<path d="M6.16534 64.1974L14.39 67.5729L22.645 70.8648C24.0538 71.4195 25.4478 72.0121 26.8521 72.5783L27.3766 70.879C25.9645 70.4201 24.5435 69.9856 23.1366 69.5151L14.6973 66.7303L6.22704 64.0297C6.18334 64.0155 6.13451 64.0374 6.11651 64.0811C6.09787 64.1274 6.1197 64.1794 6.16597 64.1981L6.16534 64.1974ZM32.443 74.545C34.3988 75.144 36.3731 75.6922 38.3919 76.1196L38.5133 76.0945C38.611 76.0463 38.7145 76.0007 38.8237 75.9551C38.8848 75.9114 38.9427 75.8728 38.9986 75.8387C36.8738 74.6793 34.6867 73.694 32.4777 72.7705L32.3678 74.3258C32.3961 74.3971 32.4218 74.4698 32.4436 74.5443L32.443 74.545ZM32.3819 72.7312L31.5464 72.3855L31.0856 72.1978C31.2219 72.352 31.3369 72.5249 31.4339 72.7133L32.3819 72.7319V72.7312Z" fill="#96C8ED"/>
<path d="M88.9053 19.0498C89.0859 22.0063 89.111 24.9762 89.5005 27.9146C89.7023 29.4822 89.9292 31.0472 90.2062 32.6083C90.3572 33.5492 90.5391 34.4876 90.782 35.4202C90.8797 35.8456 90.9703 36.2705 91.0802 36.694C91.0892 36.7306 91.1214 36.7589 91.1612 36.7621C91.2113 36.766 91.2544 36.7287 91.2589 36.6786C91.2923 36.2428 91.309 35.8084 91.3302 35.3732C91.408 34.4118 91.4241 33.4561 91.4093 32.5036C91.4106 30.918 91.363 29.337 91.2885 27.7578C91.1625 24.7969 90.6715 21.8674 90.3354 18.9245L89.2935 10.0976L88.1611 1.27966C88.1553 1.23402 88.1148 1.19932 88.0679 1.20125C88.0184 1.20382 87.9798 1.2456 87.9818 1.29509L88.3989 10.176L88.9047 19.0492L88.9053 19.0498Z" fill="#96C8ED"/>
<path d="M103.979 174.872C103.834 172.507 103.781 170.134 103.569 167.775C103.506 166.923 103.427 166.072 103.315 165.224C102.937 162.285 102.487 159.352 101.737 156.445C101.727 156.409 101.696 156.38 101.656 156.377C101.606 156.372 101.562 156.411 101.558 156.46C101.324 159.453 101.389 162.42 101.527 165.38C101.565 166.235 101.635 167.087 101.72 167.937C101.922 170.296 102.281 172.642 102.549 174.996L103.592 183.822L104.724 192.64C104.73 192.686 104.77 192.721 104.817 192.719C104.866 192.717 104.904 192.675 104.902 192.625L104.485 183.744L103.979 174.872H103.979Z" fill="#96C8ED"/>
<path d="M68.6908 158.301C69.525 156.268 70.3014 154.209 70.8432 152.039C70.8509 152.009 70.84 151.976 70.8137 151.957C70.7783 151.931 70.7288 151.939 70.7038 151.974C69.3901 153.784 68.3116 155.702 67.2903 157.648C66.2601 159.589 65.5145 161.665 64.6469 163.681L62.0748 169.749L59.5721 175.847C59.5573 175.883 59.5721 175.926 59.6075 175.945C59.6454 175.965 59.6923 175.951 59.7122 175.912L62.7753 170.074L65.7684 164.204C66.7569 162.243 67.8662 160.339 68.6908 158.301Z" fill="#96C8ED"/>
<path d="M124.193 35.6199C123.359 37.6527 122.582 39.7126 122.04 41.8824C122.033 41.9126 122.043 41.9454 122.07 41.9653C122.105 41.9903 122.155 41.982 122.18 41.9473C123.494 40.1374 124.572 38.219 125.593 36.2728C126.624 34.3319 127.369 32.2566 128.236 30.2391L130.81 24.1726L133.312 18.0734C133.327 18.0374 133.312 17.9943 133.277 17.9757C133.239 17.9557 133.193 17.9705 133.172 18.0084L130.109 23.8455L127.116 29.716C126.128 31.6769 125.018 33.5812 124.194 35.6186L124.193 35.6199Z" fill="#96C8ED"/>
<path d="M36.2554 139.858C38.0923 138.655 40.005 137.56 41.739 136.207C43.4782 134.863 45.18 133.469 46.7341 131.861C46.7553 131.838 46.763 131.804 46.7495 131.774C46.7315 131.735 46.6859 131.717 46.6454 131.735C44.6035 132.645 42.7101 133.767 40.8527 134.942C38.9895 136.108 37.3069 137.531 35.5472 138.845L30.286 142.813L25.0691 146.843C25.0377 146.868 25.0299 146.911 25.0505 146.946C25.0736 146.982 25.1219 146.993 25.1572 146.97L30.7288 143.446L36.2561 139.859L36.2554 139.858Z" fill="#96C8ED"/>
<path d="M156.628 54.0628C154.791 55.2673 152.879 56.3618 151.145 57.7134C149.799 58.7546 148.473 59.8266 147.222 61.0041L147.364 61.058C147.697 60.8286 148.002 60.5722 148.549 60.3961C148.656 60.3613 148.76 60.3311 148.863 60.3042C149.088 60.0908 149.38 59.907 149.572 59.7032L149.9 59.3542L149.879 58.986L150.444 58.7758L150.45 58.7694L150.538 58.6318L150.574 58.637L151.9 57.2275L152.054 57.806L152.181 57.2012L152.546 57.2069C152.85 56.5835 153.388 56.1985 154.125 56.0257C154.34 55.9755 154.664 55.8322 154.899 55.6985C155.22 55.2988 155.522 55.0198 156.056 54.845L157.542 54.3585L157.761 54.757L162.598 51.1096L167.815 47.0792C167.846 47.0548 167.854 47.0111 167.833 46.9764C167.811 46.9404 167.762 46.9295 167.726 46.9526L162.154 50.4765L156.627 54.0635L156.628 54.0628Z" fill="#96C8ED"/>
<path d="M23.3281 63.2939L29.1979 66.287C31.1588 67.2754 33.0638 68.3848 35.1019 69.2093C37.1347 70.0436 39.1946 70.82 41.3637 71.3624C41.3946 71.3701 41.4267 71.3592 41.4472 71.3328C41.4723 71.2975 41.4639 71.2487 41.4292 71.2229C39.6194 69.9093 37.7003 68.8308 35.7548 67.8095C33.8138 66.7786 31.7386 66.0337 29.7218 65.1655L23.6546 62.5933L17.5553 60.0907C17.5193 60.0759 17.4763 60.0907 17.4576 60.126C17.4371 60.1633 17.4519 60.2108 17.4904 60.2301L23.3275 63.2933L23.3281 63.2939Z" fill="#96C8ED"/>
<path d="M169.556 130.628L163.685 127.635C163.159 127.369 162.636 127.095 162.114 126.82L162.118 127.12L159.717 126.486C158.851 126.258 157.783 125.386 157.28 124.507C156.41 124.156 155.534 123.818 154.644 123.506C154.698 123.773 154.758 124.015 154.783 124.32C154.798 124.494 154.807 124.67 154.811 124.848C155.576 125.286 156.351 125.704 157.129 126.113C159.071 127.143 161.145 127.889 163.162 128.756L169.229 131.329L175.328 133.832C175.364 133.846 175.407 133.832 175.426 133.796C175.445 133.758 175.431 133.712 175.393 133.692L169.555 130.628L169.556 130.628Z" fill="#96C8ED"/>
<path d="M53.545 36.7741C54.7487 38.6116 55.8433 40.5243 57.1955 42.2577C58.5394 43.9968 59.9347 45.6987 61.5421 47.2528C61.5646 47.274 61.5993 47.2817 61.6289 47.2682C61.6687 47.2502 61.6861 47.2033 61.6687 47.1641C60.7586 45.1228 59.6358 43.2288 58.461 41.3714C57.2951 39.5082 55.8715 37.8256 54.5578 36.0658L50.5904 30.8047L46.56 25.5878C46.5356 25.5563 46.4912 25.548 46.4578 25.5698C46.4205 25.5923 46.4103 25.6405 46.434 25.6759L49.958 31.2481L53.545 36.7747V36.7741Z" fill="#96C8ED"/>
<path d="M139.34 157.147C138.136 155.31 137.041 153.398 135.689 151.664C134.345 149.925 132.95 148.222 131.342 146.669C131.32 146.647 131.286 146.64 131.255 146.653C131.216 146.671 131.198 146.717 131.215 146.757C132.126 148.8 133.249 150.693 134.422 152.551C135.589 154.414 137.013 156.097 138.327 157.856L142.294 163.118L146.325 168.334C146.349 168.366 146.393 168.374 146.427 168.352C146.463 168.33 146.474 168.282 146.45 168.246L142.927 162.674L139.34 157.147H139.34Z" fill="#96C8ED"/>
<path d="M174.354 89.4233C171.397 89.6039 168.427 89.6296 165.489 90.0185L164.966 90.0866C165.627 90.4909 166.081 91.0873 166.207 91.7795C168.977 91.6195 171.722 91.1689 174.478 90.854L183.305 89.8122L192.122 88.6797C192.169 88.6739 192.203 88.6334 192.201 88.5865C192.199 88.537 192.157 88.4991 192.107 88.501L183.226 88.9182L174.354 89.424V89.4233Z" fill="#96C8ED"/>
<path d="M18.531 104.498C19.2701 104.453 20.0098 104.418 20.7502 104.384C20.711 103.851 20.6802 103.321 20.6712 102.787C19.9167 102.885 19.1615 102.981 18.4063 103.067L9.58067 104.11L0.762118 105.242C0.716486 105.248 0.681155 105.289 0.683726 105.335C0.686296 105.384 0.72807 105.423 0.777558 105.421L9.65844 105.004L18.5323 104.498H18.531Z" fill="#96C8ED"/>
<path d="M104.724 1.28005L103.591 10.098L102.549 18.9249C102.213 21.8678 101.723 24.7973 101.596 27.7582C101.522 29.3373 101.473 30.9184 101.475 32.504C101.461 33.4571 101.477 34.4121 101.554 35.3736C101.577 35.8081 101.592 36.2432 101.626 36.679C101.63 36.7162 101.656 36.7497 101.694 36.7593C101.743 36.7722 101.792 36.7426 101.805 36.6944C101.914 36.2708 102.005 35.8467 102.102 35.4212C102.346 34.4886 102.527 33.5496 102.678 32.6087C102.955 31.0476 103.182 29.4826 103.383 27.915C103.773 24.9766 103.799 22.0066 103.979 19.0502L104.484 10.177L104.902 1.29612C104.903 1.24984 104.87 1.20871 104.823 1.20293C104.774 1.1965 104.729 1.23056 104.723 1.28069L104.724 1.28005Z" fill="#96C8ED"/>
<path d="M91.2588 156.38C91.2106 156.367 91.1611 156.397 91.1483 156.445C90.3976 159.352 89.947 162.285 89.5691 165.224C89.4573 166.072 89.3795 166.924 89.3152 167.775C89.1038 170.134 89.0498 172.507 88.9058 174.871L88.4 183.744L87.9829 192.625C87.9817 192.67 88.0151 192.712 88.0613 192.718C88.1115 192.725 88.1564 192.69 88.1622 192.64L89.2947 183.822L90.3365 174.996C90.6051 172.642 90.9638 170.296 91.1656 167.937C91.2498 167.087 91.3218 166.235 91.3584 165.38C91.4966 162.42 91.5615 159.454 91.3282 156.46C91.325 156.422 91.2986 156.389 91.2601 156.379L91.2588 156.38Z" fill="#96C8ED"/>
<path d="M128.237 163.682C127.369 161.665 126.624 159.59 125.594 157.649C124.573 155.703 123.494 153.785 122.181 151.974C122.162 151.949 122.13 151.936 122.098 151.944C122.056 151.954 122.03 151.997 122.041 152.039C122.583 154.208 123.36 156.268 124.194 158.302C125.019 160.339 126.128 162.244 127.116 164.204L130.109 170.075L133.172 175.912C133.191 175.948 133.233 175.964 133.271 175.948C133.31 175.932 133.329 175.887 133.312 175.847L130.81 169.749L128.236 163.682H128.237Z" fill="#96C8ED"/>
<path d="M64.647 30.2404C65.5146 32.2578 66.2602 34.3331 67.2904 36.2741C68.3123 38.2196 69.3902 40.138 70.7039 41.9485C70.7219 41.9736 70.7546 41.9864 70.7868 41.9781C70.8285 41.9678 70.8549 41.9254 70.8433 41.883C70.3015 39.7138 69.5251 37.654 68.6909 35.6205C67.8663 33.5824 66.7564 31.6781 65.7685 29.7178L62.7754 23.8474L59.7123 18.0103C59.6937 17.975 59.6519 17.9596 59.614 17.9743C59.5748 17.9904 59.5555 18.036 59.5722 18.0752L62.0749 24.1745L64.647 30.241V30.2404Z" fill="#96C8ED"/>
<path d="M162.599 142.812L157.338 138.845C155.671 137.601 154.074 136.258 152.327 135.129L152.304 135.148C152.142 135.282 151.994 135.371 151.845 135.459C151.833 135.482 151.82 135.506 151.807 135.531L151.359 136.373C153.035 137.65 154.867 138.704 156.628 139.859L162.156 143.446L167.727 146.969C167.761 146.99 167.806 146.983 167.83 146.951C167.856 146.917 167.85 146.869 167.817 146.843L162.599 142.812Z" fill="#96C8ED"/>
<path d="M30.2855 51.1084L35.5467 55.0759C37.3064 56.3896 38.9884 57.8131 40.8522 58.9797C42.7096 60.1539 44.603 61.2767 46.6449 62.1868C46.6738 62.1996 46.7079 62.1945 46.7316 62.1713C46.7631 62.1418 46.7644 62.091 46.7342 62.0601C45.1802 60.4527 43.4776 59.0574 41.7391 57.7135C40.0058 56.3613 38.0924 55.2667 36.2555 54.063L30.7283 50.476L25.1567 46.9521C25.1233 46.9315 25.0783 46.9386 25.0545 46.9701C25.0282 47.0035 25.0339 47.0523 25.0686 47.0787L30.2855 51.1091V51.1084Z" fill="#96C8ED"/>
<path d="M163.163 65.1655C162.321 65.5274 161.471 65.868 160.623 66.217C160.708 66.2523 160.794 66.2928 160.88 66.3391L161.393 66.6148L161.661 67.1309C161.69 67.1875 161.717 67.2427 161.742 67.298C162.388 66.9574 163.034 66.6155 163.685 66.287L169.556 63.294L175.393 60.2308C175.429 60.2122 175.445 60.1704 175.429 60.1325C175.413 60.0933 175.368 60.0747 175.329 60.0907L169.229 62.5934L163.163 65.1655Z" fill="#96C8ED"/>
<path d="M29.7218 128.755C31.7386 127.888 33.8138 127.142 35.7548 126.112C37.7003 125.091 39.6187 124.012 41.4292 122.699C41.4549 122.681 41.4672 122.648 41.4588 122.616C41.4485 122.575 41.4061 122.548 41.3637 122.559C39.1946 123.101 37.1347 123.878 35.1019 124.712C33.0638 125.537 31.1595 126.647 29.1979 127.635L23.3281 130.628L17.491 133.691C17.4557 133.709 17.4397 133.752 17.4551 133.789C17.4712 133.828 17.5162 133.848 17.556 133.831L23.6552 131.328L29.7224 128.755H29.7218Z" fill="#96C8ED"/>
<path d="M134.422 41.3715C133.248 43.229 132.127 45.123 131.215 47.1643C131.203 47.1932 131.208 47.2272 131.231 47.251C131.261 47.2825 131.311 47.2838 131.342 47.2536C132.95 45.6995 134.345 43.997 135.688 42.2585C137.041 40.5258 138.135 38.6124 139.34 36.7749L142.927 31.2483L146.451 25.676C146.472 25.6433 146.465 25.5983 146.432 25.5739C146.398 25.5475 146.35 25.5539 146.324 25.588L142.293 30.8048L138.326 36.066C137.012 37.8251 135.589 39.5077 134.422 41.3715H134.422Z" fill="#96C8ED"/>
<path d="M58.4609 152.551C59.6358 150.693 60.7586 148.8 61.6687 146.758C61.6822 146.729 61.6764 146.695 61.6532 146.671C61.6224 146.639 61.5729 146.638 61.5421 146.668C59.9347 148.222 58.5394 149.925 57.1955 151.663C55.8432 153.397 54.7487 155.31 53.5449 157.147L49.9579 162.674L46.434 168.246C46.4121 168.279 46.4198 168.324 46.4507 168.348C46.4847 168.374 46.5336 168.368 46.5599 168.334L50.5903 163.117L54.5578 157.856C55.8715 156.097 57.295 154.414 58.4609 152.55V152.551Z" fill="#96C8ED"/>
<path d="M0.761492 88.6795L9.58005 89.8119L18.4057 90.8537C21.3486 91.1892 24.2781 91.6802 27.239 91.8075C27.8258 91.8345 28.4132 91.8596 29.0007 91.8795L28.9988 91.8692L28.6922 90.2052L28.7256 90.1949C28.2828 90.1339 27.8393 90.0754 27.3958 90.0182C24.4568 89.6294 21.4868 89.6037 18.5303 89.4231L9.65656 88.9173L0.775614 88.5001C0.729339 88.4976 0.688208 88.5316 0.681781 88.5785C0.675997 88.628 0.710748 88.6724 0.760236 88.6788L0.761492 88.6795Z" fill="#96C8ED"/>
<path d="M192.122 105.241L183.305 104.11L174.478 103.067C172.569 102.85 170.666 102.566 168.756 102.36L168.651 103.168C168.597 103.577 168.612 103.877 168.566 104.199C170.493 104.329 172.426 104.381 174.354 104.498L183.227 105.004L192.108 105.421C192.154 105.423 192.196 105.389 192.201 105.342C192.207 105.293 192.173 105.248 192.123 105.241H192.122ZM163.041 102.017C160.943 101.963 158.84 101.979 156.725 102.145C156.687 102.148 156.654 102.174 156.644 102.213C156.632 102.261 156.661 102.311 156.709 102.323C158.861 102.879 161.027 103.27 163.199 103.589C163.105 103.128 163.143 102.693 163.303 102.313C163.242 102.238 163.181 102.157 163.116 102.07L163.041 102.016V102.017Z" fill="#96C8ED"/>
<path d="M40.588 42.122C42.6267 44.2712 44.5555 46.5297 46.7432 48.5305C47.9046 49.6018 49.0846 50.6552 50.3006 51.6726C51.0204 52.2961 51.7634 52.8989 52.5494 53.4568C52.8971 53.7197 53.2397 53.987 53.5951 54.2409C53.6266 54.2627 53.669 54.264 53.7012 54.2409C53.7423 54.212 53.752 54.1548 53.7217 54.1136C53.4685 53.7582 53.2005 53.415 52.9383 53.0673C52.3791 52.2813 51.7776 51.5377 51.1535 50.8178C50.1361 49.6018 49.0826 48.4218 48.0119 47.2611C46.0112 45.074 43.7527 43.1452 41.6035 41.1059L35.1315 35.0157L28.5964 28.9877C28.563 28.9562 28.509 28.9556 28.475 28.9877C28.439 29.0211 28.4358 29.0777 28.4698 29.1143L34.4971 35.65L40.588 42.1214V42.122Z" fill="#96C8ED"/>
<path d="M152.297 151.8C150.667 150.082 149.1 148.299 147.422 146.628C146.825 146.016 146.217 145.414 145.587 144.836C143.409 142.827 141.178 140.87 138.734 139.126C138.704 139.104 138.662 139.103 138.63 139.126C138.588 139.156 138.579 139.212 138.608 139.254C140.352 141.696 142.309 143.928 144.317 146.107C144.895 146.737 145.497 147.344 146.109 147.941C147.78 149.62 149.563 151.186 151.281 152.817L157.754 158.907L164.289 164.935C164.324 164.966 164.376 164.966 164.412 164.935C164.448 164.901 164.451 164.844 164.416 164.807L158.388 158.272L152.297 151.8L152.297 151.8Z" fill="#96C8ED"/>
<path d="M161.269 115.132C163.361 115.809 165.534 116.184 167.671 116.687L174.092 118.167L180.533 119.573C180.571 119.581 180.611 119.558 180.622 119.521C180.635 119.48 180.613 119.436 180.573 119.423L174.291 117.42L167.99 115.491C165.888 114.858 163.819 114.096 161.67 113.638C160.203 113.318 158.729 113.027 157.231 112.824L158.883 114.135C159.35 114.349 159.735 114.259 160.328 114.721C160.395 114.774 160.459 114.829 160.519 114.887L161.269 115.13V115.132Z" fill="#96C8ED"/>
<path d="M24.8931 78.4295C26.9967 79.0626 29.0643 79.8248 31.2141 80.2837C32.0194 80.4592 32.8266 80.6256 33.639 80.7741C33.632 80.5826 33.6403 80.3795 33.6596 80.1526L33.7168 79.4913C33.0188 79.2458 32.3176 79.0144 31.6145 78.7901C31.2398 78.6686 30.8619 78.5568 30.4827 78.452C30.432 78.4604 30.3799 78.4674 30.3278 78.4739C29.5913 78.5587 28.874 78.4025 28.284 77.9398L28.239 77.9038C27.2306 77.6795 26.2184 77.4712 25.2132 77.2347L18.7932 75.7546L12.352 74.3496C12.3141 74.3406 12.2743 74.3631 12.262 74.4017C12.2492 74.4422 12.2716 74.4859 12.3121 74.4994L18.5939 76.5027L24.8938 78.4308L24.8931 78.4295Z" fill="#96C8ED"/>
<path d="M174.091 75.7549L167.67 77.235C166.017 77.6245 164.342 77.9362 162.701 78.3713L163.041 79.0294L161.611 79.9627C161.041 80.3341 160.675 80.3515 160.236 80.3778C160.226 80.446 160.219 80.5167 160.213 80.5893C160.7 80.4922 161.185 80.3901 161.669 80.284C163.818 79.8251 165.887 79.0629 167.989 78.4298L174.291 76.5017L180.572 74.4984C180.61 74.4862 180.633 74.447 180.624 74.4078C180.614 74.366 180.573 74.339 180.532 74.3486L174.091 75.7536V75.7549Z" fill="#96C8ED"/>
<path d="M18.7933 118.167L24.6927 116.807C24.5667 116.379 24.5384 115.977 24.6425 115.569L18.5934 117.42L12.3116 119.424C12.2743 119.436 12.2512 119.475 12.2595 119.514C12.2692 119.556 12.3103 119.582 12.3514 119.573L18.7926 118.168L18.7933 118.167Z" fill="#96C8ED"/>
<path d="M112.236 38.314C113.215 36.3036 113.944 34.2264 114.612 32.1331C115.29 30.0424 115.664 27.8694 116.168 25.7324L117.647 19.3118L119.053 12.8706C119.061 12.832 119.039 12.7922 119.001 12.78C118.959 12.7671 118.916 12.7896 118.904 12.8301L116.901 19.1119L114.973 25.413C114.34 27.5153 113.577 29.5835 113.119 31.7334C112.651 33.8806 112.244 36.0433 112.086 38.2742C112.084 38.3057 112.101 38.3359 112.13 38.35C112.169 38.3699 112.216 38.3532 112.235 38.3147L112.236 38.314Z" fill="#96C8ED"/>
<path d="M80.6477 155.607C79.6682 157.618 78.9394 159.695 78.2717 161.788C77.5936 163.879 77.2196 166.052 76.717 168.189L75.2355 174.61L73.8299 181.051C73.8215 181.089 73.8434 181.129 73.882 181.141C73.9231 181.153 73.9662 181.132 73.9796 181.091L75.983 174.81L77.9111 168.509C78.5441 166.407 79.3064 164.338 79.7653 162.189C80.2332 160.041 80.64 157.879 80.7968 155.648C80.7994 155.616 80.7827 155.586 80.7525 155.571C80.714 155.553 80.6657 155.569 80.6477 155.607Z" fill="#96C8ED"/>
<path d="M77.9111 25.4126L75.983 19.1115L73.9797 12.8297C73.9675 12.7925 73.9283 12.7693 73.8891 12.7783C73.8474 12.7873 73.8203 12.8284 73.83 12.8702L75.2356 19.3114L76.717 25.732C77.2196 27.869 77.5937 30.042 78.2717 32.1327C78.9395 34.226 79.6683 36.3032 80.6478 38.3136C80.6613 38.3413 80.6909 38.3599 80.7243 38.3573C80.7667 38.3541 80.8001 38.3162 80.7969 38.2731C80.6401 36.0423 80.2333 33.8796 79.7654 31.7323C79.3065 29.5825 78.5442 27.5143 77.9111 25.412V25.4126Z" fill="#96C8ED"/>
<path d="M116.168 168.189C115.664 166.052 115.29 163.879 114.613 161.787C113.944 159.694 113.216 157.617 112.237 155.606C112.223 155.579 112.194 155.56 112.16 155.563C112.117 155.566 112.084 155.604 112.088 155.647C112.245 157.878 112.653 160.04 113.12 162.188C113.579 164.338 114.341 166.406 114.974 168.508L116.902 174.809L118.905 181.09C118.917 181.128 118.956 181.151 118.995 181.143C119.037 181.133 119.064 181.092 119.055 181.051L117.648 174.61L116.169 168.189L116.168 168.189Z" fill="#96C8ED"/>
<path d="M48.0119 146.66C50.021 144.481 51.9781 142.251 53.7217 139.808C53.7442 139.777 53.7455 139.735 53.7217 139.702C53.6928 139.661 53.6362 139.652 53.5944 139.681C51.1515 141.425 48.9213 143.382 46.7425 145.391C44.5554 147.392 42.626 149.65 40.5874 151.799L34.4964 158.271L28.4692 164.806C28.4383 164.84 28.4377 164.894 28.4692 164.929C28.5026 164.965 28.5598 164.968 28.5964 164.934L35.1315 158.906L41.6035 152.815C43.7527 150.776 46.0118 148.848 48.0119 146.66Z" fill="#96C8ED"/>
<path d="M144.873 47.2619C142.864 49.4407 140.907 51.6709 139.162 54.1145C139.14 54.1453 139.139 54.1877 139.162 54.2205C139.191 54.2616 139.248 54.2706 139.289 54.2417C141.732 52.4974 143.963 50.5404 146.142 48.5313C148.329 46.5305 150.257 44.2721 152.296 42.1229L158.387 35.6515L164.415 29.1158C164.446 29.0824 164.446 29.0284 164.415 28.9937C164.381 28.9577 164.325 28.9545 164.288 28.9892L157.753 35.0171L151.28 41.1074C149.131 43.1467 146.873 45.0748 144.873 47.2626V47.2619Z" fill="#96C8ED"/>
<path fill-rule="evenodd" clip-rule="evenodd" d="M154.022 58.4771L154.324 58.5902L154.1 59.1198L153.71 59.114L153.533 59.9572C154.059 59.7933 153.654 59.7709 154.218 59.8994C154.564 59.9785 154.754 59.6577 154.938 59.8686C154.988 59.9258 154.829 60.0723 154.727 60.4142C153.957 60.5235 154.164 60.3229 153.808 60.3101C153.205 60.2889 153.229 60.4817 152.85 60.0543C152.714 60.1314 152.845 60.0427 152.746 60.1526L152.59 60.3403C152.323 60.1828 152.151 60.1565 151.847 60.269C151.881 60.8705 152.038 60.2837 152.135 60.7857C151.762 60.947 151.827 60.7201 151.475 60.6706C151.352 60.8622 151.271 61.1533 151.177 61.3481C150.82 61.2227 151.071 61.456 150.949 60.9965C150.657 61.3069 150.449 61.395 150.162 61.6758C149.55 62.2742 149.92 61.9374 149.129 62.1926C148.616 62.3584 148.203 62.8051 147.715 63.0326L147.376 63.0705C147.03 63.0043 147.58 62.96 147.287 63.0467C146.946 63.2331 147.047 63.2646 146.857 63.5557C146.624 63.9105 146.569 63.6444 146.256 63.9652C145.472 64.7679 145.444 64.3289 145.394 65.1426C145.22 65.2634 145.098 65.23 145.001 65.4896C144.819 65.9762 145.105 65.7358 144.695 66.0655C144.792 66.1838 144.876 66.2378 144.932 66.4274C144.665 66.5508 144.358 66.5694 144.186 66.7699C143.996 66.991 144.06 67.2339 143.743 67.4126C143.566 67.5129 143 67.5643 143.337 67.9004C143.515 68.0772 143.524 67.9165 143.702 68.0984C143.896 68.2963 143.715 68.2597 143.869 68.529C144.367 68.5149 144.333 68.3343 144.953 68.4679C145.294 68.5419 145.153 68.5039 145.369 68.743C145.553 68.9455 145.589 68.9133 145.75 69.0856L145.108 69.7829C144.848 69.648 144.992 69.6383 144.721 69.5605C144.306 69.7971 144.276 69.6499 143.892 70.0856C143.625 69.9706 143.714 70.0664 143.588 69.7842C143.101 69.9333 143.011 69.6017 142.894 69.9616C142.686 70.6011 142.951 70.6435 142.237 71.4803C142.033 71.72 141.805 71.6937 141.532 71.7785C141.254 71.8653 141.34 72.0202 141.26 72.2843C141.053 72.9656 140.592 72.8705 140.929 73.7317C140.773 73.8545 140.636 73.8255 140.537 73.9618C140.528 73.9746 140.516 73.9991 140.509 74.0113C140.502 74.0241 140.491 74.0537 140.485 74.0653C140.479 74.0768 140.473 74.1045 140.462 74.1212C139.882 74.1193 139.755 74.4085 139.408 74.3326C138.989 74.2407 138.993 73.8467 138.809 73.6038C138.468 73.1539 137.079 73.4001 136.634 73.6244C136.348 73.769 136.406 73.9849 136.001 74.3043C135.414 74.7671 135.418 75.5358 134.97 75.9837C134.684 76.2704 134.637 76.5692 134.268 76.6946C133.868 76.6252 134.129 76.4683 133.64 76.406C133.138 76.3424 133.163 76.397 132.819 76.5416L132.201 76.6252C131.893 76.6914 131.956 76.8083 131.704 76.8148C131.312 76.8257 131.607 76.834 131.457 76.7518C131.535 76.1412 131.837 76.6881 131.932 76.0621C131.354 75.7472 130.432 76.1855 129.941 76.5197C129.891 77.7608 130.397 77.5423 129.717 78.6902C129.454 78.606 129.538 78.5025 129.318 78.3168C129.497 77.8174 129.682 78.0732 129.388 77.595C129.777 77.6226 129.551 77.7036 129.756 77.5886C129.772 77.3193 129.806 77.3386 129.699 77.1477C129.226 77.2923 128.942 78.2454 128.623 77.9331C128.526 77.8379 128.693 77.4279 128.86 77.3013C129.133 77.0943 129.303 77.2267 129.484 76.836C129.166 76.9452 128.952 77.0487 128.64 77.1644C127.211 77.6933 127.596 78.0468 126.061 78.0725C126.147 78.588 126.949 78.6182 125.939 79.1831L125.892 79.937C126.08 79.9762 125.902 80.0032 126.113 79.8335C126.303 79.6799 126.14 79.6979 126.452 79.6285C126.618 79.9576 126.458 79.9743 126.447 80.3908C126.785 80.5688 127.044 80.7108 126.991 81.2488C126.41 81.1871 127.05 81.1048 126.564 81.1402C126.346 81.1562 126.317 81.2224 126.061 81.2462C126.093 82.1453 126.203 81.7629 126.52 81.939C126.437 82.5001 126.021 82.2398 125.629 82.1396C124.73 81.9108 124.518 81.8092 124.266 82.7797C124.261 82.8003 124.254 82.8234 124.249 82.8414C124.244 82.8594 124.235 82.8877 124.231 82.9018C124.161 83.139 123.595 83.1544 123.294 83.0779C123.001 83.0027 122.897 82.7437 122.656 82.5683C122.395 83.0181 122.692 83.2367 122.781 83.7431C122.84 84.0805 122.749 84.148 122.85 84.5272C122.94 84.8678 122.968 84.837 122.961 85.2708C122.65 85.204 122.65 85.1873 122.498 84.9643C122.234 85.0639 122.454 85.0742 122.199 85.1853C121.857 84.9244 121.352 84.7894 121.004 84.5182C120.362 84.0182 121.377 83.5111 120.178 83.486C120.386 83.7868 120.326 83.4912 120.337 83.8717C119.959 83.7862 119.913 83.7393 119.808 83.3427C120.094 83.1769 120.104 83.3273 120.396 83.0374C120.315 82.4352 120.05 82.6936 119.709 82.4802L119.769 82.3748C120.103 81.6434 118.628 80.8407 118.25 80.7867C118.067 81.056 118.109 81.2861 117.84 81.3927C117.182 81.653 116.686 81.1524 116.469 81.2559C116.446 81.2668 115.97 81.6794 115.925 81.7173C116.084 82.1518 116.366 82.3594 116.385 82.8677L114.988 83.5709C114.741 83.6525 114.523 83.506 114.135 83.4931C113.537 83.4732 113.695 83.4732 113.277 83.2887C113.284 82.889 113.599 82.6827 113.054 82.6518C112.805 82.6377 112.423 82.79 112.046 82.7951C111.516 82.8022 111.438 82.7463 111.145 83.0529C110.768 83.4468 110.717 83.2527 110.348 83.4867C110.467 83.7843 110.512 83.7039 110.656 83.9494C110.318 83.934 110.237 83.8614 110.039 83.7168C110.013 83.353 110.106 83.3948 110.044 83.1538C110.041 83.1383 109.946 82.9192 109.933 82.8909L109.8 82.6467C109.589 83.0149 110.027 83.0599 109.674 83.2739C109.506 83.3755 109.181 83.1602 108.949 83.1043C108.593 83.3562 108.488 83.6737 108.174 84.0201C107.798 83.9475 107.843 83.7746 107.616 83.8633L107.636 84.2611C107.614 84.2727 107.583 84.2573 107.574 84.2811C107.549 84.3447 107.371 84.3183 107.262 84.434C107.225 84.4726 107.117 84.7496 107.089 84.8017L106.306 84.7554C105.927 85.0729 106.06 85.7278 105.422 85.6172C105.43 85.3524 105.544 85.3357 105.68 85.1738C106.003 84.7894 105.733 84.9745 105.862 84.7059C106.067 84.2817 106.406 84.6911 106.489 83.8144C106.973 83.7527 107.063 83.7335 107.244 83.3337C107.422 82.9397 107.53 83.004 107.847 82.7135C107.819 82.5265 107.769 82.4179 107.772 82.1524C108.052 82.0502 108.032 82.0033 108.237 81.8452C108.669 81.5136 108.535 81.4384 108.741 81.2681C108.778 81.2372 108.918 81.1762 108.942 81.1582C109.283 80.9024 108.963 81.1318 109.145 80.8182C109.373 80.4261 109.827 80.5341 109.589 79.7397C109.469 79.3387 108.959 79.7924 108.841 78.9749C109.232 79.0398 109.141 79.0938 109.409 79.2249C109.422 78.8014 109.421 78.9421 109.316 78.6317L109.276 78.5153C109.161 78.1239 109.341 78.7853 109.245 78.39C109.213 78.2596 109.21 78.2159 109.171 78.0745C108.837 78.1946 109.082 78.185 108.859 78.3817C108.576 78.0655 108.646 78.2943 108.716 77.8347L108.175 77.9337C108.172 77.6483 108.199 77.7049 108.103 77.5159C108.042 77.3951 108.117 77.5269 108.004 77.3842L107.864 77.2139C107.496 77.2364 107.393 77.408 107.073 77.444C106.641 77.4922 106.63 77.264 106.196 77.3283C106.204 77.6143 106.395 77.5854 106.278 77.7994C106.174 77.989 105.821 77.9459 105.678 77.8502C105.313 77.6059 106.108 77.2145 105.857 76.9671C105.75 76.861 105.205 77.0069 104.923 76.9144C104.689 76.8372 104.679 76.9086 104.487 76.728C104.574 76.4073 104.895 76.4118 105.149 76.21C104.902 75.8546 104.948 76.048 104.655 75.87C104.5 75.7749 104.285 75.1399 103.667 76.0358C103.393 76.4343 103.549 76.2022 103.197 76.424C103.08 76.4979 102.996 76.7132 102.952 76.8726L102.802 77.7557C102.844 78.0526 102.664 77.8527 102.959 78.0912C103.149 78.2454 103.182 78.1657 103.298 78.4491C102.823 78.4267 102.671 78.1644 101.678 78.1432C101.705 78.6799 102.06 78.4504 102.031 78.9775C101.162 78.381 101.392 78.8759 100.842 79.1818C100.534 79.3522 100.389 79.2538 100.042 79.2384C100.03 79.2217 100.022 79.1696 100.018 79.1818C99.9829 79.2763 99.9726 79 99.8267 78.9048C99.7823 78.8759 99.4063 78.7879 99.3961 78.7872C98.7264 78.7172 99.2438 79.0025 98.5664 78.8412C98.6493 79.151 98.6454 78.9993 98.799 79.2333C98.6634 79.3065 98.5413 79.3399 98.3588 79.4138C97.9172 79.5932 97.6004 79.5552 97.2463 79.5623L97.0695 79.5899C96.7366 79.705 97.0727 79.7731 96.5798 79.7526C96.3516 79.7429 96.4441 79.6009 96.1414 79.8168C95.8059 80.0566 95.8991 80.1375 95.4608 80.2944C95.4492 80.2982 95.4229 80.304 95.4068 80.3149C95.466 80.5996 95.5026 80.4576 95.5578 80.7796C95.4242 80.867 95.3201 80.9467 95.1639 81.0213L94.876 80.6935C94.8612 81.2732 95.1992 81.2289 95.0764 81.7803C95.025 82.011 95.0257 82.11 95.0282 82.3587C95.0334 82.7424 95.1028 82.6434 95.1343 82.9172C94.8644 83.2135 94.874 83.2559 94.3078 83.2553C94.3547 82.9211 94.6536 82.8183 94.3117 82.745C94.1368 82.7071 93.989 82.8767 93.5886 82.8253C93.158 82.7701 92.2319 82.736 91.9099 82.6467C91.3739 82.4976 90.8288 82.4423 90.699 83.0471C90.6303 83.3652 90.7125 83.5593 90.6257 83.9064C90.5287 84.2965 90.5313 84.2598 90.5217 84.72C91.8096 85.4932 90.949 85.4097 91.3269 85.9283C91.5088 86.1777 91.6624 86.1025 91.611 86.5819C91.5737 86.9329 91.4015 86.9676 91.3231 87.2414C91.2383 87.5383 91.3308 87.7999 91.3572 88.0692C91.4549 89.084 91.0435 88.9889 90.924 89.4722C90.6862 90.4343 91.3044 90.2222 91.3481 90.8289C91.2125 90.8926 91.0891 90.9183 90.877 90.9208C90.7234 90.7383 90.4715 90.478 90.4799 90.1715C90.5023 89.3366 90.4413 89.8578 90.1758 89.2967C90.4612 88.9098 90.3057 89.2614 90.6341 88.6399C90.7871 88.3507 90.9503 88.3815 90.9863 87.8988C90.5563 88.0312 90.8108 88.2453 90.2845 88.3732C90.1373 88.0113 90.325 87.8712 90.4374 87.5197C90.6264 86.9264 90.4471 87.0935 91.1322 87.0363C91.2563 86.8416 91.3603 86.7227 91.3623 86.4296L90.3339 86.2117C90.0768 85.4643 89.8757 84.9475 89.2786 84.3479C89.071 84.355 89.0646 84.3955 89.019 84.4051C88.7458 84.4662 89.0087 84.4 88.6475 84.3601C88.2021 84.3106 88.3338 84.6043 88.4212 84.8113C88.5222 85.0504 88.5549 84.97 88.4399 85.2708C88.2574 85.3486 88.1057 85.3724 87.9463 85.2143C87.7477 85.0176 87.8448 84.9026 87.7484 84.6564C87.4861 84.7065 87.4553 84.729 87.1153 84.7297C86.9366 86.3159 87.7239 85.8216 88.0157 86.607C88.2355 87.1964 88.2702 86.8075 88.4258 87.2009C87.8049 87.1983 87.6455 86.9271 87.4932 86.4348C87.1121 86.429 87.0028 86.4765 86.7734 86.2272C86.2444 85.6532 86.3261 85.8068 86.5214 85.222C86.6095 84.9565 86.5478 84.9096 86.5664 84.6493C86.6018 84.1667 86.8974 84.1647 87.1789 83.9526C87.1898 83.729 87.1885 83.5754 87.2194 83.3581C87.2374 83.2315 87.2631 83.2797 87.2554 83.0914C87.2387 82.6602 87.1043 82.7122 87.0073 82.9809C86.8357 83.4558 86.9186 83.727 86.4205 84.1101C85.9925 84.4392 85.8549 84.114 85.4963 84.3511L84.8761 84.882C84.8928 85.2464 85.0008 85.1931 85.0509 85.4649C85.0985 85.7207 84.9667 85.7811 84.9532 86.0478C84.9217 86.6861 85.2457 86.7715 84.6184 87.1893C84.191 87.474 84.2012 87.715 83.9364 88.136L83.5464 89.3732L83.9506 89.5185C84.0888 89.5847 84.1081 89.6219 84.2295 89.7531C84.8845 89.4709 84.8401 89.6451 85.2579 89.9896C85.6435 90.3083 85.3549 90.0211 85.5927 90.4298C85.7084 90.6284 85.8286 90.6291 86.015 90.845C86.0626 91.3123 86.0715 91.8508 85.828 92.1169C85.6107 92.3541 85.5734 92.1973 85.4519 92.5173C85.065 93.5296 85.8311 93.126 86.0811 93.6549C86.2232 93.9551 86.4495 94.2263 86.3846 94.6061C85.961 94.3317 86.1339 94.0264 85.6859 93.7385C85.2804 93.4782 84.8215 93.5977 84.8607 92.9415C84.9108 92.1118 85.5914 92.4807 85.3061 91.1811C85.2649 90.9935 85.283 90.6233 85.1743 90.4549L83.8587 90.3039C83.7732 90.4163 83.7559 90.4697 83.6672 90.5789C83.5515 90.721 83.5097 90.7306 83.3998 90.8444C83.5656 92.8323 83.173 91.8213 82.279 92.9839C81.9306 93.437 81.7776 93.448 81.2005 93.6131C80.6143 93.7809 80.3399 94.0836 79.9864 94.1851L78.6785 93.6215C78.3906 93.3805 77.9214 92.8567 78.1284 92.4447C78.4928 92.6677 78.3154 92.7545 78.5821 92.9974C78.7389 92.7648 78.6258 92.4955 78.8212 92.7005C79.0005 92.8888 78.8193 93.5399 79.6445 93.2976C79.9009 93.2224 79.9267 93.106 79.9974 92.8625C80.9749 92.8104 80.9344 92.6124 81.331 91.9517C82.0489 91.8534 82.025 92.0494 82.1234 91.2872C82.1934 90.7454 82.367 90.71 82.849 90.5404C82.8792 89.6547 82.2513 89.8038 82.8689 88.6206C83.0952 88.1881 83.0264 88.0081 83.3786 87.5768C83.6954 87.188 83.4371 87.1597 83.6158 86.8056C83.7385 86.562 83.921 86.6263 84.0804 86.2677C84.4018 85.5459 84.031 85.4019 84.0097 84.6461C84.4937 84.3428 84.5085 84.3903 84.8407 83.9282C85.0895 83.5824 85.3485 83.3761 85.4796 82.9449C85.7399 82.0927 85.3164 81.8041 84.6518 81.6106C83.9943 81.4191 84.5772 81.5637 84.1678 81.2462C83.8831 81.3156 83.9796 81.3388 83.7495 81.5194C83.5162 81.7025 83.5238 81.6235 83.3413 81.887C83.029 82.3362 82.2873 83.1345 81.793 83.3607C81.5308 83.4803 80.9061 83.6435 80.5269 83.6506C80.739 84.2136 80.4376 84.0156 80.534 84.3389C80.5494 84.391 80.6298 84.5118 80.6696 84.632C80.4865 84.7734 80.4537 84.7252 80.3592 84.945C80.2351 85.2329 80.3707 85.2213 80.1946 85.4784C80.014 85.7426 79.683 85.722 79.4472 86.044C79.6856 86.8146 79.7961 86.8223 80.0609 87.0505C79.8842 87.3718 79.6355 87.3365 79.6882 87.8082C79.7325 88.2048 79.9125 88.2388 79.827 88.8263C79.5481 88.9915 79.2415 89.2672 78.9034 89.2864L78.8295 88.9779C78.6817 88.6694 78.7119 89.0371 78.7061 88.627C78.699 88.1707 78.7293 88.3629 78.451 87.8134C78.2864 87.4895 78.1187 87.4715 78.0139 87.1687C77.8822 86.7876 77.9041 86.6179 77.7427 86.276C77.6296 86.035 77.5133 85.8088 77.3847 85.5453C77.1598 85.0851 76.1167 84.0362 75.7291 83.8003C75.251 83.9391 75.2535 83.7887 75.0729 84.2239L74.9142 84.587C74.8659 84.907 75.0472 84.9835 74.8538 85.2432C74.8531 85.2438 74.5845 85.4572 74.5305 85.4713C74.2027 85.5581 74.1963 85.301 73.7933 85.2053C73.5921 85.4643 73.6628 85.6333 73.4064 85.7381C73.0908 85.4174 73.3125 85.177 73.72 85.1172C73.7149 84.9578 73.702 84.8993 73.7329 84.7445C73.8003 84.4006 73.7708 84.7708 73.8505 84.4385C73.2232 84.2097 73.3537 84.4771 73.0407 84.454C72.8421 84.4392 72.9449 84.3627 72.6454 84.3607C72.5021 84.3595 72.3376 84.418 72.0901 84.4212C71.8144 84.1782 71.6794 83.8691 71.3137 83.7238C70.671 83.468 70.691 83.9096 70.2372 84.0323C70.1434 83.8125 70.1986 83.6866 70.0431 83.5227C69.9113 83.3839 69.4827 83.3459 69.8002 83.0554C69.9525 82.916 70.3002 82.2945 71.002 82.5515C70.8947 82.2482 70.6922 82.2758 70.3137 82.2508C69.8895 82.2225 69.8092 82.0888 69.4608 82.0226C69.2757 82.3793 69.5444 82.2687 69.2256 82.4879C68.9113 82.2874 69.1755 82.3793 68.9923 82.0213C67.7024 81.8401 68.4261 81.6974 66.5275 81.6203C66.4125 81.4352 66.4491 81.4107 66.2833 81.2443L65.9478 81.6074C65.7138 81.5444 65.5525 81.4364 65.3539 81.3246C65.039 81.5213 64.6334 81.9114 64.181 81.9307C63.7253 81.9493 63.2902 81.4242 63.1179 81.1652C63.1912 80.9435 63.3031 80.8291 63.314 80.617C63.3237 80.4287 62.9521 79.5559 64.2639 79.6979C64.7343 79.7494 64.638 80.0495 65.0442 80.1568C65.4555 79.6259 65.1913 79.6099 65.5455 78.6876C65.3462 78.392 65.3391 78.3296 65.0191 78.0989C64.7613 77.9131 64.7671 77.8977 64.663 77.5911C64.591 77.3771 64.6861 77.6496 64.6251 77.48L64.5834 77.3771C64.4362 77.6875 64.4464 77.8591 64.4162 78.2949C63.9882 78.5777 63.9213 78.6111 63.6366 79.052C63.1302 79.0983 63.2786 78.9749 62.8634 79.2146L62.5755 79.3843C62.5267 80.7224 62.224 80.0803 61.9483 80.5444C61.9431 80.5534 61.8756 80.7648 61.8692 80.7815C61.1648 80.7745 61.4816 80.9396 61.0182 81.092C61.0073 81.0759 60.9925 81.0309 60.9874 81.0431L60.8916 80.9043C60.8261 80.8188 60.7785 80.777 60.7143 80.7012L61.1095 80.4184C60.988 79.8265 60.7091 80.2719 60.7072 79.4698C60.1879 79.3438 59.6486 79.6921 59.2527 79.4479C58.9417 79.2557 59.1152 79.1986 58.5458 79.2146C58.2418 79.2236 57.9242 79.23 57.6196 79.2429C57.2854 79.7153 57.2713 80.8278 56.4293 80.4917C56.0656 80.3303 56.0887 79.8676 56.0418 79.3984L55.723 79.2673C55.7076 79.2596 55.6857 79.25 55.6716 79.2423C55.5186 79.1619 55.606 79.214 55.5308 79.1536C55.7352 79.0237 55.7532 79.0996 55.9884 79.0308C55.8747 78.3225 56.0585 78.1934 55.8265 77.7717C55.3882 77.802 55.795 77.7325 55.4447 77.9916C55.2011 77.9112 55.2937 77.8996 55.0289 77.8309L54.6047 78.8508C54.7943 79.0302 55.5225 79.3329 54.284 79.921C53.8258 79.7159 53.8476 79.7063 53.8122 79.079L53.4317 78.8721C53.5551 78.4614 53.7975 78.3913 53.8026 78.0802C53.8084 77.7923 53.6593 77.4253 53.667 76.9812C54.1355 76.5969 54.5822 76.4651 54.8046 75.8835C54.8091 75.8713 54.8155 75.8449 54.8264 75.8288C56.2185 75.8237 55.9897 75.3834 56.0598 74.2709C56.0887 73.8069 56.0797 74.1006 56.2487 73.7606C56.3001 73.6571 56.2924 73.6456 56.3425 73.5447L56.6498 72.7689C56.7571 72.5022 56.7796 72.4289 56.9949 72.3242C57.0663 72.4694 57.0181 72.6057 56.9654 72.7709C56.7218 73.5337 57.0945 73.7009 57.1035 74.2857C57.1067 74.4907 57.1061 75.262 57.1408 75.3622C57.2745 75.7472 57.412 75.8031 57.5258 76.3012C57.9217 78.0308 59.1981 79.0141 60.9809 78.2615C61.5607 78.0173 61.2284 77.9408 61.5825 77.5481C61.8049 77.3026 61.7664 77.4787 61.7985 77.066C61.8313 76.6592 61.9373 76.253 61.8184 75.879C61.65 75.3494 61.9148 74.5492 61.8608 73.4226C61.8306 72.7921 62.0594 72.6108 62.0164 72.2734C61.9804 71.9932 61.6661 71.7445 61.5221 71.4546C61.1956 70.7971 61.6282 71.0503 60.8859 70.7065C61.096 70.5638 61.1095 70.5953 61.3074 70.4051C61.1622 70.1473 60.8023 70.0169 61.0986 69.6203C61.114 69.63 61.1346 69.6325 61.1404 69.6576L61.4855 69.9995C61.6449 69.8588 61.7285 69.6409 61.6674 69.3671C61.5851 68.9982 61.4283 69.02 61.0202 69.0175L61.0902 68.4885C60.238 69.0001 59.8119 67.9268 59.085 67.7018C58.7681 67.8182 58.77 67.9943 58.5226 68.0643C58.3073 68.1254 58.0721 68.063 57.8491 68.0926C57.0643 68.1948 57.5688 68.9699 57.0926 69.7283C56.6658 70.407 56.1973 70.0175 55.446 70.1004C54.8753 70.1634 54.5873 70.666 54.3984 71.1416C54.0719 71.9655 54.0552 71.936 53.0468 71.9604C52.7582 72.517 52.5712 72.4868 51.816 72.5125C51.8038 73.0736 51.9599 73.0761 51.7286 73.5035C51.4091 73.589 51.3681 73.5794 50.9606 73.5871C50.9863 73.8988 51.1701 74.1713 50.8352 74.3211C50.467 74.4862 50.2806 74.2067 49.947 74.3616C49.2297 74.8641 50.778 76.9401 47.3742 76.4658C46.6332 76.3623 46.0104 76.2473 45.3221 76.1155C44.8446 76.0242 43.6864 75.7652 43.2204 75.7607C43.34 76.093 43.5077 76.0204 43.7616 76.2138C43.626 76.2762 43.3284 76.3475 43.2532 76.4863C43.2313 76.5268 43.2262 76.9658 43.2468 77.0346C43.3663 77.4343 43.7436 77.4375 43.4229 78.2878C42.858 78.3142 43.0071 78.0295 42.973 77.5294L41.9562 76.8475C41.7602 76.6611 41.6895 76.5602 41.1529 76.9414C40.7595 77.2203 40.3257 77.1927 39.8797 77.5282C39.514 77.8039 39.19 77.6863 39.0242 78.1413C38.9265 78.4093 38.7575 78.8335 38.3584 78.8226C38.478 78.5089 38.6264 78.3971 38.638 78.0012C38.2189 78.0873 37.7472 78.1863 37.5614 78.4639C36.9644 79.3554 36.7709 78.5501 36.4585 79.4486C36.1886 80.2243 36.0305 79.9235 35.5459 80.3169C35.506 80.7815 35.5189 80.9056 35.7059 81.2424C36.0247 81.8169 35.8293 81.6556 35.7008 82.0984C35.918 82.6235 36.2908 82.4313 36.1623 83.4147C35.8724 83.6731 35.7111 83.6441 35.4489 83.8607C34.639 84.5292 35.0427 83.9951 34.5034 84.774C34.4 84.9238 34.2984 84.972 34.2014 85.0973C33.9552 85.4154 34.2946 85.5639 34.0799 86.0549C33.9057 86.4521 33.7335 86.3011 33.8022 86.8596C33.8511 87.2523 33.7843 87.5608 33.4314 87.6527C32.2688 87.9561 32.6904 86.573 32.0605 86.5922C31.7623 86.6893 31.86 86.7915 31.6325 87.0158C31.4647 87.1803 31.322 87.2169 31.1247 87.3564C30.8753 87.5325 30.3946 88.0666 30.7481 88.4381C30.8818 88.5782 31.1247 88.6225 31.3092 88.7369C31.6607 88.9548 32.558 89.9369 32.3645 90.3835C32.2372 90.5243 32.1383 90.5584 32.0374 90.6715C31.7482 90.9967 32.04 90.8649 31.8105 91.1394C31.7026 91.2692 31.0476 91.4723 30.8593 91.5288C30.9692 92.1266 31.4152 92.1838 31.3619 92.9325C31.3092 93.6742 30.7321 93.455 30.3921 93.903C30.4255 94.2546 30.547 94.2385 30.6601 94.4956C30.824 94.8671 30.6125 94.8073 30.7108 95.216C30.779 95.4988 31.002 95.5985 31.2565 95.6827C31.2437 95.6949 31.2366 95.709 31.2359 95.7263C31.2327 95.8851 31.2874 95.8845 31.2591 96.1538C31.254 96.2032 31.1357 96.3549 31.1157 96.353C31.1112 96.3877 30.743 96.5844 30.7134 96.5921C30.6986 96.6467 30.5328 96.6878 30.484 96.7065C29.9994 96.8935 30.0533 96.8498 30.0398 97.3145C30.036 97.4552 29.8085 97.5491 29.7115 97.5581C29.6723 97.5613 29.4717 97.2766 29.4633 97.2348C29.4434 97.1358 29.3444 96.7155 29.2127 96.727C29.1773 96.6859 28.8952 96.6917 28.8341 96.6898C28.4067 96.6776 28.5199 96.4115 28.3592 96.4121C28.2557 96.4128 28.0776 96.3813 28.0211 96.461C27.9273 96.594 28.1632 96.8768 28.0841 96.8967C28.077 97.0073 27.7679 96.9109 27.7698 96.9957C27.775 97.2174 27.766 97.123 27.6876 97.238C27.6484 97.2952 27.3617 97.4475 27.3148 97.4475C27.0404 97.4469 27.212 97.2239 27.0095 97.2296C26.9138 97.2322 26.7717 97.4199 26.7717 97.4347C26.7274 97.418 26.665 97.3376 26.613 97.317C26.2858 97.1872 26.4632 96.8324 26.4632 96.5644C26.4632 96.1576 26.5769 96.3633 26.2774 96.0663C26.1065 95.8973 26.0679 95.7308 25.9374 95.5637C25.6585 95.2051 25.5673 95.2938 25.3018 95.4481C25.1855 95.5155 25.1495 96.1081 24.814 95.9969C24.7652 95.8478 24.6739 95.815 24.6084 95.6833C24.5653 95.5978 24.5525 95.4712 24.5454 95.3748C24.5441 95.3626 24.3378 95.3292 24.3365 95.3292C24.2774 95.3317 24.1488 95.2752 24.1469 95.2752C24.0839 95.2752 23.9811 95.0271 23.9805 95.0226C23.9715 94.9435 23.8339 94.8343 23.7799 94.77C23.6989 94.6736 23.6565 94.5142 23.6359 94.3805C23.6032 94.1639 23.6083 94.2031 23.4374 94.1524C22.9746 94.0155 22.9521 94.5136 22.8769 94.4069C22.7535 94.2314 22.8756 94.322 22.6384 94.2938C22.5086 94.2783 22.4418 94.3021 22.4309 94.3015C22.3891 94.2983 22.3293 94.5881 22.3293 94.6338C22.2387 94.6479 22.2888 94.7398 22.2233 94.6794C22.0876 94.5541 22.0588 94.6749 22.053 94.6678C21.9932 94.6042 21.6943 94.6813 21.6943 94.5161C21.6943 94.3214 21.7489 94.2044 21.5696 94.2044C21.0927 94.2044 21.1371 93.7668 21.0516 93.7738C20.9192 93.7847 20.9526 94.2102 20.9751 94.2719C21.0214 94.3998 21.1326 94.5161 21.0259 94.6203C20.9256 94.7173 20.9237 94.5586 20.9231 94.5579C20.8807 94.4409 20.7888 94.2629 20.7682 94.1234C20.6988 93.6446 20.2797 93.475 20.4276 93.7725C20.551 94.0206 20.495 94.2623 20.4571 94.1871C20.3961 94.0643 20.0573 94.0515 20.1852 94.2256C20.3208 94.4095 20.2437 94.4005 20.2681 94.4506C20.3556 94.6254 20.2 94.6087 20.2 94.9018C20.2 95.0406 20.6062 95.2186 20.5053 95.3221C20.3826 95.4481 20.6551 95.6717 20.6911 95.6814C20.8183 95.7161 20.9835 95.8697 21.0143 95.8812C21.2245 95.9577 20.8312 96.2604 21.0998 96.2431C21.2991 96.2296 21.3582 96.2682 21.5305 96.3215C21.4977 96.3427 21.5144 96.3311 21.4893 96.3337C21.452 96.3986 21.443 96.5625 21.4327 96.727C21.2451 96.889 21.1416 97.0625 20.6692 96.5818C20.4713 96.3806 20.4976 96.3356 20.1486 96.2482C19.9391 96.1955 19.6479 96.1332 19.4352 96.1094C19.5554 97.0028 20.486 97.605 18.896 98.1301L18.8986 98.882C19.3517 99.1597 19.4493 99.1153 19.9545 99.3101C20.4391 99.4971 20.3986 99.6861 20.9346 99.8795C21.7657 100.18 21.2091 100.289 21.5992 100.761C21.8858 101.108 22.24 100.971 22.7619 100.989C22.6693 100.58 22.4508 100.527 22.2683 100.248C21.9861 99.8159 22.6365 100.293 21.5266 99.7503C21.4424 99.206 21.6416 99.213 21.7483 98.8158C21.8447 98.4579 21.8106 98.3743 21.8723 98.2464C21.9205 98.213 21.9662 98.1828 22.006 98.1783C22.2265 98.1526 22.3332 97.9822 22.4771 97.8479C22.5343 97.7939 23.0729 97.9032 23.0935 97.9578C23.1661 98.1571 23.0942 98.1365 23.3538 98.1365C23.9393 98.1365 23.9926 98.204 24.4001 98.5157C24.4663 98.5665 24.4393 98.6809 24.4393 98.7599C24.5846 98.7715 24.8018 98.6802 25.0062 98.7747C25.0853 98.8107 25.1418 99.0845 25.1521 99.17C25.1636 99.2677 25.5075 99.1719 25.6849 99.3255C25.895 99.5074 25.976 99.4463 26.2871 99.4836C26.6734 99.5299 26.6246 99.4823 26.6824 99.7516C26.7306 99.9759 26.6412 100.047 26.8173 100.058C26.8527 100.113 27.6342 99.9689 27.3887 100.633C27.3463 100.747 27.3142 100.815 27.2936 100.858C27.2582 100.896 27.2248 100.935 27.1933 100.974C27.3572 101.383 27.6754 101.432 27.9357 101.686C27.9177 101.974 27.8971 102.031 27.7917 102.225C27.6252 102.146 27.3405 101.909 27.2062 101.808C26.7884 101.497 27.0571 101.559 26.6297 101.681C26.5024 101.472 26.2023 101.15 26.0172 100.991L25.8424 101.288C25.6823 101.551 25.7337 101.252 25.7511 101.638L25.6296 102.473C25.6187 102.454 25.611 102.4 25.6059 102.413C25.6046 102.416 25.6482 102.269 25.2485 102.155C25.2388 102.151 25.2164 102.147 25.2067 102.143C25.1965 102.14 25.1758 102.132 25.1662 102.127C24.976 102.046 25.2755 102.105 24.9329 101.995C24.5325 102.267 24.706 102.064 24.3545 102.197C24.0749 102.303 24.2138 102.409 23.8493 102.553C23.4361 102.114 23.4765 102.292 23.0826 101.997L23.143 101.392L22.6076 101.359C22.4592 102.909 22.6629 104.433 22.7612 105.95C22.794 106.458 22.6102 106.819 22.6096 107.426C23.9451 107.841 23.222 109.039 24.5357 110.523C25.476 111.585 24.8718 112.887 25.4368 113.417C26.1033 114.042 26.521 113.372 26.5615 114.695C26.5712 115.005 26.7068 115.481 26.6547 115.65C26.541 116.021 26.3359 115.901 26.593 116.517C26.7113 116.8 26.8642 117.055 26.9227 117.35C27.0262 117.866 26.8938 119.141 27.1625 119.433C27.4183 119.711 28.6188 119.81 29.0777 119.772C29.1754 119.284 29.1915 118.617 29.2467 118.16L29.3997 117.454C29.6092 116.902 29.1741 116.824 29.8946 116.554C30.3708 116.375 30.1286 116.114 30.5527 115.903L31.0438 115.68L30.385 115.69C30.7622 115.355 31.1929 114.957 31.0026 114.273C30.9371 114.036 30.858 113.816 30.9743 113.7C30.9904 113.687 31.0194 113.656 31.029 113.673C31.0688 113.742 32.9642 113.135 33.1069 113.103C33.5285 113.007 33.5002 113.121 33.8273 113.229C34.1384 113.333 34.2978 113.243 34.5895 113.317C34.695 113.343 35.6725 114.15 36.6893 113.521C36.4804 113.263 35.7985 112.701 36.0935 112.215C36.3397 112.1 36.5325 112.338 36.787 112.446C36.7561 111.7 37.0589 111.177 37.1398 110.633C37.2253 110.059 36.4335 109.82 36.1584 109.427C36.2985 109.066 36.474 109.118 36.7651 108.884C36.7838 108.262 35.9604 107.788 37.0479 107.603C38.7511 107.314 37.8789 107.096 38.3108 106.386C38.6065 106.026 39.0178 106.231 39.4137 106.208C39.8347 106.185 39.9857 105.812 40.4973 106.016C40.6985 106.379 40.2884 107.218 40.4986 107.725C40.7589 107.99 41.4138 107.746 41.4929 107.246C41.5064 107.164 41.5006 107.109 41.5134 107.035C41.6484 106.26 42.1098 106.652 42.4974 106.816C43.0681 107.057 42.8676 106.37 43.4531 106.616C43.8368 106.777 43.824 107.012 44.4326 106.863C45.1621 106.683 44.8137 106.827 45.5991 106.871L45.5779 107.628C45.5805 107.641 45.5914 107.67 45.5933 107.68C45.6948 108.134 47.0105 107.344 46.8061 108.292C46.7476 108.561 46.72 108.422 46.6956 108.73C46.9282 108.955 47.2759 109.153 47.6108 109.277C47.6249 109.609 47.6596 110.521 47.6075 110.809C47.5375 111.197 47.0992 111.585 47.7592 111.733C48.033 111.424 47.9186 111.127 48.2406 110.971C48.4129 111.05 48.3152 110.953 48.4065 111.124C48.4579 111.219 48.4592 111.286 48.4515 111.416C48.4116 112.082 48.1378 112.48 49.0498 112.723C49.5858 112.865 50.0331 112.613 50.3828 112.7C50.7806 112.799 50.7877 113.239 50.9271 113.607L51.8571 113.522C52.4407 114.177 51.7427 114.529 52.4998 115.158C52.8694 115.464 52.5911 115.313 52.8096 115.611L53.415 115.393C53.6972 115.789 53.7936 116.208 54.2724 116.405C54.7776 116.613 55.3592 116.303 55.5919 116.009C55.5527 115.495 55.2288 115.408 55.1471 114.909C55.1066 114.662 55.0887 114.453 55.0533 114.222C55.052 114.212 55.0051 113.888 55.0045 113.884C54.9884 113.153 55.464 114.101 56.4377 113.678C56.4711 113.38 56.4377 113.437 56.4017 113.178C56.3946 113.125 56.3734 113.076 56.3818 112.986C56.4171 112.617 56.3496 112.903 56.4705 112.755C56.6671 112.617 57.2231 112.609 57.4866 112.722C57.7308 112.827 57.7494 113.115 57.9564 113.176C58.5798 113.36 57.7135 112.486 57.6942 112.059L58.1216 111.893C58.0245 111.669 57.9346 111.536 57.8433 111.362C58.4539 110.291 58.6807 111.361 59.4218 111.64C59.7367 111.759 60.1319 111.714 60.9141 112.006C61.3852 112.182 61.7754 112.342 62.2593 112.522C63.1482 112.851 63.179 112.442 63.8474 112.63L65.2202 113.121C66.604 113.491 67.6086 112.677 68.2069 113.386C68.7327 114.009 68.5675 113.847 69.5174 113.932C69.5463 114.358 69.4949 114.239 69.4223 114.583C69.3284 115.028 69.4814 114.836 69.446 115.227C69.4055 115.674 68.9833 115.687 68.9293 116.303C69.2744 116.547 69.5392 116.443 69.8298 116.618C69.9866 116.571 70 116.426 70.2109 116.418C70.4249 116.82 70.2038 116.9 70.1492 117.328C70.52 117.268 70.3265 117.199 70.6909 117.166C70.869 117.468 70.9937 117.612 71.3112 117.707C71.3311 117.713 71.3536 117.717 71.3729 117.723C71.5464 117.777 71.4307 117.707 71.547 117.788C71.3703 118.244 71.0329 117.847 70.8593 118.477C71.2507 118.714 71.0342 118.517 71.5676 118.479C71.6775 118.75 71.6403 118.78 71.8568 118.96C72.0362 118.891 72.0233 118.775 72.1923 118.735C72.5619 118.647 72.9771 119.165 73.6783 118.681C74.1731 118.341 74.3216 118.418 75.1109 118.416C75.3268 118.416 75.4598 118.37 75.6224 118.353C75.6488 118.619 75.5813 118.698 75.492 118.868C75.152 118.829 75.1732 118.733 74.7998 118.721C74.616 119.717 75.5299 119.816 76.0755 122.243C76.3043 123.262 76.652 125.6 76.5209 126.746C77.4586 126.786 77.3147 126.19 77.4105 125.887C78.0018 125.607 78.0184 126.093 78.2183 126.526C78.5088 127.157 78.4272 127.33 79.1001 127.423C79.6162 127.493 79.8662 127.574 79.9806 127.148C80.4254 127.299 79.9947 127.293 80.4093 127.261C82.0642 127.129 81.7391 128.724 81.7892 128.919C81.9165 129.416 82.4988 129.141 82.6061 129.65C82.6202 129.718 82.6279 129.783 82.6375 129.851C82.6896 130.204 82.7417 130.634 83.0104 130.868C83.3761 131.187 84.1454 130.947 84.7887 131.031C84.9738 131.261 84.9655 131.508 85.1872 131.712C85.3498 131.862 85.3768 131.814 85.5227 131.92C86.0799 132.322 85.4591 132.255 86.6256 131.934C86.9199 131.853 87.2412 131.827 87.5729 131.796C89.0363 131.66 88.4322 131.362 88.8146 130.819C89.4232 131.02 89.3313 131.119 89.8885 130.784C90.0319 130.697 90.2041 130.573 90.3757 130.498C90.6457 130.38 90.7742 130.42 91.0538 130.321C91.4291 130.189 91.71 130.004 92.185 129.9C93.1857 129.68 92.8103 130.08 92.7647 130.556C95.4357 129.734 94.5064 130.916 95.1491 131.509C95.8825 132.186 95.9287 131.54 96.5476 131.965C96.7887 132.13 96.9024 132.258 97.2463 132.244C98.5304 132.19 97.6422 132.958 99.1879 131.643C99.8357 131.092 99.3119 130.832 99.1506 130.291C98.9809 129.725 99.1981 129.006 99.4783 128.683C99.9347 128.157 100.106 128.447 100.321 127.522C101.016 127.711 101.894 128.336 102.43 128.407C102.786 128.455 104.414 128.959 104.561 129.215C104.765 129.57 104.406 129.91 105.34 130.918C105.714 131.321 106.517 131.657 107.163 131.336C107.821 131.01 108.294 130.778 109.178 130.794C110.719 130.823 110.213 130.709 110.966 131.561C111.428 131.565 111.62 131.379 112.009 131.603C112.683 131.99 112.74 132.591 113.707 132.46C114.442 132.359 114.416 132.56 114.839 132.562C115.295 132.563 115.097 132.209 115.754 132.42C116.257 132.582 116.354 132.526 116.686 132.187C117.809 131.043 118.441 132.277 118.99 130.619C119.141 130.162 119.229 130.181 119.662 129.972C120.458 129.59 120.235 128.978 121.361 129.608C122.556 130.276 122.199 129.274 123.185 129.394C124.041 129.498 124.041 130.052 125.264 129.912C125.479 129.624 125.503 129.258 125.796 129.059C126.095 128.855 126.492 128.807 126.695 128.557C127.024 128.152 126.557 127.927 126.437 127.704C126.232 127.323 126.524 125.752 126.68 125.295C126.896 124.668 127.405 123.834 126.851 123.108C126.62 122.804 126.196 122.856 126.052 122.484C125.874 122.073 127.197 121.373 127.518 121.101C127.984 120.705 127.724 120.67 128.536 120.631C129.182 120.6 129.076 120.204 129.554 120.1C129.939 120.015 130.424 120.246 130.835 120.294C131.342 120.353 131.143 120.044 132.035 120.161C132.667 120.244 132.582 120.352 133.031 120.645C133.252 120.79 133.308 120.777 133.453 120.998C133.729 121.418 133.416 121.172 133.85 121.375C134.165 121.522 134.038 121.435 134.197 121.726L134.824 122.647C135.033 122.839 135.066 122.66 135.284 122.963C135.453 123.196 135.364 123.215 135.548 123.393C135.734 123.572 135.825 123.496 135.924 123.789C136.119 124.37 135.854 124.155 136.57 124.696C137.929 125.722 137.94 124.918 138.801 125.009C139.386 125.071 139.472 124.712 139.967 125.012C140.475 125.32 140.599 125.187 141.313 125.22C141.495 125.438 141.636 125.703 141.853 125.919C142.296 126.36 142.101 126.234 142.322 126.763C142.432 126.804 143.203 127.055 143.249 127.061C143.527 126.821 143.358 126.792 143.681 126.577C143.888 126.441 144.102 126.39 144.311 126.275C144.849 125.98 144.357 125.462 144.988 125.101C145.893 124.582 145.153 124.855 145.836 124.089C146.114 123.777 146.443 123.174 146.816 123.124C146.825 123.495 146.767 123.903 146.89 124.212C147.035 124.573 147.247 124.529 147.437 124.831C147.407 125.362 147.071 125.259 146.979 125.837C147.213 126.264 147.431 126.056 147.478 126.545C147.566 127.466 147.558 126.942 147.834 127.525C148.078 128.042 147.758 128.173 147.684 128.567C147.571 129.157 147.894 129.254 147.929 129.575C147.935 129.625 147.777 130.411 147.733 130.555C147.621 130.929 147.857 131.389 147.715 131.694C147.551 132.046 147.143 131.931 146.943 131.508C146.835 131.281 146.816 131.308 146.702 131.13C146.497 130.809 146.686 130.977 146.58 130.709C146.086 130.699 146.263 130.925 146.152 131.367C146.013 131.911 145.848 131.625 145.63 132.031C145.887 132.493 146.231 132.505 146.704 133.695C146.891 134.165 147.349 135.28 147.26 135.881L146.438 135.913C146.48 136.103 146.454 136.08 146.573 136.217C146.899 136.595 147.271 136.426 147.733 136.352C147.685 135.243 147.914 135.287 147.909 134.522C149.026 134.314 148.543 134.048 148.872 134.707C149.008 134.982 149.102 134.832 149.364 134.742C149.668 134.638 149.806 134.67 150.142 134.634C150.311 134.318 150.175 134.305 150.483 134.077C150.672 133.937 150.91 133.843 151.102 133.685C151.429 133.413 151.563 132.783 151.706 132.37C151.906 131.793 152.187 131.556 152.163 130.872C152.155 130.64 152.067 130.152 152.077 130.015C152.1 129.722 152.32 129.619 152.475 129.4C152.422 129.029 152.268 128.984 152.318 128.65C152.343 128.482 152.66 127.6 152.839 126.302C152.917 125.738 152.952 125.065 152.903 124.471C152.838 123.71 152.599 123.577 152.799 122.828C153.047 121.907 152.643 121.859 152.66 121.114C152.676 120.471 152.876 120.024 152.731 119.289C152.557 118.404 152.358 118.447 152.158 117.922C152.002 117.515 152.19 117.603 151.853 117.318C151.419 116.95 151.761 116.783 151.263 116.432C151.074 116.298 151.126 116.366 150.981 116.174C150.819 115.961 150.328 114.955 150.293 114.673C150.248 114.319 150.345 114.428 150.312 114.241C150.277 114.04 150.195 114.18 150.168 113.91C150.166 113.891 150.25 113.306 150.248 113.081C150.244 112.711 150.333 113.016 150.158 112.742C150.129 112.698 149.942 112.455 149.917 112.437C149.808 112.358 149.471 112.421 149.302 111.961C149.228 111.761 149.209 111.638 149.033 111.548L148.731 111.437C148.996 110.863 148.694 110.831 148.167 110.777C147.97 110.757 147.718 110.766 147.545 110.704C147.087 110.537 146.758 110.138 146.062 110.302C145.808 110.361 145.859 110.448 145.646 110.58C145.366 110.753 145.414 110.649 145.114 110.74C145.165 111.201 145.712 111.207 145.663 111.746C145.636 112.05 145.652 111.991 145.404 112.061L145.302 111.363C145.149 111.552 145.078 112.124 145.051 112.403C145.015 112.784 144.415 113.09 144.363 112.68C144.349 112.576 144.364 112.569 144.376 112.431C144.392 112.254 144.399 112.099 144.395 111.917C144.169 112.003 144.143 112.039 143.862 112.054C143.846 111.606 143.934 111.809 144.028 111.442C142.95 111.63 144.209 112.414 143.731 112.698C143.373 112.911 143.369 112.459 143.275 112.263C143.195 112.094 143.13 112.148 142.988 111.928L142.786 111.521C142.518 111.602 142.266 111.829 141.996 111.964C141.651 112.137 141.788 112.018 141.533 112.008C141.174 111.995 141.307 112.085 140.923 112.063C140.817 111.469 140.789 111.262 141.164 110.897C141.826 110.251 141.296 110.347 141.434 109.772C141.573 109.197 141.925 108.798 142.021 108.039C142.065 107.688 142.108 107.736 142.229 107.482C141.662 107.083 142.157 106.783 142.079 106.33C142.005 105.893 142.087 106.13 142.14 105.699C142.229 104.98 142.68 104.24 142.646 103.463C142.633 103.157 142.527 102.994 142.546 102.686C142.568 102.319 142.745 102.293 142.86 102.063C143.09 101.604 142.52 100.93 143.027 99.9052C143.219 99.5177 143.229 99.6436 143.45 99.4007C143.853 98.9592 143.487 99.1597 144.294 98.4623C144.45 98.3267 144.607 98.2065 144.751 98.0664C144.974 97.8492 144.934 97.729 145.265 97.6435C145.688 97.7798 145.369 97.8589 145.781 98.0799C146.146 97.7695 145.795 97.8659 145.803 97.2444C146.229 96.9289 146.454 96.9681 146.679 96.8241C146.928 96.6647 147.042 96.2701 147.346 96.2296C147.859 96.1608 147.527 96.3524 147.958 96.0072L147.571 95.7958L147.652 95.4596C147.606 95.2109 147.612 94.8992 147.833 94.7237C148.012 94.5811 147.9 94.6865 148.105 94.6081C148.273 94.5431 148.184 94.5862 148.363 94.4763C148.785 94.2179 148.508 94.3683 148.982 94.394C149.105 94.1607 148.959 94.0071 149.253 93.8901C149.517 93.7854 149.573 93.9885 149.911 94.0097C150.088 93.8342 150.052 93.7982 150.189 93.6221C151.163 93.6446 150.057 94.3021 149.909 94.5708C150.301 94.8111 150.408 94.7289 150.793 94.5097L150.852 93.7931C151.262 93.7629 151.255 94.02 151.353 93.689C151.422 93.457 151.305 93.2417 151.429 92.9299C151.661 92.6279 151.563 92.8091 151.915 92.6806C152.254 92.5565 152.092 92.5912 152.173 92.1806C152.506 92.0359 152.507 92.1368 152.633 91.8457C152.407 91.6709 152.338 91.6252 151.996 91.624C151.68 91.9665 151.34 92.5038 151.152 91.6812C151.025 91.1182 150.754 90.8476 150.739 90.2235C150.73 89.8475 150.866 89.3443 150.757 89.0049C150.694 88.8089 150.593 88.7851 150.536 88.5763C150.467 88.3237 150.531 88.2266 150.504 87.9856C150.456 87.5505 150.094 87.5563 150.136 87.1308C150.16 86.8943 150.24 86.9303 150.32 86.6854C150.392 86.4675 150.339 86.3969 150.447 86.1893C150.66 85.7766 150.868 86.0793 150.96 85.4868C151.063 84.8286 151.154 85.0587 151.768 85.0208L151.796 84.2496C152.184 84.31 152.116 84.4115 152.381 84.6525C152.599 84.8486 152.444 84.6069 152.554 84.8704C152.607 84.997 152.582 85.0189 152.613 85.1153C152.716 85.4296 152.53 84.9938 152.654 85.2284C152.802 85.5086 152.888 85.2779 153.012 85.7233C153.327 85.4386 152.958 85.4906 153.396 85.4096C153.715 85.7233 153.39 85.7541 153.791 85.8827C154.015 84.65 153.658 85.1712 153.543 84.1763C153.505 83.8472 153.516 83.4237 153.523 83.0882C153.532 82.6409 153.505 82.6338 153.847 82.5393C153.872 82.5329 153.948 82.5175 153.969 82.5123L154.079 82.4763C153.681 82.2173 153.529 82.5162 153.213 81.9603C153.106 81.7732 153.131 81.7019 152.96 81.5194C152.488 81.0161 152.403 81.2057 152.838 80.5257C152.967 80.3246 153.031 80.1125 153.159 79.9364L153.726 79.9145C153.726 80.4582 153.459 80.1845 153.606 80.8664C153.71 81.3516 154.327 81.8838 154.667 82.1383C155.083 82.45 155.243 82.1691 155.163 82.8562C155.939 82.9179 155.467 83.4115 155.334 83.6364C155.011 84.1814 155.148 84.846 155.444 85.3865C155.573 85.6211 155.581 85.7046 155.638 85.9714C155.797 86.7214 155.596 87.8969 156.034 88.5107C156.392 89.0127 156.324 88.8642 156.41 89.6104C156.452 89.978 156.651 90.6066 156.628 90.8341C156.6 91.1239 156.517 91.0442 156.425 91.3065C156.352 91.5147 156.368 91.7429 156.317 91.9774L155.893 92.1349C155.975 92.5977 156.3 92.3856 156.544 92.6491C156.883 93.0141 156.808 94.1768 157.075 94.5984C158.263 96.4712 157.735 95.574 158.743 96.567C159.52 97.3318 159.209 97.0921 160.148 97.6384C160.664 97.9379 160.92 98.3961 161.447 98.7445C161.765 98.9547 161.926 98.9874 162.21 99.2182C162.521 99.472 162.601 99.4971 163.006 99.6591L164.454 100.693C164.662 100.964 164.712 101.164 165.064 101.317C165.238 101.392 165.878 101.578 166 101.578C165.975 101.304 165.904 101.287 165.842 101.08C165.738 100.732 165.855 100.811 165.823 100.533C165.78 100.165 165.698 100.495 165.739 100.011C165.768 99.6758 165.672 99.08 165.53 98.8441C165.406 98.6384 165.494 98.8602 165.374 98.6076C164.834 97.4732 164.763 98.2194 164.778 97.3556C164.575 97.3453 164.381 97.3601 164.205 97.2663C164.276 97.076 164.404 97.087 164.529 96.9346C164.646 96.792 164.64 96.6692 164.662 96.4732C164.751 95.6923 164.83 96.0265 165.187 95.6441C165.027 95.5779 164.87 95.5785 164.729 95.4583C164.529 95.2867 164.703 95.2777 164.408 95.0843C164.036 94.8407 163.877 94.941 163.8 94.3902C163.49 92.1561 163.8 93.3111 164.235 92.5411C164.755 91.6201 163.411 91.5533 163.014 91.2891C162.58 90.9999 162.018 90.2878 162.155 89.5236C162.45 89.3706 163.694 89.2202 162.303 88.5113C161.761 88.235 161.997 88.4387 161.529 88.5814C161.276 88.3854 161.431 88.377 161.099 88.253C160.967 88.2028 160.927 88.2279 160.8 88.1636C160.419 87.9734 160.499 87.4811 160.431 87.0588C159.99 87.0241 159.874 87.1694 159.64 87.402C159.666 87.6482 159.906 87.7754 159.487 87.8661C158.344 88.1135 158.425 85.6918 157.61 85.1635C157.225 84.9141 157.383 85.1603 157.141 84.693C156.62 83.6911 157.217 84.2014 157.253 83.245C157.587 83.2585 157.792 83.4346 157.911 83.1235C158.017 82.8485 157.75 82.736 157.584 82.6293C157.726 82.0097 157.601 82.1203 157.634 81.4596C158.23 81.5888 158.238 82.11 158.62 82.0451C158.547 81.7141 158.196 81.4911 158.292 80.9512C158.356 80.5932 158.346 79.8393 158.515 79.5424C158.616 79.3663 158.724 79.2615 158.814 79.0713C158.96 78.7589 158.851 78.7377 159.215 78.6137C159.642 78.4678 160.235 78.6021 160.585 78.374C160.069 77.3778 160.278 78.4941 159.914 76.559C159.842 76.1778 159.932 76.1483 159.955 75.8192C159.76 75.6367 159.746 75.7119 159.518 75.6058L159.656 75.0467L159.346 74.9079C159.421 74.6476 159.529 74.6039 159.459 74.3982C159.367 74.1276 159.209 74.2671 159.222 73.9039C159.252 73.0356 159.384 72.8383 159.295 71.8704C159.264 71.5388 159.163 71.7599 159.223 71.2734C159.288 70.7399 159.022 70.8434 159.078 70.4372C159.097 70.2952 159.139 70.4513 159.139 70.0985L158.618 70.0361C158.601 70.0316 158.575 70.0226 158.556 70.0124C158.853 69.3928 158.942 70.2913 159.557 69.5111C159.912 69.0599 159.92 69.0509 160.374 68.6961C160.188 68.3407 160.273 68.7334 160.114 68.4197C160.049 68.2931 160.101 68.207 159.993 67.9994C159.585 67.7809 159.619 68.1511 159.052 68.1556L158.986 67.9319C158.979 67.9159 158.968 67.8914 158.96 67.8766L158.896 67.768C158.487 68.11 158.762 68.09 158.137 68.0148C157.977 68.2738 158.051 68.3208 157.735 68.3535C157.616 68.2186 157.619 68.0046 157.49 67.7912C156.379 68.0592 157.247 67.5861 156.286 67.7153C156.273 68.1672 156.744 68.09 156.124 68.2443C155.701 68.3497 155.704 68.2282 155.342 68.1594C155.171 68.7263 155.185 68.905 154.543 68.9963C154.584 68.5592 154.773 68.7038 154.966 68.3047C154.714 68.3728 154.558 68.5335 154.306 68.3863C154.5 68.0232 155.043 68.0804 155.37 67.8812C155.628 67.7237 155.907 67.126 155.899 66.7609C155.887 66.187 155.313 65.0128 154.871 64.6143C154.446 64.7216 154.254 65.4106 153.942 64.4555C153.611 64.408 153.617 64.4851 153.416 64.2826C153.498 64.1014 153.678 64.0898 153.687 64.0866L153.816 64.0506C153.719 63.7486 153.685 63.8732 153.7 63.5223C154.087 63.568 154.256 63.8437 154.409 64.1213C155.075 63.9369 154.64 64.0024 155.248 64.111C155.7 63.7486 155.5 63.7299 155.619 63.1251C155.682 62.8038 155.768 62.8706 155.901 62.6778C156.02 62.5049 156.015 62.3661 156.092 62.1257C156.774 62.1508 156.765 62.0975 157.036 62.5705C157.062 62.557 157.449 62.2877 157.488 62.2523C157.666 62.0929 157.652 61.9271 157.822 61.7375C158.024 61.5152 158.551 61.2864 158.814 61.0961C158.749 60.8692 158.74 60.9554 158.656 60.7208C159.004 60.5595 158.781 60.8075 159.106 60.6205L158.953 60.2561C159.148 60.0755 159.214 60.2381 159.278 59.8711C158.569 59.5948 158.902 60.1539 158.22 60.0074C158.315 59.6815 158.345 59.9765 158.506 59.6333C158.335 59.5684 158.17 59.5851 158.02 59.5009C157.659 59.2972 158.127 59.3685 157.384 59.2522C157.147 59.2149 156.958 59.3769 156.666 59.2496C156.686 58.8666 157.235 58.9193 157.163 58.1943C156.979 58.1808 156.895 58.2419 156.632 58.2342C156.754 57.8903 156.856 57.9739 157.02 57.7007C156.846 57.4899 156.892 57.5805 156.633 57.495C156.626 57.1216 156.777 56.8671 156.65 56.6357C156.414 56.7129 156.331 57.0188 156.112 57.1673C155.709 57.4411 155.047 57.7476 154.561 57.8614C154.056 57.9796 154.351 58.1281 154.028 58.4732L154.022 58.4771ZM165.06 103.252L165.168 103.272C165.59 103.224 165.422 102.837 165.894 103.193C166.244 103.458 166.013 103.747 166.253 104.157L166.619 104.154C166.793 103.79 166.718 103.368 166.776 102.923C166.651 102.856 166.566 102.817 166.462 102.702L166.338 102.405C166.313 102.119 166.349 101.844 165.703 101.901L165.685 102.053C165.669 102.254 165.669 102.331 165.496 102.635C165.247 103.072 164.953 102.842 165.059 103.252H165.06ZM127.303 72.5774C127.437 72.348 128.233 71.6043 127.956 71.1371C127.789 70.8569 127.978 71.0613 127.324 71.2393C126.921 71.3492 126.996 71.5831 126.667 71.632C126.241 71.6956 126.259 71.4096 125.944 71.8325C125.877 71.9212 125.93 71.8846 125.848 71.9694C125.595 72.2316 125.343 72.0183 125.551 72.4373C125.686 72.7072 126.073 72.7047 126.408 72.6128C126.997 72.4521 126.753 72.5485 127.304 72.5774H127.303ZM127.068 76.8816C127.165 76.6811 126.715 76.3572 126.482 76.2569L125.972 76.0609C125.811 76.0332 125.459 76.0512 125.28 76.0519C125.01 76.6477 125.131 76.3128 125.034 77.0577C124.983 77.4459 124.581 77.8566 125.305 77.5564C125.858 77.327 125.669 77.7492 126.197 77.3578C126.386 77.2177 126.349 77.2017 126.581 77.1297C127.015 76.996 126.894 77.2145 127.067 76.8816H127.068ZM144.255 62.1424C144.47 62.0152 144.32 62.1817 144.456 61.9284L144.747 60.9856C144.912 60.3711 144.866 60.0774 144.857 59.4283C144.306 59.3782 144.617 59.5369 144.023 59.7085C143.709 59.7991 143.74 59.706 143.644 59.9695C143.591 60.1141 143.624 60.1115 143.599 60.2407C143.538 60.5569 143.592 60.2638 143.534 60.4817C143.373 61.0871 143.758 60.9907 144.002 61.7446C144.108 62.0724 144.019 62.001 144.255 62.1431V62.1424ZM100.413 68.6871C99.6358 68.6987 100.015 68.9635 99.4192 69.0078C99.4224 69.6647 99.5684 69.2591 99.2335 69.6749C99.1461 69.7836 99.069 69.8048 99.1101 70.0104C99.1795 70.353 99.0375 70.0612 99.4006 70.2495C98.8112 71.3325 100.347 70.5439 100.455 70.5169C100.642 70.4706 100.931 70.4481 101.137 70.4128C101.126 69.4802 101.478 69.7309 101.361 69.3202C101.177 69.0098 101.081 69.1357 100.963 68.8696C100.79 68.4802 101.065 68.4712 100.739 68.2424C100.322 68.3137 100.599 68.2912 100.414 68.6871H100.413ZM101.99 74.8956C102.302 75.1277 102.464 75.0968 102.749 74.8905C103.577 74.2915 103.952 74.6199 104.421 74.3211C104.669 74.1636 104.762 73.8892 104.772 73.501C104.733 73.2895 104.681 73.4238 104.416 73.2992C104.07 73.1372 104.337 73.3075 104.195 72.9058C104.034 72.454 103.869 72.7921 103.542 72.8775L103.563 72.1147C102.899 72.1397 103.542 72.3197 103.039 72.3293L102.881 72.328C102.68 72.4463 102.724 73.026 102.691 73.2779C102.612 73.8712 102.441 73.5562 102.261 74.0171C102.182 74.2182 102.218 74.2414 102.136 74.4342C102.04 74.6604 101.996 74.5666 101.991 74.8944L101.99 74.8956ZM28.9607 73.8127L28.6844 73.6141C28.6709 73.5999 28.6548 73.58 28.642 73.5665L28.5558 73.4669C28.4279 73.8821 28.7069 74.5505 28.8412 75.0113C29.1125 75.9452 29.1947 76.7029 30.1106 76.5962C30.8715 76.5082 30.734 75.9979 30.6781 75.3545C30.6164 74.6482 30.412 75.1868 30.4544 74.5833L29.9904 74.5743C29.9319 73.9335 29.8882 73.3525 29.2705 73.3326C29.0938 73.6167 29.1844 73.625 28.9607 73.812V73.8127ZM99.4147 71.6435C99.5426 72.0806 99.6494 71.7149 99.7766 72.1346C99.8788 72.472 99.731 72.544 99.9752 72.7953C100.132 72.9566 100.318 72.9829 100.563 73.0665C100.933 73.1931 100.864 73.2773 101.038 73.5042C101.989 73.5395 101.974 73.3576 102.221 72.8056C102.017 72.4984 102.079 72.7786 101.865 72.4187C101.997 72.31 102.065 72.2785 102.211 72.1879C102.207 71.4546 102.369 71.2618 101.822 70.9481C101.241 71.0407 101.48 71.1795 101.203 71.5568C100.996 71.283 101.238 71.0709 101.286 70.7039C100.966 70.5426 101.092 70.5272 100.734 70.6274C99.5883 70.9481 100.403 70.9327 99.8421 71.2849C99.6429 71.4102 99.5458 71.3691 99.4141 71.6442L99.4147 71.6435ZM123.735 72.3602C123.435 72.7111 123.475 72.8242 122.882 72.6449C122.516 72.5343 122.363 72.5337 122.39 72.9033C122.432 73.4804 122.667 73.2837 122.78 73.6359C122.388 73.6687 122.385 73.4997 122.069 73.3859C121.931 73.3358 121.394 73.1983 121.252 73.1835C120.614 74.2677 121.022 74.366 121.035 74.4065C121.086 74.5595 121.025 74.4805 120.96 74.7311C121.661 75.5159 120.975 75.0762 121.332 75.5158C121.692 75.8391 121.886 75.5756 122.246 75.852C122.409 75.978 122.315 76.0699 122.611 76.0262C122.792 75.9992 122.834 75.924 123.195 75.9034C123.195 75.8841 123.199 75.6746 123.2 75.672C123.262 75.3102 123.81 74.8776 123.978 74.5081C124.305 74.5826 124.251 74.6983 124.532 74.4547C124.694 74.3153 124.889 74.0755 124.634 74.0036L124.504 73.9682C124.224 73.9206 123.752 74.0653 123.455 73.465C123.316 73.1841 123.365 73.1848 123.504 73.0466C123.745 73.3544 123.552 73.5909 124.035 73.7574C124.422 73.8898 124.854 73.8127 125.099 73.6205L124.901 72.9502C124.688 72.4964 124.75 72.855 124.802 72.2856L123.735 72.3614L123.735 72.3602ZM75.3422 75.8198C75.0665 75.7177 75.2143 75.6727 74.8846 75.602L74.9669 76.1271C74.8139 76.2215 74.7663 76.2627 74.6243 76.3488C73.8415 76.825 73.9996 77.0391 73.5606 76.451C73.1551 76.5512 72.8466 76.9729 72.8009 77.4504C73.1133 77.6638 73.2219 77.3334 73.5028 78.2159C73.5613 78.399 73.3743 78.3303 73.713 78.4549L73.4025 78.6111C73.4944 78.8541 73.4751 78.7024 73.5002 78.8226C73.5008 78.8251 73.6673 78.8701 73.4674 78.928C73.2104 79.0025 73.5754 78.9061 73.301 78.8952C73.202 78.8913 73.2181 78.7853 73.087 78.9865C72.9031 79.268 73.0715 79.2757 73.1699 79.4646C73.3215 79.7583 73.2419 79.7134 73.2637 80.0823L73.4282 80.144C73.6242 80.214 73.4745 80.1305 73.6481 80.2282C73.7554 80.2886 73.8042 80.3702 74.0048 80.4904C74.6346 80.8696 74.1937 80.9551 74.7297 81.0116C74.9778 79.9826 74.4206 80.6228 74.963 78.8573C75.0614 78.5359 74.9643 78.356 75.1629 78.1227C75.3949 77.8495 75.447 78.0397 75.7086 77.5834C75.8429 77.3488 75.848 77.3925 76.1964 77.2203L76.8487 76.7113C76.9618 76.6142 76.94 76.7151 77.1193 76.5204C77.0904 76.1637 76.6585 75.8186 76.3757 75.6392C75.8345 75.2967 75.6899 75.5062 75.3428 75.8186L75.3422 75.8198ZM80.2204 73.3416C79.9928 73.1777 80.0147 73.0556 79.6985 73.0601C79.6786 73.3512 79.7004 73.2632 79.7923 73.5016L79.4408 73.6565L79.6001 73.9406C79.2614 73.9393 79.39 73.8596 79.0577 73.823C78.9928 74.0389 79.0962 73.9579 78.9683 74.1726C78.4214 73.9065 78.4208 74.492 78.3629 74.5826C78.1566 74.5164 78.1007 74.458 77.8983 74.3718C77.6765 74.4721 77.7684 74.5087 77.5705 74.5466C77.422 74.5756 77.2684 74.51 77.0499 74.4959C77.1604 74.8487 77.3218 74.8513 77.5615 75.0653C77.4201 75.1334 77.1951 75.1071 77.0428 75.2041C77.3462 75.7922 77.5435 75.8372 77.681 76.0422C77.8642 76.3147 77.5698 76.1463 77.8976 76.3713C78.1791 76.3128 77.9979 76.5018 78.1688 76.1701C78.2588 75.9953 78.1964 75.9522 78.3044 75.7427C78.5718 75.8783 78.2884 75.7928 78.6033 75.9895L78.69 75.6168L79.0641 75.7813L79.3386 75.2832C79.5507 75.4985 79.4632 75.4728 79.6785 75.6058C80.0744 75.3918 80.0507 75.314 80.203 74.904L80.453 75.1887C80.7262 75.0544 80.5565 75.1 80.7628 74.9445C80.9806 75.2568 80.6542 75.1456 81.552 75.0621L81.615 74.726C82.1723 74.7575 81.8952 74.6951 82.2011 74.6225C82.4724 74.5582 82.5051 74.6681 82.7179 74.7517C82.8882 74.5299 82.93 74.5312 83.3163 74.5254C83.6132 74.5216 83.9455 74.4342 84.1094 74.4965C84.3696 74.5948 84.3112 74.7806 84.7052 74.7446C84.9931 74.7183 84.8478 74.6726 85.0631 74.6289C85.4584 74.5486 85.2225 74.6283 85.3954 74.6829C85.9089 74.8449 85.6653 74.7054 86.0079 74.5704C86.4019 74.4155 86.4315 74.6431 86.7779 74.5653C87.0408 74.5062 87.5125 74.1263 87.4919 73.483C86.4083 72.7503 86.4186 73.5511 85.5638 73.5125C84.9815 73.4862 85.1775 73.2902 84.6113 73.3287C83.8953 73.3769 84.1955 73.053 83.7951 72.857C83.3131 72.6205 83.6569 73.186 83.0065 73.044C82.2841 72.8865 81.8676 72.6166 80.991 73.1179C80.5893 73.3474 80.7326 73.0581 80.4408 73.1764C80.3071 73.231 80.4247 73.2201 80.2204 73.3409V73.3416ZM148.436 107.881C148.723 108.374 149.202 108.147 149.453 108.569C149.572 108.769 149.592 108.992 149.687 109.195C149.842 109.525 149.824 109.428 149.662 109.801C149.357 109.775 149.541 109.757 149.431 109.732C149.272 109.695 149.411 109.533 149.202 109.748C148.785 110.176 149.935 110.648 150.049 111.065C150.22 111.689 150.068 111.69 150.464 112.201C150.784 112.613 150.79 112.777 150.964 113.243L151.425 113.328C151.588 113.936 151.516 113.723 152.186 113.811C153.174 113.94 153.152 115.09 153.798 115.99C154.173 116.512 154.51 116.775 154.886 117.382C155.206 117.898 155.45 118.52 155.792 119.03C156.423 119.971 157.043 119.343 157.529 121.01C157.645 121.405 157.857 121.555 158.08 121.779C158.714 122.417 158.629 122.638 158.868 123.464C158.984 123.865 159.862 124.572 160.197 124.66C160.188 123.921 159.673 123.426 159.719 122.749C159.762 122.719 160.761 122.156 161.224 122.582C161.409 122.753 161.335 122.804 161.578 122.897C161.585 122.056 161.185 121.629 160.669 121.358C160.657 121.374 160.649 121.384 160.646 121.415L160.591 121.593C160.541 121.78 160.656 121.646 160.514 121.874C160.048 121.749 160.035 121.507 159.679 121.261C159.374 121.05 158.975 121.003 158.603 120.864C157.927 120.611 158.085 120.252 157.372 119.076C157.124 118.666 157.234 118.231 157.086 117.89C156.954 117.584 156.583 117.139 156.894 116.731C157.445 116.006 158.914 116.73 159.32 116.459C159.168 115.96 158.739 116.225 157.851 115.732L154.228 112.857C154.214 112.854 154.189 112.851 154.176 112.848C153.758 112.774 154.271 112.609 153.48 112.203C153.155 112.038 152.85 111.966 152.535 111.831C152.42 111.511 152.593 111.555 152.392 111.289C152.254 111.108 152.178 111.216 151.986 110.902C152.065 110.67 151.91 110.875 152.304 110.67C152.043 109.34 151.363 110.19 150.751 109.431C150.983 109.018 150.859 109.521 151.065 109.122C150.793 109.041 150.064 108.627 149.818 108.436C149.305 108.04 149.853 107.505 148.899 107.433C148.83 107.598 148.967 107.541 148.808 107.705C148.706 107.81 148.816 107.721 148.666 107.796L148.434 107.882L148.436 107.881ZM50.1623 80.1414C49.8949 80.1125 50.0813 80.1131 50.0004 80.088C49.9875 80.0842 49.9625 80.0745 49.9483 80.0707C49.5389 79.9511 49.8461 80.1363 49.5672 79.9961C49.7593 79.6799 50.0621 79.5694 50.1045 79.1574C49.8352 79.2673 49.8782 79.313 49.6713 79.437C49.3261 79.6427 49.472 79.5527 49.2105 79.428C49.1366 79.5874 49.0851 79.804 49.0337 79.8708C48.9032 80.0411 48.8692 79.91 48.6725 80.1356C48.5337 80.6009 48.7503 80.7905 48.7889 81.2526C48.5215 81.4242 48.1757 81.4891 48.1641 81.7102C48.1622 81.7501 48.5317 82.6454 49.5138 81.5091C49.8242 81.1498 49.7169 81.5123 49.8943 81.0373C50.0042 80.7423 49.947 80.7192 50.1906 80.5611C50.5119 80.3522 50.8654 80.5257 50.8031 79.2275L50.7196 78.8431C50.519 78.9215 50.5897 78.7178 50.4907 79.5443C50.4432 79.9428 50.3744 79.9512 50.163 80.142L50.1623 80.1414ZM107.37 127.459C107.449 127.844 107.515 127.666 107.566 128.004C107.227 128.144 106.808 128.103 106.558 128.323C106.645 129.072 108.088 128.61 108.469 128.465C109.709 127.993 109.212 128.171 109.535 126.898C109.66 126.862 109.919 126.827 110.041 126.785C110.568 126.601 110.095 126.43 111.222 125.955C111.853 125.689 111.561 125.784 111.76 125.174C111.915 124.699 112.219 124.899 112.431 124.529C112.331 124.105 112.16 124.322 112.043 123.909C112.215 123.663 112.166 123.74 112.431 123.607L112.663 123.981C113.238 123.448 112.998 122.176 113.046 121.895C113.105 121.546 113.178 120.99 113.193 120.639C113.211 120.213 113.12 120.379 113.078 120.085C113.014 119.649 113.198 119.983 113.182 119.515L112.742 119.476C112.197 120.035 112.489 120.092 112.329 120.79C112.286 120.975 112.142 121.186 112.089 121.394C112.024 121.655 112.041 121.857 111.962 122.123C111.399 124.027 110.345 124.379 110.057 125.405C109.882 126.031 109.815 126.106 109.38 126.433C108.92 126.778 108.857 126.804 108.532 127.292C108.036 128.036 108.022 127.556 107.371 127.459H107.37ZM45.3761 76.9934C45.3112 77.1702 45.3047 77.4812 45.1813 77.6432C44.975 77.9151 44.8998 77.6818 44.7469 78.0622C44.5566 78.5359 44.8529 78.2994 44.432 78.6015C44.1698 78.7891 44.1511 78.7442 44.0875 79.1369C44.3683 79.3939 44.4217 79.259 44.7861 79.3785L44.9178 79.9255L46.1531 79.7641C46.3022 79.3708 46.4295 79.2281 46.5664 78.7197C46.7547 78.0166 46.8781 78.1439 47.0754 77.6824C46.9578 77.3148 46.8601 77.4748 46.8421 76.9928C46.1544 76.9523 46.6743 76.539 45.3761 76.9928V76.9934Z" fill="#14599C"/>
</svg>
