<svg width="22" height="18" viewBox="0 0 22 18" fill="none" xmlns="http://www.w3.org/2000/svg">
<path d="M18.5023 17.5566L11.0853 10.1395C10.924 9.97829 10.8101 9.80362 10.7434 9.6155C10.6757 9.42739 10.6419 9.22584 10.6419 9.01085C10.6419 8.79586 10.6757 8.59432 10.7434 8.4062C10.8101 8.21809 10.924 8.04341 11.0853 7.88217L18.5023 0.465116C18.7979 0.169508 19.1672 0.0147183 19.61 0.000744189C20.054 -0.012155 20.4372 0.142635 20.7597 0.465116C21.0553 0.760723 21.2031 1.13695 21.2031 1.5938C21.2031 2.05065 21.0553 2.42687 20.7597 2.72248L14.5116 9.01085L20.7597 15.2992C21.0553 15.5948 21.2095 15.9641 21.2224 16.4069C21.2364 16.8509 21.0822 17.2341 20.7597 17.5566C20.4641 17.8522 20.0879 18 19.631 18C19.1742 18 18.7979 17.8522 18.5023 17.5566V17.5566ZM7.86046 17.5566L0.44341 10.1395C0.28217 9.97829 0.168227 9.80362 0.101581 9.6155C0.03386 9.42739 0 9.22584 0 9.01085C0 8.79586 0.03386 8.59432 0.101581 8.4062C0.168227 8.21809 0.28217 8.04341 0.44341 7.88217L7.86046 0.465116C8.15607 0.169508 8.52585 0.0147183 8.9698 0.000744189C9.41267 -0.012155 9.79535 0.142635 10.1178 0.465116C10.4134 0.760723 10.5612 1.13695 10.5612 1.5938C10.5612 2.05065 10.4134 2.42687 10.1178 2.72248L3.86977 9.01085L10.1178 15.2992C10.4134 15.5948 10.5682 15.9641 10.5822 16.4069C10.5951 16.8509 10.4403 17.2341 10.1178 17.5566C9.82222 17.8522 9.44599 18 8.98915 18C8.5323 18 8.15607 17.8522 7.86046 17.5566V17.5566Z" fill="#96C8ED"/>
</svg>
