<svg width="31" height="28" viewBox="0 0 31 28" fill="none" xmlns="http://www.w3.org/2000/svg">
<path fill-rule="evenodd" clip-rule="evenodd" d="M10.2893 25.2227C10.2003 25.2227 10.1282 25.2948 10.1282 25.3838C10.1282 25.4728 10.2003 25.545 10.2893 25.545C10.3783 25.545 10.4505 25.4728 10.4505 25.3838C10.4505 25.2948 10.3783 25.2227 10.2893 25.2227ZM8.12817 25.3838C8.12817 24.1902 9.09575 23.2227 10.2893 23.2227C11.4829 23.2227 12.4505 24.1902 12.4505 25.3838C12.4505 26.5774 11.4829 27.545 10.2893 27.545C9.09575 27.545 8.12817 26.5774 8.12817 25.3838Z" fill="#14599C"/>
<path fill-rule="evenodd" clip-rule="evenodd" d="M26.5455 25.2227C26.4565 25.2227 26.3843 25.2948 26.3843 25.3838C26.3843 25.4728 26.4565 25.545 26.5455 25.545C26.6345 25.545 26.7066 25.4728 26.7066 25.3838C26.7066 25.2948 26.6345 25.2227 26.5455 25.2227ZM24.3843 25.3838C24.3843 24.1902 25.3519 23.2227 26.5455 23.2227C27.7391 23.2227 28.7066 24.1902 28.7066 25.3838C28.7066 26.5774 27.7391 27.545 26.5455 27.545C25.3519 27.545 24.3843 26.5774 24.3843 25.3838Z" fill="#14599C"/>
<path fill-rule="evenodd" clip-rule="evenodd" d="M0 1C0 0.447715 0.447715 0 1 0H5.64461C6.12985 0 6.54507 0.348357 6.62939 0.826215L9.96705 19.7396H27.7065C28.2588 19.7396 28.7065 20.1873 28.7065 20.7396C28.7065 21.2919 28.2588 21.7396 27.7065 21.7396H9.12807C8.64283 21.7396 8.22761 21.3912 8.14329 20.9134L4.80563 2H1C0.447715 2 0 1.55228 0 1Z" fill="#14599C"/>
<path fill-rule="evenodd" clip-rule="evenodd" d="M29.3206 3.4834C29.5543 3.48334 29.7851 3.53511 29.9965 3.635C30.208 3.73498 30.3947 3.88068 30.543 4.06157C30.6914 4.24245 30.7978 4.45402 30.8545 4.68102C30.9112 4.90797 30.9168 5.14466 30.8709 5.37403C30.8709 5.37407 30.8709 5.37398 30.8709 5.37403L28.7808 15.8244C28.7091 16.1828 28.5153 16.5055 28.2325 16.7371C27.9499 16.9686 27.5958 17.095 27.2305 17.0949C27.2303 17.0949 27.2308 17.0949 27.2305 17.0949H9.12815C8.57587 17.0949 8.12815 16.6472 8.12815 16.0949C8.12815 15.5426 8.57587 15.0949 9.12815 15.0949H26.8871L28.8094 5.4834H6.80585C6.25356 5.4834 5.80585 5.03568 5.80585 4.4834C5.80585 3.93111 6.25356 3.4834 6.80585 3.4834H29.3206C29.3207 3.4834 29.3205 3.4834 29.3206 3.4834Z" fill="#14599C"/>
</svg>
