<svg width="32" height="32" viewBox="0 0 32 32" fill="none" xmlns="http://www.w3.org/2000/svg">
<path fill-rule="evenodd" clip-rule="evenodd" d="M13.6733 1.84961L15.3533 2.85761C17.4844 4.11684 19.1215 6.06624 19.9933 8.38294C20.2893 7.71628 20.6413 7.06961 20.968 6.41628L22.276 7.72428C25.212 10.6603 28 15.0603 28 19.3336C28 25.0643 24.4667 28.6976 18.8133 29.3256L16.96 29.5309L17.3653 27.7109C17.6813 26.2869 17.7387 25.3563 17.672 24.7043C17.592 23.8843 17.2027 23.2403 16.7173 22.6003C16.2533 21.9869 15.7933 21.3723 15.4253 20.6936C13.912 21.8896 13.3253 22.9696 13.1373 23.8589C12.8973 24.9976 13.2373 26.1616 13.8587 27.4043L14.9547 29.5963L12.52 29.3256C9.08534 28.9443 5.70134 26.6496 4.368 23.3016C2.97467 19.7989 3.96 15.5603 8.46133 11.6589C11.448 9.07094 13.0293 5.71494 13.6733 1.84961V1.84961ZM15.4493 6.24961C14.4333 9.10294 12.4827 11.7029 10.2067 13.6749C6.32534 17.0389 5.97734 20.1336 6.84667 22.3149C7.49334 23.9416 8.88933 25.2789 10.544 26.0376C10.3495 25.1392 10.3441 24.2102 10.528 23.3096C10.9627 21.2483 12.4453 19.3163 15.2933 17.5363L16.7293 16.6389L17.2653 18.2456C17.7347 19.6536 18.708 20.6496 19.4693 21.8856C20.3067 23.2456 20.4667 24.8056 20.296 26.3629C23.7893 25.4896 25.3333 22.8403 25.3333 19.3336C25.3333 16.3709 23.5467 13.4643 21.7733 11.1923C21.0427 12.8296 19.5027 13.4056 18 14.1576V12.0003C18 10.1749 17.2573 7.94961 15.4493 6.25094V6.24961Z" fill="white"/>
</svg>
