<svg width="20" height="20" viewBox="0 0 20 20" fill="none" xmlns="http://www.w3.org/2000/svg">
<path d="M14.2622 0.740234H5.73592C4.354 0.740234 3.02868 1.2892 2.05152 2.26636C1.07435 3.24353 0.525391 4.56884 0.525391 5.95076V14.4771C0.525391 15.859 1.07435 17.1843 2.05152 18.1615C3.02868 19.1386 4.354 19.6876 5.73592 19.6876H14.2622C15.6442 19.6876 16.9695 19.1386 17.9466 18.1615C18.9238 17.1843 19.4728 15.859 19.4728 14.4771V5.95076C19.4728 4.56884 18.9238 3.24353 17.9466 2.26636C16.9695 1.2892 15.6442 0.740234 14.2622 0.740234ZM17.8149 13.7287C17.8149 14.8694 17.3617 15.9634 16.5551 16.77C15.7485 17.5766 14.6545 18.0297 13.5138 18.0297H6.48434C5.34363 18.0297 4.24964 17.5766 3.44303 16.77C2.63643 15.9634 2.18329 14.8694 2.18329 13.7287V6.69918C2.18329 5.55847 2.63643 4.46448 3.44303 3.65788C4.24964 2.85127 5.34363 2.39813 6.48434 2.39813H13.5138C14.6545 2.39813 15.7485 2.85127 16.5551 3.65788C17.3617 4.46448 17.8149 5.55847 17.8149 6.69918V13.7287Z" fill="white"/>
<path d="M13.4544 6.79389L13.4094 6.74889L13.3715 6.71099C12.476 5.81859 11.2631 5.31776 9.99885 5.31836C9.36042 5.3227 8.7291 5.45279 8.14096 5.70119C7.55282 5.94959 7.01939 6.31144 6.57115 6.76607C6.1229 7.2207 5.76862 7.75919 5.52855 8.35078C5.28848 8.94237 5.16732 9.57546 5.17201 10.2139C5.17104 11.5095 5.68176 12.7531 6.59306 13.6741C7.03943 14.126 7.57133 14.4843 8.15771 14.7283C8.7441 14.9723 9.37321 15.097 10.0083 15.0952C10.961 15.0752 11.8873 14.7785 12.6742 14.2411C13.4611 13.7037 14.0746 12.949 14.4399 12.0689C14.8053 11.1889 14.9066 10.2215 14.7316 9.28485C14.5566 8.34818 14.1128 7.48267 13.4544 6.79389V6.79389ZM9.99885 13.4255C9.36182 13.4344 8.73652 13.2537 8.2025 12.9062C7.66847 12.5588 7.24984 12.0604 6.99985 11.4744C6.74985 10.8884 6.6798 10.2413 6.79859 9.61538C6.91738 8.98946 7.21965 8.41301 7.66695 7.95935C8.11426 7.50569 8.68638 7.19532 9.31056 7.06771C9.93475 6.9401 10.5828 7.00101 11.1722 7.24271C11.7617 7.48441 12.266 7.89597 12.6209 8.42504C12.9758 8.95411 13.1654 9.57679 13.1654 10.2139C13.1685 10.6327 13.0891 11.0481 12.9316 11.4362C12.7741 11.8243 12.5417 12.1776 12.2477 12.4759C11.9536 12.7741 11.6036 13.0115 11.2177 13.1744C10.8319 13.3374 10.4177 13.4227 9.99885 13.4255V13.4255Z" fill="white"/>
<path d="M16.2596 5.09314C16.2608 5.24512 16.2321 5.39586 16.175 5.53672C16.1179 5.67757 16.0336 5.80579 15.9269 5.91403C15.8202 6.02227 15.6932 6.1084 15.5532 6.16749C15.4132 6.22658 15.2629 6.25748 15.1109 6.25841C14.9602 6.25834 14.811 6.22836 14.6719 6.17023C14.5329 6.11209 14.4068 6.02695 14.3009 5.91972C14.1404 5.75693 14.0313 5.55062 13.987 5.32637C13.9427 5.10213 13.9652 4.86982 14.0517 4.65824C14.1382 4.44666 14.2849 4.26512 14.4736 4.13613C14.6623 4.00715 14.8847 3.93638 15.1132 3.93262C15.3807 3.93257 15.6397 4.02645 15.8451 4.19788L15.8688 4.22156C15.907 4.25266 15.9419 4.28758 15.973 4.32578L15.999 4.3542C16.1686 4.56306 16.2606 4.82414 16.2596 5.09314V5.09314Z" fill="white"/>
</svg>
