<svg width="24" height="24" viewBox="0 0 24 24" fill="none" xmlns="http://www.w3.org/2000/svg">
<g clip-path="url(#clip0_305_385)">
<path fill-rule="evenodd" clip-rule="evenodd" d="M21 6.75V21C21 21.7956 20.6839 22.5587 20.1213 23.1213C19.5587 23.6839 18.7956 24 18 24H16.5V22.5H18C18.3978 22.5 18.7794 22.342 19.0607 22.0607C19.342 21.7794 19.5 21.3978 19.5 21V6.75H16.5C15.9033 6.75 15.331 6.51295 14.909 6.09099C14.4871 5.66903 14.25 5.09674 14.25 4.5V1.5H6C5.60218 1.5 5.22064 1.65804 4.93934 1.93934C4.65804 2.22064 4.5 2.60218 4.5 3V16.5H3V3C3 2.20435 3.31607 1.44129 3.87868 0.87868C4.44129 0.316071 5.20435 0 6 0L14.25 0L21 6.75ZM14.49 18.948C14.604 19.1775 14.6745 19.4235 14.7 19.686H13.536C13.5089 19.5542 13.4597 19.4279 13.3905 19.3125C13.324 19.2025 13.2375 19.1058 13.1355 19.0275C13.0302 18.9424 12.9095 18.8782 12.78 18.8385C12.6349 18.793 12.4835 18.7707 12.3315 18.7725C11.904 18.7725 11.571 18.9225 11.334 19.2255C11.1 19.527 10.983 19.9515 10.983 20.5005V21.2475C10.983 21.5985 11.031 21.906 11.1285 22.17C11.2157 22.4171 11.3744 22.6328 11.5845 22.7895C11.8143 22.9431 12.0869 23.0198 12.363 23.0085C12.5998 23.0172 12.8352 22.9678 13.0485 22.8645C13.2198 22.7745 13.3615 22.637 13.4565 22.4685C13.5465 22.3035 13.593 22.1235 13.593 21.924V21.5415H12.36V20.6565H14.724V21.8535C14.724 22.143 14.676 22.419 14.5785 22.6785C14.4825 22.9361 14.3326 23.1703 14.139 23.3655C13.9282 23.5737 13.6749 23.7338 13.3965 23.835C13.101 23.946 12.7515 24.0015 12.351 24.0015C11.9652 24.0095 11.5816 23.9422 11.2215 23.8035C10.9154 23.6784 10.6419 23.4849 10.422 23.238C10.2023 22.9852 10.0387 22.6887 9.942 22.368C9.83302 22.0057 9.77991 21.6288 9.7845 21.2505V20.4915C9.7845 19.9485 9.8835 19.4745 10.0845 19.0665C10.2855 18.66 10.5765 18.3435 10.9575 18.117C11.3415 17.889 11.805 17.775 12.3465 17.775C12.7035 17.775 13.0215 17.8245 13.3005 17.925C13.581 18.024 13.821 18.162 14.0205 18.3375C14.22 18.513 14.3775 18.717 14.4915 18.948H14.49ZM0 22.179C0 22.425 0.0405 22.6575 0.123 22.8765C0.2055 23.097 0.327 23.292 0.4875 23.4615C0.6525 23.631 0.855 23.7645 1.098 23.862C1.344 23.955 1.629 24.0015 1.9515 24.0015C2.5815 24.0015 3.0735 23.829 3.4275 23.484C3.7845 23.139 3.9645 22.635 3.9645 21.9765V17.889H2.778V22.0065C2.778 22.3095 2.709 22.542 2.571 22.7055C2.433 22.8705 2.2215 22.9515 1.938 22.9515C1.80163 22.9579 1.66609 22.927 1.54606 22.8619C1.42603 22.7969 1.32607 22.7003 1.257 22.5825C1.18784 22.4585 1.15023 22.3194 1.1475 22.1775H0V22.179ZM7.38 17.889H4.983V23.889H6.1695V21.8745H7.374C7.8045 21.8745 8.1705 21.789 8.472 21.6165C8.7765 21.4395 9.009 21.2025 9.1665 20.904C9.3285 20.6025 9.408 20.2635 9.408 19.8885C9.408 19.5135 9.33 19.176 9.171 18.873C9.01434 18.5733 8.77483 18.3249 8.481 18.1575C8.181 17.9775 7.8165 17.889 7.383 17.889H7.38ZM8.199 19.8885C8.20466 20.0866 8.16084 20.2831 8.0715 20.46C7.99133 20.6131 7.86694 20.7385 7.7145 20.82C7.53988 20.9064 7.34674 20.9486 7.152 20.943H6.165V18.834H7.155C7.482 18.834 7.7385 18.924 7.923 19.107C8.1075 19.287 8.2005 19.5495 8.2005 19.8885H8.199Z" fill="#F57C1F"/>
</g>
<defs>
<clipPath id="clip0_305_385">
<rect width="24" height="24" fill="white"/>
</clipPath>
</defs>
</svg>
