<svg width="29" height="29" viewBox="0 0 29 29" fill="none" xmlns="http://www.w3.org/2000/svg">
<path d="M10.1084 5.3262L5.26231 10.1722C4.91518 10.5194 4.91518 11.0822 5.26231 11.4293L5.62058 11.7876C5.96771 12.1347 6.53053 12.1347 6.87766 11.7876L11.7237 6.94155C12.0708 6.59442 12.0708 6.0316 11.7237 5.68447L11.3654 5.3262C11.0183 4.97907 10.4555 4.97907 10.1084 5.3262Z" fill="#14599C"/>
<path d="M19.3102 12.8213L19.8702 12.2613C20.7057 11.4302 21.177 10.3012 21.1803 9.12273C21.1837 7.94422 20.7188 6.81264 19.8879 5.97683L15.1857 1.30127C14.3523 0.468068 13.222 0 12.0435 0C10.865 0 9.73473 0.468068 8.90127 1.30127L1.30127 8.90127C0.468068 9.73473 0 10.865 0 12.0435C0 13.222 0.468068 14.3523 1.30127 15.1857L5.97683 19.8613C6.81029 20.6945 7.94054 21.1625 9.11905 21.1625C10.2976 21.1625 11.4278 20.6945 12.2613 19.8613L12.6168 19.5057L14.5546 21.4257H17.6124V24.0924H20.8924V25.5413L23.4435 28.1102H28.7768V22.2879L19.3102 12.8213ZM26.9991 26.3324H24.2079L22.6346 24.7679V22.279H19.3635V19.6124H15.2657L12.5991 16.9457L10.9991 18.6079C10.499 19.1073 9.82127 19.3878 9.11461 19.3878C8.40794 19.3878 7.73016 19.1073 7.23016 18.6079L2.55461 13.8879C2.05523 13.3879 1.77473 12.7102 1.77473 12.0035C1.77473 11.2968 2.05523 10.6191 2.55461 10.1191L10.1635 2.51016C10.6635 2.01078 11.3413 1.73029 12.0479 1.73029C12.7546 1.73029 13.4324 2.01078 13.9324 2.51016L18.6079 7.18572C19.1073 7.68572 19.3878 8.36349 19.3878 9.07016C19.3878 9.77683 19.1073 10.4546 18.6079 10.9546L16.8302 12.7324L26.9991 23.0257V26.3324Z" fill="#14599C"/>
</svg>
