<svg width="103" height="95" viewBox="0 0 103 95" fill="none" xmlns="http://www.w3.org/2000/svg">
<path d="M71.0063 19.1813L56.5688 4.74375C56.1563 4.33125 55.7437 4.125 55.125 4.125H34.5C32.2312 4.125 30.375 5.98125 30.375 8.25V57.75C30.375 60.0187 32.2312 61.875 34.5 61.875H67.5C69.7687 61.875 71.625 60.0187 71.625 57.75V20.625C71.625 20.0063 71.4188 19.5938 71.0063 19.1813ZM55.125 9.075L66.675 20.625H55.125V9.075ZM67.5 57.75H34.5V8.25H51V20.625C51 22.8937 52.8563 24.75 55.125 24.75H67.5V57.75Z" fill="white"/>
<path d="M38.625 45.375H63.375V49.5H38.625V45.375ZM38.625 33H63.375V37.125H38.625V33Z" fill="white"/>
<path d="M0 78.1638H3.41V82.7838H8.558V78.1638H11.99V89.9998H8.558V85.5778H3.41V89.9998H0V78.1638Z" fill="white"/>
<path d="M26.7814 84.1258C26.7814 84.1698 26.7594 84.4778 26.7154 85.0498H17.7614C17.9227 85.7831 18.3041 86.3624 18.9054 86.7878C19.5067 87.2131 20.2547 87.4258 21.1494 87.4258C21.7654 87.4258 22.3081 87.3378 22.7774 87.1618C23.2614 86.9711 23.7087 86.6778 24.1194 86.2818L25.9454 88.2618C24.8307 89.5378 23.2027 90.1758 21.0614 90.1758C19.7267 90.1758 18.5461 89.9191 17.5194 89.4058C16.4927 88.8778 15.7007 88.1518 15.1434 87.2278C14.5861 86.3038 14.3074 85.2551 14.3074 84.0818C14.3074 82.9231 14.5787 81.8818 15.1214 80.9578C15.6787 80.0191 16.4341 79.2931 17.3874 78.7798C18.3554 78.2518 19.4334 77.9878 20.6214 77.9878C21.7801 77.9878 22.8287 78.2371 23.7674 78.7358C24.7061 79.2344 25.4394 79.9531 25.9674 80.8918C26.5101 81.8158 26.7814 82.8938 26.7814 84.1258ZM20.6434 80.5838C19.8661 80.5838 19.2134 80.8038 18.6854 81.2438C18.1574 81.6838 17.8347 82.2851 17.7174 83.0478H23.5474C23.4301 82.2998 23.1074 81.7058 22.5794 81.2658C22.0514 80.8111 21.4061 80.5838 20.6434 80.5838Z" fill="white"/>
<path d="M38.9479 80.9798H34.9439V89.9998H31.5339V80.9798H27.5299V78.1638H38.9479V80.9798Z" fill="white"/>
<path d="M63.3538 84.0378C63.3538 85.8711 62.7378 87.3231 61.5058 88.3938C60.2885 89.4498 58.5431 90.0584 56.2698 90.2198V94.2678H53.1238V90.2198C50.8505 90.0584 49.0978 89.4571 47.8658 88.4158C46.6485 87.3598 46.0398 85.9004 46.0398 84.0378C46.0398 82.2044 46.6411 80.7818 47.8438 79.7698C49.0611 78.7578 50.8211 78.1711 53.1238 78.0098V73.6758H56.2698V78.0098C58.5431 78.1711 60.2885 78.7651 61.5058 79.7918C62.7378 80.8184 63.3538 82.2338 63.3538 84.0378ZM49.3618 84.0378C49.3618 85.0938 49.6625 85.9078 50.2638 86.4798C50.8651 87.0518 51.8185 87.4111 53.1238 87.5578V80.6718C51.8185 80.8038 50.8651 81.1484 50.2638 81.7058C49.6625 82.2484 49.3618 83.0258 49.3618 84.0378ZM56.2698 87.5578C57.5751 87.4111 58.5285 87.0518 59.1298 86.4798C59.7458 85.9078 60.0538 85.0938 60.0538 84.0378C60.0538 83.0258 59.7458 82.2484 59.1298 81.7058C58.5285 81.1484 57.5751 80.8038 56.2698 80.6718V87.5578Z" fill="white"/>
<path d="M71.2217 90.1758C69.9751 90.1758 68.8531 89.9191 67.8557 89.4058C66.8731 88.8778 66.1031 88.1518 65.5457 87.2278C64.9884 86.3038 64.7097 85.2551 64.7097 84.0818C64.7097 82.9084 64.9884 81.8598 65.5457 80.9358C66.1031 80.0118 66.8731 79.2931 67.8557 78.7798C68.8531 78.2518 69.9751 77.9878 71.2217 77.9878C72.4684 77.9878 73.5831 78.2518 74.5657 78.7798C75.5484 79.2931 76.3184 80.0118 76.8757 80.9358C77.4331 81.8598 77.7117 82.9084 77.7117 84.0818C77.7117 85.2551 77.4331 86.3038 76.8757 87.2278C76.3184 88.1518 75.5484 88.8778 74.5657 89.4058C73.5831 89.9191 72.4684 90.1758 71.2217 90.1758ZM71.2217 87.3598C72.1017 87.3598 72.8204 87.0664 73.3777 86.4798C73.9497 85.8784 74.2357 85.0791 74.2357 84.0818C74.2357 83.0844 73.9497 82.2924 73.3777 81.7058C72.8204 81.1044 72.1017 80.8038 71.2217 80.8038C70.3417 80.8038 69.6157 81.1044 69.0437 81.7058C68.4717 82.2924 68.1857 83.0844 68.1857 84.0818C68.1857 85.0791 68.4717 85.8784 69.0437 86.4798C69.6157 87.0664 70.3417 87.3598 71.2217 87.3598Z" fill="white"/>
<path d="M89.5866 80.9798H85.5826V89.9998H82.1726V80.9798H78.1686V78.1638H89.5866V80.9798Z" fill="white"/>
<path d="M96.4659 90.1758C95.2192 90.1758 94.0972 89.9191 93.0999 89.4058C92.1172 88.8778 91.3472 88.1518 90.7899 87.2278C90.2325 86.3038 89.9539 85.2551 89.9539 84.0818C89.9539 82.9084 90.2325 81.8598 90.7899 80.9358C91.3472 80.0118 92.1172 79.2931 93.0999 78.7798C94.0972 78.2518 95.2192 77.9878 96.4659 77.9878C97.7125 77.9878 98.8272 78.2518 99.8099 78.7798C100.793 79.2931 101.563 80.0118 102.12 80.9358C102.677 81.8598 102.956 82.9084 102.956 84.0818C102.956 85.2551 102.677 86.3038 102.12 87.2278C101.563 88.1518 100.793 88.8778 99.8099 89.4058C98.8272 89.9191 97.7125 90.1758 96.4659 90.1758ZM96.4659 87.3598C97.3459 87.3598 98.0645 87.0664 98.6219 86.4798C99.1939 85.8784 99.4799 85.0791 99.4799 84.0818C99.4799 83.0844 99.1939 82.2924 98.6219 81.7058C98.0645 81.1044 97.3459 80.8038 96.4659 80.8038C95.5859 80.8038 94.8599 81.1044 94.2879 81.7058C93.7159 82.2924 93.4299 83.0844 93.4299 84.0818C93.4299 85.0791 93.7159 85.8784 94.2879 86.4798C94.8599 87.0664 95.5859 87.3598 96.4659 87.3598Z" fill="white"/>
</svg>
