<svg width="32" height="32" viewBox="0 0 32 32" fill="none" xmlns="http://www.w3.org/2000/svg">
<path fill-rule="evenodd" clip-rule="evenodd" d="M17 3.66699C17 3.40178 16.8947 3.14742 16.7071 2.95989C16.5196 2.77235 16.2652 2.66699 16 2.66699C15.7348 2.66699 15.4804 2.77235 15.2929 2.95989C15.1054 3.14742 15 3.40178 15 3.66699V6.00033H12.368C11.8996 6.00012 11.442 6.14089 11.0547 6.40433L8.79468 7.94299C8.7392 7.98056 8.67368 8.00054 8.60668 8.00033H3.13735C2.87213 8.00033 2.61777 8.10568 2.43024 8.29322C2.2427 8.48075 2.13735 8.73511 2.13735 9.00033C2.13735 9.26554 2.2427 9.5199 2.43024 9.70743C2.61777 9.89497 2.87213 10.0003 3.13735 10.0003H5.24001L0.750679 20.2403C0.66588 20.4402 0.647314 20.6619 0.697702 20.873C0.74809 21.0842 0.864783 21.2737 1.03068 21.4137C1.13735 21.499 1.24535 21.5803 1.44268 21.7083C1.69068 21.8697 2.04535 22.079 2.49868 22.2857C3.40535 22.7003 4.71468 23.1123 6.33334 23.1123C7.65605 23.1149 8.96383 22.8329 10.168 22.2857C10.6213 22.079 10.976 21.8697 11.224 21.7083C11.424 21.579 11.5307 21.4977 11.6373 21.411C11.8046 21.2726 11.9222 21.0835 11.9725 20.8723C12.0227 20.6611 12.0029 20.4393 11.916 20.2403L7.42534 10.0003H8.60668C9.07468 10.0003 9.53201 9.85899 9.91868 9.59632L12.18 8.05766C12.2351 8.02034 12.3001 8.00037 12.3667 8.00033H15V27.3337H9.01734C8.75213 27.3337 8.49777 27.439 8.31024 27.6266C8.1227 27.8141 8.01734 28.0684 8.01734 28.3337C8.01734 28.5989 8.1227 28.8532 8.31024 29.0408C8.49777 29.2283 8.75213 29.3337 9.01734 29.3337H22.9827C23.2479 29.3337 23.5022 29.2283 23.6898 29.0408C23.8773 28.8532 23.9827 28.5989 23.9827 28.3337C23.9827 28.0684 23.8773 27.8141 23.6898 27.6266C23.5022 27.439 23.2479 27.3337 22.9827 27.3337H17V8.00033H19.632C19.6987 8.00033 19.7653 8.02033 19.8187 8.05766L22.0813 9.59632C22.468 9.85899 22.9253 10.0003 23.3933 10.0003H24.5747L20.084 20.2403C19.9942 20.4451 19.9756 20.674 20.0312 20.8906C20.0868 21.1071 20.2134 21.2988 20.3907 21.435C20.4067 21.447 20.3907 21.435 20.3933 21.435C20.5256 21.5346 20.6636 21.6263 20.8067 21.7097C21.0533 21.859 21.4067 22.051 21.86 22.243C23.0656 22.7469 24.36 23.0044 25.6667 23.0003C26.9739 23.0042 28.2687 22.7462 29.4747 22.2417C29.9253 22.051 30.28 21.859 30.528 21.7097C30.6706 21.6255 30.8085 21.5338 30.9413 21.435C31.1187 21.2988 31.2452 21.1071 31.3008 20.8906C31.3564 20.674 31.3378 20.4451 31.248 20.2403L26.76 10.0003H28.864C29.1292 10.0003 29.3836 9.89497 29.5711 9.70743C29.7587 9.5199 29.864 9.26554 29.864 9.00033C29.864 8.73511 29.7587 8.48075 29.5711 8.29322C29.3836 8.10568 29.1292 8.00033 28.864 8.00033H23.3947C23.3281 8.00028 23.2631 7.98031 23.208 7.94299L20.9453 6.40433C20.5584 6.14114 20.1013 6.00038 19.6333 6.00033H17V3.66699ZM2.92401 20.2643C3.97348 20.8228 5.14455 21.1136 6.33334 21.111C7.52214 21.1136 8.69321 20.8228 9.74268 20.2643L6.33334 12.491L2.92401 20.2643ZM22.2707 20.2323C22.38 20.2857 22.5027 20.343 22.6373 20.4003C23.344 20.6977 24.3773 21.0003 25.6667 21.0003C26.8421 21.0037 28.0031 20.7411 29.0627 20.2323L25.6667 12.4897L22.2707 20.2323Z" fill="#14599C"/>
</svg>
