<svg width="24" height="24" viewBox="0 0 24 24" fill="none" xmlns="http://www.w3.org/2000/svg">
<path d="M21 21V6.75L14.25 0H6C5.20435 0 4.44129 0.316071 3.87868 0.87868C3.31607 1.44129 3 2.20435 3 3V21C3 21.7956 3.31607 22.5587 3.87868 23.1213C4.44129 23.6839 5.20435 24 6 24H18C18.7956 24 19.5587 23.6839 20.1213 23.1213C20.6839 22.5587 21 21.7956 21 21ZM14.25 4.5C14.25 5.09674 14.4871 5.66903 14.909 6.09099C15.331 6.51295 15.9033 6.75 16.5 6.75H19.5V21C19.5 21.3978 19.342 21.7794 19.0607 22.0607C18.7794 22.342 18.3978 22.5 18 22.5H6C5.60218 22.5 5.22064 22.342 4.93934 22.0607C4.65804 21.7794 4.5 21.3978 4.5 21V3C4.5 2.60218 4.65804 2.22064 4.93934 1.93934C5.22064 1.65804 5.60218 1.5 6 1.5H14.25V4.5Z" fill="#F04438"/>
<path d="M6.90426 21.1315C6.6119 21.0145 6.37635 20.7887 6.24726 20.5015C5.95476 19.9195 6.05226 19.3375 6.36726 18.8485C6.66426 18.388 7.15626 17.9965 7.71276 17.668C8.41767 17.2682 9.16279 16.9439 9.93576 16.7005C10.536 15.6213 11.0681 14.5057 11.5288 13.36C11.2533 12.7341 11.0374 12.0838 10.8838 11.4175C10.7548 10.8175 10.7053 10.2235 10.8148 9.71346C10.9273 9.18246 11.2258 8.70546 11.7898 8.47896C12.0778 8.36346 12.3898 8.29896 12.6928 8.36346C12.8452 8.39591 12.9885 8.46187 13.1122 8.55657C13.236 8.65127 13.3371 8.77233 13.4083 8.91096C13.5403 9.15696 13.5883 9.44496 13.5988 9.71796C13.6093 9.99996 13.5808 10.312 13.5283 10.639C13.4023 11.404 13.1233 12.34 12.7483 13.33C13.1621 14.215 13.654 15.0613 14.2183 15.859C14.8859 15.8062 15.5574 15.8314 16.2193 15.934C16.7653 16.033 17.3203 16.2265 17.6593 16.6315C17.8393 16.8475 17.9488 17.1115 17.9593 17.4085C17.9698 17.6965 17.8888 17.9815 17.7523 18.253C17.634 18.5046 17.4507 18.72 17.2213 18.877C16.9945 19.0249 16.7267 19.0974 16.4563 19.084C15.9598 19.063 15.4753 18.79 15.0568 18.4585C14.5479 18.0377 14.0893 17.5595 13.6903 17.0335C12.6759 17.1486 11.6736 17.3524 10.6948 17.6425C10.2465 18.4374 9.73487 19.1949 9.16476 19.9075C8.72676 20.4325 8.25126 20.8915 7.77426 21.088C7.50019 21.2119 7.18933 21.2275 6.90426 21.1315V21.1315ZM8.97276 18.28C8.72376 18.394 8.49276 18.514 8.28426 18.637C7.79226 18.928 7.47276 19.2115 7.31376 19.4575C7.17276 19.675 7.16976 19.8325 7.25376 19.999C7.26876 20.032 7.28376 20.053 7.29276 20.065C7.31066 20.0602 7.3282 20.0542 7.34526 20.047C7.55076 19.963 7.87776 19.6945 8.29776 19.189C8.53663 18.8965 8.76187 18.5932 8.97276 18.28V18.28ZM11.4328 16.285C11.9336 16.1681 12.4391 16.0715 12.9478 15.9955C12.6746 15.5775 12.4194 15.1481 12.1828 14.7085C11.9475 15.2403 11.6974 15.7656 11.4328 16.2835V16.285ZM15.1018 16.96C15.3268 17.2045 15.5458 17.41 15.7543 17.575C16.1143 17.86 16.3648 17.9545 16.5013 17.959C16.5378 17.9637 16.5749 17.9558 16.6063 17.9365C16.6687 17.8872 16.7172 17.8226 16.7473 17.749C16.8006 17.6576 16.831 17.5546 16.8358 17.449C16.8349 17.4137 16.821 17.3801 16.7968 17.3545C16.7188 17.2615 16.4968 17.1265 16.0198 17.041C15.7163 16.9902 15.4094 16.9636 15.1018 16.9615V16.96ZM12.1168 11.701C12.243 11.2937 12.3432 10.8789 12.4168 10.459C12.4633 10.177 12.4813 9.94446 12.4738 9.76146C12.4742 9.6605 12.458 9.56015 12.4258 9.46446C12.3507 9.47375 12.2774 9.49396 12.2083 9.52446C12.0778 9.57696 11.9713 9.68346 11.9143 9.94896C11.8543 10.237 11.8693 10.6525 11.9833 11.182C12.0193 11.3485 12.0643 11.5225 12.1183 11.701H12.1168Z" fill="#F04438"/>
</svg>
