<svg width="54" height="54" viewBox="0 0 54 54" fill="none" xmlns="http://www.w3.org/2000/svg">
<g opacity="0.5">
<path d="M33.5918 23.3614H27.3692V16.295C27.3692 16.0629 27.1793 15.8731 26.9473 15.8731H23.7833C23.5512 15.8731 23.3614 16.0629 23.3614 16.295V23.3614H17.1387C16.9067 23.3614 16.7168 23.5512 16.7168 23.7833V26.9473C16.7168 27.1793 16.9067 27.3692 17.1387 27.3692H23.3614V34.4356C23.3614 34.6676 23.5512 34.8575 23.7833 34.8575H26.9473C27.1793 34.8575 27.3692 34.6676 27.3692 34.4356V27.3692H33.5918C33.8239 27.3692 34.0137 27.1793 34.0137 26.9473V23.7833C34.0137 23.5512 33.8239 23.3614 33.5918 23.3614ZM48.5684 45.7208L40.8692 38.0215C47.3081 30.1694 46.8598 18.5362 39.4981 11.1797C31.6934 3.36978 19.0161 3.36978 11.1797 11.1797C3.36978 19.0161 3.36978 31.6934 11.1797 39.4981C18.5362 46.8598 30.1694 47.3081 38.0215 40.8692L45.7208 48.5684C45.8895 48.7161 46.1584 48.7161 46.3008 48.5684L48.5684 46.3008C48.7161 46.1584 48.7161 45.8895 48.5684 45.7208ZM36.7032 36.7032C30.4383 42.9627 20.2922 42.9627 14.0274 36.7032C7.76782 30.4383 7.76782 20.2922 14.0274 14.0274C20.2922 7.76782 30.4383 7.76782 36.7032 14.0274C42.9627 20.2922 42.9627 30.4383 36.7032 36.7032Z" fill="white"/>
</g>
</svg>
