<svg width="80" height="80" viewBox="0 0 80 80" fill="none" xmlns="http://www.w3.org/2000/svg">
<path d="M72.7188 39.7379H68.6172V31.5463C68.6172 29.1851 67.4138 27.1 65.5883 25.8715L45.1173 5.40045C44.5834 4.8667 43.7176 4.8667 43.1838 5.40045L39.0192 9.5649L34.8548 5.40045C34.5984 5.1441 34.2506 5 33.888 5C33.5254 5 33.1776 5.1441 32.9213 5.40045L13.6113 24.7103H12.8359C9.0666 24.7103 6 27.7769 6 31.5463V43.7028C6 44.4577 6.61209 45.0699 7.36719 45.0699C8.12229 45.0699 8.73438 44.4577 8.73438 43.7028V31.5463C8.73438 29.2847 10.5743 27.4447 12.8359 27.4447H61.7812C64.0429 27.4447 65.8828 29.2847 65.8828 31.5463V39.7379H45.1016C39.5229 39.7379 34.9844 44.2764 34.9844 49.8551C34.9844 55.4338 39.5229 59.9723 45.1016 59.9723H65.8828V68.1641C65.8828 70.4257 64.0429 72.2656 61.7812 72.2656H12.8359C10.5743 72.2656 8.73438 70.4257 8.73438 68.1641V56.0074C8.73438 55.2523 8.12229 54.6403 7.36719 54.6403C6.61209 54.6403 6 55.2523 6 56.0074V68.1641C6 71.9334 9.0666 75 12.8359 75H61.7812C65.5506 75 68.6172 71.9334 68.6172 68.1641V59.9723H72.7188C73.4738 59.9723 74.0859 59.3601 74.0859 58.6051V41.1051C74.0859 40.35 73.4738 39.7379 72.7188 39.7379ZM17.4784 24.7103L33.888 8.3008L37.0856 11.4985L23.8737 24.7105H17.4784V24.7103ZM27.7409 24.7103L44.1504 8.3008L60.5601 24.7103H27.7409ZM71.3516 57.2379H45.1016C41.0306 57.2379 37.7188 53.9259 37.7188 49.8551C37.7188 45.7843 41.0306 42.4723 45.1016 42.4723H71.3516V57.2379Z" fill="#14599C"/>
<path d="M45.1016 45.7539C42.84 45.7539 41 47.5939 41 49.8555C41 52.1171 42.84 53.957 45.1016 53.957C47.3632 53.957 49.2031 52.1171 49.2031 49.8555C49.2031 47.5939 47.3632 45.7539 45.1016 45.7539ZM45.1016 51.2227C44.3477 51.2227 43.7344 50.6093 43.7344 49.8555C43.7344 49.1016 44.3477 48.4883 45.1016 48.4883C45.8554 48.4883 46.4688 49.1016 46.4688 49.8555C46.4688 50.6093 45.8554 51.2227 45.1016 51.2227Z" fill="#14599C"/>
<path d="M7.36719 51.2217C7.72676 51.2217 8.07949 51.0766 8.33379 50.821C8.58809 50.5668 8.73438 50.2141 8.73438 49.8545C8.73438 49.4949 8.58809 49.1422 8.33379 48.8879C8.07949 48.6336 7.72676 48.4873 7.36719 48.4873C7.00762 48.4873 6.65488 48.6335 6.40059 48.8879C6.14629 49.1422 6 49.4949 6 49.8545C6 50.2141 6.14629 50.5668 6.40059 50.821C6.65488 51.0768 7.00762 51.2217 7.36719 51.2217Z" fill="#14599C"/>
</svg>
