<svg width="80" height="80" viewBox="0 0 80 80" fill="none" xmlns="http://www.w3.org/2000/svg">
<path d="M69.918 18.8249C69.918 16.3069 67.8694 14.2581 65.3514 14.2581H58.29V11.872C58.29 11.1169 57.6778 10.5048 56.9228 10.5048H52.8381C52.2391 10.5048 51.6995 10.122 51.4952 9.55244C50.5189 6.82943 47.9188 5 45.0249 5C42.1311 5 39.5309 6.82943 38.5547 9.55244C38.3505 10.1221 37.8108 10.5048 37.2119 10.5048H33.1273C32.3723 10.5048 31.7601 11.1169 31.7601 11.872V14.2583H24.6992C22.1809 14.2583 20.1324 16.3069 20.1324 18.8251V49.4139L11.1713 62.4299C9.86673 64.3306 9.63718 66.726 10.5567 68.8393L12.7995 74.1633C13.0196 74.6858 13.5264 75.0001 14.06 75C14.2371 75 14.417 74.9654 14.5902 74.8924C15.2861 74.5993 15.6126 73.7976 15.3195 73.1017L13.0732 67.7695C13.0709 67.764 13.0685 67.7586 13.0661 67.7533C12.5226 66.5086 12.6571 65.097 13.4245 63.9787L20.1314 54.237V64.9289C20.1314 67.238 21.9871 69.0986 24.301 69.0986C26.5995 69.0986 28.4697 67.2278 28.4697 64.9285V59.2352C28.4697 57.9287 29.5097 56.89 30.8146 56.89C32.0927 56.89 33.159 57.9583 33.159 59.2352V73.6325C33.159 74.3876 33.7712 74.9997 34.5262 74.9997H65.3512C67.8693 74.9997 69.9179 72.9511 69.9179 70.4329V50.7828C69.9179 50.0277 69.3057 49.4156 68.5507 49.4156C67.7957 49.4156 67.1835 50.0277 67.1835 50.7828V70.4331C67.1835 71.4436 66.3614 72.2655 65.3512 72.2655H35.8942V59.2352C35.8942 56.4715 33.5809 54.1554 30.8152 54.1554C28.0131 54.1554 25.7352 56.4368 25.7352 59.2352V64.9289C25.7352 65.72 25.0915 66.3636 24.3005 66.3636C23.5045 66.3636 22.8781 65.7518 22.8669 64.9507V18.8249C22.8669 17.8146 23.6889 16.9925 24.6993 16.9925H31.76V19.4145C31.76 20.1696 32.3722 20.7817 33.1271 20.7817H56.9223C57.6682 20.7817 58.2901 20.1592 58.2901 19.4142V16.9925H65.3515C66.3618 16.9925 67.1838 17.8146 67.1838 18.8249V38.7552C67.1838 39.5103 67.796 40.1224 68.551 40.1224C69.3059 40.1224 69.9182 39.5103 69.9182 38.7552V18.8249H69.918ZM34.4943 13.2392H37.2117C38.9619 13.2392 40.5358 12.1285 41.1284 10.4753C41.7165 8.8359 43.2822 7.73436 45.0249 7.73436C46.7677 7.73436 48.3335 8.83577 48.9212 10.4753C49.5141 12.1285 51.0882 13.2392 52.838 13.2392H55.5555L55.5548 18.0472H34.4943V13.2392Z" fill="#14599C"/>
<path d="M46.2874 11.6892C46.0009 11.002 45.1914 10.6634 44.5019 10.9495C43.8147 11.2347 43.4762 12.0467 43.7622 12.7351C44.0478 13.4222 44.8597 13.7602 45.5478 13.4747C46.2348 13.1895 46.574 12.377 46.2874 11.6892Z" fill="#14599C"/>
<path d="M36.3559 43.0772L32.8444 46.5886L31.4751 45.2194C30.9413 44.6855 30.0758 44.6855 29.5415 45.2194C29.0076 45.7533 29.0076 46.619 29.5415 47.1529L31.8775 49.4889C32.1339 49.7452 32.4817 49.8893 32.8442 49.8893C33.2068 49.8893 33.5545 49.7452 33.811 49.4889L38.2892 45.0108C38.8231 44.4769 38.8231 43.6112 38.2892 43.0773C37.7556 42.5433 36.8902 42.5433 36.3559 43.0772Z" fill="#14599C"/>
<path d="M38.2892 29.2041C37.7555 28.6702 36.8901 28.6702 36.3556 29.2041L32.8441 32.7156L31.4749 31.3462C30.941 30.8123 30.0756 30.8123 29.5413 31.3462C29.0074 31.8801 29.0074 32.7458 29.5413 33.2797L31.8773 35.6158C32.1336 35.8722 32.4814 36.0163 32.844 36.0163C33.2066 36.0163 33.5543 35.8722 33.8107 35.6158L38.289 31.1377C38.8231 30.6037 38.8231 29.738 38.2892 29.2041Z" fill="#14599C"/>
<path d="M59.5246 27.4473H45.0251C44.2702 27.4473 43.658 28.0594 43.658 28.8145C43.658 29.5696 44.2702 30.1816 45.0251 30.1816H59.5246C60.2795 30.1816 60.8918 29.5696 60.8918 28.8145C60.8918 28.0594 60.2797 27.4473 59.5246 27.4473Z" fill="#14599C"/>
<path d="M45.0251 36.0811H51.9104C52.6654 36.0811 53.2776 35.469 53.2776 34.7139C53.2776 33.9588 52.6654 33.3467 51.9104 33.3467H45.0251C44.2702 33.3467 43.658 33.9588 43.658 34.7139C43.658 35.469 44.27 36.0811 45.0251 36.0811Z" fill="#14599C"/>
<path d="M59.5246 42.0811H45.0251C44.2702 42.0811 43.658 42.6931 43.658 43.4482C43.658 44.2033 44.2702 44.8154 45.0251 44.8154H59.5246C60.2795 44.8154 60.8918 44.2033 60.8918 43.4482C60.8918 42.6931 60.2797 42.0811 59.5246 42.0811Z" fill="#14599C"/>
<path d="M45.0251 50.7148H51.9104C52.6654 50.7148 53.2776 50.1028 53.2776 49.3477C53.2776 48.5926 52.6654 47.9805 51.9104 47.9805H45.0251C44.2702 47.9805 43.658 48.5926 43.658 49.3477C43.658 50.1028 44.27 50.7148 45.0251 50.7148Z" fill="#14599C"/>
<path d="M60.8918 58.082C60.8918 57.3269 60.2795 56.7148 59.5246 56.7148H45.0251C44.2702 56.7148 43.658 57.3269 43.658 58.082C43.658 58.8371 44.2702 59.4492 45.0251 59.4492H59.5246C60.2797 59.4492 60.8918 58.8371 60.8918 58.082Z" fill="#14599C"/>
<path d="M45.0251 62.6143C44.2702 62.6143 43.658 63.2263 43.658 63.9814C43.658 64.7365 44.2702 65.3486 45.0251 65.3486H51.9104C52.6654 65.3486 53.2776 64.7365 53.2776 63.9814C53.2776 63.2263 52.6654 62.6143 51.9104 62.6143H45.0251Z" fill="#14599C"/>
<path d="M69.687 43.8729C69.0101 42.8585 67.3777 43.2194 67.1981 44.4317C67.0155 45.6635 68.519 46.478 69.4516 45.6596C69.9646 45.2094 70.0589 44.4404 69.687 43.8729Z" fill="#14599C"/>
</svg>
