<svg width="80" height="80" viewBox="0 0 80 80" fill="none" xmlns="http://www.w3.org/2000/svg">
<g clip-path="url(#clip0_301_437)">
<path d="M73.9761 55.8153H70.2932V54.5606C70.191 53.7417 69.7282 53.3578 68.9046 53.4089C65.3977 54.0686 61.8578 54.6128 58.3642 55.0298L58.153 52.0811C58.131 50.5318 57.1239 49.2167 55.7314 48.7348V42.894C57.1372 42.3409 58.54 41.7145 59.9377 41.0156C60.3347 40.817 60.5855 40.4112 60.5855 39.9675V22.7517L74.4463 16.8126C75.3933 16.0945 75.3933 15.3764 74.4463 14.6582L58.6216 7.87746C58.0267 7.62215 57.3378 7.89824 57.0828 8.49309C56.8278 9.08809 57.1035 9.77699 57.6985 10.032L71.0089 15.7356L54.6342 22.7517L43.4692 16.3711C43.5069 16.1648 43.5266 15.9523 43.5266 15.7353C43.5266 13.7884 41.9427 12.2046 39.9958 12.2046C38.0489 12.2046 36.4652 13.7884 36.4652 15.7353C36.4652 17.6821 38.0491 19.2659 39.9958 19.2659C40.8774 19.2659 41.6846 18.9411 42.3039 18.4048L51.9344 23.9084L39.9961 29.0237L8.9905 15.7354L39.9963 2.44699L53.0024 8.02043C53.5977 8.27574 54.2861 7.99965 54.5411 7.4048C54.7961 6.80996 54.5205 6.1209 53.9255 5.86606L40.4578 0.0948047C40.163 -0.0316016 39.8292 -0.0316016 39.5346 0.0948047L5.55378 14.6582C4.60675 15.3764 4.60675 16.0945 5.55378 16.8126L19.4069 22.7498V39.9676C19.4069 40.4114 19.6577 40.8172 20.0546 41.0157C25.7913 43.8848 31.6166 45.5309 37.3689 45.9081C37.395 45.9098 37.421 45.9107 37.4467 45.9107C38.0589 45.9107 38.5744 45.4351 38.615 44.8154C38.6574 44.1697 38.1682 43.6117 37.5224 43.5693C32.2983 43.2268 26.996 41.7701 21.7508 39.2378V37.0118C27.8074 39.7779 33.9368 41.1787 39.9961 41.1787C44.4411 41.1787 48.9236 40.425 53.3875 38.9314V41.2686C49.7433 42.56 46.0916 43.3306 42.4777 43.5678C41.8319 43.6101 41.3427 44.1681 41.385 44.8139C41.4258 45.4336 41.9411 45.9092 42.5533 45.9092C42.5791 45.9092 42.6052 45.9082 42.6313 45.9065C46.2014 45.6721 49.7999 44.9489 53.3877 43.7476V48.7346C51.9894 49.2179 50.9797 50.5415 50.965 52.0986L50.7027 55.755C48.7432 55.8917 46.7691 55.9914 44.8094 56.0531V54.5604C44.8094 53.9132 44.2847 53.3886 43.6375 53.3886H36.3552C35.708 53.3886 35.1833 53.9132 35.1833 54.5604V56.0531C27.1857 55.8014 19.0858 54.9126 11.0878 53.4087C10.2642 53.3578 9.80144 53.7417 9.69925 54.5604V55.8151H6.01644C5.36925 55.8151 4.84456 56.3398 4.84456 56.987V71.5498C4.84456 72.197 5.36925 72.7217 6.01644 72.7217H9.69925V73.9775C9.69925 74.6454 10.3953 75.2309 11.0397 75.1372C13.6525 74.7575 16.2747 74.4276 18.8333 74.1568C19.4769 74.0887 19.9435 73.5117 19.8753 72.8681C19.8071 72.2245 19.2307 71.7576 18.5866 71.8261C16.4355 72.0539 14.2402 72.3226 12.0432 72.6275V55.9671C19.7322 57.3437 27.5039 58.1601 35.1832 58.3982V60.5928C34.1433 61.9711 33.7303 63.9832 34.1458 65.6621L32.7633 70.8214C29.7257 70.9296 26.6833 71.1067 23.7064 71.3486C23.0613 71.4011 22.5808 71.9665 22.6333 72.6115C22.9058 73.3728 23.3269 73.7304 23.8963 73.6846C26.6032 73.4647 29.3653 73.299 32.1285 73.1904L31.0349 77.2718C30.9699 78.3345 31.4664 78.8076 32.5247 78.6912L34.5549 78.0403L35.9872 79.619C36.5799 80.2725 37.7369 80.0687 37.9871 79.135L39.9963 71.6381L42.0055 79.135C42.2555 80.0689 43.4127 80.2723 44.0053 79.619L45.4377 78.0401L47.4678 78.6911C48.5261 78.8075 49.0227 78.3343 48.9577 77.2717L47.8641 73.1906C54.8658 73.4673 61.9524 74.1211 68.953 75.1373C69.5974 75.2301 70.2933 74.6461 70.2933 73.9775V72.7217H73.9763C74.6236 72.7217 75.1482 72.197 75.1482 71.5498V56.987C75.1482 56.34 74.6235 55.8153 73.9761 55.8153ZM55.7313 24.8315L58.2414 23.7559V34.4223C57.4055 34.8257 56.5686 35.2014 55.7313 35.549V24.8315ZM55.7313 38.0784C56.5691 37.7489 57.406 37.3932 58.2414 37.0118V39.2378C57.406 39.6412 56.5691 40.0172 55.7313 40.3657V38.0784ZM39.996 16.922C39.3416 16.922 38.8091 16.3896 38.8091 15.7351C38.8091 15.0807 39.3414 14.5484 39.996 14.5484C40.6505 14.5484 41.1828 15.0807 41.1828 15.7351C41.1828 16.355 40.7121 16.922 39.996 16.922ZM9.69847 70.3781H7.18815V58.1592H9.69847V70.3781ZM21.7508 34.4223V23.7542L39.5346 31.3759C39.8422 31.5021 40.15 31.5023 40.4577 31.3759L53.3875 25.8357V36.4489C42.8607 40.1621 32.246 39.4867 21.7508 34.4223ZM53.3088 52.1007C53.3258 51.4261 53.88 50.8825 54.5589 50.8825C55.2485 50.8825 55.8094 51.4434 55.8094 52.1329C55.8094 52.8225 55.2485 53.3834 54.5589 53.3834C53.8249 53.3834 53.3246 52.799 53.3088 52.1007ZM56.0413 55.4072L56.5917 63.0918H52.5257L53.0771 55.4075C53.8094 55.9673 55.3719 55.8425 56.0413 55.4072ZM37.5269 55.7325H42.4653V57.2531V57.2576V58.7181C41.7114 58.3781 40.8755 58.1887 39.9961 58.1887C39.1167 58.1887 38.2808 58.3781 37.5269 58.7181V55.7325ZM36.2792 76.4529C35.6446 75.2281 35.0782 75.1207 33.8549 75.8034L35.8017 68.5378C36.4292 69.1468 37.1885 69.6209 38.0321 69.9125L36.2792 76.4529ZM40.3535 67.88C38.2977 68.079 36.3138 66.2931 36.3138 64.215C36.3138 62.1845 37.9657 60.5326 39.9961 60.5326C42.0266 60.5326 43.6785 62.1845 43.6785 64.215C43.6785 66.0276 42.113 67.6362 40.3535 67.88ZM43.713 76.4529L41.9602 69.9125C42.8038 69.6209 43.563 69.1468 44.1907 68.5378L46.1375 75.8032C44.9483 75.0556 44.3233 75.3551 43.713 76.4529ZM67.9492 72.6281C61.0619 71.6748 54.1024 71.0679 47.2289 70.8215L45.8464 65.6625C46.2619 63.9834 45.8489 61.9711 44.8091 60.5928V58.3982C46.7119 58.3393 48.6285 58.2448 50.5328 58.1161L50.0977 64.1798C50.1227 64.9378 50.5124 65.3564 51.2666 65.4356H57.8507C58.6047 65.3562 58.9944 64.9376 59.0196 64.18L58.5317 57.3703C61.6525 57 64.81 56.5297 67.9492 55.9673V72.6281ZM72.8042 70.3781H70.2938V58.1592H72.8042V70.3781Z" fill="#14599C"/>
</g>
<defs>
<clipPath id="clip0_301_437">
<rect width="80" height="80" fill="white"/>
</clipPath>
</defs>
</svg>
