<svg width="80" height="80" viewBox="0 0 80 80" fill="none" xmlns="http://www.w3.org/2000/svg">
<g clip-path="url(#clip0_301_440)">
<path d="M78.0115 26.6459C78.634 26.8237 79.2824 26.4634 79.4602 25.841C79.7482 24.8332 79.9279 23.789 79.9941 22.7373C80.0583 21.7193 79.5899 20.7738 78.7412 20.208C77.8923 19.6423 76.8394 19.5738 75.9244 20.0249L73.9795 20.9838C74.3215 18.6474 74.1776 16.257 73.5446 13.9573C73.2665 12.947 72.4954 12.1853 71.4818 11.9196C70.4679 11.6537 69.4224 11.9396 68.6848 12.6837L51.9129 29.5985C51.3534 28.8338 50.4931 28.3032 49.5076 28.181C48.9356 26.9927 48.3648 25.5226 49.2507 24.2018C49.7972 23.3837 50.6747 22.9145 51.6584 22.9145H55.2979C55.8335 22.9145 56.3009 22.5513 56.4334 22.0323C56.8668 20.3335 56.4986 18.5652 55.4231 17.1809C54.9 16.5074 54.2467 15.9751 53.5126 15.6045L53.9198 13.8595C54.1215 12.9946 53.9206 12.0998 53.3687 11.4043C52.8168 10.7088 51.9909 10.3098 51.1029 10.3098H50.9237V9.57057C50.9237 8.92339 50.399 8.3987 49.7518 8.3987C49.1047 8.3987 48.58 8.92339 48.58 9.57057V10.3098H48.4007C47.5126 10.3098 46.6868 10.7087 46.1348 11.4043C45.6665 11.9776 45.3444 13.1074 45.6319 14.0652C45.2609 13.7676 44.9676 13.3743 44.7831 12.9101C44.4803 12.1482 44.495 11.2743 44.8198 10.506L45.6762 8.94167C46.2292 7.93167 46.2536 6.71292 45.7417 5.68167C45.2297 4.65027 44.2442 3.93308 43.1053 3.76277C42.5659 3.68215 42.0065 3.72918 41.4879 3.89886C41.3834 3.93308 41.278 3.96183 41.1722 3.98871V3.43652C41.1722 2.78934 40.6475 2.26465 40.0003 2.26465C39.3531 2.26465 38.8284 2.78934 38.8284 3.43652V3.98855C38.7226 3.96168 38.6172 3.93293 38.5125 3.89871C37.9939 3.72902 37.4345 3.68199 36.8951 3.76261C35.7562 3.93277 34.7708 4.65011 34.2587 5.68152C33.7469 6.71292 33.7712 7.93151 34.3242 8.94151L35.1847 10.5131C35.5064 11.2792 35.5203 12.1495 35.2184 12.9088C35.0337 13.3735 34.74 13.7671 34.3686 14.0651C34.5853 13.3257 34.5084 12.2565 33.8656 11.4042C33.3136 10.7085 32.4878 10.3096 31.5997 10.3096H31.4205V9.57042C31.4205 8.92323 30.8958 8.39854 30.2486 8.39854C29.6014 8.39854 29.0767 8.92323 29.0767 9.57042V10.3096H28.8975C28.0095 10.3096 27.1838 10.7085 26.6317 11.4042C26.0797 12.0998 25.8789 12.9946 26.0806 13.8595L26.4878 15.6045C25.7538 15.9751 25.1005 16.5074 24.5774 17.1809C23.5019 18.5652 23.1336 20.3335 23.567 22.0323C23.6995 22.5512 24.1669 22.9145 24.7025 22.9145H28.342C29.3258 22.9145 30.2033 23.3837 30.7497 24.2018C31.5903 25.2532 31.1094 26.9988 30.4928 28.181C29.5073 28.3032 28.647 28.8338 28.0875 29.5985L19.3427 20.779C18.8869 20.3195 18.145 20.3163 17.6855 20.772C17.226 21.2276 17.2228 21.9696 17.6785 22.4291L26.0224 30.8443L8.67786 22.2938C8.00708 19.7677 8.01817 17.1112 8.71504 14.5792C8.79223 14.2988 9.01864 14.2113 9.11223 14.1868C9.20614 14.1623 9.44613 14.1274 9.65098 14.334L13.8146 18.5332C14.2703 18.9927 15.0122 18.996 15.4717 18.5402C15.9313 18.0845 15.9344 17.3426 15.4788 16.8831L11.3154 12.6837C10.5775 11.9396 9.53223 11.6538 8.51832 11.9196C7.50473 12.1853 6.73364 12.947 6.45552 13.9571C5.82224 16.2579 5.67895 18.6477 6.02114 20.984L4.07552 20.0248C3.16052 19.5737 2.10756 19.6423 1.25881 20.2079C0.410059 20.7735 -0.058378 21.7191 0.00584061 22.7371C0.24084 26.461 1.84881 29.8602 4.45818 32.3596L3.43271 32.3194C2.37865 32.2771 1.41162 32.786 0.847558 33.6779C0.28334 34.5697 0.238496 35.6605 0.727558 36.5958C2.45537 39.8994 5.45677 42.2566 8.92629 43.2172C8.35879 43.6489 7.98957 44.291 7.90817 45.0255C7.80301 45.975 8.19942 46.8805 8.96848 47.4474C11.4007 49.2399 14.3318 50.1647 17.2813 50.1647C17.7772 50.1647 18.2736 50.1361 18.7683 50.0836L18.3958 50.4939C17.7458 51.2097 17.5332 52.1869 17.8267 53.108C18.1205 54.0292 18.8596 54.703 19.8039 54.9105C21.3786 55.1784 22.838 55.3133 24.5278 55.0849C24.4413 55.447 24.3952 55.8214 24.3952 56.2049C24.3952 56.6959 24.4699 57.1727 24.6099 57.6275L17.8817 60.9534C17.0277 60.3638 15.5335 60.2439 14.4425 60.9628L12.5089 58.0961C13.2972 57.1734 13.693 55.925 13.4872 54.6355C13.1149 52.3013 10.913 50.7053 8.57832 51.0775C8.34051 51.1155 8.11067 51.1733 7.88942 51.2475L7.06505 50.0255C6.70317 49.4888 5.97489 49.3472 5.43817 49.7092C4.90161 50.0711 4.76005 50.7996 5.12192 51.3361L5.95739 52.5747C5.19646 53.4924 4.81786 54.7197 5.02005 55.9866C5.44927 58.4828 8.00801 60.2147 10.5579 59.3952L12.4341 62.1767C11.9361 62.5873 11.5766 63.1386 11.4063 63.7747C11.1904 64.5817 11.3014 65.4244 11.7193 66.1475C12.0793 66.7708 12.6405 67.2359 13.2874 67.4905C13.1753 68.1956 13.3063 68.9123 13.6683 69.539C14.23 70.5117 15.2808 71.102 16.3839 71.102C16.7864 71.1025 17.5077 70.974 18.1067 70.5867L19.9267 73.2851C20.1531 73.6208 20.5228 73.8018 20.8994 73.8018C21.1247 73.8018 21.3527 73.7368 21.5536 73.6014C22.0902 73.2395 22.2317 72.5111 21.8699 71.9745L20.1155 69.3734C20.7831 68.7078 21.2233 68.1481 21.2511 66.8908L27.9359 64.5564C27.773 65.1245 27.682 65.6734 27.682 66.1942C27.682 67.3651 28.1066 68.3978 28.9097 69.1805C30.1153 70.3553 31.9078 70.7392 33.0839 70.8619C33.1203 72.4126 34.1009 73.6584 35.8587 74.3754C37.1626 74.9072 38.2711 75.89 38.9803 77.1429C39.1883 77.5104 39.5794 77.7353 40.0017 77.7351C40.424 77.7351 40.815 77.5054 41.023 77.1379C41.7317 75.8854 42.8379 74.9036 44.1379 74.3731C45.8981 73.6547 46.88 72.4097 46.9164 70.8619C48.0925 70.7392 49.885 70.3553 51.0906 69.1805C51.8937 68.3978 52.3182 67.3651 52.3182 66.1942C52.3182 65.7036 52.2448 65.1934 52.1104 64.6692L59.5121 67.5387C59.8154 68.2097 60.3492 68.7719 61.0401 69.0933C61.6101 69.2898 62.0687 69.51 63.1132 69.2912C63.4238 69.9134 63.9377 70.4315 64.5907 70.7353C65.0162 70.9333 65.4638 71.0269 65.9048 71.0269C67.0842 71.0269 68.2157 70.3567 68.7451 69.2187L69.5966 67.3881C69.6601 67.2517 69.7096 67.1117 69.7526 66.9701C72.1213 65.8833 73.6699 63.5087 73.6699 60.8583C73.6699 57.5495 71.2676 54.7931 68.116 54.2369V53.493C68.116 52.8458 67.5913 52.3211 66.9442 52.3211C66.297 52.3211 65.7723 52.8458 65.7723 53.493V54.2369C62.7767 54.7656 60.4601 57.2825 60.2379 60.3717L55.3715 57.6739C55.5493 57.0842 55.7153 56.0744 55.475 55.1111C56.0023 55.1905 56.5496 55.2311 57.1229 55.2311C58.0621 55.2311 59.0695 55.1255 60.1643 54.917C60.1751 54.915 60.1859 54.9128 60.1967 54.9105C61.1409 54.703 61.8799 54.0292 62.1737 53.1081C62.4673 52.1869 62.2546 51.2097 61.6046 50.4939L61.232 50.0836C61.7267 50.1361 62.2229 50.1647 62.7188 50.1647C65.6679 50.1647 68.6001 49.2397 71.0318 47.4474C71.8009 46.8807 72.1973 45.9752 72.0921 45.0257C72.0107 44.2911 71.6415 43.6489 71.074 43.2174C74.5435 42.2568 77.5448 39.8997 79.2727 36.596C79.7618 35.6607 79.7171 34.5699 79.1527 33.678C78.5885 32.7861 77.6201 32.2766 76.5676 32.3196L75.5279 32.3604C75.9532 31.9512 76.3579 31.5182 76.7349 31.0558C77.144 30.5543 77.069 29.816 76.5674 29.4071C76.0658 28.9979 75.3276 29.073 74.9187 29.5746C73.9384 30.7765 72.7582 31.7654 71.4121 32.5216L54.5359 33.1829L76.9607 22.1273C77.1776 22.0202 77.3549 22.1009 77.4412 22.1585C77.5276 22.2162 77.6701 22.3487 77.6549 22.5899C77.5991 23.474 77.4483 24.3512 77.2065 25.1974C77.0288 25.8194 77.3891 26.468 78.0115 26.6459ZM70.3488 14.334C70.5537 14.1273 70.7938 14.1621 70.8876 14.1868C70.9813 14.2113 71.2076 14.2988 71.2848 14.5793C71.9815 17.1104 71.992 19.7682 71.3212 22.2943L53.9781 30.8446L70.3488 14.334ZM47.8975 53.9097C47.8975 54.877 47.3345 55.7447 46.4968 56.1597C45.8183 55.441 45.1228 54.7458 44.4353 54.086C45.4428 53.5066 46.5498 53.1224 47.7097 52.956C47.8329 53.2555 47.8975 53.5774 47.8975 53.9097ZM54.2656 20.5709H51.6582C49.9043 20.5709 48.2756 21.4416 47.3015 22.9002C46.3142 24.3252 46.1486 26.4902 46.9586 28.1532H41.1717V24.9343C41.1717 20.7502 44.5756 17.3463 48.7597 17.3463H50.972C51.9961 17.3463 52.9439 17.8102 53.5721 18.619C54.0151 19.189 54.2526 19.8706 54.2656 20.5709ZM37.3962 13.7746C37.7231 12.952 37.8389 12.0567 37.7475 11.1784H42.2534C42.1619 12.0571 42.2776 12.9529 42.6047 13.7757C42.9717 14.6993 43.5765 15.4756 44.3508 16.0384C42.4995 16.9596 40.9747 18.4407 39.9998 20.2599C39.0251 18.4407 37.5001 16.9596 35.6491 16.0384C36.4239 15.4754 37.0289 14.6988 37.3962 13.7746ZM47.9704 12.8612C48.032 12.7835 48.1697 12.6535 48.4004 12.6535H51.1028C51.3334 12.6535 51.4711 12.7837 51.5326 12.8612C51.5942 12.9387 51.6897 13.1024 51.6371 13.327L51.2443 15.0101L48.2597 15.0151L47.8658 13.327C47.8136 13.1024 47.9089 12.9388 47.9704 12.8612ZM36.358 6.7237C36.532 6.37292 36.854 6.13855 37.2412 6.08073C37.4222 6.05386 37.6095 6.06948 37.7833 6.12636C39.2334 6.60105 40.7665 6.6012 42.2165 6.12636C42.3904 6.06948 42.5779 6.05402 42.7587 6.08073C43.1461 6.1387 43.4679 6.37308 43.642 6.7237C43.8162 7.07448 43.8081 7.47261 43.6201 7.8162L43.0626 8.83464H36.9373L36.3798 7.8162C36.1917 7.47276 36.1837 7.07448 36.358 6.7237ZM28.3627 13.3271C28.3103 13.1024 28.4056 12.9387 28.4672 12.8612C28.5288 12.7835 28.6664 12.6535 28.897 12.6535H31.5994C31.8302 12.6535 31.9678 12.7837 32.0294 12.8612C32.0909 12.9387 32.1862 13.1023 32.1339 13.327L31.74 15.0151L28.7553 15.0101L28.3627 13.3271ZM28.3416 20.5709H25.7342C25.7472 19.8707 25.9849 19.1891 26.4277 18.619C27.0559 17.8102 28.0036 17.3463 29.0278 17.3463H31.2402C35.4242 17.3463 38.8281 20.7502 38.8281 24.9343V28.1532H33.0412C33.8123 26.6116 33.7392 24.4346 32.6983 22.9002C31.7242 21.4416 30.0955 20.5709 28.3416 20.5709ZM29.7528 31.6715C29.7528 31.0238 30.2797 30.4969 30.9273 30.4969H49.0728C49.7204 30.4969 50.2473 31.0238 50.2473 31.6715V49.3422C50.2473 49.6564 50.1248 49.9517 49.9023 50.1736C49.6806 50.395 49.3861 50.5167 49.0728 50.5167C46.152 50.4986 43.0394 51.7042 40.8873 53.8642L40.0001 54.74L39.1128 53.8642C37.0059 51.7845 34.2419 50.6091 31.2958 50.525C31.032 50.5191 30.5142 50.5541 30.098 50.1738C29.8756 49.9519 29.753 49.6566 29.753 49.3424V31.6715H29.7528ZM33.5616 56.1884C32.6892 55.787 32.0992 54.9041 32.0992 53.9095C32.0992 53.5772 32.1637 53.255 32.2872 52.9555C33.4641 53.1239 34.587 53.516 35.6066 54.1094C34.9248 54.7728 34.2353 55.4699 33.5616 56.1884ZM2.3449 22.5896C2.32959 22.3484 2.47224 22.2157 2.55865 22.1582C2.64474 22.1005 2.82209 22.0199 3.03912 22.127L25.4639 33.1826L8.58395 32.5213C4.93692 30.4715 2.6088 26.7743 2.3449 22.5896ZM2.80412 35.5096C2.66427 35.2422 2.77412 35.0157 2.82787 34.9308C2.88162 34.8458 3.03833 34.6513 3.34068 34.6613L26.1477 35.5547L13.013 41.336C8.77285 41.5561 4.77849 39.2844 2.80412 35.5096ZM10.3588 45.5607C10.2425 45.475 10.2286 45.3627 10.2375 45.2836C10.2463 45.2046 10.2844 45.098 10.4166 45.0397L27.4091 37.5604V40.5683L21.5653 47.0033C17.8539 48.4789 13.58 47.9347 10.3588 45.5607ZM20.2897 52.6171C20.1461 52.5791 20.0852 52.4767 20.0596 52.396C20.0328 52.312 20.0235 52.1874 20.1306 52.0694L27.4091 44.0546V49.3422C27.4091 50.0119 27.598 50.6511 27.9452 51.2047C25.8799 52.5183 23.6447 53.297 20.2897 52.6171ZM28.3789 53.6167C28.6902 53.4128 29.1684 53.1991 29.8403 53.0158C29.7861 53.3081 29.7553 53.6064 29.7553 53.9097C29.7553 55.5861 30.6223 57.1009 31.9634 57.9767C31.5272 58.4911 31.1091 59.0103 30.7155 59.5302C28.4847 59.3578 26.7388 57.9322 26.7388 56.2047C26.7363 55.3463 27.3499 54.1947 28.3789 53.6167ZM29.1777 61.6402L20.3149 64.735C20.0158 64.4403 19.6608 64.2086 19.2647 64.0544C19.3256 63.6678 19.3128 63.2783 19.2296 62.9016L25.7919 59.6577C26.6389 60.5847 27.817 61.288 29.1777 61.6402ZM16.1742 62.7892C16.2422 62.7892 16.3107 62.7981 16.3782 62.8162C16.5803 62.8703 16.7492 63 16.8539 63.1812C16.9586 63.3625 16.9864 63.5734 16.9324 63.7756C16.8782 63.9776 16.7486 64.1467 16.5674 64.2512L14.8189 65.2612C14.7347 65.3098 14.6446 65.342 14.551 65.357C14.2324 65.4081 13.9103 65.2544 13.7488 64.9747C13.6441 64.7934 13.6163 64.5825 13.6703 64.3803C13.7246 64.1783 13.8541 64.0092 14.0353 63.9047L15.7839 62.8945C15.9046 62.825 16.0385 62.7892 16.1742 62.7892ZM7.33458 55.6172C7.16567 54.5591 7.88926 53.5608 8.94739 53.3919C9.80942 53.2372 10.9746 53.8628 11.1727 55.0047C11.3416 56.0628 10.618 57.0611 9.55988 57.23C8.50129 57.3986 7.50333 56.6753 7.33458 55.6172ZM16.7678 68.6531C16.6836 68.7017 16.5935 68.7339 16.4999 68.7489C16.1813 68.8001 15.8591 68.6461 15.6975 68.3665C15.5928 68.1853 15.565 67.9742 15.6192 67.772C15.6733 67.57 15.8028 67.4009 15.9841 67.2964C16.0014 67.2837 17.6736 66.3181 17.7328 66.2862C17.9141 66.1817 18.1249 66.1537 18.3271 66.208C18.5292 66.2622 18.6981 66.3917 18.803 66.573C18.9077 66.7542 18.9355 66.9653 18.8813 67.1675C18.8272 67.3695 18.6975 67.5386 18.5164 67.6431L16.7678 68.6531ZM49.4578 67.4986C48.7951 68.1473 47.6128 68.422 46.7262 68.523C46.5875 67.6876 46.3767 66.8459 46.0943 66.0228C45.8843 65.4106 45.2176 65.0848 44.6056 65.2945C43.9934 65.5045 43.6673 66.1711 43.8773 66.7833C44.3278 68.0961 44.5758 69.513 44.5758 70.7728C44.5758 70.993 44.5758 71.6626 43.2519 72.2029C42.0044 72.712 40.8886 73.5206 39.999 74.5453C39.1094 73.5225 37.9923 72.7144 36.7434 72.205C35.4239 71.6669 35.4239 71.0173 35.4239 70.7728C35.4239 66.7278 37.8187 62.2862 39.9998 62.2862C40.4294 62.2862 40.877 62.4559 41.3306 62.7908C41.8512 63.1752 42.585 63.0647 42.9694 62.5439C43.3537 62.0231 43.2431 61.2895 42.7225 60.9052C41.8572 60.2666 40.9412 59.9427 39.9998 59.9427C38.0811 59.9427 36.2739 61.2928 34.9112 63.7444C34.123 65.1625 33.5531 66.8475 33.2739 68.522C32.3947 68.4203 31.2061 68.1458 30.5453 67.5019C30.1906 67.1564 30.0256 66.7408 30.0256 66.1941C30.0256 63.9816 32.7334 60.13 37.4861 55.5519L39.1767 57.2206C39.4048 57.4459 39.7023 57.5586 40 57.5586C40.2976 57.5586 40.5951 57.4459 40.8233 57.2206L42.5337 55.5322C42.5373 55.5286 42.5412 55.5253 42.5448 55.5217C43.547 56.4728 44.4594 57.3961 45.2726 58.282C45.2772 58.2872 45.2818 58.2922 45.2865 58.2974C48.3047 61.5884 49.9743 64.3691 49.9743 66.1939C49.9742 66.7392 49.8101 67.1537 49.4578 67.4986ZM62.0284 66.9681C61.7357 66.832 61.5542 66.5245 61.5768 66.2025C61.5834 66.108 61.6074 66.0153 61.6484 65.9273L62.5001 64.0964C62.5884 63.9067 62.7453 63.7626 62.9418 63.6909C63.0295 63.6589 63.1203 63.643 63.2109 63.643C63.3235 63.643 63.4357 63.6677 63.541 63.7166C63.7307 63.8048 63.8748 63.9617 63.9467 64.1583C64.0184 64.3548 64.0093 64.5675 63.921 64.7572C63.914 64.7781 63.0998 66.5272 63.0693 66.5883C62.981 66.778 62.8242 66.922 62.6276 66.9937C62.4307 67.0653 62.2181 67.0562 62.0284 66.9681ZM67.4712 66.3992L66.6195 68.23C66.4373 68.6217 65.9699 68.792 65.5787 68.61C65.286 68.4739 65.1045 68.1662 65.127 67.8445C65.1335 67.7498 65.1578 67.6572 65.1987 67.5692L66.0504 65.7383C66.1387 65.5486 66.2956 65.4047 66.4921 65.3328C66.6885 65.2611 66.9013 65.2701 67.0912 65.3584C67.2809 65.4467 67.4249 65.6036 67.4968 65.8001C67.5687 65.9967 67.5596 66.2095 67.4712 66.3992ZM66.9437 56.4761C69.3599 56.4761 71.3257 58.4419 71.3257 60.8581C71.3257 62.3212 70.6001 63.6531 69.4409 64.4573C69.1226 63.9256 68.654 63.5005 68.0798 63.2333C67.4245 62.9284 66.7004 62.8612 66.0088 63.0339C65.6948 62.3998 65.1801 61.8941 64.5293 61.5913C63.9159 61.3058 63.2424 61.2316 62.5915 61.3645C62.5724 61.1973 62.5617 61.0286 62.5617 60.858C62.5617 58.4419 64.5274 56.4761 66.9437 56.4761ZM60.3676 63.1236L59.491 65.0169L50.7953 61.6456C52.1497 61.2997 53.3245 60.6063 54.1742 59.6898L60.3676 63.1236ZM53.2578 56.2047C53.2578 57.9114 51.5532 59.3225 49.3612 59.5225C48.9622 58.9906 48.5353 58.4608 48.0908 57.937C49.3979 57.0539 50.2411 55.5558 50.2411 53.9097C50.2411 53.6064 50.2103 53.3081 50.1561 53.0158C51.5028 53.2825 53.2736 54.5453 53.2578 56.2047ZM59.9403 52.396C59.9142 52.4777 59.8521 52.5817 59.7043 52.6186C56.4262 53.2817 54.3923 52.6635 52.054 51.2058C52.4017 50.6521 52.5907 50.0124 52.5907 49.3422V44.0546L59.8692 52.0694C59.9765 52.1874 59.9671 52.3122 59.9403 52.396ZM69.641 45.5607C66.4198 47.9346 62.1459 48.4789 58.4345 47.0033L52.5907 40.5683V37.5604L69.5834 45.0397C69.7154 45.0978 69.7535 45.2044 69.7623 45.2835C69.7712 45.3627 69.7573 45.475 69.641 45.5607ZM76.6591 34.6613C76.9607 34.6524 77.1182 34.8458 77.1719 34.9308C77.2257 35.0158 77.3355 35.2422 77.1957 35.5096C75.2215 39.2846 71.2282 41.5572 66.987 41.3361L53.8521 35.5549L76.6591 34.6613Z" fill="#14599C"/>
<path d="M33.2736 48.1727C35.4105 48.1462 37.6947 49.1801 39.1161 50.8988C39.3386 51.1545 39.6609 51.3012 39.9998 51.3012C40.3387 51.3012 40.6611 51.1545 40.8836 50.8988C42.2019 49.2866 44.4994 48.1355 46.7217 48.1727C47.0387 48.171 47.3325 48.051 47.5531 47.831C47.7739 47.6112 47.898 47.3124 47.898 47.0009V34.0176C47.898 33.3704 47.3733 32.8457 46.7261 32.8457H33.2734C32.6262 32.8457 32.1016 33.3704 32.1016 34.0176V38.0065C32.1016 38.6537 32.6262 39.1784 33.2734 39.1784C33.9206 39.1784 34.4453 38.6537 34.4453 38.0065V35.1895H45.5542V45.8946C43.4809 46.1345 41.5369 47.0241 39.9998 48.4376C38.4625 47.0238 36.5189 46.1343 34.4455 45.8946V43.4752C34.4455 42.828 33.9208 42.3034 33.2736 42.3034C32.6264 42.3034 32.1017 42.828 32.1017 43.4752V47.0009C32.1017 47.3124 32.2258 47.6112 32.4466 47.831C32.6662 48.0499 32.9636 48.1727 33.2736 48.1727Z" fill="#14599C"/>
</g>
<defs>
<clipPath id="clip0_301_440">
<rect width="80" height="80" fill="white"/>
</clipPath>
</defs>
</svg>
