<svg width="80" height="80" viewBox="0 0 80 80" fill="none" xmlns="http://www.w3.org/2000/svg">
<g clip-path="url(#clip0_301_432)">
<path d="M79.4534 47.768C79.1653 47.2987 78.6645 47.0183 78.1137 47.0183H77.8347L66.5428 22.1412H69.1864C70.9583 22.1412 72.3998 20.6996 72.3998 18.9278C72.3998 17.1559 70.9583 15.7143 69.1864 15.7143H43.4771V11.4831C45.1591 10.3575 46.2693 8.44092 46.2693 6.26936C46.2693 2.81249 43.4568 0 39.9999 0C36.543 0 33.7305 2.81249 33.7305 6.26936C33.7305 8.44092 34.8405 10.3575 36.5227 11.4831V15.7142H10.8132C9.04122 15.7142 7.59981 17.1557 7.59981 18.9276C7.59981 20.6995 9.04138 22.1411 10.8132 22.1411H13.4568L2.16498 47.0182H1.88592C1.33514 47.0182 0.834359 47.2985 0.546235 47.7679C0.25811 48.2372 0.234985 48.8108 0.484516 49.3022L2.52545 53.3193C3.3156 54.8747 4.89044 55.8411 6.63528 55.8411H24.692C26.4368 55.8411 28.0115 54.8749 28.8018 53.3193L30.8426 49.3026C31.0923 48.8115 31.0693 48.238 30.7813 47.7683C30.4932 47.2988 29.9923 47.0183 29.4413 47.0183H29.1624L17.8706 22.1412H36.5226V65.9942H28.0434C25.9618 65.9942 24.2684 67.6877 24.2684 69.7692V71.8213H22.3907C20.3092 71.8213 18.6157 73.5147 18.6157 75.5961V78.8241C18.6157 79.4734 19.1421 80 19.7917 80H60.208C60.8575 80 61.3839 79.4736 61.3839 78.8241V75.5961C61.3839 73.5147 59.6905 71.8213 57.6089 71.8213H55.7313V69.7692C55.7313 67.6877 54.0378 65.9942 51.9563 65.9942H43.4771V32.0362C43.4771 31.3868 42.9507 30.8603 42.3012 30.8603C41.6516 30.8603 41.1252 31.3867 41.1252 32.0362V65.9941H38.8741V20.9653C38.8741 20.3159 38.3477 19.7893 37.6982 19.7893H10.8132C10.3381 19.7893 9.95153 19.4028 9.95153 18.9276C9.95153 18.4525 10.3381 18.0659 10.8132 18.0659H37.6983C38.3479 18.0659 38.8743 17.5395 38.8743 16.89V12.4386C38.9182 12.4465 38.9626 12.4525 39.0068 12.4595C39.0293 12.4631 39.0516 12.4668 39.074 12.4701C39.1494 12.4812 39.2254 12.4908 39.3015 12.4992C39.3296 12.5023 39.3577 12.5059 39.386 12.5086C39.4576 12.5154 39.5294 12.5204 39.6013 12.525C39.6329 12.527 39.6643 12.5298 39.696 12.5312C39.7855 12.5354 39.8752 12.5375 39.9649 12.5381C39.9766 12.5381 39.988 12.539 39.9997 12.539C40.0115 12.539 40.023 12.5383 40.0346 12.5381C40.1243 12.5376 40.214 12.5356 40.3035 12.5312C40.3352 12.5297 40.3666 12.5269 40.3982 12.525C40.4701 12.5204 40.5419 12.5154 40.6135 12.5086C40.6418 12.5058 40.6699 12.5023 40.6982 12.4992C40.7743 12.4908 40.8501 12.4814 40.9255 12.4703C40.948 12.467 40.9704 12.4633 40.9927 12.4597C41.0368 12.4526 41.0813 12.4467 41.1252 12.4387V16.8901C41.1252 17.5395 41.6516 18.0661 42.3012 18.0661H69.1863C69.6614 18.0661 70.048 18.4526 70.048 18.9278C70.048 19.4029 69.6614 19.7895 69.1863 19.7895H42.3013C41.6518 19.7895 41.1254 20.3159 41.1254 20.9654V26.462C41.1254 27.1114 41.6518 27.6379 42.3013 27.6379C42.9508 27.6379 43.4772 27.1115 43.4772 26.462V22.1412H62.1292L50.8374 47.0182H50.5585C50.0075 47.0182 49.5066 47.2987 49.2185 47.7682C48.9305 48.2379 48.9075 48.8115 49.1571 49.3022L51.198 53.3193C51.9882 54.8747 53.563 55.8411 55.3078 55.8411H73.3645C75.1094 55.8411 76.6841 54.8749 77.4744 53.3193L79.5154 49.3021C79.7648 48.811 79.7417 48.2374 79.4534 47.768ZM51.9564 68.346C52.7411 68.346 53.3796 68.9844 53.3796 69.7691V71.8211H35.3871C34.7376 71.8211 34.2112 72.3475 34.2112 72.997C34.2112 73.6464 34.7376 74.173 35.3871 74.173H57.6089C58.3936 74.173 59.0321 74.8114 59.0321 75.5961V77.6481H20.9676V75.5961C20.9676 74.8114 21.606 74.173 22.3907 74.173H29.9296C30.5791 74.173 31.1055 73.6466 31.1055 72.997C31.1055 72.3477 30.5791 71.8211 29.9296 71.8211H26.6201V69.7691C26.6201 68.9842 27.2585 68.346 28.0432 68.346H51.9564ZM26.7051 52.2541C26.3181 53.016 25.5467 53.4893 24.692 53.4893H6.63544C5.78076 53.4893 5.00935 53.016 4.62232 52.2541L3.15701 49.3701H28.1704L26.7051 52.2541ZM26.5938 47.0182H4.73357L15.6637 22.9379L26.5938 47.0182ZM41.7376 9.77936C41.6947 9.80061 41.6515 9.82076 41.6082 9.84045C41.5862 9.85045 41.5643 9.86092 41.5419 9.87045C41.4929 9.89154 41.4433 9.91107 41.3937 9.93014C41.3555 9.94467 41.3169 9.95857 41.2782 9.97201C41.2374 9.98623 41.1965 10.0004 41.1552 10.0133C41.1177 10.0248 41.0796 10.0351 41.0416 10.0456C41.0129 10.0536 40.9841 10.0617 40.9551 10.069C40.9158 10.0789 40.8762 10.0878 40.8365 10.0965C40.8074 10.1028 40.7783 10.109 40.7493 10.1147C40.7104 10.1222 40.6715 10.1292 40.6321 10.1356C40.5997 10.1409 40.5672 10.1454 40.5347 10.1498C40.4985 10.1548 40.4622 10.1598 40.4257 10.1637C40.3852 10.1681 40.3443 10.1712 40.3035 10.1744C40.2741 10.1767 40.2449 10.1795 40.2155 10.1811C40.144 10.185 40.0723 10.1873 40.0001 10.1873C39.9279 10.1873 39.856 10.185 39.7846 10.1811C39.7551 10.1795 39.7258 10.1767 39.6966 10.1744C39.6558 10.1712 39.6151 10.1681 39.5744 10.1637C39.5379 10.1598 39.5016 10.1548 39.4654 10.1498C39.4329 10.1454 39.4004 10.1408 39.368 10.1356C39.3288 10.1292 39.2897 10.1222 39.2508 10.1147C39.2216 10.109 39.1926 10.1028 39.1637 10.0965C39.124 10.0879 39.0843 10.079 39.0451 10.069C39.0162 10.0617 38.9874 10.0536 38.9585 10.0456C38.9205 10.0351 38.8824 10.0248 38.8449 10.0133C38.8037 10.0004 38.7629 9.98623 38.7219 9.97201C38.6832 9.95857 38.6446 9.94482 38.6065 9.93014C38.5568 9.91107 38.5073 9.89154 38.4582 9.87045C38.4358 9.86092 38.414 9.85045 38.3919 9.84045C38.3487 9.82076 38.3054 9.80076 38.2626 9.77936C36.9719 9.13779 36.0826 7.80577 36.0826 6.26936C36.0826 4.10921 37.8399 2.35171 40.0002 2.35171C42.1605 2.35171 43.9179 4.10921 43.9179 6.26936C43.9176 7.80577 43.0283 9.13779 41.7376 9.77936ZM64.3361 22.9379L75.2662 47.0182H53.4058L64.3361 22.9379ZM75.3775 52.2541C74.9905 53.016 74.2191 53.4893 73.3644 53.4893H55.3077C54.453 53.4893 53.6816 53.016 53.2946 52.2541L51.8293 49.3701H76.8426L75.3775 52.2541Z" fill="#14599C"/>
</g>
<defs>
<clipPath id="clip0_301_432">
<rect width="80" height="80" fill="white"/>
</clipPath>
</defs>
</svg>
