<svg width="116" height="87" viewBox="0 0 116 87" fill="none" xmlns="http://www.w3.org/2000/svg">
<path d="M115.365 52.0459C115.213 52.5359 115.061 53.0289 114.908 53.5188C113.576 57.7854 109.68 60.6566 105.213 60.576C104.391 60.561 103.806 60.7463 103.262 61.3528C102.87 61.792 102.276 62.0489 101.89 62.4911C101.568 62.8616 101.245 63.3815 101.251 63.8297C101.254 64.1344 101.774 64.5467 102.15 64.711C103.686 65.3833 105.27 65.945 106.808 66.6143C111.227 68.5354 113.585 71.9474 113.949 76.7309C114.03 77.7706 114.003 78.8223 113.967 79.868C113.928 81.0213 113.262 81.6936 112.267 81.6846C111.254 81.6756 110.669 81.0153 110.627 79.8322C110.582 78.5654 110.651 77.2836 110.48 76.0347C110.089 73.1515 108.499 71.078 105.864 69.8709C104.206 69.112 102.488 68.4846 100.722 67.7705C99.5988 69.6648 98.0332 70.8748 95.7655 70.8778C93.5396 70.8808 91.9591 69.7664 90.7849 67.7675C88.8398 68.5533 86.8918 69.3421 85.2635 70.0024C85.3053 74.7799 85.3561 79.3213 85.374 83.8597C85.38 85.0279 84.7227 85.6942 83.7158 85.6882C82.7239 85.6822 82.0576 85.007 82.0456 83.8418C82.0158 80.8181 81.9859 77.7915 82.0456 74.7649C82.1293 70.2803 80.3008 66.8503 76.581 64.3734C74.4716 62.9692 72.3981 61.5052 70.1722 59.9754C69.3356 61.0929 68.52 62.1864 67.7013 63.2739C66.3479 65.0696 65.2962 65.4102 63.142 64.7589C62.0096 64.4153 60.8772 64.0687 59.6164 63.6862C59.6164 64.227 59.6164 64.6304 59.6164 65.0307C59.6164 71.3051 59.6164 77.5794 59.6164 83.8537C59.6164 84.2272 59.6373 84.6066 59.5835 84.9711C59.4581 85.8167 58.9471 86.3097 58.0926 86.3724C57.2441 86.4381 56.6286 86.0557 56.3956 85.2281C56.2761 84.8068 56.2671 84.3437 56.2671 83.9015C56.2581 77.6272 56.2611 71.3529 56.2611 65.0785C56.2611 64.6722 56.2611 64.2659 56.2611 63.6982C54.9824 64.0866 53.8261 64.4421 52.6668 64.7887C50.6411 65.3952 49.5446 65.0367 48.2838 63.3606C47.4562 62.2611 46.6315 61.1616 45.6784 59.8948C42.7683 62.025 39.7776 63.9522 37.1065 66.2468C34.7701 68.2545 33.8737 71.1228 33.8469 74.2032C33.82 77.4151 33.8528 80.6269 33.8319 83.8388C33.8259 85.013 33.1925 85.6942 32.1856 85.6822C31.2057 85.6703 30.5274 85.0996 30.5424 84.1913C30.6111 79.6828 30.7605 75.1742 30.9368 70.6687C30.9607 70.0263 31.2804 69.3929 31.5074 68.6041C29.5923 67.899 27.7159 67.2088 25.738 66.4798C24.5698 68.628 22.8877 69.9725 20.4049 69.9785C17.9609 69.9845 16.2578 68.7416 15.0179 66.4589C13.1655 67.167 11.2951 67.8512 9.4457 68.5981C8.21474 69.0941 7.20786 68.8103 6.87024 67.7347C6.55653 66.7457 6.97183 66.0167 7.87115 65.6462C9.72954 64.8813 11.6298 64.2151 13.4911 63.4532C13.9124 63.2799 14.4413 62.9512 14.5667 62.5748C14.7819 61.9384 14.5667 61.3588 13.9244 60.8508C11.9136 59.2673 10.7663 57.1131 10.2524 54.6333C9.48454 54.5227 8.73163 54.4959 8.0295 54.2957C4.70112 53.3575 3.13254 49.5571 4.89532 46.5783C5.33751 45.8313 5.41221 45.1501 5.28971 44.3643C5.0955 43.1094 4.91325 41.8546 4.731 40.5997C3.9721 35.3831 7.03756 30.6594 12.0839 29.1356C13.4702 28.7173 14.7878 28.072 16.1383 27.5372C26.0757 23.6142 36.5119 31.006 36.0817 41.6693C36.0548 42.3027 36.0548 42.9421 35.9682 43.5696C35.8038 44.7647 35.8935 45.8074 36.497 46.9756C38.2329 50.3189 35.765 54.3196 32.0034 54.5108C31.7076 54.5257 31.4118 54.5108 31.0443 54.5108C30.877 55.0725 30.7366 55.6013 30.5633 56.1182C29.8492 58.2336 28.5585 59.9157 26.8106 61.299C26.4521 61.5829 26.2191 62.1953 26.1982 62.6674C26.1862 62.9064 26.7419 63.2709 27.1034 63.4084C29.0814 64.1643 31.0802 64.8694 33.1447 65.6163C35.765 62.0609 39.8254 60.1965 43.2763 57.5583C43.7005 57.2356 43.9396 56.662 44.2413 56.1929C44.6148 55.6073 44.8628 54.8992 45.3468 54.4361C46.3985 53.4352 47.5816 52.5717 48.6811 51.6216C48.9022 51.4304 49.0725 51.1167 49.1353 50.8299C49.213 50.4743 49.1144 50.0829 49.1622 49.7154C49.3146 48.589 48.9232 47.8182 48.0179 47.0533C45.3587 44.8125 43.8051 41.8755 43.1299 38.3947C42.7803 38.329 42.4248 38.2513 42.0692 38.1916C37.8445 37.5044 35.759 32.8106 38.1552 29.2671C38.5705 28.6516 38.5526 28.1945 38.3435 27.5431C36.3446 21.2987 36.8645 15.2544 39.9061 9.44022C40.5992 8.11664 41.5195 7.72225 42.4905 8.272C43.4018 8.78889 43.5392 9.75394 42.8759 11.0058C40.4439 15.598 39.8941 20.4083 41.1998 25.4338C41.3103 25.861 41.4657 26.2763 41.6121 26.7335C42.0423 26.7155 42.4068 26.6976 42.8311 26.6797C42.9446 25.8072 42.9984 24.9587 43.1687 24.1341C44.1158 19.6166 48.0179 16.3241 52.634 16.2045C55.2841 16.1358 57.9373 16.2105 60.5874 16.1597C61.0983 16.1508 61.6899 15.9566 62.0963 15.6518C64.4118 13.904 64.9167 13.8801 67.286 15.6339C67.3667 15.6936 67.4802 15.7056 67.6924 15.7773C67.8268 12.6162 66.8319 9.93022 64.8002 7.64457C60.8324 3.17486 53.6349 2.23969 48.1613 5.43063C46.6136 6.33294 45.7292 6.31202 45.1287 5.35892C44.5042 4.36997 44.9554 3.42882 46.4553 2.53548C53.7902 -1.83564 64.0293 0.0705645 68.5379 6.96933C68.7202 7.25019 69.0757 7.50415 69.3954 7.59079C76.4674 9.50894 79.6703 14.4836 78.4902 21.705C78.1346 23.8771 77.8448 26.0612 77.5759 28.2453C77.5311 28.6068 77.6685 29.049 77.8568 29.3746C80.0289 33.1751 77.9793 37.5462 73.6679 38.1916C72.9419 38.2991 72.6999 38.5949 72.5475 39.2702C71.8334 42.4252 70.2379 45.0933 67.7581 47.1639C66.9902 47.8032 66.7333 48.4486 66.7034 49.4196C66.6646 50.6595 66.8438 51.5917 68.024 52.2879C68.9442 52.8317 69.727 53.6234 70.5068 54.3704C70.9251 54.7707 71.4689 55.2966 71.5018 55.7955C71.5824 56.9787 72.3921 57.4239 73.1869 57.9647C74.6688 58.9715 76.1209 60.0232 77.6207 61.0032C80.0229 62.5748 82.1831 64.3794 83.5784 67.0266C85.6907 66.178 87.7612 65.3654 89.8109 64.5109C90.4831 64.23 90.507 62.9722 89.8975 62.4642C89.2701 61.9384 88.6665 61.3737 88.0003 60.9046C87.7015 60.6955 87.2683 60.5909 86.8948 60.5939C81.3674 60.6298 77.0889 57.0026 76.5272 51.5081C76.3718 49.9753 76.8469 48.353 77.1875 46.8053C77.3847 45.912 77.9374 45.1023 78.2512 44.2269C79.028 42.0607 79.8855 39.9125 80.486 37.6956C82.434 30.501 88.8398 25.5652 96.1629 25.7415C103.671 25.9208 109.802 31.0149 111.418 38.3469C111.714 39.6825 112.198 40.9822 112.679 42.2699C113.54 44.5645 114.463 46.8382 115.359 49.1208V52.0339L115.365 52.0459ZM64.6149 17.8837C63.2346 19.9602 61.0894 19.5508 59.0607 19.5568C57.0081 19.5628 54.9555 19.5359 52.9059 19.5658C49.2458 19.6166 46.3776 22.437 46.3238 26.1C46.273 29.5689 46.2521 33.0406 46.3477 36.5095C46.509 42.3595 51.397 47.1788 57.3995 47.5194C63.2256 47.851 68.768 43.4949 69.3894 37.7165C69.7748 34.1372 69.5956 30.4921 69.6314 26.8769C69.6703 23.0047 67.8507 20.1365 64.6179 17.8837H64.6149ZM89.6196 40.1486C89.1864 41.4602 88.556 42.5657 88.5022 43.698C88.3349 47.1967 88.3797 50.7074 88.3678 54.212C88.3678 54.6124 88.4932 55.0217 88.6068 55.4161C89.5808 58.7743 92.7897 61.1018 96.1718 60.9106C99.9215 60.6985 102.754 58.126 103.429 54.3196C103.68 52.9004 104.334 52.3028 105.437 52.4791C106.492 52.6494 106.955 53.5218 106.707 54.9201C106.575 55.6611 106.402 56.3961 106.241 57.1759C109.261 56.6022 111.236 54.6691 111.861 51.8218C112.207 50.2472 111.807 48.8101 111.23 47.361C110.187 44.7348 108.876 42.1563 108.275 39.4285C107.014 33.695 102.333 29.4105 96.4557 29.1297C90.6743 28.8518 85.2814 32.6074 83.907 38.2543C83.1571 41.3377 81.8962 44.1671 80.7161 47.0593C80.3396 47.9825 79.987 48.9535 79.8466 49.9335C79.3596 53.3515 82.2966 56.9936 85.5324 57.0534C85.386 56.3632 85.129 55.682 85.1141 54.9948C85.0453 51.3766 84.9557 47.7554 85.0364 44.1402C85.0842 41.9382 85.9417 39.9245 87.1965 38.1079C88.4992 36.2226 89.8079 36.0075 91.6005 37.3998C93.3364 38.7473 95.2755 39.5002 97.4835 39.551C99.5361 39.5988 101.589 39.6675 103.641 39.7273C105.703 39.787 106.817 40.8985 106.844 42.9391C106.859 44.1343 106.856 45.3294 106.844 46.5245C106.832 47.8301 106.205 48.6189 105.183 48.6309C104.158 48.6428 103.501 47.854 103.489 46.5603C103.477 45.419 103.489 44.2777 103.489 42.8555C101.021 42.8555 98.7055 42.9511 96.3989 42.8286C94.0027 42.7001 91.8575 41.7261 89.6166 40.1516L89.6196 40.1486ZM8.54041 43.7966C9.74448 44.0864 10.1956 43.7668 10.4197 42.6434C10.6558 41.4662 11.1995 40.3129 11.8031 39.2582C12.8219 37.4805 14.0947 37.346 15.8186 38.4396C17.1601 39.2911 18.5584 40.2472 20.0613 40.5937C22.2453 41.0987 24.5459 41.2361 26.7987 41.275C28.8513 41.3108 30.6469 41.4781 31.1638 43.8295H32.5472C32.5472 42.1115 32.8191 40.3936 32.4994 38.7981C31.113 31.8306 23.9513 28.0511 17.3543 30.6654C15.6931 31.3227 14.023 31.9471 12.3558 32.5865C9.75046 33.5844 7.94584 36.1091 8.02053 38.9086C8.06535 40.537 8.35815 42.1563 8.54041 43.7966ZM14.1694 41.4064C13.8945 42.6792 13.524 43.6771 13.4941 44.687C13.4075 47.4835 13.3627 50.2891 13.4822 53.0826C13.6555 57.1191 16.8763 60.0382 20.853 59.9336C24.7312 59.832 27.7159 56.7217 27.7518 52.7151C27.7727 50.3249 27.7608 47.9377 27.7518 45.5475C27.7518 45.2666 27.692 44.9858 27.6472 44.6093C22.8937 44.9499 18.3881 44.4569 14.1694 41.4064ZM70.6473 11.5556C71.191 14.0175 71.2299 16.342 70.7429 18.6724C70.701 18.8756 70.6981 19.1535 70.8056 19.3118C72.2756 21.5467 72.915 24.0385 73.0345 26.7006C73.5245 26.7245 73.9219 26.7424 74.4298 26.7663C74.7764 24.0564 75.2723 21.4092 75.4128 18.7471C75.5741 15.6518 73.4856 12.6581 70.6473 11.5586V11.5556ZM68.2899 56.8831C67.5071 56.2168 66.8229 55.5894 66.0819 55.0337C65.8698 54.8723 65.4396 54.7857 65.2155 54.8902C63.4975 55.685 61.7915 56.5096 60.1094 57.3791C59.1234 57.89 59.724 58.852 59.6642 59.599C59.6433 59.8499 60.1243 60.2742 60.459 60.3937C61.6451 60.818 62.8611 61.1675 64.0801 61.4932C64.3371 61.5619 64.7882 61.5171 64.9227 61.3468C66.067 59.8948 67.1575 58.4009 68.2899 56.8861V56.8831ZM47.6653 56.8592C47.8356 57.1131 47.9671 57.3342 48.1194 57.5374C49.0546 58.7953 49.9719 60.0651 50.9519 61.2841C51.1102 61.4813 51.5972 61.5619 51.8781 61.4902C53.0672 61.1825 54.2474 60.8329 55.4007 60.4146C55.7383 60.2921 56.2342 59.8679 56.2103 59.6259C56.1356 58.849 56.778 57.8571 55.7144 57.3193C54.086 56.4977 52.4487 55.691 50.7905 54.9291C50.5306 54.8096 50.0555 54.8633 49.8225 55.0337C49.0755 55.5834 48.3973 56.2228 47.6623 56.8532L47.6653 56.8592ZM52.6549 49.9156C52.4537 51.2601 52.8959 52.1973 53.9815 52.7271C55.2841 53.3605 56.5928 54.4839 57.8954 54.4779C59.2429 54.469 60.5904 53.3695 61.926 52.7271C63.5423 51.9503 63.5394 51.9413 63.2914 49.9246C59.7718 51.1764 56.2342 51.2213 52.6549 49.9156ZM18.0983 63.1813C17.8085 64.5975 18.1252 65.6671 19.0932 66.2617C19.9657 66.7995 20.8739 66.8055 21.7135 66.2169C22.7533 65.4849 22.9206 64.4362 22.6815 63.1813H18.0983ZM93.7039 64.2061C93.5934 65.467 93.5187 66.7248 94.8184 67.2417C95.4279 67.4837 96.3959 67.3911 96.9666 67.0564C98.0362 66.429 97.8749 65.2698 97.7793 64.2061H93.7039ZM42.9147 30.1365C41.3282 30.2919 40.411 31.3287 40.5335 32.712C40.647 34.0057 41.621 34.8512 42.9147 34.7407V30.1365ZM73.0524 34.8692C74.6001 34.6182 75.4606 33.6681 75.4008 32.3953C75.3411 31.1285 74.4627 30.268 73.0524 30.1455V34.8722V34.8692ZM31.1788 51.1167C32.1707 51.287 33.0581 51.0659 33.3837 50.1696C33.6048 49.5601 33.56 48.6966 33.2911 48.099C32.9296 47.2923 32.0751 47.131 31.1788 47.3043V51.1167ZM10.0164 51.0928V47.2893C8.40895 47.2445 7.54249 47.9496 7.55743 49.2284C7.56938 50.5072 8.48663 51.2153 10.0164 51.0928Z" fill="#14599C"/>
<path d="M0.634766 75.8046C1.02318 74.5737 1.35482 73.3188 1.82091 72.1177C2.28103 70.9256 3.24608 70.5073 4.20217 70.9346C5.10448 71.3379 5.41222 72.2731 4.89234 73.4204C3.98107 75.4252 3.95418 77.5346 3.99302 79.6649C4.00796 80.5223 3.9751 81.3798 4.00199 82.2373C4.03187 83.1785 3.95418 84.0718 2.95328 84.4901C1.95536 84.9084 1.27116 84.3138 0.640741 83.6505C0.640741 81.0362 0.640741 78.4219 0.640741 75.8076L0.634766 75.8046Z" fill="#14599C"/>
<path d="M40.0554 78.5262C40.0554 77.1428 40.0435 75.7625 40.0584 74.3791C40.0734 73.2288 40.6918 72.4968 41.6479 72.455C42.6488 72.4102 43.3898 73.1661 43.4017 74.3493C43.4256 77.1518 43.4256 79.9513 43.4017 82.7539C43.3898 83.9012 42.7175 84.5973 41.7346 84.6063C40.7008 84.6153 40.0734 83.9072 40.0584 82.6732C40.0435 81.2929 40.0554 79.9095 40.0554 78.5262Z" fill="#14599C"/>
<path d="M72.5326 78.4938C72.5326 77.1135 72.5176 75.7301 72.5385 74.3498C72.5535 73.2055 73.1959 72.4764 74.1549 72.4555C75.117 72.4346 75.861 73.1517 75.8729 74.2721C75.9058 77.1105 75.9058 79.9489 75.8729 82.7872C75.861 83.9316 75.1648 84.6128 74.1729 84.6038C73.166 84.5948 72.5535 83.9256 72.5356 82.7514C72.5146 81.3322 72.5296 79.913 72.5296 78.4938H72.5326Z" fill="#14599C"/>
</svg>
