<svg width="126" height="97" viewBox="0 0 126 97" fill="none" xmlns="http://www.w3.org/2000/svg">
<path d="M120.318 0.786685C121.283 1.61081 121.598 2.42992 120.987 3.05866C120.591 3.46697 119.87 3.75253 119.291 3.75754C113.076 3.80513 106.859 3.7876 100.644 3.7876C100.309 3.7876 99.9756 3.7876 99.5899 3.7876V20.7836H118.187V14.0754C117.072 15.0799 116.022 16.0242 114.973 16.9686C114.717 17.199 114.474 17.442 114.206 17.6549C113.482 18.2311 112.753 18.2436 112.097 17.6073C110.684 16.2371 109.294 14.8444 107.924 13.4341C107.237 12.7277 107.252 11.8836 107.881 11.2673C108.475 10.6862 109.379 10.6937 110.058 11.3625C111.098 12.3921 112.094 13.4667 113.152 14.5638C115.321 12.5975 117.375 10.7388 119.429 8.87763C120.331 8.05852 121.227 7.23439 122.132 6.42029C123.106 5.54105 123.918 5.46591 124.589 6.17981C125.27 6.90625 125.113 7.76293 124.121 8.67223C123.362 9.3686 122.553 10.0199 121.849 10.7664C121.548 11.087 121.295 11.598 121.29 12.0263C121.245 15.2752 121.268 18.5241 121.265 21.7705C121.265 23.3912 120.817 23.8521 119.234 23.8521C112.33 23.8521 105.426 23.8521 98.5228 23.8521C97.0498 23.8521 96.5439 23.3562 96.5413 21.8908C96.5363 15.5182 96.5489 9.14566 96.5288 2.7731C96.5263 1.86631 96.8144 1.19749 97.631 0.78418H120.318V0.786685Z" fill="#14599C"/>
<path d="M99.5874 40.2445V57.2705H118.207V50.5072C116.924 51.6695 115.757 52.7341 114.582 53.7912C113.437 54.8207 112.808 54.8007 111.711 53.7085C110.494 52.4961 109.272 51.2862 108.067 50.0613C107.265 49.2472 107.205 48.4181 107.859 47.7543C108.508 47.0955 109.377 47.1406 110.163 47.9246C111.158 48.914 112.122 49.9311 113.164 51.0032C114.126 50.139 115.003 49.3549 115.875 48.5659C118.004 46.6371 120.138 44.7108 122.255 42.7669C122.841 42.2284 123.467 41.9829 124.208 42.3586C125.153 42.8371 125.283 43.9919 124.459 44.8009C123.612 45.6301 122.675 46.3715 121.851 47.2232C121.548 47.5363 121.295 48.0524 121.29 48.4807C121.245 51.7597 121.268 55.0411 121.265 58.3226C121.265 59.8481 120.789 60.3265 119.236 60.329C112.363 60.3341 105.489 60.3341 98.6155 60.329C97.0199 60.329 96.5414 59.8431 96.5414 58.255C96.5389 51.945 96.5389 45.6326 96.5414 39.3226C96.5414 37.727 97.0149 37.2486 98.6105 37.2461C105.484 37.241 112.358 37.2436 119.231 37.2461C119.542 37.2461 119.862 37.2511 120.16 37.3312C120.882 37.5241 121.268 38.0326 121.253 38.7741C121.238 39.513 120.839 40.014 120.11 40.1743C119.75 40.2545 119.366 40.242 118.991 40.242C112.899 40.2445 106.807 40.2445 100.715 40.2445C100.351 40.2445 99.9857 40.2445 99.5924 40.2445H99.5874Z" fill="#14599C"/>
<path d="M99.5824 76.7192V93.7277H118.197V86.9869C116.939 88.1216 115.772 89.1737 114.604 90.2308C113.43 91.2929 112.838 91.2879 111.736 90.1907C110.519 88.9783 109.299 87.7659 108.092 86.5435C107.247 85.6918 107.177 84.8427 107.866 84.1713C108.52 83.5351 109.377 83.6027 110.178 84.3993C111.173 85.3887 112.142 86.4032 113.177 87.4653C115.128 85.6994 116.994 84.011 118.86 82.3177C119.995 81.2907 121.12 80.2511 122.26 79.2291C123.114 78.4626 123.935 78.425 124.577 79.0938C125.233 79.7777 125.125 80.6594 124.263 81.4585C123.462 82.2025 122.608 82.8938 121.854 83.6829C121.551 84.001 121.293 84.512 121.285 84.9379C121.24 88.2193 121.263 91.4983 121.258 94.7798C121.258 96.3103 120.779 96.7837 119.236 96.7837C112.33 96.7837 105.424 96.7837 98.5203 96.7837C97.0549 96.7837 96.5389 96.2777 96.5364 94.8148C96.5313 88.4398 96.5313 82.0672 96.5364 75.6921C96.5364 74.2142 97.0373 73.7183 98.5027 73.7157C105.471 73.7132 112.44 73.7132 119.406 73.7157C120.596 73.7157 121.263 74.2743 121.25 75.2262C121.238 76.1105 120.594 76.7016 119.554 76.7091C117.272 76.7267 114.993 76.7141 112.711 76.7141C108.37 76.7141 104.026 76.7141 99.5773 76.7141L99.5824 76.7192Z" fill="#14599C"/>
<path d="M56.4565 5.28389C57.7766 5.71091 58.7454 6.61315 59.6913 7.58198C61.5922 9.52881 63.5161 11.4527 65.4652 13.3513C66.5603 14.4189 67.0585 15.6747 67.047 17.1922C67.0241 20.6864 67.0402 24.1806 67.0402 27.6748C67.0402 27.9847 67.0402 28.2969 67.0402 28.7033C67.4396 28.724 67.7679 28.7538 68.0985 28.7538C71.2483 28.7584 74.4005 28.7538 77.5503 28.7584C80.2295 28.763 81.6276 29.7662 82.4702 32.287C83.8844 36.5159 85.3009 40.7424 86.7036 44.9736C87.5508 47.5311 86.2674 49.2805 83.5607 49.2828C82.989 49.2828 82.4197 49.2828 81.7126 49.2828V50.3067C81.7126 58.668 81.6988 67.0316 81.7241 75.3929C81.7286 77.0137 81.1937 78.3154 80.0275 79.445C75.8307 83.5108 71.6616 87.6019 67.5062 91.7091C66.3996 92.8019 65.1369 93.2978 63.5804 93.2955C45.8224 93.2748 28.0621 93.284 10.3042 93.2817C7.19795 93.2817 5.41412 91.491 5.41412 88.371C5.41412 80.6089 5.41412 72.8491 5.41412 65.0871C5.41412 64.745 5.41412 64.4029 5.41412 63.9323C4.7139 63.9323 4.06649 63.9415 3.41907 63.9323C0.994714 63.891 -0.31848 61.928 0.611317 59.6782C2.68442 54.6573 4.77818 49.6455 6.88573 44.6384C7.05791 44.2298 7.34029 43.8418 7.65482 43.525C12.0582 39.0987 16.4867 34.6953 20.8878 30.2667C21.9209 29.2267 23.1193 28.7217 24.5771 28.7469C25.9753 28.7722 27.3734 28.7515 28.9093 28.7515C28.9093 28.3406 28.9093 28.0123 28.9093 27.684C28.9093 22.0707 28.9873 16.4552 28.8749 10.8443C28.8198 8.10313 29.7151 6.18843 32.3897 5.2793H56.4565V5.28389ZM8.34126 63.9369C8.34126 64.3363 8.34126 64.6164 8.34126 64.8965C8.34126 72.6861 8.34126 80.4758 8.34126 88.2654C8.34126 89.9046 8.79353 90.3569 10.4327 90.3569C28.1058 90.3569 45.7788 90.3569 63.4541 90.3569C65.1461 90.3569 65.5663 89.9299 65.5663 88.2103C65.5663 77.0413 65.5663 65.8722 65.5663 54.7032C65.5663 54.407 65.5663 54.1109 65.5663 53.8147C65.3459 54.0007 65.2632 54.2027 65.1897 54.4093C64.3678 56.6959 63.5482 58.9825 62.7263 61.2692C61.9435 63.4479 61.2479 63.9369 58.9176 63.9369C42.4751 63.9369 26.035 63.9369 9.59247 63.9369H8.34126ZM64.9441 46.3557C64.6135 46.3557 64.4436 46.3557 64.2737 46.3557C46.1943 46.3557 28.1172 46.358 10.0379 46.3419C9.48686 46.3419 9.23662 46.5256 9.03459 47.0191C7.21402 51.434 5.3682 55.8396 3.53386 60.2475C3.44892 60.4519 3.39382 60.6699 3.30658 60.9363C3.55453 60.9615 3.74278 60.9982 3.93333 60.9982C22.2974 61.0005 40.6638 60.9982 59.0278 61.012C59.5467 61.012 59.7694 60.8444 59.9393 60.3577C61.0045 57.3066 62.1042 54.2693 63.1947 51.2273C63.7618 49.6455 64.3288 48.0637 64.9441 46.3534V46.3557ZM55.2834 8.21103H54.3054C47.4892 8.21103 40.6729 8.21103 33.859 8.21103C32.2772 8.21103 31.8433 8.65182 31.8433 10.2635C31.8433 21.0009 31.8433 31.7383 31.8433 42.4758C31.8433 42.7765 31.8709 43.0773 31.8846 43.378H64.0373V17.1279C63.9316 17.0728 63.8811 17.0269 63.8306 17.0269C62.1134 17.0154 60.3938 17.0085 58.6766 17.0039C56.4175 16.9947 55.2903 15.879 55.2834 13.636C55.2788 11.8659 55.2834 10.0936 55.2834 8.21332V8.21103ZM68.4957 86.5688C68.7895 86.3117 68.9594 86.1785 69.1133 86.027C72.0588 83.1412 74.9928 80.2416 77.9567 77.3719C78.5628 76.7864 78.7946 76.1482 78.7946 75.3148C78.7786 61.8546 78.7831 48.3943 78.7831 34.9318C78.7831 34.6884 78.7831 34.4474 78.7831 34.002C78.4457 34.3578 78.2528 34.5507 78.0692 34.755C75.0502 38.1252 72.022 41.4886 69.0329 44.8864C68.7321 45.2284 68.5186 45.7794 68.5163 46.234C68.4888 59.3499 68.4934 72.468 68.4934 85.5839V86.5642L68.4957 86.5688ZM12.1408 43.3941H22.9678V32.5694C19.3657 36.1715 15.7727 39.7644 12.1408 43.3941ZM67.1021 31.7292V42.6089C70.3989 38.9219 73.5625 35.3864 76.8317 31.7292H67.1021ZM28.8519 43.3964V31.7682H26.0395V43.3964H28.8519ZM84.0474 46.3189C83.3128 44.1058 82.6011 41.9638 81.8894 39.8218C81.848 39.8333 81.8067 39.8425 81.7677 39.854V46.3189H84.0474ZM61.6037 14.0378C60.5017 12.9404 59.3515 11.7948 58.2771 10.7249V14.0378H61.6037Z" fill="#14599C"/>
<path d="M23.0206 87.4294C20.2427 87.4294 17.4671 87.4317 14.6892 87.4294C12.4531 87.4271 11.2845 86.2746 11.2753 84.0638C11.2707 82.8332 11.2661 81.6027 11.2753 80.3721C11.2937 78.361 12.4875 77.1511 14.4803 77.1465C20.1784 77.1374 25.8743 77.1374 31.5724 77.1465C33.5606 77.1488 34.7544 78.3679 34.7705 80.379C34.782 81.6394 34.7797 82.8975 34.7705 84.1579C34.7567 86.2149 33.5652 87.4225 31.5219 87.4271C28.6866 87.4363 25.8536 87.4294 23.0183 87.4294H23.0206ZM31.7951 80.1311H14.2713V84.4288H31.7974V80.1311H31.7951Z" fill="#14599C"/>
<path d="M58.1967 80.5397C57.6021 81.2055 57.1085 81.8024 56.569 82.3488C55.8068 83.1202 54.9298 83.1891 54.3008 82.5784C53.6648 81.9608 53.7199 81.0769 54.4707 80.3102C55.3109 79.4492 56.1604 78.5975 57.0236 77.7595C57.8616 76.9445 58.5893 76.9353 59.4135 77.7343C60.3181 78.6113 61.2111 79.4997 62.0858 80.4089C62.7723 81.1229 62.7929 81.931 62.1891 82.5486C61.5807 83.1707 60.7038 83.1432 59.9875 82.4384C59.4158 81.8782 58.8855 81.2744 58.1967 80.5397Z" fill="#14599C"/>
<path d="M58.2909 84.5006C59.2322 84.5006 60.1757 84.4822 61.117 84.5075C62.0032 84.5304 62.6162 85.1273 62.63 85.9263C62.6437 86.716 62.0376 87.3956 61.1698 87.4117C59.2299 87.4484 57.2876 87.4461 55.3477 87.4163C54.4133 87.4002 53.8279 86.7528 53.8554 85.8941C53.883 85.0654 54.4523 84.5281 55.3798 84.5075C56.3487 84.4868 57.3198 84.5029 58.2909 84.5029V84.5006Z" fill="#14599C"/>
<path d="M47.9392 39.0048C44.7343 39.0048 41.5271 39.0048 38.3221 39.0048C38.0351 39.0048 37.7459 39.0208 37.4658 38.9772C36.7541 38.8647 36.3386 38.4102 36.2559 37.7191C36.1733 37.0235 36.4786 36.4771 37.149 36.2269C37.4589 36.1098 37.8193 36.0845 38.1568 36.0822C44.6838 36.0753 51.2084 36.0753 57.7354 36.0776C57.9076 36.0776 58.0797 36.0708 58.2496 36.0868C59.1174 36.1741 59.7258 36.8146 59.6983 37.5997C59.6707 38.401 59.06 38.9933 58.1578 39.0002C55.3248 39.0186 52.4895 39.0094 49.6565 39.0094C49.0848 39.0094 48.5109 39.0094 47.9392 39.0094V39.0048Z" fill="#14599C"/>
<path d="M47.9391 27.285C44.7043 27.285 41.4695 27.285 38.2348 27.285C37.9776 27.285 37.7159 27.301 37.4634 27.2574C36.7494 27.138 36.226 26.5113 36.226 25.8157C36.226 25.0833 36.7907 24.4589 37.5529 24.3716C37.8078 24.3418 38.0672 24.3578 38.3243 24.3578C44.7365 24.3578 51.1486 24.3578 57.5608 24.3578C57.7605 24.3578 57.9625 24.3509 58.1623 24.3601C59.0485 24.4038 59.6729 24.9823 59.6982 25.7766C59.7234 26.5939 59.0714 27.2505 58.1577 27.2781C57.2991 27.3033 56.4404 27.285 55.5818 27.285C53.0335 27.285 50.4874 27.285 47.9391 27.285Z" fill="#14599C"/>
<path d="M47.9506 33.1412C44.6585 33.1412 41.3663 33.1435 38.0741 33.1412C36.917 33.1412 36.2329 32.5971 36.226 31.6925C36.2191 30.788 36.9147 30.2163 38.0535 30.2163C44.6653 30.2117 51.2772 30.2117 57.8891 30.2163C59.0118 30.2163 59.7166 30.8155 59.6936 31.7178C59.6707 32.5948 59.0003 33.1389 57.9075 33.1412C54.5878 33.1458 51.2658 33.1412 47.946 33.1412H47.9506Z" fill="#14599C"/>
<path d="M43.5311 21.4283C41.699 21.4283 39.867 21.4352 38.0349 21.4283C36.9054 21.4237 36.2098 20.8337 36.2281 19.9268C36.2465 19.0453 36.91 18.5057 38.0097 18.5034C41.7013 18.4989 45.393 18.4989 49.0869 18.5034C50.2256 18.5034 50.9189 19.0843 50.896 19.9865C50.873 20.8635 50.1981 21.4237 49.1121 21.4283C47.2525 21.4375 45.3907 21.4306 43.5311 21.4306V21.4283Z" fill="#14599C"/>
<path d="M43.584 12.6327C45.4436 12.6327 47.3054 12.6235 49.165 12.635C50.2441 12.6419 50.9121 13.2273 50.8938 14.1089C50.8754 14.9629 50.2234 15.5553 49.2041 15.5575C45.455 15.5713 41.706 15.5713 37.957 15.5575C36.8894 15.553 36.2145 14.9423 36.2282 14.0607C36.242 13.1791 36.9009 12.6373 38.0029 12.6327C39.8625 12.6235 41.7221 12.6304 43.584 12.6304V12.6327Z" fill="#14599C"/>
</svg>
