<svg width="76" height="95" viewBox="0 0 76 95" fill="none" xmlns="http://www.w3.org/2000/svg">
<path d="M7.34389 94.3106C6.65431 94.0865 5.93549 93.9305 5.28489 93.6259C2.41936 92.2858 0.891559 90.0001 0.63327 86.8568C0.61865 86.6765 0.61865 86.4913 0.61865 86.311C0.61865 63.6353 0.613777 40.9595 0.623523 18.2837C0.623523 14.4484 2.9603 11.3855 6.53979 10.5059C7.32683 10.3134 8.16262 10.2549 8.97647 10.2476C12.8362 10.2183 16.6983 10.2305 20.558 10.2256C20.6165 10.2256 20.675 10.2013 20.5994 10.2183C21.0332 9.43615 21.3377 8.67347 21.8275 8.05699C22.405 7.32843 23.2847 7.12131 24.2082 7.12618C26.0332 7.13349 27.8559 7.11156 29.6809 7.13836C30.1926 7.14567 30.3973 6.98729 30.5533 6.47802C31.6011 3.10322 34.5324 0.922391 37.9535 0.910207C41.4355 0.898024 44.3766 3.0618 45.4438 6.47559C45.6022 6.98242 45.8045 7.14567 46.3162 7.13593C47.9877 7.10669 49.6593 7.12374 51.3333 7.12618C53.6798 7.12618 54.6009 7.84988 55.2149 10.2354C55.7291 10.2354 56.2676 10.2354 56.8085 10.2354C60.2126 10.2354 63.619 10.2329 67.0231 10.2354C72.0695 10.2403 75.3785 13.5298 75.3809 18.5567C75.3833 41.0497 75.3833 63.5427 75.3809 86.0357C75.3809 90.3169 73.0856 93.1849 68.8945 94.1839C68.8092 94.2034 68.7336 94.2668 68.6557 94.3082H7.34389V94.3106ZM66.0338 70.9599C66.0338 70.4896 66.0338 70.1314 66.0338 69.7708C66.0338 53.4499 66.0338 37.1266 66.0338 20.8057C66.0338 20.623 66.0192 20.4402 66.0338 20.2599C66.085 19.7506 65.8754 19.5654 65.3564 19.5679C62.0425 19.5849 58.7286 19.5679 55.4172 19.5947C55.1565 19.5947 54.7812 19.8164 54.6594 20.043C53.6555 21.8925 52.1057 22.7112 50.0321 22.699C46.1724 22.6795 42.3103 22.6941 38.4506 22.6941C34.2546 22.6941 30.0611 22.6844 25.8651 22.699C23.8597 22.7063 22.3807 21.8681 21.3621 20.1307C21.1989 19.8505 20.7237 19.6044 20.3899 19.5996C17.2587 19.5606 14.1276 19.6069 10.9965 19.5557C10.1461 19.5411 9.93896 19.7969 9.93896 20.6254C9.96089 41.7197 9.95601 62.8117 9.95601 83.906C9.95601 84.2325 9.95601 84.5566 9.95601 84.9148H52.0253V83.8573C52.0253 80.787 52.0253 77.7168 52.0253 74.649C52.0253 72.1076 53.1632 70.9624 55.6803 70.9599C59.0844 70.9599 62.486 70.9599 66.0362 70.9599H66.0338ZM20.8163 13.347C16.8445 13.347 12.9848 13.347 9.12754 13.347C5.57973 13.347 3.73029 15.194 3.72786 18.737C3.72786 41.113 3.72786 63.489 3.72786 85.8627C3.72786 89.3471 5.58948 91.2014 9.07881 91.2014C28.3262 91.2014 47.5735 91.2014 66.8208 91.2014C70.4369 91.2014 72.2644 89.3788 72.2668 85.7725C72.2668 74.3713 72.2668 62.9725 72.2668 51.5712C72.2668 40.5355 72.2693 29.4998 72.2644 18.4641C72.2644 15.2915 70.315 13.3543 67.1425 13.347C63.4631 13.3397 59.7837 13.3446 56.1043 13.347C55.8095 13.347 55.5146 13.3738 55.2028 13.386V16.4587C58.6433 16.4587 62.0157 16.4587 65.3881 16.4587C67.9563 16.4587 69.1527 17.638 69.1527 20.1722C69.1527 37.0145 69.1479 53.8569 69.1625 70.6992C69.1625 72.3415 68.6362 73.6914 67.4544 74.8586C63.5801 78.6818 59.735 82.5317 55.9069 86.4012C54.7422 87.5805 53.3947 88.1044 51.7475 88.102C38.0047 88.0825 24.2593 88.0922 10.5164 88.0898C8.07733 88.0898 6.84924 86.8836 6.84924 84.4689C6.84681 63.0066 6.84681 41.5419 6.84924 20.0796C6.84924 17.6648 8.07489 16.4635 10.5213 16.4587C13.6232 16.4538 16.7251 16.4587 19.8246 16.4587C20.1462 16.4587 20.4679 16.4587 20.8187 16.4587V13.3446L20.8163 13.347ZM52.018 10.289H24.0132C23.9962 10.6326 23.9718 10.9298 23.9694 11.2247C23.9669 13.291 23.9645 15.3573 23.9694 17.4236C23.9694 19.1049 24.447 19.5752 26.1478 19.5776C31.5864 19.5801 37.0275 19.5776 42.4662 19.5776C45.0491 19.5776 47.632 19.5874 50.2149 19.5703C51.3625 19.563 51.9912 19.0245 52.0058 17.9597C52.0399 15.4401 52.018 12.9182 52.018 10.289ZM55.1808 82.2832C57.8953 79.5687 60.6731 76.7909 63.3413 74.1227H55.1808V82.2832ZM42.3127 7.07745C41.6109 5.15247 39.8249 3.9585 37.8414 4.01941C35.9578 4.08033 34.2546 5.32304 33.7088 7.07745H42.3127Z" fill="#14599C"/>
<path d="M27.0761 56.9367C23.5795 56.9367 20.0828 56.9416 16.5886 56.9367C14.3055 56.9319 13.0896 55.7379 13.0847 53.4572C13.0725 47.4995 13.0481 41.5418 13.1164 35.5841C13.1261 34.7337 13.4819 33.8005 13.9375 33.0646C15.0072 31.337 16.2402 29.7093 17.3927 28.0328C18.3991 26.5708 19.7685 25.8228 21.5497 25.8252C25.502 25.8301 29.4543 25.8252 33.4066 25.8276C35.3852 25.8276 36.8228 26.7316 37.778 28.4495C38.7381 30.1747 39.7395 31.8755 40.6557 33.6226C40.9262 34.1392 41.0822 34.7751 41.0846 35.3575C41.1138 41.4663 41.1114 47.5775 41.0992 53.6862C41.0968 55.655 39.8175 56.927 37.8365 56.9343C34.2497 56.9489 30.6629 56.9392 27.0737 56.9392L27.0761 56.9367ZM16.2767 35.221V53.7788H37.951V35.221H16.2767ZM36.1747 32.0217C35.7531 31.2444 35.3876 30.5913 35.0392 29.9286C34.6761 29.2414 34.1206 28.9368 33.3384 28.9393C29.4494 28.9515 25.5605 28.9344 21.674 28.9612C21.2476 28.9636 20.675 29.0587 20.424 29.3389C19.7076 30.1284 19.1228 31.0373 18.3942 32.0241H36.1747V32.0217Z" fill="#14599C"/>
<path d="M31.3232 64.5954C32.1054 63.7937 32.7974 63.0676 33.5089 62.361C34.3715 61.5057 35.3047 61.4228 35.9773 62.1222C36.6181 62.7874 36.5304 63.7231 35.7263 64.5369C34.5932 65.6846 33.4236 66.7933 32.3296 67.9751C32.0372 68.2894 31.8105 68.7962 31.8057 69.2202C31.7618 72.2588 31.7862 75.2997 31.7813 78.3407C31.7764 80.5898 30.524 81.8642 28.2968 81.8715C24.3738 81.8812 20.4532 81.8836 16.5301 81.8715C14.381 81.8642 13.1041 80.6239 13.092 78.4869C13.07 74.5054 13.0676 70.5214 13.092 66.5399C13.1041 64.4346 14.3566 63.1821 16.4497 63.1699C20.4337 63.1504 24.4152 63.1699 28.3992 63.1602C29.5688 63.1602 30.5142 63.6134 31.3256 64.5978L31.3232 64.5954ZM22.3976 73.5185C24.4932 71.4059 26.4718 69.4371 28.4114 67.4268C28.6307 67.2002 28.6209 66.7519 28.7354 66.3425H16.2743V78.6916H28.6161V71.7056C28.2993 71.998 28.0775 72.1856 27.8729 72.3928C26.4961 73.7646 25.1292 75.1487 23.7451 76.5156C22.8192 77.427 22.0589 77.427 21.1403 76.5303C20.2071 75.6165 19.2787 74.6954 18.3698 73.7573C17.6071 72.9703 17.5803 72.0833 18.265 71.4254C18.9205 70.7967 19.7782 70.8187 20.5336 71.5448C21.1452 72.1345 21.7032 72.7778 22.3976 73.5185Z" fill="#14599C"/>
<path d="M53.5921 39.81C51.6184 39.81 49.6447 39.8173 47.671 39.8076C46.46 39.8003 45.824 39.2691 45.8142 38.2895C45.8021 37.288 46.4795 36.7032 47.7197 36.7008C51.6062 36.6935 55.4952 36.6935 59.3817 36.7008C60.6049 36.7008 61.3335 37.288 61.3481 38.2456C61.3627 39.2203 60.6585 39.8027 59.4255 39.81C57.4811 39.8173 55.539 39.81 53.5946 39.81H53.5921Z" fill="#14599C"/>
<path d="M53.5044 46.0443C51.5014 46.0443 49.496 46.0687 47.4931 46.0346C46.2772 46.0151 45.5535 45.1233 45.863 44.0706C46.131 43.1617 46.8498 42.9229 47.7124 42.9254C50.8703 42.9302 54.0283 42.9254 57.1862 42.9254C58.0049 42.9254 58.8261 42.9034 59.6448 42.9351C60.678 42.9765 61.3261 43.5833 61.3432 44.4653C61.3602 45.384 60.695 46.0224 59.6083 46.0346C57.5736 46.0589 55.539 46.0419 53.5044 46.0419V46.0443Z" fill="#14599C"/>
<path d="M53.558 49.176C55.5927 49.176 57.6273 49.1492 59.6619 49.1882C61.046 49.215 61.8428 50.5478 61.0606 51.5517C60.7682 51.927 60.1566 52.2511 59.6863 52.2584C55.617 52.3144 51.5502 52.3047 47.481 52.2803C46.4283 52.273 45.8216 51.6516 45.8143 50.7379C45.807 49.7925 46.4381 49.1955 47.5492 49.1833C49.5521 49.1614 51.5575 49.176 53.5605 49.1784L53.558 49.176Z" fill="#14599C"/>
<path d="M23.1286 47.614C23.9181 47.614 24.71 47.5896 25.4995 47.6189C26.4547 47.6554 27.0712 48.2792 27.0761 49.1564C27.0809 50.0385 26.4693 50.6891 25.5215 50.7062C23.9717 50.7354 22.422 50.7378 20.8723 50.7062C19.9268 50.6842 19.3274 50.0214 19.3445 49.1321C19.3615 48.2865 19.9488 47.6701 20.8503 47.6238C21.6081 47.5872 22.3684 47.6164 23.1286 47.6164V47.614Z" fill="#14599C"/>
</svg>
