<svg width="78" height="82" viewBox="0 0 78 82" fill="none" xmlns="http://www.w3.org/2000/svg">
<g opacity="0.5">
<path d="M45.7493 81.7668C46.3827 81.432 46.6216 80.9095 46.596 80.1929C46.5576 79.1074 46.5853 78.0198 46.5853 76.8127H47.5642C55.7578 76.8127 63.9536 76.8127 72.1473 76.8127C75.5979 76.8127 77.5791 74.8272 77.5877 71.3616C77.5919 69.6321 77.5919 67.9025 77.5877 66.1729C77.5834 64.8571 77.2379 64.5094 75.9455 64.5073C74.0602 64.503 72.175 64.5073 70.1639 64.5073V63.4602C70.1639 50.4233 70.1639 37.3885 70.1639 24.3516C70.1639 24.1128 70.1746 23.8718 70.1596 23.6329C70.1127 22.8353 69.6265 22.3469 68.9163 22.3704C68.236 22.3917 67.8073 22.8652 67.7711 23.6393C67.7625 23.8249 67.7689 24.0125 67.7689 24.1981C67.7689 39.7622 67.7583 55.3262 67.7817 70.8882C67.7817 72.0313 68.0099 73.1765 68.1357 74.3601H46.645V71.8586C46.9649 71.8586 47.2507 71.8586 47.5365 71.8586C51.2089 71.8586 54.8792 71.8586 58.5516 71.8586C59.8141 71.8586 60.1618 71.5387 60.2727 70.3038C60.4347 68.4826 61.8743 67.0707 63.7212 66.9172C64.8493 66.8234 65.2055 66.4459 65.2055 65.2943C65.2055 47.3885 65.2055 29.4849 65.2055 11.5792C65.2055 10.3785 64.8835 10.0394 63.6742 9.92639C61.8423 9.75578 60.4262 8.32691 60.2684 6.48856C60.1703 5.33693 59.8077 4.99144 58.6625 4.99144C45.6789 4.99144 32.6975 4.99144 19.7139 4.99144C18.6156 4.99144 18.2317 5.35612 18.14 6.43951C17.9779 8.37169 16.5683 9.77071 14.6233 9.93066C13.5868 10.016 13.2051 10.4062 13.2029 11.4491C13.1987 19.9349 13.1987 28.4229 13.2029 36.9087C13.2029 37.8449 13.6615 38.3695 14.4164 38.3653C15.1778 38.361 15.5915 37.8577 15.5915 36.8895C15.5958 29.0136 15.5915 21.1399 15.5915 13.264C15.5915 12.9462 15.5915 12.6306 15.5915 12.2595C18.123 11.5813 19.7758 10.0202 20.4433 7.42906H57.9545C58.6177 9.96905 60.23 11.5707 62.7785 12.2403V64.5862C60.2684 65.2516 58.6284 66.8255 57.9566 69.4124H46.5853C46.5853 68.4015 46.6578 67.3736 46.5661 66.3584C46.4638 65.226 46.869 64.5414 47.7604 63.7843C52.1878 60.0245 53.8235 55.2004 52.2368 49.6086C50.6523 44.0232 46.7389 40.7304 41.0063 39.8411C34.9794 38.9048 29.0251 42.4024 26.6557 48.0624C24.3013 53.6905 26.0052 60.2697 30.8592 63.9763C31.6056 64.5457 31.8999 65.1023 31.8359 66.0108C31.7591 67.1177 31.8167 68.2352 31.8167 69.4636H20.4923C20.3921 69.1735 20.3068 68.9027 20.2087 68.6361C19.5241 66.7764 18.268 65.4542 16.3763 64.8634C15.679 64.6459 15.5787 64.3132 15.5808 63.6884C15.6 56.8255 15.5915 49.9605 15.5915 43.0955C15.5915 42.8566 15.6 42.6157 15.583 42.3768C15.5339 41.6943 15.1543 41.2849 14.4825 41.2337C13.798 41.1825 13.3864 41.5749 13.2328 42.2232C13.1795 42.4514 13.1987 42.6988 13.1987 42.9377C13.1987 50.3593 13.1987 57.7831 13.1987 65.2047C13.1987 66.4629 13.5164 66.8063 14.7576 66.9193C16.5448 67.0793 17.9737 68.5103 18.1315 70.2974C18.2403 71.5322 18.5921 71.8564 19.8483 71.8564C23.5207 71.8585 27.191 71.8564 30.8634 71.8564C31.1492 71.8564 31.435 71.8564 31.7698 71.8564V74.4177H30.9231C25.6022 74.4177 20.2812 74.4177 14.9603 74.4177C12.1494 74.4177 10.6374 72.895 10.6374 70.0629C10.6374 49.0989 10.6374 28.135 10.6288 7.16888C10.6288 5.60991 10.7291 4.02748 10.0466 2.46852C10.3196 2.45359 10.5691 2.42799 10.8165 2.42799C28.4279 2.42799 46.0415 2.42586 63.6529 2.42799C66.2057 2.42799 67.7583 3.99763 67.7625 6.57387C67.7668 10.2975 67.7625 14.0232 67.7625 17.7468C67.7625 17.9857 67.7476 18.2288 67.7753 18.4634C67.8521 19.0989 68.2104 19.4871 68.8566 19.5361C69.5476 19.5894 69.9613 19.2183 70.1212 18.5722C70.1767 18.344 70.1554 18.0966 70.1554 17.8577C70.1554 14.1064 70.1596 10.3551 70.1554 6.60372C70.149 2.65832 67.5386 0.0308964 63.6167 0.0308964C44.4356 0.0287637 25.2524 0.0287637 6.07136 0.0308964C2.9129 0.0308964 0.859161 2.04199 0.820778 5.18338C0.797318 7.04518 0.807976 8.90699 0.820778 10.7709C0.827171 11.9609 1.20892 12.3299 2.4096 12.3342C4.32046 12.3384 6.22917 12.3342 8.24453 12.3342C8.24453 12.733 8.24453 13.0699 8.24453 13.4047C8.24453 32.3469 8.24453 51.2891 8.24453 70.2313C8.24453 73.3706 10.0018 75.8167 12.8319 76.561C13.5164 76.7402 14.2501 76.7978 14.9603 76.7999C20.2535 76.8191 25.5489 76.8106 30.8421 76.8106H31.8167C31.8167 77.9771 31.8487 79.0882 31.806 80.1951C31.7783 80.9159 32.03 81.4277 32.6548 81.7668H33.4525C35.3612 80.2271 37.2699 78.6894 39.1978 77.1347C41.1599 78.715 43.0536 80.242 44.9474 81.7668H45.7451H45.7493ZM39.2191 42.1081C45.4166 42.1145 50.4006 47.1219 50.3921 53.3301C50.3836 59.4679 45.3676 64.4902 39.2298 64.5052C33.06 64.5201 28.0163 59.4785 28.0163 53.3024C28.0163 47.0985 33.0174 42.1017 39.217 42.1102L39.2191 42.1081ZM44.1541 78.0347C42.7508 76.9129 41.4883 75.8999 40.2194 74.8933C39.394 74.2365 39.0144 74.2407 38.1741 74.9061C37.528 75.4179 36.8882 75.9383 36.2441 76.4523C35.6128 76.9534 34.9773 77.4482 34.2799 77.9942V66.2049C35.9669 66.4416 37.6133 66.8553 39.2597 66.8511C40.8911 66.8468 42.5226 66.4224 44.1541 66.1836V78.0368V78.0347ZM3.2456 9.9072C3.2456 8.10938 3.19015 6.38619 3.26479 4.66728C3.31811 3.41754 4.41216 2.47065 5.64697 2.43013C6.8711 2.38961 8.11657 3.28959 8.18695 4.49027C8.29145 6.27743 8.21468 8.07738 8.21468 9.9072H3.2456ZM75.1778 66.9321C75.1778 68.6852 75.2204 70.3593 75.165 72.0292C75.118 73.4005 73.9792 74.4284 72.657 74.4156C71.2985 74.4028 70.1938 73.3151 70.1682 71.914C70.1426 70.5043 70.1618 69.0946 70.1596 67.685C70.1596 67.4333 70.1596 67.1816 70.1596 66.9321H75.1778Z" fill="white"/>
<path d="M39.2149 22.362C34.3781 22.362 29.5412 22.3535 24.7044 22.3748C24.3056 22.3748 23.8257 22.4687 23.5293 22.7011C22.8127 23.262 23.0878 24.3795 23.9793 24.6589C24.2736 24.7527 24.6063 24.7506 24.9219 24.7506C34.4356 24.7549 43.9494 24.7549 53.4631 24.7549C53.6231 24.7549 53.783 24.7613 53.9409 24.7506C54.7385 24.7037 55.2674 24.226 55.2759 23.5542C55.2844 22.844 54.747 22.3642 53.8833 22.3642C48.9931 22.3578 44.1029 22.362 39.2128 22.362H39.2149Z" fill="white"/>
<path d="M39.1957 27.3184C34.3589 27.3184 29.522 27.3078 24.6851 27.3355C24.2714 27.3376 23.7575 27.4677 23.4631 27.7322C22.817 28.3122 23.139 29.3722 23.9963 29.6281C24.2927 29.7177 24.6254 29.7091 24.9411 29.7091C34.4548 29.7134 43.9707 29.7113 53.4845 29.7113C53.6167 29.7113 53.751 29.7155 53.8833 29.7113C54.7385 29.6771 55.2823 29.2016 55.2759 28.4935C55.2716 27.7812 54.7363 27.3206 53.8662 27.3206C48.976 27.3163 44.0859 27.3184 39.1957 27.3184Z" fill="white"/>
<path d="M39.1232 17.4052C34.3076 17.4052 29.4921 17.3903 24.6766 17.4287C24.2287 17.4329 23.6572 17.6377 23.3672 17.9554C22.8233 18.5483 23.2051 19.4845 24.0091 19.7127C24.3077 19.798 24.6382 19.7959 24.956 19.7959C34.4548 19.8002 43.9515 19.8002 53.4503 19.798C53.6103 19.798 53.7702 19.8044 53.9302 19.7938C54.7662 19.7447 55.3121 19.2244 55.2737 18.5248C55.2353 17.8403 54.7256 17.4073 53.8896 17.4073C48.9675 17.4009 44.0453 17.4052 39.1232 17.4031V17.4052Z" fill="white"/>
<path d="M39.1531 9.94331C37.1356 9.94331 35.1181 9.93691 33.1006 9.94758C32.4075 9.95184 31.9191 10.2739 31.8253 10.999C31.7421 11.6366 32.0535 12.0738 32.6527 12.2828C32.8212 12.3425 33.0196 12.334 33.203 12.334C37.2123 12.3361 41.2196 12.3404 45.229 12.334C46.097 12.334 46.6088 11.8648 46.6003 11.1355C46.5939 10.4125 46.0756 9.95184 45.2034 9.94758C43.1859 9.93691 41.1684 9.94331 39.1509 9.94544L39.1531 9.94331Z" fill="white"/>
<path d="M39.1637 32.2276C37.142 32.2276 35.1202 32.2169 33.0985 32.234C32.2987 32.2404 31.8402 32.6712 31.8103 33.3515C31.7784 34.0659 32.2454 34.5436 33.0579 34.6097C33.2691 34.6268 33.4823 34.6183 33.6956 34.6183C37.368 34.6183 41.0383 34.6183 44.7107 34.6183C44.8963 34.6183 45.084 34.6247 45.2695 34.614C46.1375 34.5607 46.6301 34.0894 46.5981 33.3515C46.5662 32.6477 46.0927 32.2361 45.2311 32.2297C43.2094 32.2169 41.1876 32.2254 39.1659 32.2254L39.1637 32.2276Z" fill="white"/>
<path d="M39.1957 44.6803C34.3823 44.7294 30.5734 48.5383 30.5777 53.3005C30.5819 58.0222 34.3823 61.8652 39.1232 61.9399C45.0541 62.0337 49.3578 55.9962 47.336 50.4129C47.0183 49.5342 46.4297 49.1632 45.7259 49.3956C45.0392 49.6238 44.796 50.2892 45.0754 51.1807C46.2932 55.0578 44.0283 58.8753 40.149 59.4425C37.6261 59.8115 35.5681 58.9222 34.1157 56.8642C32.657 54.7976 32.5312 52.537 33.751 50.3148C34.9709 48.0947 36.9308 46.9815 39.4644 47.1094C40.3644 47.1542 41.2665 47.4954 42.1324 47.8047C42.9556 48.1011 43.6039 48.0094 43.9302 47.3845C44.2693 46.7341 43.9835 46.0687 43.1795 45.6422C41.934 44.9832 40.6033 44.6633 39.1936 44.6803H39.1957Z" fill="white"/>
</g>
</svg>
