<svg width="665" height="908" viewBox="0 0 665 908" fill="none" xmlns="http://www.w3.org/2000/svg">
<g opacity="0.5">
<path opacity="0.3" d="M260.206 564.679C257.372 556.895 261.386 548.287 269.171 545.454L350.38 515.896L379.937 597.105C382.771 604.89 378.757 613.497 370.972 616.331L289.763 645.888L260.206 564.679Z" fill="#96C8ED"/>
<path opacity="0.3" d="M-114.267 500.636C-119.934 485.067 -111.906 467.851 -96.3366 462.185L1.61827 426.532L37.2709 524.487C42.9377 540.056 34.9101 557.272 19.3408 562.938L-78.6141 598.591L-114.267 500.636Z" fill="#96C8ED"/>
<path opacity="0.2" d="M110.724 393.008C105.057 377.439 113.084 360.224 128.654 354.557L211.093 324.551L241.099 406.991C246.766 422.56 238.738 439.775 223.169 445.442L140.729 475.448L110.724 393.008Z" fill="#96C8ED"/>
<path opacity="0.4" d="M27.3705 857.449C23.5926 847.07 28.9444 835.593 39.3239 831.815L78.7807 817.454L93.1418 856.911C96.9196 867.29 91.5679 878.767 81.1883 882.545L41.7316 896.906L27.3705 857.449Z" fill="#96C8ED"/>
<path opacity="0.4" d="M372.786 695.6C369.953 687.816 373.966 679.208 381.751 676.375L428.365 659.409L445.807 707.329C448.64 715.114 444.626 723.722 436.842 726.555L390.228 743.521L372.786 695.6Z" fill="#96C8ED"/>
<path opacity="0.4" d="M146.635 36.321C143.801 28.5363 147.815 19.9287 155.6 17.0953L202.213 0.12924L219.655 48.05C222.489 55.8347 218.475 64.4423 210.69 67.2757L164.076 84.2418L146.635 36.321Z" fill="#96C8ED"/>
<path opacity="0.4" d="M213.105 828.102C209.327 817.723 214.679 806.246 225.058 802.468L304.84 773.43L333.878 853.211C337.655 863.591 332.304 875.068 321.924 878.846L242.143 907.884L213.105 828.102Z" fill="#96C8ED"/>
<path d="M283.047 814.906L279.712 816.12L278.741 813.453C278.274 812.168 276.926 811.469 275.749 811.897L265.024 815.801C263.85 816.228 263.267 817.63 263.735 818.915L264.706 821.582L244.648 828.882L243.336 840.689L246.775 839.437L249.203 846.107L248.646 846.31L247.082 850.655L251.073 852.979L251.682 852.758L252.334 854.548C252.498 855.001 252.981 855.24 253.414 855.083C254.707 854.612 256.161 855.333 256.654 856.689C257.148 858.046 256.498 859.532 255.204 860.003C253.911 860.474 252.458 859.753 251.964 858.396C251.799 857.944 251.316 857.705 250.884 857.862C250.451 858.02 250.235 858.513 250.4 858.966C251.225 861.228 253.647 862.428 255.802 861.644C257.956 860.86 259.041 858.383 258.218 856.121C257.497 854.141 255.549 852.973 253.629 853.242L253.246 852.188L253.854 851.967L255.419 847.621L251.426 845.298L250.87 845.5L248.442 838.831L268.347 831.586L270.531 837.588C270.934 838.695 271.99 839.361 273.026 839.254L282.759 865.994L284.947 865.198L283.127 860.195L291.332 860.041L284.947 865.198L294.43 861.746L284.698 835.005C285.562 834.422 285.941 833.233 285.538 832.126L283.353 826.124L286.688 824.91L285.778 822.409L284.045 823.04L284.581 819.12L283.047 814.906ZM246.297 836.779L246.788 832.069L250.35 835.304L246.297 836.779ZM248.163 830.435L251.625 829.175L251.091 833.094L248.163 830.435ZM253.08 834.31L253.614 830.391L256.544 833.05L253.08 834.31ZM254.356 828.181L257.818 826.921L257.284 830.84L254.356 828.181ZM259.274 832.056L259.808 828.137L262.735 830.796L259.274 832.056ZM260.55 825.927L264.012 824.666L263.478 828.585L260.55 825.927ZM267.437 829.085L265.467 829.802L266 825.883L266.405 826.25L267.437 829.085ZM290.421 857.54L282.216 857.694L288.601 852.538L290.421 857.54ZM281.306 855.193L279.485 850.191L287.691 850.039L281.306 855.193ZM286.78 847.536L278.575 847.69L284.959 842.534L286.78 847.536ZM277.665 845.189L275.845 840.188L284.049 840.033L277.665 845.189ZM283.139 837.533L277.667 837.635L282.532 835.864L283.139 837.533ZM279.306 823.111C279.598 823.913 279.274 824.776 278.587 825.026L271.082 827.758C270.395 828.008 269.594 827.555 269.302 826.752L266.726 819.674C266.432 818.866 266.754 818.004 267.441 817.754L274.946 815.022C275.633 814.772 276.436 815.225 276.73 816.032L279.306 823.111ZM282.057 821.823L281.655 821.458L280.622 818.621L282.591 817.904L282.057 821.823Z" fill="white"/>
<path opacity="0.6" d="M252.403 423.675C246.737 408.106 254.764 390.891 270.334 385.224L485.919 306.757L564.386 522.343C570.053 537.912 562.026 555.127 546.456 560.794L330.87 639.261L252.403 423.675Z" fill="#96C8ED"/>
<path d="M427.976 442.099L411.356 448.147L412.868 452.302L429.488 446.254L445.369 489.879L428.749 495.928L430.261 500.082L451.036 492.522L433.643 444.742C433.242 443.64 432.419 442.743 431.357 442.247C430.294 441.751 429.078 441.698 427.976 442.099Z" fill="white"/>
<path d="M401.094 440.12L372.508 450.524C371.34 450.949 370.389 451.821 369.863 452.947C369.338 454.074 369.282 455.363 369.707 456.531L390.788 514.45L428.182 500.84L407.101 442.921C406.676 441.753 405.804 440.802 404.677 440.276C403.551 439.751 402.262 439.695 401.094 440.12ZM422.514 498.197L416.282 500.465L414.014 494.233L397.394 500.282L399.663 506.514L393.43 508.783L373.862 455.019C373.85 454.986 373.845 454.951 373.846 454.917C373.848 454.882 373.856 454.848 373.871 454.816C373.885 454.784 373.906 454.756 373.932 454.733C373.958 454.709 373.988 454.691 374.02 454.679L402.606 444.275C402.639 444.263 402.673 444.257 402.708 444.259C402.743 444.26 402.777 444.269 402.809 444.283C402.84 444.298 402.869 444.319 402.892 444.345C402.916 444.37 402.934 444.4 402.946 444.433L422.514 498.197Z" fill="white"/>
<path d="M380.194 459.489L384.349 457.977L385.861 462.132L381.707 463.644L380.194 459.489Z" fill="white"/>
<path d="M388.504 456.465L392.659 454.953L394.171 459.107L390.016 460.62L388.504 456.465Z" fill="white"/>
<path d="M396.814 453.44L400.969 451.928L402.481 456.083L398.326 457.595L396.814 453.44Z" fill="white"/>
<path d="M383.975 469.877L388.13 468.365L389.642 472.52L385.487 474.032L383.975 469.877Z" fill="white"/>
<path d="M392.285 466.853L396.44 465.34L397.952 469.495L393.797 471.007L392.285 466.853Z" fill="white"/>
<path d="M400.594 463.828L404.749 462.316L406.262 466.471L402.107 467.983L400.594 463.828Z" fill="white"/>
<path d="M387.756 480.264L391.91 478.751L393.423 482.906L389.268 484.419L387.756 480.264Z" fill="white"/>
<path d="M396.065 477.239L400.22 475.727L401.732 479.882L397.578 481.394L396.065 477.239Z" fill="white"/>
<path d="M404.375 474.215L408.53 472.703L410.042 476.857L405.887 478.37L404.375 474.215Z" fill="white"/>
<path d="M391.536 490.65L395.691 489.138L397.203 493.293L393.048 494.805L391.536 490.65Z" fill="white"/>
<path d="M399.846 487.626L404.001 486.114L405.513 490.269L401.358 491.781L399.846 487.626Z" fill="white"/>
<path d="M408.156 484.602L412.311 483.089L413.823 487.244L409.668 488.756L408.156 484.602Z" fill="white"/>
<path d="M415.137 458.535L419.291 457.023L420.804 461.178L416.649 462.69L415.137 458.535Z" fill="white"/>
<path d="M423.446 455.511L427.601 453.998L429.113 458.153L424.959 459.666L423.446 455.511Z" fill="white"/>
<path d="M418.917 468.922L423.072 467.41L424.584 471.564L420.429 473.077L418.917 468.922Z" fill="white"/>
<path d="M427.227 465.897L431.382 464.385L432.894 468.54L428.739 470.052L427.227 465.897Z" fill="white"/>
<path d="M422.698 479.31L426.853 477.797L428.365 481.952L424.21 483.464L422.698 479.31Z" fill="white"/>
<path d="M431.007 476.284L435.162 474.772L436.675 478.927L432.52 480.439L431.007 476.284Z" fill="white"/>
<path opacity="0.3" d="M-90.7373 98.8597C-96.4041 83.2904 -88.3765 66.0751 -72.8071 60.4083L78.6376 5.28698L133.759 156.732C139.426 172.301 131.398 189.516 115.829 195.183L-35.6159 250.304L-90.7373 98.8597Z" fill="#96C8ED"/>
<path d="M35.3666 153.296C34.8754 152.985 34.4811 152.543 34.2287 152.019C33.9763 151.496 33.8757 150.912 33.9385 150.334C34.1238 148.874 33.8602 147.378 33.1946 146.053C32.7026 145.114 32.0299 144.281 31.2153 143.602C30.4112 142.932 29.4798 142.431 28.4772 142.131C25.0539 141.089 22.1097 138.869 20.1664 135.864C16.9555 146.149 20.9737 149.862 25.3802 152.818C25.8969 153.165 26.2865 153.67 26.4902 154.258C26.6938 154.846 26.7004 155.484 26.5089 156.076C26.3126 156.676 25.9497 157.207 25.4627 157.609C24.9807 158.004 24.3939 158.25 23.7742 158.317C19.4481 158.792 15.0364 158.305 11.43 156.283C9.39786 155.171 7.60066 153.675 6.13778 151.878C4.66039 150.067 3.54143 147.991 2.84069 145.762C2.84069 145.762 -0.860529 137.08 6.65991 124.518C6.65991 124.518 15.3825 109.218 8.12188 102.895C7.81879 102.565 7.6155 102.155 7.53554 101.714C7.45559 101.272 7.50222 100.817 7.67005 100.401C7.83222 99.9942 8.11568 99.6469 8.48197 99.4065C8.84826 99.1661 9.27964 99.0442 9.71756 99.0574L10.3184 99.0749C16.1652 100.349 21.4791 103.39 25.5405 107.785C29.4748 112.106 31.6157 118.033 32.126 123.82C32.9124 122.345 33.43 120.736 33.6541 119.058L33.6746 118.79C33.7623 116.816 36.2011 116.547 37.4506 117.363C37.9391 117.743 50.0657 126.383 49.3449 137.659C48.8597 141.172 47.4968 144.507 45.3821 147.354C43.6113 149.753 41.399 151.792 38.8639 153.362C38.3404 153.688 37.7337 153.855 37.1172 153.843C36.4946 153.83 35.8884 153.641 35.3679 153.299L35.3666 153.296ZM18.8614 127.704C19.1334 127.406 19.5066 127.222 19.9078 127.186C20.309 127.15 20.7092 127.265 21.0298 127.509C21.2508 127.669 21.432 127.875 21.5586 128.122L22.1771 129.318C22.9176 131.129 23.5949 133.057 24.9528 134.562C26.353 136.104 28.0871 137.289 30.0022 138.009C32.3331 138.562 34.4382 139.817 36.0336 141.604C37.5626 143.344 38.4896 145.555 38.6557 147.868C40.272 146.628 41.6327 145.086 42.6626 143.328L42.923 142.891C43.7685 141.455 44.3116 139.849 44.5151 138.171C44.7235 136.495 44.5932 134.783 44.1273 133.145C43.0196 129.375 40.4184 126.132 37.2648 123.542C36.8443 125.161 35.9798 126.611 34.7756 127.721C34.0249 128.422 33.168 128.999 32.2342 129.42C31.6973 129.655 31.1036 129.73 30.525 129.635C29.9365 129.535 29.3879 129.272 28.9417 128.876C28.5763 128.558 28.2888 128.161 28.1016 127.714C27.9143 127.267 27.8323 126.784 27.8619 126.301C28.0713 122.267 27.1208 118.224 25.1215 114.688C22.8092 110.653 19.3018 107.434 15.0829 105.476C17.4075 113.608 11.965 123.947 10.8752 126.144C10.7053 126.481 10.5213 126.812 10.3237 127.134C4.17287 137.374 7.11205 143.592 7.21543 143.876C7.97274 146.496 9.47485 148.839 11.5391 150.621C13.6954 152.462 16.2791 153.688 19.0192 154.168C14.3143 149.374 11.8044 142.479 17.852 129.081L18.8623 127.695L18.8614 127.704Z" fill="white"/>
<path opacity="0.4" d="M374.094 189.558C368.427 173.989 376.455 156.773 392.024 151.107L506.622 109.396L548.332 223.994C553.998 239.563 545.971 256.779 530.401 262.445L415.804 304.156L374.094 189.558Z" fill="#96C8ED"/>
<path d="M451.077 184.007C450.954 183.671 450.974 183.299 451.131 182.973C451.289 182.648 451.57 182.394 451.915 182.269L457.109 180.378C457.453 180.253 457.832 180.266 458.162 180.414C458.492 180.563 458.746 180.835 458.868 181.171L459.329 182.436L460.627 181.963C460.972 181.838 461.351 181.851 461.68 182C462.01 182.148 462.264 182.42 462.386 182.756L463.796 186.628C463.886 186.582 463.982 186.546 464.08 186.521C467.707 185.566 471.529 185.743 475.01 187.027C478.491 188.311 481.456 190.638 483.49 193.681C485.524 196.724 486.524 200.331 486.35 203.996C486.176 207.661 484.838 211.2 482.521 214.116L489.105 211.72C489.45 211.594 489.828 211.607 490.158 211.756C490.488 211.905 490.742 212.177 490.864 212.512C490.986 212.848 490.967 213.22 490.81 213.546C490.652 213.871 490.371 214.125 490.026 214.25L456.263 226.539C455.919 226.665 455.54 226.651 455.21 226.503C454.88 226.354 454.626 226.082 454.504 225.747C454.382 225.411 454.401 225.039 454.558 224.713C454.716 224.387 454.997 224.134 455.342 224.009L473.522 217.392C477.204 216.058 480.242 213.391 482.004 209.947C483.766 206.503 484.115 202.547 482.979 198.905C481.843 195.262 479.309 192.213 475.905 190.394C472.502 188.574 468.491 188.124 464.709 189.138L469.755 203.001C469.877 203.336 469.857 203.708 469.7 204.034C469.543 204.36 469.261 204.613 468.917 204.739L467.618 205.211L468.079 206.477C468.445 207.483 468.386 208.598 467.915 209.576C467.443 210.554 466.598 211.314 465.565 211.69C464.531 212.066 463.395 212.027 462.405 211.581C461.415 211.135 460.654 210.319 460.287 209.312L459.827 208.047L458.528 208.52C458.184 208.645 457.805 208.632 457.475 208.483C457.145 208.335 456.891 208.063 456.769 207.727L449.401 187.482C449.278 187.147 449.298 186.775 449.455 186.449C449.612 186.123 449.894 185.87 450.239 185.745L451.537 185.272L451.077 184.007ZM462.424 207.102L462.884 208.367C463.007 208.703 463.26 208.975 463.59 209.123C463.92 209.272 464.299 209.285 464.644 209.16C464.988 209.034 465.27 208.781 465.427 208.455C465.584 208.129 465.604 207.757 465.482 207.422L465.021 206.157L462.424 207.102ZM458.906 205.517L466.697 202.681L460.25 184.967L452.458 187.802L458.906 205.517ZM458.694 217.057C458.35 217.182 458.068 217.436 457.911 217.762C457.754 218.088 457.734 218.459 457.856 218.795C457.978 219.13 458.232 219.402 458.562 219.551C458.892 219.7 459.271 219.713 459.615 219.587L475.198 213.916C475.543 213.79 475.824 213.537 475.982 213.211C476.139 212.885 476.158 212.513 476.036 212.178C475.914 211.842 475.66 211.57 475.33 211.421C475 211.273 474.622 211.26 474.277 211.385L458.694 217.057Z" fill="white"/>
<path opacity="0.2" d="M524.211 675.568C518.545 659.998 526.572 642.783 542.141 637.116L624.581 607.111L654.587 689.55C660.253 705.12 652.226 722.335 636.656 728.002L554.217 758.007L524.211 675.568Z" fill="#96C8ED"/>
<path d="M576.012 672.669C574.904 673.073 574.002 673.899 573.504 674.968C573.005 676.036 572.952 677.259 573.355 678.367L579.438 695.081C579.531 695.336 579.722 695.545 579.969 695.66C580.215 695.775 580.498 695.787 580.753 695.694C581.009 695.601 581.217 695.41 581.332 695.163C581.447 694.917 581.459 694.635 581.366 694.379L575.283 677.665C574.831 676.424 575.472 675.049 576.714 674.597L591.494 669.218C592.737 668.765 594.11 669.407 594.562 670.648L596.893 677.051C597.421 676.583 598.047 676.248 598.718 676.067L596.49 669.946C596.087 668.839 595.26 667.936 594.192 667.438C593.123 666.94 591.9 666.886 590.793 667.29L576.012 672.669ZM592.227 689.433L597.051 679.087C597.225 678.715 597.47 678.38 597.773 678.103C598.075 677.826 598.43 677.61 598.815 677.47C599.201 677.329 599.611 677.266 600.021 677.284C600.431 677.302 600.834 677.401 601.206 677.574C601.578 677.747 601.912 677.992 602.19 678.295C602.467 678.598 602.682 678.952 602.823 679.338C602.963 679.724 603.026 680.133 603.008 680.543C602.991 680.954 602.892 681.356 602.719 681.728L597.893 692.076C597.612 692.679 597.172 693.195 596.621 693.568L594.482 695.011C594.425 695.051 594.365 695.086 594.302 695.116C593.639 695.654 590.742 697.247 589.342 696.793C588.395 696.486 588.127 695.294 588.212 694.558C588.227 694.439 588.102 694.336 587.999 694.394C587.199 694.835 586.612 695.554 586.025 696.276C585.237 697.244 584.445 698.213 583.13 698.516C581.814 698.817 580.903 698.269 580.345 697.703C580.116 697.471 580.388 697.103 580.709 697.152C581.431 697.261 582.363 697.272 582.983 696.878C583.426 696.594 583.931 695.866 584.496 695.051C585.514 693.584 586.726 691.833 588.134 691.881C589.371 691.921 590.548 692.676 590.446 694.115C590.433 694.291 590.569 694.454 590.746 694.432C591.335 694.359 591.777 694.153 592.153 693.767L591.903 691.366C591.833 690.705 591.945 690.037 592.227 689.433Z" fill="white"/>
<path opacity="0.6" d="M28.0683 629.891C22.4015 614.322 30.4291 597.106 45.9985 591.44L212.385 530.88L272.945 697.267C278.612 712.836 270.584 730.051 255.015 735.718L88.6281 796.278L28.0683 629.891Z" fill="#96C8ED"/>
<path d="M163.584 654.753C165.062 654.215 166.559 653.989 168.073 654.074C169.587 654.158 171.007 654.51 172.334 655.129C173.661 655.748 174.847 656.619 175.892 657.743C176.937 658.867 177.725 660.159 178.256 661.618C178.801 663.115 179.028 664.611 178.937 666.106C178.845 667.601 178.494 669.022 177.882 670.368C177.27 671.713 176.411 672.905 175.306 673.943C174.2 674.981 172.908 675.769 171.43 676.307C170.308 676.715 169.152 676.945 167.963 676.996C166.774 677.048 165.611 676.909 164.475 676.581L156.664 693.281C156.438 693.766 156.082 694.096 155.595 694.273C155.109 694.451 154.623 694.426 154.138 694.2C153.653 693.974 153.322 693.617 153.145 693.131C152.968 692.645 152.993 692.159 153.219 691.674L160.991 674.957C160.009 674.297 159.156 673.495 158.431 672.552C157.706 671.608 157.139 670.575 156.73 669.452C156.192 667.974 155.966 666.478 156.05 664.964C156.135 663.45 156.486 662.03 157.105 660.703C157.724 659.376 158.583 658.184 159.681 657.127C160.78 656.071 162.081 655.279 163.584 654.753ZM170.123 672.714C171.114 672.354 171.972 671.829 172.697 671.142C173.421 670.455 174.001 669.661 174.436 668.761C174.871 667.861 175.11 666.916 175.152 665.926C175.195 664.936 175.041 663.933 174.692 662.915C174.331 661.924 173.807 661.066 173.119 660.341C172.432 659.617 171.638 659.037 170.738 658.602C169.838 658.167 168.893 657.928 167.903 657.886C166.913 657.843 165.909 657.997 164.892 658.346C163.9 658.706 163.042 659.231 162.318 659.918C161.593 660.605 161.014 661.399 160.578 662.299C160.143 663.199 159.905 664.144 159.862 665.134C159.82 666.124 159.974 667.128 160.323 668.145C160.684 669.136 161.208 669.994 161.895 670.719C162.583 671.443 163.377 672.023 164.277 672.458C165.177 672.893 166.122 673.132 167.112 673.174C168.102 673.217 169.106 673.063 170.123 672.714ZM153.02 683.007L150.735 687.906L133.222 694.279L114.915 643.988L139.023 635.215L160.039 645.015L162.277 651.161L158.684 652.468L157.377 648.876L143.007 654.105L137.777 639.737L119.815 646.273L135.507 689.38L153.02 683.007ZM145.292 649.206L153.515 646.213L142.299 640.983L145.292 649.206Z" fill="white"/>
<path opacity="0.6" d="M-100.498 329.501C-106.164 313.932 -98.1368 296.717 -82.5675 291.05L133.018 212.583L211.485 428.169C217.152 443.738 209.124 460.954 193.555 466.62L-22.0308 545.087L-100.498 329.501Z" fill="#96C8ED"/>
<path d="M41.7316 381.93L46.8727 380.058L48.1033 383.44L42.9622 385.311L41.7316 381.93Z" fill="white"/>
<path d="M59.6121 370.004C54.7871 366.204 49.1311 363.565 43.0845 362.293C40.2885 361.698 37.3819 361.79 34.6183 362.563C31.8547 363.335 29.3183 364.763 27.2305 366.723C25.4333 368.517 24.1007 370.714 23.3477 373.122C22.5947 375.531 22.4439 378.08 22.9084 380.549C23.0605 381.393 23.2345 382.192 23.4025 382.973C21.8914 383.813 20.7266 385.155 20.1159 386.759C19.5053 388.363 19.4886 390.125 20.0687 391.729L23.8406 402.092C24.1669 402.989 24.8411 403.718 25.7146 404.118C26.5882 404.518 27.5896 404.557 28.4986 404.226L23.4961 390.482C23.1697 389.585 23.2178 388.594 23.6298 387.726C24.0418 386.858 24.7839 386.184 25.6929 385.853L57.7906 374.171C61.0951 372.973 64.7331 373.117 67.9072 374.571C71.0812 376.025 73.5321 378.67 74.7225 381.926L75.1717 383.16L71.7443 384.408C70.3868 382.93 68.5227 382.004 66.5077 381.805C64.4927 381.607 62.4679 382.15 60.8196 383.331C59.1713 384.513 58.0149 386.249 57.5711 388.21C57.1273 390.171 57.4272 392.219 58.4135 393.962C59.3999 395.706 61.0036 397.024 62.9186 397.664C64.8337 398.304 66.9261 398.222 68.7965 397.433C70.6669 396.644 72.1844 395.204 73.0593 393.387C73.9343 391.571 74.1056 389.504 73.5404 387.583L76.4023 386.542C77.3113 386.211 78.0534 385.537 78.4654 384.669C78.8774 383.801 78.9255 382.81 78.5991 381.913L78.1499 380.679C76.8151 377.033 74.234 373.973 70.8506 372.025C67.4672 370.076 63.4932 369.362 59.6121 370.004ZM33.0308 379.354L26.056 381.892C25.8653 381.368 25.8226 380.771 25.6978 380.108C25.3179 378.143 25.4531 376.11 26.0904 374.203C26.7277 372.295 27.846 370.577 29.339 369.21L33.0308 379.354ZM36.4582 378.106L32.5079 367.253C35.5582 365.678 39.055 365.19 42.4072 365.871C46.9864 366.808 51.3174 368.658 55.1376 371.307L36.4582 378.106ZM67.2418 394.432C66.3944 394.741 65.4759 394.794 64.6023 394.586C63.7287 394.378 62.9394 393.918 62.334 393.264C61.7287 392.61 61.3345 391.791 61.2015 390.911C61.0684 390.031 61.2023 389.129 61.5863 388.32C61.9704 387.511 62.5873 386.83 63.359 386.365C64.1307 385.899 65.0226 385.67 65.9218 385.704C66.8211 385.739 67.6874 386.038 68.4111 386.561C69.1348 387.085 69.6835 387.811 69.9878 388.647C70.3957 389.767 70.3356 391.007 69.8206 392.092C69.3057 393.177 68.378 394.019 67.2418 394.432Z" fill="white"/>
<path d="M44.6164 394.281C43.2589 392.804 41.3948 391.877 39.3798 391.679C37.3648 391.48 35.34 392.023 33.6916 393.205C32.0433 394.386 30.887 396.123 30.4432 398.084C29.9994 400.045 30.2993 402.092 31.2856 403.836C32.2719 405.58 33.8756 406.897 35.7907 407.537C37.7058 408.177 39.7982 408.095 41.6686 407.307C43.539 406.518 45.0564 405.078 45.9314 403.261C46.8064 401.444 46.9777 399.378 46.4125 397.457L55.4951 394.151L55.3413 393.728C54.9444 392.743 54.697 391.704 54.6072 390.645L44.6164 394.281ZM40.1653 404.287C39.3179 404.595 38.3994 404.649 37.5258 404.441C36.6522 404.233 35.8629 403.773 35.2575 403.119C34.6522 402.464 34.258 401.646 34.1249 400.766C33.9919 399.886 34.1258 398.984 34.5098 398.175C34.8939 397.366 35.5107 396.685 36.2825 396.22C37.0542 395.754 37.9461 395.524 38.8453 395.559C39.7446 395.594 40.6109 395.892 41.3346 396.416C42.0583 396.94 42.607 397.665 42.9112 398.501C43.3192 399.622 43.2591 400.862 42.7441 401.947C42.2292 403.032 41.3015 403.873 40.1653 404.287Z" fill="white"/>
<path opacity="0.6" d="M187.269 164.87C181.602 149.301 189.63 132.086 205.199 126.419L381.791 62.145L446.065 238.737C451.732 254.306 443.704 271.521 428.135 277.188L251.543 341.462L187.269 164.87Z" fill="#96C8ED"/>
<path d="M351.917 208.151L353.228 211.753L304.602 229.448L302.146 228.302L284.444 179.679L288.046 178.368L305.092 225.191L351.917 208.151Z" fill="white"/>
<path d="M331.871 175.498L320.083 200.783L317.533 201.711L309.445 197.937L301.094 215.852L297.616 214.231L306.779 194.579L309.329 193.651L317.417 197.426L329.205 172.141L331.751 171.214L341.577 175.796L339.958 179.273L331.871 175.498Z" fill="white"/>
</g>
</svg>
