<svg width="158" height="158" viewBox="0 0 158 158" fill="none" xmlns="http://www.w3.org/2000/svg">
<rect width="158" height="158" fill="#B0BFC6"/>
<g clip-path="url(#clip0_43_106)">
<path d="M79 23.5C94.3078 23.5 106.714 35.9225 106.714 51.25C106.714 66.5775 94.3078 79 79 79C63.6922 79 51.2857 66.5775 51.2857 51.25C51.2857 35.9225 63.6922 23.5 79 23.5ZM75.7739 101.373L71.7467 94.6527C70.3609 92.333 72.0281 89.4062 74.7129 89.4062H83.2654C85.9502 89.4062 87.6174 92.3547 86.2317 94.6527L82.2045 101.373L89.4362 128.235L97.9886 93.2869C114.704 95.8885 127.5 110.371 127.5 127.844C127.5 131.53 124.512 134.5 120.853 134.5H37.1471C33.4879 134.5 30.5 131.508 30.5 127.844C30.5 110.371 43.2962 95.8885 60.0114 93.2869L68.5638 128.235L75.7955 101.373H75.7739Z" fill="white"/>
</g>
<defs>
<clipPath id="clip0_43_106">
<rect width="97" height="111" fill="white" transform="translate(30.5 23.5)"/>
</clipPath>
</defs>
</svg>
